<?xml version="1.0" encoding="utf-8" standalone="no"?>
<!DOCTYPE svg PUBLIC "-//W3C//DTD SVG 1.1//EN"
  "http://www.w3.org/Graphics/SVG/1.1/DTD/svg11.dtd">
<!-- Created with matplotlib (https://matplotlib.org/) -->
<svg height="288pt" version="1.1" viewBox="0 0 720 288" width="720pt" xmlns="http://www.w3.org/2000/svg" xmlns:xlink="http://www.w3.org/1999/xlink">
 <defs>
  <style type="text/css">
*{stroke-linecap:butt;stroke-linejoin:round;}
  </style>
 </defs>
 <g id="figure_1">
  <g id="patch_1">
   <path d="M 0 288 
L 720 288 
L 720 0 
L 0 0 
z
" style="fill:none;"/>
  </g>
  <g id="axes_1">
   <g id="patch_2">
    <path d="M 71.05 237.5 
L 355.990625 237.5 
L 355.990625 27.8 
L 71.05 27.8 
z
" style="fill:none;"/>
   </g>
   <g id="matplotlib.axis_1">
    <g id="xtick_1">
     <g id="line2d_1">
      <defs>
       <path d="M 0 0 
L 0 3.5 
" id="m0410aaf266" style="stroke:#000000;stroke-width:0.8;"/>
      </defs>
      <g>
       <use style="stroke:#000000;stroke-width:0.8;" x="71.05" xlink:href="#m0410aaf266" y="237.5"/>
      </g>
     </g>
     <g id="text_1">
      <text style="font-family:DejaVu Sans;font-size:12px;font-style:normal;font-weight:normal;text-anchor:middle;" transform="rotate(-0, 71.05, 253.618125)" x="71.05" y="253.618125">0</text>
     </g>
    </g>
    <g id="xtick_2">
     <g id="line2d_2">
      <g>
       <use style="stroke:#000000;stroke-width:0.8;" x="118.540104" xlink:href="#m0410aaf266" y="237.5"/>
      </g>
     </g>
     <g id="text_2">
      <text style="font-family:DejaVu Sans;font-size:12px;font-style:normal;font-weight:normal;text-anchor:middle;" transform="rotate(-0, 118.540104, 253.618125)" x="118.540104" y="253.618125">20</text>
     </g>
    </g>
    <g id="xtick_3">
     <g id="line2d_3">
      <g>
       <use style="stroke:#000000;stroke-width:0.8;" x="166.030208" xlink:href="#m0410aaf266" y="237.5"/>
      </g>
     </g>
     <g id="text_3">
      <text style="font-family:DejaVu Sans;font-size:12px;font-style:normal;font-weight:normal;text-anchor:middle;" transform="rotate(-0, 166.030208, 253.618125)" x="166.030208" y="253.618125">40</text>
     </g>
    </g>
    <g id="xtick_4">
     <g id="line2d_4">
      <g>
       <use style="stroke:#000000;stroke-width:0.8;" x="213.520312" xlink:href="#m0410aaf266" y="237.5"/>
      </g>
     </g>
     <g id="text_4">
      <text style="font-family:DejaVu Sans;font-size:12px;font-style:normal;font-weight:normal;text-anchor:middle;" transform="rotate(-0, 213.520312, 253.618125)" x="213.520312" y="253.618125">60</text>
     </g>
    </g>
    <g id="xtick_5">
     <g id="line2d_5">
      <g>
       <use style="stroke:#000000;stroke-width:0.8;" x="261.010417" xlink:href="#m0410aaf266" y="237.5"/>
      </g>
     </g>
     <g id="text_5">
      <text style="font-family:DejaVu Sans;font-size:12px;font-style:normal;font-weight:normal;text-anchor:middle;" transform="rotate(-0, 261.010417, 253.618125)" x="261.010417" y="253.618125">80</text>
     </g>
    </g>
    <g id="xtick_6">
     <g id="line2d_6">
      <g>
       <use style="stroke:#000000;stroke-width:0.8;" x="308.500521" xlink:href="#m0410aaf266" y="237.5"/>
      </g>
     </g>
     <g id="text_6">
      <text style="font-family:DejaVu Sans;font-size:12px;font-style:normal;font-weight:normal;text-anchor:middle;" transform="rotate(-0, 308.500521, 253.618125)" x="308.500521" y="253.618125">100</text>
     </g>
    </g>
    <g id="xtick_7">
     <g id="line2d_7">
      <g>
       <use style="stroke:#000000;stroke-width:0.8;" x="355.990625" xlink:href="#m0410aaf266" y="237.5"/>
      </g>
     </g>
     <g id="text_7">
      <text style="font-family:DejaVu Sans;font-size:12px;font-style:normal;font-weight:normal;text-anchor:middle;" transform="rotate(-0, 355.990625, 253.618125)" x="355.990625" y="253.618125">120</text>
     </g>
    </g>
    <g id="text_8">
     <text style="font-family:DejaVu Sans;font-size:14px;font-style:normal;font-weight:normal;text-anchor:middle;" transform="rotate(-0, 213.520312, 270.751562)" x="213.520312" y="270.751562">Number of trees</text>
    </g>
   </g>
   <g id="matplotlib.axis_2">
    <g id="ytick_1">
     <g id="line2d_8">
      <defs>
       <path d="M 0 0 
L -3.5 0 
" id="m6c38254201" style="stroke:#000000;stroke-width:0.8;"/>
      </defs>
      <g>
       <use style="stroke:#000000;stroke-width:0.8;" x="71.05" xlink:href="#m6c38254201" y="237.5"/>
      </g>
     </g>
     <g id="text_9">
      <text style="font-family:DejaVu Sans;font-size:12px;font-style:normal;font-weight:normal;text-anchor:end;" transform="rotate(-0, 64.05, 242.059062)" x="64.05" y="242.059062">0.000</text>
     </g>
    </g>
    <g id="ytick_2">
     <g id="line2d_9">
      <g>
       <use style="stroke:#000000;stroke-width:0.8;" x="71.05" xlink:href="#m6c38254201" y="195.56"/>
      </g>
     </g>
     <g id="text_10">
      <text style="font-family:DejaVu Sans;font-size:12px;font-style:normal;font-weight:normal;text-anchor:end;" transform="rotate(-0, 64.05, 200.119062)" x="64.05" y="200.119062">0.002</text>
     </g>
    </g>
    <g id="ytick_3">
     <g id="line2d_10">
      <g>
       <use style="stroke:#000000;stroke-width:0.8;" x="71.05" xlink:href="#m6c38254201" y="153.62"/>
      </g>
     </g>
     <g id="text_11">
      <text style="font-family:DejaVu Sans;font-size:12px;font-style:normal;font-weight:normal;text-anchor:end;" transform="rotate(-0, 64.05, 158.179063)" x="64.05" y="158.179063">0.004</text>
     </g>
    </g>
    <g id="ytick_4">
     <g id="line2d_11">
      <g>
       <use style="stroke:#000000;stroke-width:0.8;" x="71.05" xlink:href="#m6c38254201" y="111.68"/>
      </g>
     </g>
     <g id="text_12">
      <text style="font-family:DejaVu Sans;font-size:12px;font-style:normal;font-weight:normal;text-anchor:end;" transform="rotate(-0, 64.05, 116.239062)" x="64.05" y="116.239062">0.006</text>
     </g>
    </g>
    <g id="ytick_5">
     <g id="line2d_12">
      <g>
       <use style="stroke:#000000;stroke-width:0.8;" x="71.05" xlink:href="#m6c38254201" y="69.74"/>
      </g>
     </g>
     <g id="text_13">
      <text style="font-family:DejaVu Sans;font-size:12px;font-style:normal;font-weight:normal;text-anchor:end;" transform="rotate(-0, 64.05, 74.299062)" x="64.05" y="74.299062">0.008</text>
     </g>
    </g>
    <g id="ytick_6">
     <g id="line2d_13">
      <g>
       <use style="stroke:#000000;stroke-width:0.8;" x="71.05" xlink:href="#m6c38254201" y="27.8"/>
      </g>
     </g>
     <g id="text_14">
      <text style="font-family:DejaVu Sans;font-size:12px;font-style:normal;font-weight:normal;text-anchor:end;" transform="rotate(-0, 64.05, 32.359062)" x="64.05" y="32.359062">0.010</text>
     </g>
    </g>
    <g id="text_15">
     <text style="font-family:DejaVu Sans;font-size:16px;font-style:normal;font-weight:normal;text-anchor:middle;" transform="rotate(-90, 22.36875, 132.65)" x="22.36875" y="132.65">Error</text>
    </g>
   </g>
   <g id="line2d_14">
    <path clip-path="url(#ped345b8a3d)" d="M 90.667984 -1 
L 92.420547 21.753604 
L 94.795052 40.565106 
L 97.169557 57.035825 
L 99.544063 75.075747 
L 101.918568 88.95751 
L 104.293073 95.61077 
L 106.667578 109.244495 
L 109.042083 116.498491 
L 111.416589 123.919113 
L 113.791094 131.124653 
L 116.165599 136.510025 
L 118.540104 146.121298 
L 120.914609 149.575586 
L 123.289115 154.3106 
L 125.66362 156.842765 
L 128.038125 158.928818 
L 130.41263 163.456823 
L 132.787135 164.781211 
L 135.161641 166.448027 
L 137.536146 169.88809 
L 139.910651 170.641062 
L 142.285156 171.105811 
L 144.659661 173.074353 
L 147.034167 174.067443 
L 149.408672 174.776858 
L 151.783177 175.485391 
L 154.157682 176.916114 
L 156.532187 177.00227 
L 158.906693 176.890545 
L 161.281198 178.014025 
L 163.655703 178.46706 
L 166.030208 178.660135 
L 168.404714 179.416843 
L 170.779219 179.305395 
L 173.153724 179.224698 
L 175.528229 179.99427 
L 177.902734 180.130806 
L 180.27724 179.972079 
L 182.651745 180.252214 
L 185.02625 180.043709 
L 187.400755 179.923016 
L 189.77526 180.105058 
L 192.149766 180.45109 
L 194.524271 180.511045 
L 196.898776 180.471932 
L 199.273281 180.330387 
L 201.647786 180.611466 
L 204.022292 180.473044 
L 206.396797 180.600422 
L 208.771302 180.416982 
L 211.145807 180.595576 
L 213.520312 180.432445 
L 215.894818 180.30521 
L 218.269323 180.251591 
L 220.643828 180.253812 
L 223.018333 180.12964 
L 225.392839 179.950024 
L 227.767344 179.934776 
L 230.141849 179.954855 
L 232.516354 180.002209 
L 234.890859 179.871981 
L 237.265365 179.803754 
L 239.63987 179.703283 
L 242.014375 178.724633 
L 244.38888 178.711874 
L 246.763385 178.64356 
L 249.137891 178.469973 
L 251.512396 178.528064 
L 253.886901 178.419632 
L 256.261406 178.416263 
L 258.635911 178.262689 
L 261.010417 178.434262 
L 263.384922 178.435691 
L 265.759427 178.422528 
L 268.133932 178.461132 
L 270.508438 178.461933 
L 272.882943 178.464534 
L 275.257448 178.406681 
L 277.631953 178.446956 
L 280.006458 178.26784 
L 282.380964 178.270543 
L 284.755469 178.1056 
L 287.129974 177.856761 
L 289.504479 177.90402 
L 291.878984 177.904608 
L 294.25349 177.65666 
L 296.627995 177.522564 
L 299.0025 177.522561 
L 301.377005 177.672534 
L 303.75151 177.505415 
L 306.126016 177.256934 
L 308.500521 177.205215 
L 310.875026 177.192574 
L 313.249531 177.20822 
L 315.624036 177.13573 
L 317.998542 177.08433 
L 320.373047 176.922945 
L 322.747552 176.022353 
L 325.122057 176.015093 
L 327.496562 176.013278 
L 329.871068 175.915626 
L 332.245573 175.977479 
L 334.620078 175.827902 
L 336.994583 175.806607 
L 339.369089 175.85516 
L 341.743594 175.99087 
L 344.118099 175.831019 
L 346.492604 175.793843 
L 348.867109 175.613068 
L 351.241615 174.777524 
L 353.61612 174.760195 
" style="fill:none;stroke:#0000ff;stroke-linecap:square;stroke-width:1.5;"/>
    <defs>
     <path d="M 0 1.5 
C 0.397805 1.5 0.77937 1.341951 1.06066 1.06066 
C 1.341951 0.77937 1.5 0.397805 1.5 0 
C 1.5 -0.397805 1.341951 -0.77937 1.06066 -1.06066 
C 0.77937 -1.341951 0.397805 -1.5 0 -1.5 
C -0.397805 -1.5 -0.77937 -1.341951 -1.06066 -1.06066 
C -1.341951 -0.77937 -1.5 -0.397805 -1.5 0 
C -1.5 0.397805 -1.341951 0.77937 -1.06066 1.06066 
C -0.77937 1.341951 -0.397805 1.5 0 1.5 
z
" id="mbfaa7ebd40" style="stroke:#0000ff;"/>
    </defs>
    <g clip-path="url(#ped345b8a3d)">
     <use style="fill:#0000ff;stroke:#0000ff;" x="90.667984" xlink:href="#mbfaa7ebd40" y="-1"/>
     <use style="fill:#0000ff;stroke:#0000ff;" x="92.420547" xlink:href="#mbfaa7ebd40" y="21.753604"/>
     <use style="fill:#0000ff;stroke:#0000ff;" x="94.795052" xlink:href="#mbfaa7ebd40" y="40.565106"/>
     <use style="fill:#0000ff;stroke:#0000ff;" x="97.169557" xlink:href="#mbfaa7ebd40" y="57.035825"/>
     <use style="fill:#0000ff;stroke:#0000ff;" x="99.544063" xlink:href="#mbfaa7ebd40" y="75.075747"/>
     <use style="fill:#0000ff;stroke:#0000ff;" x="101.918568" xlink:href="#mbfaa7ebd40" y="88.95751"/>
     <use style="fill:#0000ff;stroke:#0000ff;" x="104.293073" xlink:href="#mbfaa7ebd40" y="95.61077"/>
     <use style="fill:#0000ff;stroke:#0000ff;" x="106.667578" xlink:href="#mbfaa7ebd40" y="109.244495"/>
     <use style="fill:#0000ff;stroke:#0000ff;" x="109.042083" xlink:href="#mbfaa7ebd40" y="116.498491"/>
     <use style="fill:#0000ff;stroke:#0000ff;" x="111.416589" xlink:href="#mbfaa7ebd40" y="123.919113"/>
     <use style="fill:#0000ff;stroke:#0000ff;" x="113.791094" xlink:href="#mbfaa7ebd40" y="131.124653"/>
     <use style="fill:#0000ff;stroke:#0000ff;" x="116.165599" xlink:href="#mbfaa7ebd40" y="136.510025"/>
     <use style="fill:#0000ff;stroke:#0000ff;" x="118.540104" xlink:href="#mbfaa7ebd40" y="146.121298"/>
     <use style="fill:#0000ff;stroke:#0000ff;" x="120.914609" xlink:href="#mbfaa7ebd40" y="149.575586"/>
     <use style="fill:#0000ff;stroke:#0000ff;" x="123.289115" xlink:href="#mbfaa7ebd40" y="154.3106"/>
     <use style="fill:#0000ff;stroke:#0000ff;" x="125.66362" xlink:href="#mbfaa7ebd40" y="156.842765"/>
     <use style="fill:#0000ff;stroke:#0000ff;" x="128.038125" xlink:href="#mbfaa7ebd40" y="158.928818"/>
     <use style="fill:#0000ff;stroke:#0000ff;" x="130.41263" xlink:href="#mbfaa7ebd40" y="163.456823"/>
     <use style="fill:#0000ff;stroke:#0000ff;" x="132.787135" xlink:href="#mbfaa7ebd40" y="164.781211"/>
     <use style="fill:#0000ff;stroke:#0000ff;" x="135.161641" xlink:href="#mbfaa7ebd40" y="166.448027"/>
     <use style="fill:#0000ff;stroke:#0000ff;" x="137.536146" xlink:href="#mbfaa7ebd40" y="169.88809"/>
     <use style="fill:#0000ff;stroke:#0000ff;" x="139.910651" xlink:href="#mbfaa7ebd40" y="170.641062"/>
     <use style="fill:#0000ff;stroke:#0000ff;" x="142.285156" xlink:href="#mbfaa7ebd40" y="171.105811"/>
     <use style="fill:#0000ff;stroke:#0000ff;" x="144.659661" xlink:href="#mbfaa7ebd40" y="173.074353"/>
     <use style="fill:#0000ff;stroke:#0000ff;" x="147.034167" xlink:href="#mbfaa7ebd40" y="174.067443"/>
     <use style="fill:#0000ff;stroke:#0000ff;" x="149.408672" xlink:href="#mbfaa7ebd40" y="174.776858"/>
     <use style="fill:#0000ff;stroke:#0000ff;" x="151.783177" xlink:href="#mbfaa7ebd40" y="175.485391"/>
     <use style="fill:#0000ff;stroke:#0000ff;" x="154.157682" xlink:href="#mbfaa7ebd40" y="176.916114"/>
     <use style="fill:#0000ff;stroke:#0000ff;" x="156.532187" xlink:href="#mbfaa7ebd40" y="177.00227"/>
     <use style="fill:#0000ff;stroke:#0000ff;" x="158.906693" xlink:href="#mbfaa7ebd40" y="176.890545"/>
     <use style="fill:#0000ff;stroke:#0000ff;" x="161.281198" xlink:href="#mbfaa7ebd40" y="178.014025"/>
     <use style="fill:#0000ff;stroke:#0000ff;" x="163.655703" xlink:href="#mbfaa7ebd40" y="178.46706"/>
     <use style="fill:#0000ff;stroke:#0000ff;" x="166.030208" xlink:href="#mbfaa7ebd40" y="178.660135"/>
     <use style="fill:#0000ff;stroke:#0000ff;" x="168.404714" xlink:href="#mbfaa7ebd40" y="179.416843"/>
     <use style="fill:#0000ff;stroke:#0000ff;" x="170.779219" xlink:href="#mbfaa7ebd40" y="179.305395"/>
     <use style="fill:#0000ff;stroke:#0000ff;" x="173.153724" xlink:href="#mbfaa7ebd40" y="179.224698"/>
     <use style="fill:#0000ff;stroke:#0000ff;" x="175.528229" xlink:href="#mbfaa7ebd40" y="179.99427"/>
     <use style="fill:#0000ff;stroke:#0000ff;" x="177.902734" xlink:href="#mbfaa7ebd40" y="180.130806"/>
     <use style="fill:#0000ff;stroke:#0000ff;" x="180.27724" xlink:href="#mbfaa7ebd40" y="179.972079"/>
     <use style="fill:#0000ff;stroke:#0000ff;" x="182.651745" xlink:href="#mbfaa7ebd40" y="180.252214"/>
     <use style="fill:#0000ff;stroke:#0000ff;" x="185.02625" xlink:href="#mbfaa7ebd40" y="180.043709"/>
     <use style="fill:#0000ff;stroke:#0000ff;" x="187.400755" xlink:href="#mbfaa7ebd40" y="179.923016"/>
     <use style="fill:#0000ff;stroke:#0000ff;" x="189.77526" xlink:href="#mbfaa7ebd40" y="180.105058"/>
     <use style="fill:#0000ff;stroke:#0000ff;" x="192.149766" xlink:href="#mbfaa7ebd40" y="180.45109"/>
     <use style="fill:#0000ff;stroke:#0000ff;" x="194.524271" xlink:href="#mbfaa7ebd40" y="180.511045"/>
     <use style="fill:#0000ff;stroke:#0000ff;" x="196.898776" xlink:href="#mbfaa7ebd40" y="180.471932"/>
     <use style="fill:#0000ff;stroke:#0000ff;" x="199.273281" xlink:href="#mbfaa7ebd40" y="180.330387"/>
     <use style="fill:#0000ff;stroke:#0000ff;" x="201.647786" xlink:href="#mbfaa7ebd40" y="180.611466"/>
     <use style="fill:#0000ff;stroke:#0000ff;" x="204.022292" xlink:href="#mbfaa7ebd40" y="180.473044"/>
     <use style="fill:#0000ff;stroke:#0000ff;" x="206.396797" xlink:href="#mbfaa7ebd40" y="180.600422"/>
     <use style="fill:#0000ff;stroke:#0000ff;" x="208.771302" xlink:href="#mbfaa7ebd40" y="180.416982"/>
     <use style="fill:#0000ff;stroke:#0000ff;" x="211.145807" xlink:href="#mbfaa7ebd40" y="180.595576"/>
     <use style="fill:#0000ff;stroke:#0000ff;" x="213.520312" xlink:href="#mbfaa7ebd40" y="180.432445"/>
     <use style="fill:#0000ff;stroke:#0000ff;" x="215.894818" xlink:href="#mbfaa7ebd40" y="180.30521"/>
     <use style="fill:#0000ff;stroke:#0000ff;" x="218.269323" xlink:href="#mbfaa7ebd40" y="180.251591"/>
     <use style="fill:#0000ff;stroke:#0000ff;" x="220.643828" xlink:href="#mbfaa7ebd40" y="180.253812"/>
     <use style="fill:#0000ff;stroke:#0000ff;" x="223.018333" xlink:href="#mbfaa7ebd40" y="180.12964"/>
     <use style="fill:#0000ff;stroke:#0000ff;" x="225.392839" xlink:href="#mbfaa7ebd40" y="179.950024"/>
     <use style="fill:#0000ff;stroke:#0000ff;" x="227.767344" xlink:href="#mbfaa7ebd40" y="179.934776"/>
     <use style="fill:#0000ff;stroke:#0000ff;" x="230.141849" xlink:href="#mbfaa7ebd40" y="179.954855"/>
     <use style="fill:#0000ff;stroke:#0000ff;" x="232.516354" xlink:href="#mbfaa7ebd40" y="180.002209"/>
     <use style="fill:#0000ff;stroke:#0000ff;" x="234.890859" xlink:href="#mbfaa7ebd40" y="179.871981"/>
     <use style="fill:#0000ff;stroke:#0000ff;" x="237.265365" xlink:href="#mbfaa7ebd40" y="179.803754"/>
     <use style="fill:#0000ff;stroke:#0000ff;" x="239.63987" xlink:href="#mbfaa7ebd40" y="179.703283"/>
     <use style="fill:#0000ff;stroke:#0000ff;" x="242.014375" xlink:href="#mbfaa7ebd40" y="178.724633"/>
     <use style="fill:#0000ff;stroke:#0000ff;" x="244.38888" xlink:href="#mbfaa7ebd40" y="178.711874"/>
     <use style="fill:#0000ff;stroke:#0000ff;" x="246.763385" xlink:href="#mbfaa7ebd40" y="178.64356"/>
     <use style="fill:#0000ff;stroke:#0000ff;" x="249.137891" xlink:href="#mbfaa7ebd40" y="178.469973"/>
     <use style="fill:#0000ff;stroke:#0000ff;" x="251.512396" xlink:href="#mbfaa7ebd40" y="178.528064"/>
     <use style="fill:#0000ff;stroke:#0000ff;" x="253.886901" xlink:href="#mbfaa7ebd40" y="178.419632"/>
     <use style="fill:#0000ff;stroke:#0000ff;" x="256.261406" xlink:href="#mbfaa7ebd40" y="178.416263"/>
     <use style="fill:#0000ff;stroke:#0000ff;" x="258.635911" xlink:href="#mbfaa7ebd40" y="178.262689"/>
     <use style="fill:#0000ff;stroke:#0000ff;" x="261.010417" xlink:href="#mbfaa7ebd40" y="178.434262"/>
     <use style="fill:#0000ff;stroke:#0000ff;" x="263.384922" xlink:href="#mbfaa7ebd40" y="178.435691"/>
     <use style="fill:#0000ff;stroke:#0000ff;" x="265.759427" xlink:href="#mbfaa7ebd40" y="178.422528"/>
     <use style="fill:#0000ff;stroke:#0000ff;" x="268.133932" xlink:href="#mbfaa7ebd40" y="178.461132"/>
     <use style="fill:#0000ff;stroke:#0000ff;" x="270.508438" xlink:href="#mbfaa7ebd40" y="178.461933"/>
     <use style="fill:#0000ff;stroke:#0000ff;" x="272.882943" xlink:href="#mbfaa7ebd40" y="178.464534"/>
     <use style="fill:#0000ff;stroke:#0000ff;" x="275.257448" xlink:href="#mbfaa7ebd40" y="178.406681"/>
     <use style="fill:#0000ff;stroke:#0000ff;" x="277.631953" xlink:href="#mbfaa7ebd40" y="178.446956"/>
     <use style="fill:#0000ff;stroke:#0000ff;" x="280.006458" xlink:href="#mbfaa7ebd40" y="178.26784"/>
     <use style="fill:#0000ff;stroke:#0000ff;" x="282.380964" xlink:href="#mbfaa7ebd40" y="178.270543"/>
     <use style="fill:#0000ff;stroke:#0000ff;" x="284.755469" xlink:href="#mbfaa7ebd40" y="178.1056"/>
     <use style="fill:#0000ff;stroke:#0000ff;" x="287.129974" xlink:href="#mbfaa7ebd40" y="177.856761"/>
     <use style="fill:#0000ff;stroke:#0000ff;" x="289.504479" xlink:href="#mbfaa7ebd40" y="177.90402"/>
     <use style="fill:#0000ff;stroke:#0000ff;" x="291.878984" xlink:href="#mbfaa7ebd40" y="177.904608"/>
     <use style="fill:#0000ff;stroke:#0000ff;" x="294.25349" xlink:href="#mbfaa7ebd40" y="177.65666"/>
     <use style="fill:#0000ff;stroke:#0000ff;" x="296.627995" xlink:href="#mbfaa7ebd40" y="177.522564"/>
     <use style="fill:#0000ff;stroke:#0000ff;" x="299.0025" xlink:href="#mbfaa7ebd40" y="177.522561"/>
     <use style="fill:#0000ff;stroke:#0000ff;" x="301.377005" xlink:href="#mbfaa7ebd40" y="177.672534"/>
     <use style="fill:#0000ff;stroke:#0000ff;" x="303.75151" xlink:href="#mbfaa7ebd40" y="177.505415"/>
     <use style="fill:#0000ff;stroke:#0000ff;" x="306.126016" xlink:href="#mbfaa7ebd40" y="177.256934"/>
     <use style="fill:#0000ff;stroke:#0000ff;" x="308.500521" xlink:href="#mbfaa7ebd40" y="177.205215"/>
     <use style="fill:#0000ff;stroke:#0000ff;" x="310.875026" xlink:href="#mbfaa7ebd40" y="177.192574"/>
     <use style="fill:#0000ff;stroke:#0000ff;" x="313.249531" xlink:href="#mbfaa7ebd40" y="177.20822"/>
     <use style="fill:#0000ff;stroke:#0000ff;" x="315.624036" xlink:href="#mbfaa7ebd40" y="177.13573"/>
     <use style="fill:#0000ff;stroke:#0000ff;" x="317.998542" xlink:href="#mbfaa7ebd40" y="177.08433"/>
     <use style="fill:#0000ff;stroke:#0000ff;" x="320.373047" xlink:href="#mbfaa7ebd40" y="176.922945"/>
     <use style="fill:#0000ff;stroke:#0000ff;" x="322.747552" xlink:href="#mbfaa7ebd40" y="176.022353"/>
     <use style="fill:#0000ff;stroke:#0000ff;" x="325.122057" xlink:href="#mbfaa7ebd40" y="176.015093"/>
     <use style="fill:#0000ff;stroke:#0000ff;" x="327.496562" xlink:href="#mbfaa7ebd40" y="176.013278"/>
     <use style="fill:#0000ff;stroke:#0000ff;" x="329.871068" xlink:href="#mbfaa7ebd40" y="175.915626"/>
     <use style="fill:#0000ff;stroke:#0000ff;" x="332.245573" xlink:href="#mbfaa7ebd40" y="175.977479"/>
     <use style="fill:#0000ff;stroke:#0000ff;" x="334.620078" xlink:href="#mbfaa7ebd40" y="175.827902"/>
     <use style="fill:#0000ff;stroke:#0000ff;" x="336.994583" xlink:href="#mbfaa7ebd40" y="175.806607"/>
     <use style="fill:#0000ff;stroke:#0000ff;" x="339.369089" xlink:href="#mbfaa7ebd40" y="175.85516"/>
     <use style="fill:#0000ff;stroke:#0000ff;" x="341.743594" xlink:href="#mbfaa7ebd40" y="175.99087"/>
     <use style="fill:#0000ff;stroke:#0000ff;" x="344.118099" xlink:href="#mbfaa7ebd40" y="175.831019"/>
     <use style="fill:#0000ff;stroke:#0000ff;" x="346.492604" xlink:href="#mbfaa7ebd40" y="175.793843"/>
     <use style="fill:#0000ff;stroke:#0000ff;" x="348.867109" xlink:href="#mbfaa7ebd40" y="175.613068"/>
     <use style="fill:#0000ff;stroke:#0000ff;" x="351.241615" xlink:href="#mbfaa7ebd40" y="174.777524"/>
     <use style="fill:#0000ff;stroke:#0000ff;" x="353.61612" xlink:href="#mbfaa7ebd40" y="174.760195"/>
    </g>
   </g>
   <g id="line2d_15">
    <path clip-path="url(#ped345b8a3d)" d="M 204.022292 237.5 
L 204.022292 180.611466 
" style="fill:none;stroke:#000000;stroke-dasharray:5.55,2.4;stroke-dashoffset:0;stroke-width:1.5;"/>
   </g>
   <g id="line2d_16">
    <path clip-path="url(#ped345b8a3d)" d="M 71.05 180.611466 
L 355.990625 180.611466 
" style="fill:none;stroke:#000000;stroke-dasharray:5.55,2.4;stroke-dashoffset:0;stroke-width:1.5;"/>
   </g>
   <g id="line2d_17">
    <defs>
     <path d="M 0 3 
C 0.795609 3 1.55874 2.683901 2.12132 2.12132 
C 2.683901 1.55874 3 0.795609 3 0 
C 3 -0.795609 2.683901 -1.55874 2.12132 -2.12132 
C 1.55874 -2.683901 0.795609 -3 0 -3 
C -0.795609 -3 -1.55874 -2.683901 -2.12132 -2.12132 
C -2.683901 -1.55874 -3 -0.795609 -3 0 
C -3 0.795609 -2.683901 1.55874 -2.12132 2.12132 
C -1.55874 2.683901 -0.795609 3 0 3 
z
" id="m6ec3dfdecf" style="stroke:#000000;"/>
    </defs>
    <g clip-path="url(#ped345b8a3d)">
     <use style="stroke:#000000;" x="204.022292" xlink:href="#m6ec3dfdecf" y="180.611466"/>
    </g>
   </g>
   <g id="patch_3">
    <path d="M 71.05 237.5 
L 71.05 27.8 
" style="fill:none;stroke:#000000;stroke-linecap:square;stroke-linejoin:miter;stroke-width:0.8;"/>
   </g>
   <g id="patch_4">
    <path d="M 355.990625 237.5 
L 355.990625 27.8 
" style="fill:none;stroke:#000000;stroke-linecap:square;stroke-linejoin:miter;stroke-width:0.8;"/>
   </g>
   <g id="patch_5">
    <path d="M 71.05 237.5 
L 355.990625 237.5 
" style="fill:none;stroke:#000000;stroke-linecap:square;stroke-linejoin:miter;stroke-width:0.8;"/>
   </g>
   <g id="patch_6">
    <path d="M 71.05 27.8 
L 355.990625 27.8 
" style="fill:none;stroke:#000000;stroke-linecap:square;stroke-linejoin:miter;stroke-width:0.8;"/>
   </g>
   <g id="text_16">
    <text style="font-family:DejaVu Sans;font-size:14px;font-style:normal;font-weight:normal;text-anchor:middle;" transform="rotate(-0, 204.022292, 169.233759)" x="204.022292" y="169.233759">Minimum</text>
   </g>
   <g id="text_17">
    <text style="font-family:DejaVu Sans;font-size:14px;font-style:normal;font-weight:normal;text-anchor:middle;" transform="rotate(-0, 213.520312, 21.8)" x="213.520312" y="21.8">Validation error</text>
   </g>
  </g>
  <g id="axes_2">
   <g id="patch_7">
    <path d="M 424.259375 237.5 
L 709.2 237.5 
L 709.2 27.8 
L 424.259375 27.8 
z
" style="fill:none;"/>
   </g>
   <g id="matplotlib.axis_3">
    <g id="xtick_8">
     <g id="line2d_18">
      <g>
       <use style="stroke:#000000;stroke-width:0.8;" x="452.753438" xlink:href="#m0410aaf266" y="237.5"/>
      </g>
     </g>
     <g id="text_18">
      <text style="font-family:DejaVu Sans;font-size:12px;font-style:normal;font-weight:normal;text-anchor:middle;" transform="rotate(-0, 452.753438, 253.618125)" x="452.753438" y="253.618125">−0.4</text>
     </g>
    </g>
    <g id="xtick_9">
     <g id="line2d_19">
      <g>
       <use style="stroke:#000000;stroke-width:0.8;" x="509.741563" xlink:href="#m0410aaf266" y="237.5"/>
      </g>
     </g>
     <g id="text_19">
      <text style="font-family:DejaVu Sans;font-size:12px;font-style:normal;font-weight:normal;text-anchor:middle;" transform="rotate(-0, 509.741563, 253.618125)" x="509.741563" y="253.618125">−0.2</text>
     </g>
    </g>
    <g id="xtick_10">
     <g id="line2d_20">
      <g>
       <use style="stroke:#000000;stroke-width:0.8;" x="566.729688" xlink:href="#m0410aaf266" y="237.5"/>
      </g>
     </g>
     <g id="text_20">
      <text style="font-family:DejaVu Sans;font-size:12px;font-style:normal;font-weight:normal;text-anchor:middle;" transform="rotate(-0, 566.729688, 253.618125)" x="566.729688" y="253.618125">0.0</text>
     </g>
    </g>
    <g id="xtick_11">
     <g id="line2d_21">
      <g>
       <use style="stroke:#000000;stroke-width:0.8;" x="623.717813" xlink:href="#m0410aaf266" y="237.5"/>
      </g>
     </g>
     <g id="text_21">
      <text style="font-family:DejaVu Sans;font-size:12px;font-style:normal;font-weight:normal;text-anchor:middle;" transform="rotate(-0, 623.717813, 253.618125)" x="623.717813" y="253.618125">0.2</text>
     </g>
    </g>
    <g id="xtick_12">
     <g id="line2d_22">
      <g>
       <use style="stroke:#000000;stroke-width:0.8;" x="680.705938" xlink:href="#m0410aaf266" y="237.5"/>
      </g>
     </g>
     <g id="text_22">
      <text style="font-family:DejaVu Sans;font-size:12px;font-style:normal;font-weight:normal;text-anchor:middle;" transform="rotate(-0, 680.705938, 253.618125)" x="680.705938" y="253.618125">0.4</text>
     </g>
    </g>
    <g id="text_23">
     <!-- $x_1$ -->
     <g transform="translate(558.169688 272.27125)">
      <text>
       <tspan style="font-family:DejaVu Sans;font-size:16px;font-style:oblique;font-weight:oblique;" x="0" y="-0.25">x</tspan>
       <tspan style="font-family:DejaVu Sans;font-size:11.2px;font-style:book;font-weight:book;" x="9.46875" y="2.375">1</tspan>
      </text>
     </g>
    </g>
   </g>
   <g id="matplotlib.axis_4">
    <g id="ytick_7">
     <g id="line2d_23">
      <g>
       <use style="stroke:#000000;stroke-width:0.8;" x="424.259375" xlink:href="#m6c38254201" y="214.2"/>
      </g>
     </g>
     <g id="text_24">
      <text style="font-family:DejaVu Sans;font-size:12px;font-style:normal;font-weight:normal;text-anchor:end;" transform="rotate(-0, 417.259375, 218.759062)" x="417.259375" y="218.759062">0.0</text>
     </g>
    </g>
    <g id="ytick_8">
     <g id="line2d_24">
      <g>
       <use style="stroke:#000000;stroke-width:0.8;" x="424.259375" xlink:href="#m6c38254201" y="167.6"/>
      </g>
     </g>
     <g id="text_25">
      <text style="font-family:DejaVu Sans;font-size:12px;font-style:normal;font-weight:normal;text-anchor:end;" transform="rotate(-0, 417.259375, 172.159062)" x="417.259375" y="172.159062">0.2</text>
     </g>
    </g>
    <g id="ytick_9">
     <g id="line2d_25">
      <g>
       <use style="stroke:#000000;stroke-width:0.8;" x="424.259375" xlink:href="#m6c38254201" y="121"/>
      </g>
     </g>
     <g id="text_26">
      <text style="font-family:DejaVu Sans;font-size:12px;font-style:normal;font-weight:normal;text-anchor:end;" transform="rotate(-0, 417.259375, 125.559062)" x="417.259375" y="125.559062">0.4</text>
     </g>
    </g>
    <g id="ytick_10">
     <g id="line2d_26">
      <g>
       <use style="stroke:#000000;stroke-width:0.8;" x="424.259375" xlink:href="#m6c38254201" y="74.4"/>
      </g>
     </g>
     <g id="text_27">
      <text style="font-family:DejaVu Sans;font-size:12px;font-style:normal;font-weight:normal;text-anchor:end;" transform="rotate(-0, 417.259375, 78.959062)" x="417.259375" y="78.959062">0.6</text>
     </g>
    </g>
    <g id="ytick_11">
     <g id="line2d_27">
      <g>
       <use style="stroke:#000000;stroke-width:0.8;" x="424.259375" xlink:href="#m6c38254201" y="27.8"/>
      </g>
     </g>
     <g id="text_28">
      <text style="font-family:DejaVu Sans;font-size:12px;font-style:normal;font-weight:normal;text-anchor:end;" transform="rotate(-0, 417.259375, 32.359062)" x="417.259375" y="32.359062">0.8</text>
     </g>
    </g>
    <g id="text_29">
     <!-- $y$ -->
     <g transform="translate(389.375625 129.29)">
      <text>
       <tspan style="font-family:DejaVu Sans;font-size:16px;font-style:oblique;font-weight:oblique;" x="0" y="-0.25">y</tspan>
      </text>
     </g>
    </g>
   </g>
   <g id="line2d_28">
    <g clip-path="url(#p3ee7888494)">
     <use style="fill:#0000ff;stroke:#0000ff;" x="530.981071" xlink:href="#mbfaa7ebd40" y="202.183515"/>
     <use style="fill:#0000ff;stroke:#0000ff;" x="695.156504" xlink:href="#mbfaa7ebd40" y="75.686209"/>
     <use style="fill:#0000ff;stroke:#0000ff;" x="632.834186" xlink:href="#mbfaa7ebd40" y="175.509976"/>
     <use style="fill:#0000ff;stroke:#0000ff;" x="594.841498" xlink:href="#mbfaa7ebd40" y="230.551464"/>
     <use style="fill:#0000ff;stroke:#0000ff;" x="468.715424" xlink:href="#mbfaa7ebd40" y="134.051278"/>
     <use style="fill:#0000ff;stroke:#0000ff;" x="468.708551" xlink:href="#mbfaa7ebd40" y="127.320139"/>
     <use style="fill:#0000ff;stroke:#0000ff;" x="440.809756" xlink:href="#mbfaa7ebd40" y="60.474759"/>
     <use style="fill:#0000ff;stroke:#0000ff;" x="671.068147" xlink:href="#mbfaa7ebd40" y="126.512454"/>
     <use style="fill:#0000ff;stroke:#0000ff;" x="595.541462" xlink:href="#mbfaa7ebd40" y="216.472203"/>
     <use style="fill:#0000ff;stroke:#0000ff;" x="626.018018" xlink:href="#mbfaa7ebd40" y="189.782825"/>
     <use style="fill:#0000ff;stroke:#0000ff;" x="430.124734" xlink:href="#mbfaa7ebd40" y="42.877946"/>
     <use style="fill:#0000ff;stroke:#0000ff;" x="700.626094" xlink:href="#mbfaa7ebd40" y="56.020176"/>
     <use style="fill:#0000ff;stroke:#0000ff;" x="661.456101" xlink:href="#mbfaa7ebd40" y="143.119548"/>
     <use style="fill:#0000ff;stroke:#0000ff;" x="484.763414" xlink:href="#mbfaa7ebd40" y="150.379032"/>
     <use style="fill:#0000ff;stroke:#0000ff;" x="476.068695" xlink:href="#mbfaa7ebd40" y="142.305536"/>
     <use style="fill:#0000ff;stroke:#0000ff;" x="476.518771" xlink:href="#mbfaa7ebd40" y="132.852625"/>
     <use style="fill:#0000ff;stroke:#0000ff;" x="510.95035" xlink:href="#mbfaa7ebd40" y="195.59247"/>
     <use style="fill:#0000ff;stroke:#0000ff;" x="573.783801" xlink:href="#mbfaa7ebd40" y="217.58886"/>
     <use style="fill:#0000ff;stroke:#0000ff;" x="547.338059" xlink:href="#mbfaa7ebd40" y="215.530655"/>
     <use style="fill:#0000ff;stroke:#0000ff;" x="507.242388" xlink:href="#mbfaa7ebd40" y="200.783844"/>
     <use style="fill:#0000ff;stroke:#0000ff;" x="598.601121" xlink:href="#mbfaa7ebd40" y="202.004961"/>
     <use style="fill:#0000ff;stroke:#0000ff;" x="464.006843" xlink:href="#mbfaa7ebd40" y="120.313397"/>
     <use style="fill:#0000ff;stroke:#0000ff;" x="507.503254" xlink:href="#mbfaa7ebd40" y="183.940939"/>
     <use style="fill:#0000ff;stroke:#0000ff;" x="528.650748" xlink:href="#mbfaa7ebd40" y="204.449389"/>
     <use style="fill:#0000ff;stroke:#0000ff;" x="554.212241" xlink:href="#mbfaa7ebd40" y="229.340107"/>
     <use style="fill:#0000ff;stroke:#0000ff;" x="647.987904" xlink:href="#mbfaa7ebd40" y="162.254113"/>
     <use style="fill:#0000ff;stroke:#0000ff;" x="481.154547" xlink:href="#mbfaa7ebd40" y="155.145734"/>
     <use style="fill:#0000ff;stroke:#0000ff;" x="570.785657" xlink:href="#mbfaa7ebd40" y="223.404899"/>
     <use style="fill:#0000ff;stroke:#0000ff;" x="593.062353" xlink:href="#mbfaa7ebd40" y="210.109202"/>
     <use style="fill:#0000ff;stroke:#0000ff;" x="437.494985" xlink:href="#mbfaa7ebd40" y="65.703455"/>
     <use style="fill:#0000ff;stroke:#0000ff;" x="597.373585" xlink:href="#mbfaa7ebd40" y="184.141374"/>
     <use style="fill:#0000ff;stroke:#0000ff;" x="472.848625" xlink:href="#mbfaa7ebd40" y="136.286676"/>
     <use style="fill:#0000ff;stroke:#0000ff;" x="442.795217" xlink:href="#mbfaa7ebd40" y="78.962636"/>
     <use style="fill:#0000ff;stroke:#0000ff;" x="694.635413" xlink:href="#mbfaa7ebd40" y="74.220035"/>
     <use style="fill:#0000ff;stroke:#0000ff;" x="699.40717" xlink:href="#mbfaa7ebd40" y="85.001265"/>
     <use style="fill:#0000ff;stroke:#0000ff;" x="654.604621" xlink:href="#mbfaa7ebd40" y="148.027749"/>
     <use style="fill:#0000ff;stroke:#0000ff;" x="511.056213" xlink:href="#mbfaa7ebd40" y="186.813448"/>
     <use style="fill:#0000ff;stroke:#0000ff;" x="452.090128" xlink:href="#mbfaa7ebd40" y="72.357688"/>
     <use style="fill:#0000ff;stroke:#0000ff;" x="619.225161" xlink:href="#mbfaa7ebd40" y="192.715681"/>
     <use style="fill:#0000ff;stroke:#0000ff;" x="549.676702" xlink:href="#mbfaa7ebd40" y="208.183348"/>
     <use style="fill:#0000ff;stroke:#0000ff;" x="459.033026" xlink:href="#mbfaa7ebd40" y="114.74868"/>
     <use style="fill:#0000ff;stroke:#0000ff;" x="565.355393" xlink:href="#mbfaa7ebd40" y="227.798839"/>
     <use style="fill:#0000ff;stroke:#0000ff;" x="434.058062" xlink:href="#mbfaa7ebd40" y="49.347074"/>
     <use style="fill:#0000ff;stroke:#0000ff;" x="683.361699" xlink:href="#mbfaa7ebd40" y="88.327289"/>
     <use style="fill:#0000ff;stroke:#0000ff;" x="497.996305" xlink:href="#mbfaa7ebd40" y="164.311697"/>
     <use style="fill:#0000ff;stroke:#0000ff;" x="613.038889" xlink:href="#mbfaa7ebd40" y="206.331332"/>
     <use style="fill:#0000ff;stroke:#0000ff;" x="513.078524" xlink:href="#mbfaa7ebd40" y="173.075996"/>
     <use style="fill:#0000ff;stroke:#0000ff;" x="572.447882" xlink:href="#mbfaa7ebd40" y="230.25006"/>
     <use style="fill:#0000ff;stroke:#0000ff;" x="580.039344" xlink:href="#mbfaa7ebd40" y="205.838002"/>
     <use style="fill:#0000ff;stroke:#0000ff;" x="476.931919" xlink:href="#mbfaa7ebd40" y="119.258809"/>
     <use style="fill:#0000ff;stroke:#0000ff;" x="700.533425" xlink:href="#mbfaa7ebd40" y="71.603452"/>
     <use style="fill:#0000ff;stroke:#0000ff;" x="645.126206" xlink:href="#mbfaa7ebd40" y="167.884417"/>
     <use style="fill:#0000ff;stroke:#0000ff;" x="691.960791" xlink:href="#mbfaa7ebd40" y="78.020697"/>
     <use style="fill:#0000ff;stroke:#0000ff;" x="679.232039" xlink:href="#mbfaa7ebd40" y="111.099334"/>
     <use style="fill:#0000ff;stroke:#0000ff;" x="594.625369" xlink:href="#mbfaa7ebd40" y="225.565729"/>
     <use style="fill:#0000ff;stroke:#0000ff;" x="686.938796" xlink:href="#mbfaa7ebd40" y="88.99471"/>
     <use style="fill:#0000ff;stroke:#0000ff;" x="449.474484" xlink:href="#mbfaa7ebd40" y="108.208282"/>
     <use style="fill:#0000ff;stroke:#0000ff;" x="480.102854" xlink:href="#mbfaa7ebd40" y="144.076581"/>
     <use style="fill:#0000ff;stroke:#0000ff;" x="437.146467" xlink:href="#mbfaa7ebd40" y="80.345357"/>
     <use style="fill:#0000ff;stroke:#0000ff;" x="516.959203" xlink:href="#mbfaa7ebd40" y="174.817128"/>
     <use style="fill:#0000ff;stroke:#0000ff;" x="535.009325" xlink:href="#mbfaa7ebd40" y="214.662372"/>
     <use style="fill:#0000ff;stroke:#0000ff;" x="501.577738" xlink:href="#mbfaa7ebd40" y="181.407412"/>
     <use style="fill:#0000ff;stroke:#0000ff;" x="660.400359" xlink:href="#mbfaa7ebd40" y="129.182748"/>
     <use style="fill:#0000ff;stroke:#0000ff;" x="525.912891" xlink:href="#mbfaa7ebd40" y="214.196362"/>
     <use style="fill:#0000ff;stroke:#0000ff;" x="504.30903" xlink:href="#mbfaa7ebd40" y="178.005299"/>
     <use style="fill:#0000ff;stroke:#0000ff;" x="578.895536" xlink:href="#mbfaa7ebd40" y="197.697541"/>
     <use style="fill:#0000ff;stroke:#0000ff;" x="464.414412" xlink:href="#mbfaa7ebd40" y="142.801327"/>
     <use style="fill:#0000ff;stroke:#0000ff;" x="652.837884" xlink:href="#mbfaa7ebd40" y="148.214228"/>
     <use style="fill:#0000ff;stroke:#0000ff;" x="445.501882" xlink:href="#mbfaa7ebd40" y="84.648364"/>
     <use style="fill:#0000ff;stroke:#0000ff;" x="705.463556" xlink:href="#mbfaa7ebd40" y="39.3876"/>
     <use style="fill:#0000ff;stroke:#0000ff;" x="644.303282" xlink:href="#mbfaa7ebd40" y="176.802543"/>
     <use style="fill:#0000ff;stroke:#0000ff;" x="480.881545" xlink:href="#mbfaa7ebd40" y="166.133523"/>
     <use style="fill:#0000ff;stroke:#0000ff;" x="425.832851" xlink:href="#mbfaa7ebd40" y="37.208025"/>
     <use style="fill:#0000ff;stroke:#0000ff;" x="656.617464" xlink:href="#mbfaa7ebd40" y="141.178505"/>
     <use style="fill:#0000ff;stroke:#0000ff;" x="625.671748" xlink:href="#mbfaa7ebd40" y="181.371576"/>
     <use style="fill:#0000ff;stroke:#0000ff;" x="631.983133" xlink:href="#mbfaa7ebd40" y="173.505325"/>
     <use style="fill:#0000ff;stroke:#0000ff;" x="644.02563" xlink:href="#mbfaa7ebd40" y="170.684555"/>
     <use style="fill:#0000ff;stroke:#0000ff;" x="445.357704" xlink:href="#mbfaa7ebd40" y="84.669111"/>
     <use style="fill:#0000ff;stroke:#0000ff;" x="526.400824" xlink:href="#mbfaa7ebd40" y="196.783373"/>
     <use style="fill:#0000ff;stroke:#0000ff;" x="457.275177" xlink:href="#mbfaa7ebd40" y="119.380145"/>
     <use style="fill:#0000ff;stroke:#0000ff;" x="670.192605" xlink:href="#mbfaa7ebd40" y="100.304703"/>
     <use style="fill:#0000ff;stroke:#0000ff;" x="601.862333" xlink:href="#mbfaa7ebd40" y="198.053349"/>
     <use style="fill:#0000ff;stroke:#0000ff;" x="518.545665" xlink:href="#mbfaa7ebd40" y="208.090447"/>
     <use style="fill:#0000ff;stroke:#0000ff;" x="442.369731" xlink:href="#mbfaa7ebd40" y="73.404712"/>
     <use style="fill:#0000ff;stroke:#0000ff;" x="512.870872" xlink:href="#mbfaa7ebd40" y="200.581391"/>
     <use style="fill:#0000ff;stroke:#0000ff;" x="516.917314" xlink:href="#mbfaa7ebd40" y="183.668416"/>
     <use style="fill:#0000ff;stroke:#0000ff;" x="632.153815" xlink:href="#mbfaa7ebd40" y="163.851783"/>
     <use style="fill:#0000ff;stroke:#0000ff;" x="605.925399" xlink:href="#mbfaa7ebd40" y="210.534431"/>
     <use style="fill:#0000ff;stroke:#0000ff;" x="677.062328" xlink:href="#mbfaa7ebd40" y="98.173006"/>
     <use style="fill:#0000ff;stroke:#0000ff;" x="558.812591" xlink:href="#mbfaa7ebd40" y="208.851467"/>
     <use style="fill:#0000ff;stroke:#0000ff;" x="458.336634" xlink:href="#mbfaa7ebd40" y="103.471731"/>
     <use style="fill:#0000ff;stroke:#0000ff;" x="627.49179" xlink:href="#mbfaa7ebd40" y="160.316498"/>
     <use style="fill:#0000ff;stroke:#0000ff;" x="641.037942" xlink:href="#mbfaa7ebd40" y="169.520591"/>
     <use style="fill:#0000ff;stroke:#0000ff;" x="584.19005" xlink:href="#mbfaa7ebd40" y="220.356355"/>
     <use style="fill:#0000ff;stroke:#0000ff;" x="643.939245" xlink:href="#mbfaa7ebd40" y="173.240017"/>
     <use style="fill:#0000ff;stroke:#0000ff;" x="564.961801" xlink:href="#mbfaa7ebd40" y="223.677282"/>
     <use style="fill:#0000ff;stroke:#0000ff;" x="573.207194" xlink:href="#mbfaa7ebd40" y="214.737005"/>
     <use style="fill:#0000ff;stroke:#0000ff;" x="546.08318" xlink:href="#mbfaa7ebd40" y="206.555617"/>
     <use style="fill:#0000ff;stroke:#0000ff;" x="431.502317" xlink:href="#mbfaa7ebd40" y="53.542876"/>
     <use style="fill:#0000ff;stroke:#0000ff;" x="455.002026" xlink:href="#mbfaa7ebd40" y="97.092671"/>
    </g>
   </g>
   <g id="line2d_29">
    <path clip-path="url(#p3ee7888494)" d="M 424.259375 43.431344 
L 427.685515 43.431344 
L 428.256538 45.777669 
L 430.540631 45.777669 
L 431.111655 53.382537 
L 435.108818 53.382537 
L 435.679841 72.210348 
L 438.534957 72.210348 
L 439.105981 71.315254 
L 441.390074 71.315254 
L 441.961097 79.510407 
L 454.52361 79.510407 
L 455.094633 112.201839 
L 458.520773 112.201839 
L 459.091796 115.51692 
L 463.659982 115.51692 
L 464.231006 127.455508 
L 468.228169 127.455508 
L 468.799192 133.447848 
L 476.222495 133.447848 
L 476.793518 132.69386 
L 478.506588 132.69386 
L 479.077611 145.274131 
L 480.219658 145.274131 
L 480.790681 160.628885 
L 489.356031 160.628885 
L 489.927054 165.430885 
L 499.63445 165.430885 
L 500.205473 180.125622 
L 505.344683 180.125622 
L 505.915706 191.266355 
L 514.481056 191.266355 
L 515.052079 189.975269 
L 516.765149 189.975269 
L 517.336172 188.531104 
L 517.907196 206.722148 
L 530.469708 206.722148 
L 531.040731 210.516554 
L 546.45836 210.516554 
L 547.029384 211.796521 
L 551.59757 211.796521 
L 552.168593 215.282895 
L 594.995341 215.282895 
L 595.566364 214.682811 
L 596.137387 214.682811 
L 596.708411 198.253195 
L 597.850457 198.253195 
L 598.42148 201.419711 
L 616.123203 201.419711 
L 616.694226 193.052045 
L 622.404459 193.052045 
L 622.975482 185.565753 
L 628.685715 185.565753 
L 629.256738 172.07213 
L 649.242554 172.07213 
L 649.813577 148.154089 
L 655.52381 148.154089 
L 656.094833 144.593419 
L 658.378927 144.593419 
L 658.94995 135.327825 
L 665.802229 135.327825 
L 666.373253 113.639414 
L 673.796556 113.639414 
L 674.367579 105.552326 
L 681.219858 105.552326 
L 681.790882 89.655206 
L 689.214185 89.655206 
L 689.785208 80.707769 
L 699.492604 80.707769 
L 700.063627 58.778347 
L 702.918744 58.778347 
L 703.489767 45.502066 
L 709.2 45.502066 
L 709.2 45.502066 
" style="fill:none;stroke:#ff0000;stroke-linecap:square;stroke-width:2;"/>
   </g>
   <g id="patch_8">
    <path d="M 424.259375 237.5 
L 424.259375 27.8 
" style="fill:none;stroke:#000000;stroke-linecap:square;stroke-linejoin:miter;stroke-width:0.8;"/>
   </g>
   <g id="patch_9">
    <path d="M 709.2 237.5 
L 709.2 27.8 
" style="fill:none;stroke:#000000;stroke-linecap:square;stroke-linejoin:miter;stroke-width:0.8;"/>
   </g>
   <g id="patch_10">
    <path d="M 424.259375 237.5 
L 709.2 237.5 
" style="fill:none;stroke:#000000;stroke-linecap:square;stroke-linejoin:miter;stroke-width:0.8;"/>
   </g>
   <g id="patch_11">
    <path d="M 424.259375 27.8 
L 709.2 27.8 
" style="fill:none;stroke:#000000;stroke-linecap:square;stroke-linejoin:miter;stroke-width:0.8;"/>
   </g>
   <g id="text_30">
    <text style="font-family:DejaVu Sans;font-size:14px;font-style:normal;font-weight:normal;text-anchor:middle;" transform="rotate(-0, 566.729688, 21.8)" x="566.729688" y="21.8">Best model (56 trees)</text>
   </g>
  </g>
 </g>
 <defs>
  <clipPath id="ped345b8a3d">
   <rect height="209.7" width="284.940625" x="71.05" y="27.8"/>
  </clipPath>
  <clipPath id="p3ee7888494">
   <rect height="209.7" width="284.940625" x="424.259375" y="27.8"/>
  </clipPath>
 </defs>
</svg>
