<?xml version="1.0" encoding="utf-8" standalone="no"?>
<!DOCTYPE svg PUBLIC "-//W3C//DTD SVG 1.1//EN"
  "http://www.w3.org/Graphics/SVG/1.1/DTD/svg11.dtd">
<!-- Created with matplotlib (https://matplotlib.org/) -->
<svg height="288pt" version="1.1" viewBox="0 0 432 288" width="432pt" xmlns="http://www.w3.org/2000/svg" xmlns:xlink="http://www.w3.org/1999/xlink">
 <defs>
  <style type="text/css">
*{stroke-linecap:butt;stroke-linejoin:round;}
  </style>
 </defs>
 <g id="figure_1">
  <g id="patch_1">
   <path d="M 0 288 
L 432 288 
L 432 0 
L 0 0 
z
" style="fill:none;"/>
  </g>
  <g id="axes_1">
   <g id="patch_2">
    <path d="M 54.8 239.2 
L 413.575 239.2 
L 413.575 15.8 
L 54.8 15.8 
z
" style="fill:none;"/>
   </g>
   <g id="matplotlib.axis_1">
    <g id="xtick_1">
     <g id="line2d_1">
      <defs>
       <path d="M 0 0 
L 0 3.5 
" id="mc5dd5366d7" style="stroke:#000000;stroke-width:0.8;"/>
      </defs>
      <g>
       <use style="stroke:#000000;stroke-width:0.8;" x="54.8" xlink:href="#mc5dd5366d7" y="239.2"/>
      </g>
     </g>
     <g id="text_1">
      <text style="font-family:DejaVu Sans;font-size:12px;font-style:normal;font-weight:normal;text-anchor:middle;" transform="rotate(-0, 54.8, 255.318125)" x="54.8" y="255.318125">0</text>
     </g>
    </g>
    <g id="xtick_2">
     <g id="line2d_2">
      <g>
       <use style="stroke:#000000;stroke-width:0.8;" x="99.646875" xlink:href="#mc5dd5366d7" y="239.2"/>
      </g>
     </g>
     <g id="text_2">
      <text style="font-family:DejaVu Sans;font-size:12px;font-style:normal;font-weight:normal;text-anchor:middle;" transform="rotate(-0, 99.646875, 255.318125)" x="99.646875" y="255.318125">10</text>
     </g>
    </g>
    <g id="xtick_3">
     <g id="line2d_3">
      <g>
       <use style="stroke:#000000;stroke-width:0.8;" x="144.49375" xlink:href="#mc5dd5366d7" y="239.2"/>
      </g>
     </g>
     <g id="text_3">
      <text style="font-family:DejaVu Sans;font-size:12px;font-style:normal;font-weight:normal;text-anchor:middle;" transform="rotate(-0, 144.49375, 255.318125)" x="144.49375" y="255.318125">20</text>
     </g>
    </g>
    <g id="xtick_4">
     <g id="line2d_4">
      <g>
       <use style="stroke:#000000;stroke-width:0.8;" x="189.340625" xlink:href="#mc5dd5366d7" y="239.2"/>
      </g>
     </g>
     <g id="text_4">
      <text style="font-family:DejaVu Sans;font-size:12px;font-style:normal;font-weight:normal;text-anchor:middle;" transform="rotate(-0, 189.340625, 255.318125)" x="189.340625" y="255.318125">30</text>
     </g>
    </g>
    <g id="xtick_5">
     <g id="line2d_5">
      <g>
       <use style="stroke:#000000;stroke-width:0.8;" x="234.1875" xlink:href="#mc5dd5366d7" y="239.2"/>
      </g>
     </g>
     <g id="text_5">
      <text style="font-family:DejaVu Sans;font-size:12px;font-style:normal;font-weight:normal;text-anchor:middle;" transform="rotate(-0, 234.1875, 255.318125)" x="234.1875" y="255.318125">40</text>
     </g>
    </g>
    <g id="xtick_6">
     <g id="line2d_6">
      <g>
       <use style="stroke:#000000;stroke-width:0.8;" x="279.034375" xlink:href="#mc5dd5366d7" y="239.2"/>
      </g>
     </g>
     <g id="text_6">
      <text style="font-family:DejaVu Sans;font-size:12px;font-style:normal;font-weight:normal;text-anchor:middle;" transform="rotate(-0, 279.034375, 255.318125)" x="279.034375" y="255.318125">50</text>
     </g>
    </g>
    <g id="xtick_7">
     <g id="line2d_7">
      <g>
       <use style="stroke:#000000;stroke-width:0.8;" x="323.88125" xlink:href="#mc5dd5366d7" y="239.2"/>
      </g>
     </g>
     <g id="text_7">
      <text style="font-family:DejaVu Sans;font-size:12px;font-style:normal;font-weight:normal;text-anchor:middle;" transform="rotate(-0, 323.88125, 255.318125)" x="323.88125" y="255.318125">60</text>
     </g>
    </g>
    <g id="xtick_8">
     <g id="line2d_8">
      <g>
       <use style="stroke:#000000;stroke-width:0.8;" x="368.728125" xlink:href="#mc5dd5366d7" y="239.2"/>
      </g>
     </g>
     <g id="text_8">
      <text style="font-family:DejaVu Sans;font-size:12px;font-style:normal;font-weight:normal;text-anchor:middle;" transform="rotate(-0, 368.728125, 255.318125)" x="368.728125" y="255.318125">70</text>
     </g>
    </g>
    <g id="xtick_9">
     <g id="line2d_9">
      <g>
       <use style="stroke:#000000;stroke-width:0.8;" x="413.575" xlink:href="#mc5dd5366d7" y="239.2"/>
      </g>
     </g>
     <g id="text_9">
      <text style="font-family:DejaVu Sans;font-size:12px;font-style:normal;font-weight:normal;text-anchor:middle;" transform="rotate(-0, 413.575, 255.318125)" x="413.575" y="255.318125">80</text>
     </g>
    </g>
    <g id="text_10">
     <text style="font-family:DejaVu Sans;font-size:14px;font-style:normal;font-weight:normal;text-anchor:middle;" transform="rotate(-0, 234.1875, 272.451562)" x="234.1875" y="272.451562">Training set size</text>
    </g>
   </g>
   <g id="matplotlib.axis_2">
    <g id="ytick_1">
     <g id="line2d_10">
      <defs>
       <path d="M 0 0 
L -3.5 0 
" id="ma1c07c5965" style="stroke:#000000;stroke-width:0.8;"/>
      </defs>
      <g>
       <use style="stroke:#000000;stroke-width:0.8;" x="54.8" xlink:href="#ma1c07c5965" y="239.2"/>
      </g>
     </g>
     <g id="text_11">
      <text style="font-family:DejaVu Sans;font-size:12px;font-style:normal;font-weight:normal;text-anchor:end;" transform="rotate(-0, 47.8, 243.759062)" x="47.8" y="243.759062">0.0</text>
     </g>
    </g>
    <g id="ytick_2">
     <g id="line2d_11">
      <g>
       <use style="stroke:#000000;stroke-width:0.8;" x="54.8" xlink:href="#ma1c07c5965" y="201.966667"/>
      </g>
     </g>
     <g id="text_12">
      <text style="font-family:DejaVu Sans;font-size:12px;font-style:normal;font-weight:normal;text-anchor:end;" transform="rotate(-0, 47.8, 206.525729)" x="47.8" y="206.525729">0.5</text>
     </g>
    </g>
    <g id="ytick_3">
     <g id="line2d_12">
      <g>
       <use style="stroke:#000000;stroke-width:0.8;" x="54.8" xlink:href="#ma1c07c5965" y="164.733333"/>
      </g>
     </g>
     <g id="text_13">
      <text style="font-family:DejaVu Sans;font-size:12px;font-style:normal;font-weight:normal;text-anchor:end;" transform="rotate(-0, 47.8, 169.292396)" x="47.8" y="169.292396">1.0</text>
     </g>
    </g>
    <g id="ytick_4">
     <g id="line2d_13">
      <g>
       <use style="stroke:#000000;stroke-width:0.8;" x="54.8" xlink:href="#ma1c07c5965" y="127.5"/>
      </g>
     </g>
     <g id="text_14">
      <text style="font-family:DejaVu Sans;font-size:12px;font-style:normal;font-weight:normal;text-anchor:end;" transform="rotate(-0, 47.8, 132.059062)" x="47.8" y="132.059062">1.5</text>
     </g>
    </g>
    <g id="ytick_5">
     <g id="line2d_14">
      <g>
       <use style="stroke:#000000;stroke-width:0.8;" x="54.8" xlink:href="#ma1c07c5965" y="90.266667"/>
      </g>
     </g>
     <g id="text_15">
      <text style="font-family:DejaVu Sans;font-size:12px;font-style:normal;font-weight:normal;text-anchor:end;" transform="rotate(-0, 47.8, 94.825729)" x="47.8" y="94.825729">2.0</text>
     </g>
    </g>
    <g id="ytick_6">
     <g id="line2d_15">
      <g>
       <use style="stroke:#000000;stroke-width:0.8;" x="54.8" xlink:href="#ma1c07c5965" y="53.033333"/>
      </g>
     </g>
     <g id="text_16">
      <text style="font-family:DejaVu Sans;font-size:12px;font-style:normal;font-weight:normal;text-anchor:end;" transform="rotate(-0, 47.8, 57.592396)" x="47.8" y="57.592396">2.5</text>
     </g>
    </g>
    <g id="ytick_7">
     <g id="line2d_16">
      <g>
       <use style="stroke:#000000;stroke-width:0.8;" x="54.8" xlink:href="#ma1c07c5965" y="15.8"/>
      </g>
     </g>
     <g id="text_17">
      <text style="font-family:DejaVu Sans;font-size:12px;font-style:normal;font-weight:normal;text-anchor:end;" transform="rotate(-0, 47.8, 20.359062)" x="47.8" y="20.359062">3.0</text>
     </g>
    </g>
    <g id="text_18">
     <text style="font-family:DejaVu Sans;font-size:14px;font-style:normal;font-weight:normal;text-anchor:middle;" transform="rotate(-90, 21.804688, 127.5)" x="21.804688" y="127.5">RMSE</text>
    </g>
   </g>
   <g id="line2d_17">
    <path clip-path="url(#p7cc2b09295)" d="M 54.8 239.2 
L 59.284688 239.2 
L 63.769375 239.2 
L 68.254063 239.2 
L 72.73875 239.2 
L 77.223438 239.2 
L 81.708125 239.2 
L 86.192813 239.199999 
L 90.6775 239.199995 
L 95.162188 239.199978 
L 99.646875 239.199912 
L 104.131563 230.077525 
L 108.61625 226.292264 
L 113.100938 224.133343 
L 117.585625 215.382825 
L 122.070312 216.098347 
L 126.555 216.757023 
L 131.039688 213.629964 
L 135.524375 214.31191 
L 140.009062 213.043043 
L 144.49375 209.909242 
L 148.978438 210.191127 
L 153.463125 210.639647 
L 157.947812 200.511754 
L 162.4325 193.412137 
L 166.917188 193.904527 
L 171.401875 194.634005 
L 175.886562 195.267765 
L 180.37125 195.311783 
L 184.855938 189.943629 
L 189.340625 190.171255 
L 193.825312 189.428945 
L 198.31 190.140479 
L 202.794688 190.728803 
L 207.279375 189.833799 
L 211.764062 190.280323 
L 216.24875 190.929271 
L 220.733438 186.805892 
L 225.218125 184.593545 
L 229.702812 183.147224 
L 234.1875 183.770625 
L 238.672188 184.247171 
L 243.156875 180.522835 
L 247.641562 180.479117 
L 252.12625 181.128884 
L 256.610937 181.634183 
L 261.095625 182.132579 
L 265.580312 182.250742 
L 270.065 182.814923 
L 274.549688 181.183978 
L 279.034375 181.353979 
L 283.519062 181.353929 
L 288.00375 179.829411 
L 292.488437 180.27978 
L 296.973125 180.787037 
L 301.457812 180.994997 
L 305.9425 180.051795 
L 310.427188 180.557641 
L 314.911875 180.148288 
L 319.396563 180.591362 
L 323.88125 177.878679 
L 328.365937 178.07316 
L 332.850625 178.089093 
L 337.335312 178.333539 
L 341.82 178.534466 
L 346.304688 176.366795 
L 350.789375 176.342617 
L 355.274063 176.55738 
L 359.75875 176.993869 
L 364.243437 177.330824 
L 368.728125 177.59308 
L 373.212812 178.000738 
L 377.6975 177.778957 
L 382.182187 178.192454 
L 386.666875 178.281325 
L 391.151563 178.229467 
L 395.63625 178.596008 
L 400.120937 178.956963 
L 404.605625 179.053615 
" style="fill:none;stroke:#ff0000;stroke-linecap:square;stroke-width:2;"/>
    <defs>
     <path d="M -3 0 
L 3 0 
M 0 3 
L 0 -3 
" id="m7f8267cbda" style="stroke:#ff0000;"/>
    </defs>
    <g clip-path="url(#p7cc2b09295)">
     <use style="fill:#ff0000;stroke:#ff0000;" x="54.8" xlink:href="#m7f8267cbda" y="239.2"/>
     <use style="fill:#ff0000;stroke:#ff0000;" x="59.284688" xlink:href="#m7f8267cbda" y="239.2"/>
     <use style="fill:#ff0000;stroke:#ff0000;" x="63.769375" xlink:href="#m7f8267cbda" y="239.2"/>
     <use style="fill:#ff0000;stroke:#ff0000;" x="68.254063" xlink:href="#m7f8267cbda" y="239.2"/>
     <use style="fill:#ff0000;stroke:#ff0000;" x="72.73875" xlink:href="#m7f8267cbda" y="239.2"/>
     <use style="fill:#ff0000;stroke:#ff0000;" x="77.223438" xlink:href="#m7f8267cbda" y="239.2"/>
     <use style="fill:#ff0000;stroke:#ff0000;" x="81.708125" xlink:href="#m7f8267cbda" y="239.2"/>
     <use style="fill:#ff0000;stroke:#ff0000;" x="86.192813" xlink:href="#m7f8267cbda" y="239.199999"/>
     <use style="fill:#ff0000;stroke:#ff0000;" x="90.6775" xlink:href="#m7f8267cbda" y="239.199995"/>
     <use style="fill:#ff0000;stroke:#ff0000;" x="95.162188" xlink:href="#m7f8267cbda" y="239.199978"/>
     <use style="fill:#ff0000;stroke:#ff0000;" x="99.646875" xlink:href="#m7f8267cbda" y="239.199912"/>
     <use style="fill:#ff0000;stroke:#ff0000;" x="104.131563" xlink:href="#m7f8267cbda" y="230.077525"/>
     <use style="fill:#ff0000;stroke:#ff0000;" x="108.61625" xlink:href="#m7f8267cbda" y="226.292264"/>
     <use style="fill:#ff0000;stroke:#ff0000;" x="113.100938" xlink:href="#m7f8267cbda" y="224.133343"/>
     <use style="fill:#ff0000;stroke:#ff0000;" x="117.585625" xlink:href="#m7f8267cbda" y="215.382825"/>
     <use style="fill:#ff0000;stroke:#ff0000;" x="122.070312" xlink:href="#m7f8267cbda" y="216.098347"/>
     <use style="fill:#ff0000;stroke:#ff0000;" x="126.555" xlink:href="#m7f8267cbda" y="216.757023"/>
     <use style="fill:#ff0000;stroke:#ff0000;" x="131.039688" xlink:href="#m7f8267cbda" y="213.629964"/>
     <use style="fill:#ff0000;stroke:#ff0000;" x="135.524375" xlink:href="#m7f8267cbda" y="214.31191"/>
     <use style="fill:#ff0000;stroke:#ff0000;" x="140.009062" xlink:href="#m7f8267cbda" y="213.043043"/>
     <use style="fill:#ff0000;stroke:#ff0000;" x="144.49375" xlink:href="#m7f8267cbda" y="209.909242"/>
     <use style="fill:#ff0000;stroke:#ff0000;" x="148.978438" xlink:href="#m7f8267cbda" y="210.191127"/>
     <use style="fill:#ff0000;stroke:#ff0000;" x="153.463125" xlink:href="#m7f8267cbda" y="210.639647"/>
     <use style="fill:#ff0000;stroke:#ff0000;" x="157.947812" xlink:href="#m7f8267cbda" y="200.511754"/>
     <use style="fill:#ff0000;stroke:#ff0000;" x="162.4325" xlink:href="#m7f8267cbda" y="193.412137"/>
     <use style="fill:#ff0000;stroke:#ff0000;" x="166.917188" xlink:href="#m7f8267cbda" y="193.904527"/>
     <use style="fill:#ff0000;stroke:#ff0000;" x="171.401875" xlink:href="#m7f8267cbda" y="194.634005"/>
     <use style="fill:#ff0000;stroke:#ff0000;" x="175.886562" xlink:href="#m7f8267cbda" y="195.267765"/>
     <use style="fill:#ff0000;stroke:#ff0000;" x="180.37125" xlink:href="#m7f8267cbda" y="195.311783"/>
     <use style="fill:#ff0000;stroke:#ff0000;" x="184.855938" xlink:href="#m7f8267cbda" y="189.943629"/>
     <use style="fill:#ff0000;stroke:#ff0000;" x="189.340625" xlink:href="#m7f8267cbda" y="190.171255"/>
     <use style="fill:#ff0000;stroke:#ff0000;" x="193.825312" xlink:href="#m7f8267cbda" y="189.428945"/>
     <use style="fill:#ff0000;stroke:#ff0000;" x="198.31" xlink:href="#m7f8267cbda" y="190.140479"/>
     <use style="fill:#ff0000;stroke:#ff0000;" x="202.794688" xlink:href="#m7f8267cbda" y="190.728803"/>
     <use style="fill:#ff0000;stroke:#ff0000;" x="207.279375" xlink:href="#m7f8267cbda" y="189.833799"/>
     <use style="fill:#ff0000;stroke:#ff0000;" x="211.764062" xlink:href="#m7f8267cbda" y="190.280323"/>
     <use style="fill:#ff0000;stroke:#ff0000;" x="216.24875" xlink:href="#m7f8267cbda" y="190.929271"/>
     <use style="fill:#ff0000;stroke:#ff0000;" x="220.733438" xlink:href="#m7f8267cbda" y="186.805892"/>
     <use style="fill:#ff0000;stroke:#ff0000;" x="225.218125" xlink:href="#m7f8267cbda" y="184.593545"/>
     <use style="fill:#ff0000;stroke:#ff0000;" x="229.702812" xlink:href="#m7f8267cbda" y="183.147224"/>
     <use style="fill:#ff0000;stroke:#ff0000;" x="234.1875" xlink:href="#m7f8267cbda" y="183.770625"/>
     <use style="fill:#ff0000;stroke:#ff0000;" x="238.672188" xlink:href="#m7f8267cbda" y="184.247171"/>
     <use style="fill:#ff0000;stroke:#ff0000;" x="243.156875" xlink:href="#m7f8267cbda" y="180.522835"/>
     <use style="fill:#ff0000;stroke:#ff0000;" x="247.641562" xlink:href="#m7f8267cbda" y="180.479117"/>
     <use style="fill:#ff0000;stroke:#ff0000;" x="252.12625" xlink:href="#m7f8267cbda" y="181.128884"/>
     <use style="fill:#ff0000;stroke:#ff0000;" x="256.610937" xlink:href="#m7f8267cbda" y="181.634183"/>
     <use style="fill:#ff0000;stroke:#ff0000;" x="261.095625" xlink:href="#m7f8267cbda" y="182.132579"/>
     <use style="fill:#ff0000;stroke:#ff0000;" x="265.580312" xlink:href="#m7f8267cbda" y="182.250742"/>
     <use style="fill:#ff0000;stroke:#ff0000;" x="270.065" xlink:href="#m7f8267cbda" y="182.814923"/>
     <use style="fill:#ff0000;stroke:#ff0000;" x="274.549688" xlink:href="#m7f8267cbda" y="181.183978"/>
     <use style="fill:#ff0000;stroke:#ff0000;" x="279.034375" xlink:href="#m7f8267cbda" y="181.353979"/>
     <use style="fill:#ff0000;stroke:#ff0000;" x="283.519062" xlink:href="#m7f8267cbda" y="181.353929"/>
     <use style="fill:#ff0000;stroke:#ff0000;" x="288.00375" xlink:href="#m7f8267cbda" y="179.829411"/>
     <use style="fill:#ff0000;stroke:#ff0000;" x="292.488437" xlink:href="#m7f8267cbda" y="180.27978"/>
     <use style="fill:#ff0000;stroke:#ff0000;" x="296.973125" xlink:href="#m7f8267cbda" y="180.787037"/>
     <use style="fill:#ff0000;stroke:#ff0000;" x="301.457812" xlink:href="#m7f8267cbda" y="180.994997"/>
     <use style="fill:#ff0000;stroke:#ff0000;" x="305.9425" xlink:href="#m7f8267cbda" y="180.051795"/>
     <use style="fill:#ff0000;stroke:#ff0000;" x="310.427188" xlink:href="#m7f8267cbda" y="180.557641"/>
     <use style="fill:#ff0000;stroke:#ff0000;" x="314.911875" xlink:href="#m7f8267cbda" y="180.148288"/>
     <use style="fill:#ff0000;stroke:#ff0000;" x="319.396563" xlink:href="#m7f8267cbda" y="180.591362"/>
     <use style="fill:#ff0000;stroke:#ff0000;" x="323.88125" xlink:href="#m7f8267cbda" y="177.878679"/>
     <use style="fill:#ff0000;stroke:#ff0000;" x="328.365937" xlink:href="#m7f8267cbda" y="178.07316"/>
     <use style="fill:#ff0000;stroke:#ff0000;" x="332.850625" xlink:href="#m7f8267cbda" y="178.089093"/>
     <use style="fill:#ff0000;stroke:#ff0000;" x="337.335312" xlink:href="#m7f8267cbda" y="178.333539"/>
     <use style="fill:#ff0000;stroke:#ff0000;" x="341.82" xlink:href="#m7f8267cbda" y="178.534466"/>
     <use style="fill:#ff0000;stroke:#ff0000;" x="346.304688" xlink:href="#m7f8267cbda" y="176.366795"/>
     <use style="fill:#ff0000;stroke:#ff0000;" x="350.789375" xlink:href="#m7f8267cbda" y="176.342617"/>
     <use style="fill:#ff0000;stroke:#ff0000;" x="355.274063" xlink:href="#m7f8267cbda" y="176.55738"/>
     <use style="fill:#ff0000;stroke:#ff0000;" x="359.75875" xlink:href="#m7f8267cbda" y="176.993869"/>
     <use style="fill:#ff0000;stroke:#ff0000;" x="364.243437" xlink:href="#m7f8267cbda" y="177.330824"/>
     <use style="fill:#ff0000;stroke:#ff0000;" x="368.728125" xlink:href="#m7f8267cbda" y="177.59308"/>
     <use style="fill:#ff0000;stroke:#ff0000;" x="373.212812" xlink:href="#m7f8267cbda" y="178.000738"/>
     <use style="fill:#ff0000;stroke:#ff0000;" x="377.6975" xlink:href="#m7f8267cbda" y="177.778957"/>
     <use style="fill:#ff0000;stroke:#ff0000;" x="382.182187" xlink:href="#m7f8267cbda" y="178.192454"/>
     <use style="fill:#ff0000;stroke:#ff0000;" x="386.666875" xlink:href="#m7f8267cbda" y="178.281325"/>
     <use style="fill:#ff0000;stroke:#ff0000;" x="391.151563" xlink:href="#m7f8267cbda" y="178.229467"/>
     <use style="fill:#ff0000;stroke:#ff0000;" x="395.63625" xlink:href="#m7f8267cbda" y="178.596008"/>
     <use style="fill:#ff0000;stroke:#ff0000;" x="400.120937" xlink:href="#m7f8267cbda" y="178.956963"/>
     <use style="fill:#ff0000;stroke:#ff0000;" x="404.605625" xlink:href="#m7f8267cbda" y="179.053615"/>
    </g>
   </g>
   <g id="line2d_18">
    <path clip-path="url(#p7cc2b09295)" d="M 117.438214 -1 
L 117.585625 84.686729 
L 122.070312 106.001163 
L 126.555 109.169284 
L 131.039688 115.924241 
L 135.524375 115.938553 
L 140.009062 133.495627 
L 144.49375 132.823231 
L 148.978438 131.964268 
L 153.463125 131.768622 
L 157.947812 132.263022 
L 162.4325 145.524504 
L 166.917188 140.454554 
L 171.401875 141.305101 
L 175.886562 141.501161 
L 180.37125 141.794761 
L 184.855938 149.421186 
L 189.340625 148.680681 
L 193.825312 150.233819 
L 198.31 150.332936 
L 202.794688 150.271198 
L 207.279375 150.883064 
L 211.764062 150.815376 
L 216.24875 150.490121 
L 220.733438 155.918742 
L 225.218125 155.089908 
L 229.702812 157.710388 
L 234.1875 158.344052 
L 238.672188 158.990759 
L 243.156875 160.074317 
L 247.641562 160.076312 
L 252.12625 160.101498 
L 256.610937 160.644209 
L 261.095625 160.317829 
L 265.580312 159.716379 
L 270.065 159.561146 
L 274.549688 157.07394 
L 279.034375 157.348798 
L 283.519062 156.032538 
L 288.00375 153.981546 
L 292.488437 153.975606 
L 296.973125 153.978172 
L 301.457812 153.691832 
L 305.9425 153.634839 
L 310.427188 153.603818 
L 314.911875 154.871127 
L 319.396563 154.823994 
L 323.88125 152.900696 
L 328.365937 153.475588 
L 332.850625 154.253864 
L 337.335312 154.46069 
L 341.82 154.304835 
L 346.304688 156.721792 
L 350.789375 156.878169 
L 355.274063 156.469086 
L 359.75875 156.57718 
L 364.243437 156.787415 
L 368.728125 157.167542 
L 373.212812 157.142704 
L 377.6975 158.090258 
L 382.182187 158.113123 
L 386.666875 158.906134 
L 391.151563 158.384781 
L 395.63625 158.557766 
L 400.120937 158.599747 
L 404.605625 157.919438 
" style="fill:none;stroke:#0000ff;stroke-linecap:square;stroke-width:3;"/>
   </g>
   <g id="patch_3">
    <path d="M 54.8 239.2 
L 54.8 15.8 
" style="fill:none;stroke:#000000;stroke-linecap:square;stroke-linejoin:miter;stroke-width:0.8;"/>
   </g>
   <g id="patch_4">
    <path d="M 413.575 239.2 
L 413.575 15.8 
" style="fill:none;stroke:#000000;stroke-linecap:square;stroke-linejoin:miter;stroke-width:0.8;"/>
   </g>
   <g id="patch_5">
    <path d="M 54.8 239.2 
L 413.575 239.2 
" style="fill:none;stroke:#000000;stroke-linecap:square;stroke-linejoin:miter;stroke-width:0.8;"/>
   </g>
   <g id="patch_6">
    <path d="M 54.8 15.8 
L 413.575 15.8 
" style="fill:none;stroke:#000000;stroke-linecap:square;stroke-linejoin:miter;stroke-width:0.8;"/>
   </g>
   <g id="legend_1">
    <g id="patch_7">
     <path d="M 326.39 68.09875 
L 403.775 68.09875 
Q 406.575 68.09875 406.575 65.29875 
L 406.575 25.6 
Q 406.575 22.8 403.775 22.8 
L 326.39 22.8 
Q 323.59 22.8 323.59 25.6 
L 323.59 65.29875 
Q 323.59 68.09875 326.39 68.09875 
z
" style="fill:#ffffff;opacity:0.8;stroke:#cccccc;stroke-linejoin:miter;"/>
    </g>
    <g id="line2d_19">
     <path d="M 329.19 34.137812 
L 357.19 34.137812 
" style="fill:none;stroke:#ff0000;stroke-linecap:square;stroke-width:2;"/>
    </g>
    <g id="line2d_20">
     <g>
      <use style="fill:#ff0000;stroke:#ff0000;" x="343.19" xlink:href="#m7f8267cbda" y="34.137812"/>
     </g>
    </g>
    <g id="text_19">
     <text style="font-family:DejaVu Sans;font-size:14px;font-style:normal;font-weight:normal;text-anchor:start;" transform="rotate(-0, 368.39, 39.037812)" x="368.39" y="39.037812">train</text>
    </g>
    <g id="line2d_21">
     <path d="M 329.19 54.687187 
L 357.19 54.687187 
" style="fill:none;stroke:#0000ff;stroke-linecap:square;stroke-width:3;"/>
    </g>
    <g id="line2d_22"/>
    <g id="text_20">
     <text style="font-family:DejaVu Sans;font-size:14px;font-style:normal;font-weight:normal;text-anchor:start;" transform="rotate(-0, 368.39, 59.587187)" x="368.39" y="59.587187">val</text>
    </g>
   </g>
  </g>
 </g>
 <defs>
  <clipPath id="p7cc2b09295">
   <rect height="223.4" width="358.775" x="54.8" y="15.8"/>
  </clipPath>
 </defs>
</svg>
