<?xml version="1.0" encoding="utf-8" standalone="no"?>
<!DOCTYPE svg PUBLIC "-//W3C//DTD SVG 1.1//EN"
  "http://www.w3.org/Graphics/SVG/1.1/DTD/svg11.dtd">
<!-- Created with matplotlib (https://matplotlib.org/) -->
<svg height="288pt" version="1.1" viewBox="0 0 576 288" width="576pt" xmlns="http://www.w3.org/2000/svg" xmlns:xlink="http://www.w3.org/1999/xlink">
 <defs>
  <style type="text/css">
*{stroke-linecap:butt;stroke-linejoin:round;}
  </style>
 </defs>
 <g id="figure_1">
  <g id="patch_1">
   <path d="M 0 288 
L 576 288 
L 576 0 
L 0 0 
z
" style="fill:none;"/>
  </g>
  <g id="axes_1">
   <g id="patch_2">
    <path d="M 36.8 238.2 
L 565.2 238.2 
L 565.2 15.8 
L 36.8 15.8 
z
" style="fill:none;"/>
   </g>
   <g id="matplotlib.axis_1">
    <g id="xtick_1">
     <g id="line2d_1">
      <path clip-path="url(#p53153ba726)" d="M 89.64 238.2 
L 89.64 15.8 
" style="fill:none;stroke:#b0b0b0;stroke-linecap:square;stroke-width:0.8;"/>
     </g>
     <g id="line2d_2">
      <defs>
       <path d="M 0 0 
L 0 3.5 
" id="m7dae047e04" style="stroke:#000000;stroke-width:0.8;"/>
      </defs>
      <g>
       <use style="stroke:#000000;stroke-width:0.8;" x="89.64" xlink:href="#m7dae047e04" y="238.2"/>
      </g>
     </g>
     <g id="text_1">
      <text style="font-family:DejaVu Sans;font-size:12px;font-style:normal;font-weight:normal;text-anchor:middle;" transform="rotate(-0, 89.64, 254.318125)" x="89.64" y="254.318125">−40000</text>
     </g>
    </g>
    <g id="xtick_2">
     <g id="line2d_3">
      <path clip-path="url(#p53153ba726)" d="M 195.32 238.2 
L 195.32 15.8 
" style="fill:none;stroke:#b0b0b0;stroke-linecap:square;stroke-width:0.8;"/>
     </g>
     <g id="line2d_4">
      <g>
       <use style="stroke:#000000;stroke-width:0.8;" x="195.32" xlink:href="#m7dae047e04" y="238.2"/>
      </g>
     </g>
     <g id="text_2">
      <text style="font-family:DejaVu Sans;font-size:12px;font-style:normal;font-weight:normal;text-anchor:middle;" transform="rotate(-0, 195.32, 254.318125)" x="195.32" y="254.318125">−20000</text>
     </g>
    </g>
    <g id="xtick_3">
     <g id="line2d_5">
      <path clip-path="url(#p53153ba726)" d="M 301 238.2 
L 301 15.8 
" style="fill:none;stroke:#b0b0b0;stroke-linecap:square;stroke-width:0.8;"/>
     </g>
     <g id="line2d_6">
      <g>
       <use style="stroke:#000000;stroke-width:0.8;" x="301" xlink:href="#m7dae047e04" y="238.2"/>
      </g>
     </g>
     <g id="text_3">
      <text style="font-family:DejaVu Sans;font-size:12px;font-style:normal;font-weight:normal;text-anchor:middle;" transform="rotate(-0, 301, 254.318125)" x="301" y="254.318125">0</text>
     </g>
    </g>
    <g id="xtick_4">
     <g id="line2d_7">
      <path clip-path="url(#p53153ba726)" d="M 406.68 238.2 
L 406.68 15.8 
" style="fill:none;stroke:#b0b0b0;stroke-linecap:square;stroke-width:0.8;"/>
     </g>
     <g id="line2d_8">
      <g>
       <use style="stroke:#000000;stroke-width:0.8;" x="406.68" xlink:href="#m7dae047e04" y="238.2"/>
      </g>
     </g>
     <g id="text_4">
      <text style="font-family:DejaVu Sans;font-size:12px;font-style:normal;font-weight:normal;text-anchor:middle;" transform="rotate(-0, 406.68, 254.318125)" x="406.68" y="254.318125">20000</text>
     </g>
    </g>
    <g id="xtick_5">
     <g id="line2d_9">
      <path clip-path="url(#p53153ba726)" d="M 512.36 238.2 
L 512.36 15.8 
" style="fill:none;stroke:#b0b0b0;stroke-linecap:square;stroke-width:0.8;"/>
     </g>
     <g id="line2d_10">
      <g>
       <use style="stroke:#000000;stroke-width:0.8;" x="512.36" xlink:href="#m7dae047e04" y="238.2"/>
      </g>
     </g>
     <g id="text_5">
      <text style="font-family:DejaVu Sans;font-size:12px;font-style:normal;font-weight:normal;text-anchor:middle;" transform="rotate(-0, 512.36, 254.318125)" x="512.36" y="254.318125">40000</text>
     </g>
    </g>
    <g id="text_6">
     <text style="font-family:DejaVu Sans;font-size:16px;font-style:normal;font-weight:normal;text-anchor:middle;" transform="rotate(-0, 301, 272.97125)" x="301" y="272.97125">Threshold</text>
    </g>
   </g>
   <g id="matplotlib.axis_2">
    <g id="ytick_1">
     <g id="line2d_11">
      <path clip-path="url(#p53153ba726)" d="M 36.8 238.2 
L 565.2 238.2 
" style="fill:none;stroke:#b0b0b0;stroke-linecap:square;stroke-width:0.8;"/>
     </g>
     <g id="line2d_12">
      <defs>
       <path d="M 0 0 
L -3.5 0 
" id="m59826d2613" style="stroke:#000000;stroke-width:0.8;"/>
      </defs>
      <g>
       <use style="stroke:#000000;stroke-width:0.8;" x="36.8" xlink:href="#m59826d2613" y="238.2"/>
      </g>
     </g>
     <g id="text_7">
      <text style="font-family:DejaVu Sans;font-size:12px;font-style:normal;font-weight:normal;text-anchor:end;" transform="rotate(-0, 29.8, 242.759063)" x="29.8" y="242.759063">0.0</text>
     </g>
    </g>
    <g id="ytick_2">
     <g id="line2d_13">
      <path clip-path="url(#p53153ba726)" d="M 36.8 193.72 
L 565.2 193.72 
" style="fill:none;stroke:#b0b0b0;stroke-linecap:square;stroke-width:0.8;"/>
     </g>
     <g id="line2d_14">
      <g>
       <use style="stroke:#000000;stroke-width:0.8;" x="36.8" xlink:href="#m59826d2613" y="193.72"/>
      </g>
     </g>
     <g id="text_8">
      <text style="font-family:DejaVu Sans;font-size:12px;font-style:normal;font-weight:normal;text-anchor:end;" transform="rotate(-0, 29.8, 198.279063)" x="29.8" y="198.279063">0.2</text>
     </g>
    </g>
    <g id="ytick_3">
     <g id="line2d_15">
      <path clip-path="url(#p53153ba726)" d="M 36.8 149.24 
L 565.2 149.24 
" style="fill:none;stroke:#b0b0b0;stroke-linecap:square;stroke-width:0.8;"/>
     </g>
     <g id="line2d_16">
      <g>
       <use style="stroke:#000000;stroke-width:0.8;" x="36.8" xlink:href="#m59826d2613" y="149.24"/>
      </g>
     </g>
     <g id="text_9">
      <text style="font-family:DejaVu Sans;font-size:12px;font-style:normal;font-weight:normal;text-anchor:end;" transform="rotate(-0, 29.8, 153.799062)" x="29.8" y="153.799062">0.4</text>
     </g>
    </g>
    <g id="ytick_4">
     <g id="line2d_17">
      <path clip-path="url(#p53153ba726)" d="M 36.8 104.76 
L 565.2 104.76 
" style="fill:none;stroke:#b0b0b0;stroke-linecap:square;stroke-width:0.8;"/>
     </g>
     <g id="line2d_18">
      <g>
       <use style="stroke:#000000;stroke-width:0.8;" x="36.8" xlink:href="#m59826d2613" y="104.76"/>
      </g>
     </g>
     <g id="text_10">
      <text style="font-family:DejaVu Sans;font-size:12px;font-style:normal;font-weight:normal;text-anchor:end;" transform="rotate(-0, 29.8, 109.319062)" x="29.8" y="109.319062">0.6</text>
     </g>
    </g>
    <g id="ytick_5">
     <g id="line2d_19">
      <path clip-path="url(#p53153ba726)" d="M 36.8 60.28 
L 565.2 60.28 
" style="fill:none;stroke:#b0b0b0;stroke-linecap:square;stroke-width:0.8;"/>
     </g>
     <g id="line2d_20">
      <g>
       <use style="stroke:#000000;stroke-width:0.8;" x="36.8" xlink:href="#m59826d2613" y="60.28"/>
      </g>
     </g>
     <g id="text_11">
      <text style="font-family:DejaVu Sans;font-size:12px;font-style:normal;font-weight:normal;text-anchor:end;" transform="rotate(-0, 29.8, 64.839062)" x="29.8" y="64.839062">0.8</text>
     </g>
    </g>
    <g id="ytick_6">
     <g id="line2d_21">
      <path clip-path="url(#p53153ba726)" d="M 36.8 15.8 
L 565.2 15.8 
" style="fill:none;stroke:#b0b0b0;stroke-linecap:square;stroke-width:0.8;"/>
     </g>
     <g id="line2d_22">
      <g>
       <use style="stroke:#000000;stroke-width:0.8;" x="36.8" xlink:href="#m59826d2613" y="15.8"/>
      </g>
     </g>
     <g id="text_12">
      <text style="font-family:DejaVu Sans;font-size:12px;font-style:normal;font-weight:normal;text-anchor:end;" transform="rotate(-0, 29.8, 20.359062)" x="29.8" y="20.359062">1.0</text>
     </g>
    </g>
   </g>
   <g id="line2d_23">
    <path clip-path="url(#p53153ba726)" d="M 36.710697 217.628732 
L 51.441255 217.496682 
L 67.459683 217.296015 
L 75.329221 217.176399 
L 86.294125 216.974941 
L 92.375638 216.835597 
L 94.273209 216.798633 
L 102.070948 216.6 
L 102.33824 216.589117 
L 108.297914 216.39972 
L 111.316486 216.292788 
L 114.960335 216.141843 
L 120.016785 215.933591 
L 124.538125 215.748436 
L 125.086598 215.718968 
L 129.467349 215.484621 
L 131.467787 215.367368 
L 134.503049 215.218553 
L 135.130546 215.178809 
L 138.570478 214.946265 
L 140.779911 214.789245 
L 143.292639 214.602625 
L 150.05563 214.072502 
L 151.892191 213.911413 
L 152.545485 213.84861 
L 153.945868 213.685403 
L 156.492217 213.393545 
L 157.787189 213.260588 
L 157.992103 213.243366 
L 168.986514 211.819802 
L 169.593111 211.734134 
L 170.657059 211.580408 
L 170.85088 211.54714 
L 171.915907 211.382131 
L 172.027337 211.363447 
L 172.987434 211.2028 
L 174.056762 211.018397 
L 178.164708 210.263311 
L 178.807488 210.129234 
L 180.014934 209.892147 
L 181.21639 209.639259 
L 181.334794 209.612566 
L 181.890568 209.501672 
L 182.496518 209.348254 
L 182.905345 209.264962 
L 183.78461 209.073475 
L 183.979093 209.034302 
L 184.91497 208.832925 
L 185.566936 208.682846 
L 186.130083 208.552934 
L 187.390473 208.255305 
L 187.940007 208.108903 
L 188.308345 208.027362 
L 189.22685 207.790111 
L 189.342824 207.759792 
L 189.826663 207.620643 
L 190.017776 207.569512 
L 190.671688 207.389598 
L 190.920792 207.313675 
L 192.202544 206.939237 
L 192.318363 206.898956 
L 194.304332 206.319587 
L 194.563156 206.222713 
L 195.334767 205.993004 
L 195.467627 205.942314 
L 195.685026 205.87906 
L 196.333796 205.659599 
L 196.445582 205.617671 
L 196.451751 205.621982 
L 196.697509 205.540501 
L 197.172364 205.392623 
L 198.647474 204.857785 
L 199.152544 204.67624 
L 199.657251 204.480272 
L 200.740541 204.087807 
L 201.150051 203.930797 
L 201.631545 203.739298 
L 202.22924 203.494495 
L 202.71809 203.317442 
L 202.8654 203.248622 
L 203.272884 203.071739 
L 203.490051 202.987657 
L 204.073379 202.732496 
L 204.611842 202.53441 
L 205.107294 202.324257 
L 205.387252 202.179511 
L 206.102957 201.879642 
L 207.106887 201.435792 
L 207.466651 201.286936 
L 207.599308 201.222416 
L 207.870437 201.07642 
L 208.547289 200.72642 
L 209.964313 200.023868 
L 210.227104 199.885459 
L 210.730032 199.641486 
L 210.891919 199.540696 
L 211.200702 199.388519 
L 211.31717 199.317092 
L 211.645663 199.147685 
L 211.903699 199.011871 
L 212.598538 198.572472 
L 212.757491 198.47531 
L 213.041815 198.318017 
L 213.161196 198.242549 
L 213.590389 197.995294 
L 214.087888 197.689524 
L 214.288 197.564894 
L 214.566976 197.383926 
L 214.799368 197.231782 
L 215.285181 196.930537 
L 215.583393 196.713231 
L 215.58537 196.716669 
L 215.706313 196.643722 
L 216.32217 196.278864 
L 216.574826 196.067904 
L 218.292226 194.943098 
L 218.571966 194.779515 
L 218.678495 194.704434 
L 219.021292 194.490138 
L 219.135829 194.412341 
L 219.444289 194.181776 
L 219.846098 193.90394 
L 220.049707 193.758594 
L 220.524666 193.41898 
L 220.954345 193.093017 
L 221.17647 192.914352 
L 221.352089 192.755134 
L 221.603334 192.579045 
L 221.768654 192.419395 
L 222.371761 191.948209 
L 222.371963 191.955129 
L 222.627549 191.758086 
L 222.782969 191.633158 
L 222.9946 191.470039 
L 224.183227 190.478396 
L 224.269979 190.415678 
L 224.273063 190.411794 
L 224.409737 190.283263 
L 228.08365 187.0211 
L 228.254465 186.868681 
L 228.841035 186.279702 
L 228.989033 186.124937 
L 229.142816 185.978567 
L 234.853213 179.76606 
L 235.030667 179.532472 
L 235.168753 179.35425 
L 236.462995 177.762447 
L 236.761555 177.350202 
L 236.937392 177.118227 
L 237.166824 176.832438 
L 237.276425 176.682595 
L 237.481507 176.403775 
L 237.670097 176.160914 
L 237.770347 176.011078 
L 237.879686 175.843741 
L 238.126052 175.477661 
L 238.268611 175.375618 
L 239.082943 174.19885 
L 239.08385 174.207605 
L 239.182343 174.097557 
L 239.431415 173.729768 
L 240.545476 172.088304 
L 240.758682 171.794572 
L 240.910166 171.598039 
L 241.028121 171.418237 
L 241.420907 170.774154 
L 241.54436 170.564634 
L 241.69796 170.337171 
L 242.041695 169.854419 
L 242.043812 169.863552 
L 242.119982 169.721464 
L 242.295631 169.461076 
L 242.644585 169.056367 
L 242.864497 168.635333 
L 242.990424 168.507213 
L 243.120854 168.312505 
L 243.314519 167.981283 
L 243.497764 167.746078 
L 244.607007 166.034726 
L 244.732966 165.804093 
L 247.258156 161.406033 
L 247.633808 160.784381 
L 247.634548 160.794228 
L 247.731674 160.609803 
L 247.866843 160.322764 
L 248.23429 159.615597 
L 248.817274 158.507576 
L 248.938796 158.342869 
L 249.141536 157.995312 
L 249.25301 157.812372 
L 249.40035 157.58 
L 249.613877 157.226276 
L 249.749959 156.952245 
L 250.035102 156.400837 
L 251.054374 154.217823 
L 251.133763 154.067877 
L 254.475972 147.155056 
L 254.625884 146.752572 
L 254.857518 146.093658 
L 255.010888 145.73209 
L 255.200198 145.201062 
L 255.351548 144.853551 
L 255.432035 144.70168 
L 255.647753 144.334722 
L 255.913749 143.750499 
L 256.063593 143.462201 
L 256.070736 143.473026 
L 256.342027 142.918259 
L 257.50188 140.201514 
L 257.5022 140.212463 
L 257.616777 140.026958 
L 257.756244 139.694783 
L 257.764573 139.705757 
L 257.822458 139.61844 
L 257.924217 139.401671 
L 258.65088 137.720377 
L 258.76147 137.468852 
L 259.198567 136.3825 
L 259.252072 136.21547 
L 259.368163 135.988453 
L 259.371555 135.990114 
L 259.758433 135.082934 
L 259.866111 134.894566 
L 260.214091 134.142054 
L 260.682422 133.061594 
L 261.318726 131.677341 
L 261.390539 131.450593 
L 264.852065 123.204537 
L 264.853789 123.215923 
L 264.932465 123.068627 
L 264.934092 123.080017 
L 265.060289 122.832368 
L 265.23381 122.360719 
L 265.339399 122.185941 
L 265.607903 121.424379 
L 265.619444 121.435794 
L 265.665429 121.332302 
L 265.907249 120.813478 
L 266.062848 120.295634 
L 266.078036 120.307069 
L 266.107947 120.21669 
L 266.133936 120.215204 
L 266.352717 119.62424 
L 266.404972 119.462265 
L 266.782411 118.556784 
L 266.89195 118.218434 
L 267.023722 117.866427 
L 267.14072 117.569479 
L 267.881635 115.790836 
L 268.932986 112.772479 
L 268.948123 112.783905 
L 268.980831 112.680377 
L 270.214045 109.806073 
L 270.385213 109.220496 
L 270.444899 109.062761 
L 270.579121 108.71681 
L 272.975705 103.248684 
L 273.397706 102.084906 
L 273.399934 102.096213 
L 273.406994 102.107523 
L 273.442585 101.95811 
L 273.809396 101.247957 
L 273.923339 100.918599 
L 274.07593 100.458924 
L 274.400479 99.766738 
L 274.641628 99.113653 
L 274.643155 99.124905 
L 275.344746 97.587577 
L 275.353588 97.598793 
L 275.532569 97.193499 
L 275.654994 96.899019 
L 276.627557 94.74447 
L 276.635874 94.755609 
L 276.636143 94.766751 
L 276.741295 94.529285 
L 277.11652 93.84622 
L 277.12503 93.868493 
L 277.159149 93.641589 
L 277.297003 93.198135 
L 277.300016 93.20924 
L 277.365487 93.053728 
L 277.55979 92.406586 
L 277.564186 92.417651 
L 277.618077 92.291196 
L 277.74099 91.922408 
L 278.472331 90.489497 
L 278.490877 90.500486 
L 278.520778 90.391755 
L 278.67324 90.086592 
L 278.673453 90.097563 
L 278.695313 90.119515 
L 278.716916 89.999113 
L 278.853367 89.702491 
L 279.40772 88.464024 
L 279.532887 88.171175 
L 279.626438 88.123568 
L 279.631277 88.111848 
L 279.909216 87.319514 
L 279.911669 87.330385 
L 280.013397 87.110282 
L 280.184005 86.668746 
L 280.229617 86.690425 
L 280.240992 86.574468 
L 280.654902 85.783609 
L 280.695586 85.781683 
L 280.706587 85.710912 
L 281.157372 84.386099 
L 281.203461 84.404982 
L 281.219391 84.426485 
L 281.255108 84.313999 
L 281.518848 83.874471 
L 281.585632 83.66574 
L 281.791144 83.218528 
L 281.907505 82.746578 
L 281.908431 82.757236 
L 282.351777 81.94791 
L 282.358998 81.969186 
L 282.36206 81.979829 
L 282.425436 81.839549 
L 282.668018 81.292245 
L 282.668627 81.30285 
L 282.765196 81.084463 
L 282.972815 80.708925 
L 283.265179 80.014855 
L 283.406323 79.614676 
L 283.477417 79.567852 
L 283.479355 79.541723 
L 283.582311 79.337607 
L 283.657909 79.13245 
L 283.778011 78.81518 
L 283.780087 78.825648 
L 283.844419 78.708486 
L 283.953108 78.436918 
L 284.08278 78.147844 
L 284.093829 78.158268 
L 284.948 76.098324 
L 285.05679 75.945193 
L 285.276539 75.479504 
L 285.30133 75.482316 
L 285.321827 75.398138 
L 285.331652 75.418699 
L 285.761928 74.650104 
L 285.862 74.356931 
L 285.869248 74.367143 
L 286.033599 73.981742 
L 286.132228 73.839452 
L 286.13537 73.84964 
L 286.203949 73.86156 
L 286.224959 73.795287 
L 287.179616 72.187027 
L 287.28828 72.008796 
L 287.288488 72.018887 
L 288.009684 70.61776 
L 288.011343 70.627778 
L 288.041217 70.637799 
L 288.059284 70.545867 
L 288.239163 70.113625 
L 288.248736 70.133578 
L 288.323192 69.916105 
L 288.464704 69.746277 
L 288.507859 69.651572 
L 288.535238 69.681473 
L 288.792779 69.11138 
L 288.828759 69.119612 
L 288.809146 69.089808 
L 288.852076 69.056546 
L 289.962009 66.641585 
L 290.36883 65.394126 
L 290.408734 65.38948 
L 290.432812 65.322616 
L 290.671211 64.919284 
L 290.696224 64.938408 
L 290.762332 64.909179 
L 290.763668 64.8754 
L 290.862878 64.482629 
L 290.863898 64.492154 
L 290.882287 64.501683 
L 290.89948 64.399648 
L 290.9035 64.418688 
L 291.209178 63.932651 
L 291.359965 63.610946 
L 291.371055 63.620395 
L 291.387658 63.516828 
L 291.410506 63.535707 
L 291.588707 63.252389 
L 291.593032 63.261801 
L 291.708824 63.037353 
L 291.789267 63.021312 
L 291.79803 62.986478 
L 292.02592 62.854691 
L 292.079753 62.847863 
L 292.046074 62.829073 
L 292.103017 62.812827 
L 292.256499 62.491959 
L 292.506296 62.491465 
L 292.507252 62.45609 
L 292.634454 61.906769 
L 292.655669 61.925409 
L 292.707011 61.908414 
L 292.70979 61.872749 
L 292.980453 61.437909 
L 293.006111 61.45648 
L 293.014734 61.348534 
L 293.022202 61.357809 
L 293.060195 61.313575 
L 293.098292 61.369306 
L 293.114161 61.342507 
L 294.00412 60.289211 
L 294.01069 60.298426 
L 294.056812 60.307644 
L 294.069747 60.233907 
L 294.266135 59.780017 
L 294.648023 59.36673 
L 294.743562 59.130139 
L 294.80366 59.063933 
L 295.118232 58.62528 
L 295.222001 58.585524 
L 295.224888 58.547502 
L 295.380845 58.323901 
L 295.396192 58.332937 
L 295.497159 58.36912 
L 295.521139 58.339915 
L 295.648898 58.213808 
L 295.666622 58.231891 
L 295.878759 57.951453 
L 296.020082 57.782944 
L 296.030038 57.791942 
L 296.03619 57.800943 
L 296.094514 57.711827 
L 296.108896 57.729826 
L 296.131113 57.738832 
L 296.136456 57.661281 
L 296.265738 57.482034 
L 296.408986 57.292896 
L 296.424925 57.319793 
L 296.479801 57.400693 
L 296.526259 57.30117 
L 296.584112 57.249685 
L 296.55742 57.231707 
L 296.586418 57.210417 
L 296.614869 57.234087 
L 296.677272 57.124978 
L 296.872183 57.096618 
L 297.000544 56.781245 
L 297.049865 56.799211 
L 297.086175 56.82619 
L 297.146054 56.755575 
L 297.254273 56.671928 
L 297.387315 56.276506 
L 297.397226 56.303311 
L 297.742464 55.895204 
L 297.864015 55.903295 
L 298.031118 55.803214 
L 298.035457 55.821076 
L 298.049141 55.830013 
L 298.08134 55.748525 
L 298.34728 55.188013 
L 298.347811 55.196857 
L 298.491229 55.144227 
L 298.559865 55.032303 
L 298.586434 55.076603 
L 298.629543 55.002712 
L 298.710202 55.047059 
L 298.879791 55.02924 
L 298.97791 54.847714 
L 300.279385 52.901357 
L 300.289251 52.927417 
L 300.381775 52.884053 
L 300.471646 52.709826 
L 300.49551 52.75326 
L 300.546293 52.735689 
L 300.566618 52.700683 
L 300.710812 52.49915 
L 300.865736 52.182197 
L 300.971723 52.058578 
L 301.03255 51.996062 
L 301.088924 52.03905 
L 301.156852 52.046491 
L 301.165967 52.002189 
L 301.264377 51.920773 
L 301.267845 51.929389 
L 301.454575 51.916695 
L 301.46632 51.872065 
L 301.655606 51.557174 
L 301.67865 51.565769 
L 301.953047 51.353924 
L 301.959696 51.362512 
L 302.033819 51.368933 
L 302.044334 51.332317 
L 302.14371 51.256637 
L 302.16322 51.273853 
L 302.17204 51.282467 
L 302.192927 51.191642 
L 302.222586 51.208848 
L 302.338276 50.969981 
L 302.342187 50.987128 
L 302.424901 50.975787 
L 302.433793 50.938657 
L 302.506388 50.872861 
L 302.530135 50.915789 
L 302.57335 50.941597 
L 302.597909 50.849804 
L 302.720449 50.746231 
L 302.765785 50.725928 
L 302.776402 50.679843 
L 302.847515 50.621861 
L 302.902448 50.673373 
L 302.996695 50.623808 
L 303.241817 50.113143 
L 303.376394 50.100498 
L 303.484124 49.737662 
L 303.579608 49.711267 
L 303.589509 49.664062 
L 303.688666 49.603461 
L 303.702302 49.611942 
L 303.715333 49.637409 
L 303.73713 49.503745 
L 303.823241 49.451158 
L 303.903169 49.350757 
L 303.921521 49.367693 
L 303.987548 49.31464 
L 304.111486 49.191022 
L 304.115747 49.199493 
L 304.392749 48.85332 
L 304.55793 48.798721 
L 304.737884 48.606567 
L 304.738327 48.614986 
L 304.833059 48.559692 
L 304.912373 48.446922 
L 304.960383 48.480588 
L 304.971717 48.497446 
L 304.989945 48.399535 
L 305.047394 48.343537 
L 305.094014 48.377226 
L 305.212052 48.436349 
L 305.223244 48.387137 
L 305.52387 48.043651 
L 305.535657 48.052061 
L 305.544609 48.060475 
L 305.560535 48.010856 
L 305.603067 47.969608 
L 305.667217 47.961925 
L 305.670967 47.912163 
L 305.768198 47.729578 
L 305.889839 47.679863 
L 306.040741 47.487753 
L 306.481393 47.512374 
L 306.935889 47.001499 
L 307.168976 46.998277 
L 307.171118 46.946782 
L 307.295127 46.799028 
L 307.310722 46.824169 
L 307.412611 46.822752 
L 307.416553 46.770902 
L 307.526396 46.648643 
L 307.533509 46.665399 
L 307.644407 46.594777 
L 307.80758 46.210044 
L 307.860238 46.284925 
L 307.968802 46.254885 
L 308.163451 45.859038 
L 308.163494 45.867349 
L 308.193688 45.769231 
L 308.246769 45.794129 
L 308.356731 45.638667 
L 308.366584 45.646957 
L 308.445103 45.597883 
L 308.45724 45.490524 
L 308.536267 45.556872 
L 308.723418 45.557307 
L 308.910906 45.307155 
L 308.923275 45.34044 
L 309.083783 45.344375 
L 309.087548 45.28985 
L 309.373818 45.014899 
L 309.413605 45.048164 
L 309.415589 44.938137 
L 309.437983 44.954745 
L 309.526727 44.767266 
L 309.551628 44.79211 
L 309.658933 44.492661 
L 309.702687 44.525603 
L 309.766947 44.494713 
L 309.771084 44.439034 
L 309.896969 44.432719 
L 309.904547 44.376894 
L 310.213038 43.688766 
L 310.215711 43.704967 
L 310.485731 43.583771 
L 310.486335 43.591883 
L 310.533981 43.494358 
L 310.545194 43.518666 
L 310.665694 43.461367 
L 310.67131 43.404225 
L 310.767996 43.461041 
L 310.864913 43.444418 
L 310.877615 43.32962 
L 310.959483 43.362113 
L 311.228928 43.344652 
L 311.303648 43.269834 
L 311.449684 43.236385 
L 311.501421 42.946174 
L 311.566338 42.994751 
L 311.696624 42.934928 
L 311.723672 42.818073 
L 311.822766 42.858556 
L 311.892466 42.874783 
L 311.902755 42.816197 
L 312.236871 42.399336 
L 312.272669 42.439564 
L 312.342864 42.396427 
L 312.382213 42.420606 
L 312.472873 42.179562 
L 312.502218 42.187587 
L 312.612888 42.124344 
L 312.776461 41.820459 
L 312.792361 41.828431 
L 312.921719 41.90842 
L 312.962415 41.803692 
L 313.014112 41.751232 
L 313.071934 41.775223 
L 313.374058 41.705328 
L 313.468856 41.570488 
L 313.490432 41.578496 
L 313.517633 41.602551 
L 313.527736 41.480174 
L 313.589353 41.320175 
L 313.642702 41.328135 
L 313.66832 41.352045 
L 313.692245 41.229053 
L 313.911706 41.223113 
L 314.008664 41.185262 
L 314.210276 41.109274 
L 314.399009 41.197098 
L 314.403241 41.134932 
L 314.496943 41.158939 
L 314.626119 41.066329 
L 314.646507 41.090339 
L 314.976758 41.172594 
L 314.977776 41.109786 
L 314.999422 40.984051 
L 315.045751 41.016225 
L 315.120235 41.032343 
L 315.123093 40.969309 
L 315.184736 40.795965 
L 315.276404 40.844081 
L 315.303134 40.868208 
L 315.307713 40.804819 
L 315.504049 40.590722 
L 315.517333 40.606705 
L 315.67503 40.574943 
L 315.897349 40.32676 
L 315.936122 40.382575 
L 316.028349 40.430619 
L 316.032464 40.366178 
L 316.045162 40.374185 
L 316.279671 40.446486 
L 316.333858 40.317108 
L 316.378414 40.333159 
L 316.410707 40.341192 
L 316.418935 40.276384 
L 316.424764 40.211533 
L 316.527064 40.251592 
L 316.631821 40.299836 
L 316.638236 40.242777 
L 316.72124 40.029779 
L 316.761901 40.0538 
L 316.88434 39.954702 
L 316.897975 39.970709 
L 316.938388 39.847231 
L 316.941366 39.855209 
L 316.991383 39.879176 
L 316.994437 39.813289 
L 317.169467 39.604735 
L 317.199711 39.620621 
L 317.293773 39.668405 
L 317.299792 39.60997 
L 317.413528 39.473875 
L 317.427727 39.481827 
L 317.440155 39.415054 
L 317.491544 39.281372 
L 317.553134 39.305082 
L 317.608202 39.328841 
L 317.608626 39.261813 
L 317.724922 39.040311 
L 317.784638 39.004336 
L 317.910706 38.765217 
L 318.048959 38.851347 
L 318.04902 38.783356 
L 318.154327 38.586885 
L 318.263779 38.473691 
L 318.285197 38.489216 
L 318.426246 38.451852 
L 318.698858 38.423448 
L 318.807183 38.032307 
L 318.824845 38.047698 
L 318.888673 38.009154 
L 318.975892 37.885556 
L 319.002108 37.893227 
L 319.062145 37.831283 
L 319.063223 37.761613 
L 319.122163 37.792201 
L 319.294213 37.745328 
L 319.300428 37.752982 
L 319.45112 37.736621 
L 319.586069 37.548896 
L 319.587682 37.556522 
L 319.614185 37.501369 
L 319.729717 37.524245 
L 319.828875 37.335211 
L 319.839313 37.342797 
L 319.988715 37.396045 
L 319.989285 37.325115 
L 320.074573 37.220963 
L 320.089888 37.228551 
L 320.405789 37.215121 
L 320.58063 37.140208 
L 320.584061 37.147851 
L 320.787105 37.144644 
L 320.792425 37.087657 
L 320.87531 36.805335 
L 320.891235 36.820491 
L 320.983067 36.77052 
L 321.164721 36.677709 
L 321.182601 36.692855 
L 321.433816 36.695557 
L 321.449136 36.548688 
L 321.551089 36.578978 
L 321.635029 36.520497 
L 321.676471 36.388072 
L 321.737317 36.410696 
L 322.008215 36.383481 
L 322.126685 36.130422 
L 322.161927 36.15302 
L 322.265392 36.100705 
L 322.341512 35.995608 
L 322.349955 36.003127 
L 322.655436 35.995422 
L 323.113051 35.712656 
L 323.289557 35.742792 
L 323.296994 35.666162 
L 323.391945 35.70383 
L 323.611204 35.687367 
L 323.713346 35.516011 
L 323.725735 35.523547 
L 323.811454 35.568889 
L 323.818657 35.506329 
L 323.827403 35.42855 
L 323.919283 35.481416 
L 324.178158 35.431127 
L 324.280995 35.30423 
L 324.295845 35.319379 
L 324.48264 35.293572 
L 324.617648 35.244809 
L 324.852284 35.343978 
L 324.872814 35.264364 
L 324.970564 35.302635 
L 325.008173 35.23811 
L 325.055553 35.261096 
L 325.231168 35.192786 
L 325.337223 34.923567 
L 325.578676 34.949379 
L 325.599538 34.786453 
L 325.700823 34.839871 
L 325.905089 34.85002 
L 326.59537 34.909656 
L 326.755583 34.455263 
L 326.762479 34.462937 
L 327.288359 34.518667 
L 327.399525 34.457095 
L 327.422349 34.480485 
L 327.711408 34.520539 
L 327.812007 34.309844 
L 328.222077 34.349106 
L 328.342931 34.278057 
L 328.345829 34.285934 
L 328.437047 34.341257 
L 328.461355 34.26196 
L 328.463612 34.174658 
L 328.557284 34.206175 
L 328.647157 34.15804 
L 328.801543 33.980623 
L 329.289605 34.074126 
L 329.374062 33.814011 
L 329.416122 33.845614 
L 329.634784 33.835082 
L 329.729199 33.678445 
L 329.762053 33.710088 
L 330.009887 33.674956 
L 330.01163 33.584096 
L 330.110959 33.607829 
L 330.56076 33.675887 
L 330.578578 33.584007 
L 330.676064 33.632072 
L 330.70575 33.66426 
L 330.718385 33.571919 
L 330.943182 33.094407 
L 330.947712 33.11015 
L 331.075398 33.173413 
L 331.096772 33.087609 
L 331.126181 32.993779 
L 331.215624 33.06486 
L 331.541902 33.073786 
L 331.718542 33.03471 
L 331.795538 32.947422 
L 331.811867 32.963366 
L 332.138512 33.091991 
L 332.269952 33.148872 
L 332.472941 33.101273 
L 332.579499 32.923855 
L 332.582281 32.931947 
L 332.618448 32.867172 
L 332.688991 32.915819 
L 332.715605 32.72059 
L 332.743298 32.728639 
L 333.041901 32.711334 
L 333.065194 32.613014 
L 333.159171 32.645254 
L 333.421591 32.61117 
L 333.434952 32.512139 
L 333.53996 32.544402 
L 333.549905 32.552487 
L 333.570417 32.45314 
L 333.756446 32.442177 
L 333.930926 32.298194 
L 333.948198 32.330465 
L 334.258794 32.310521 
L 334.266809 32.209247 
L 334.361308 32.249704 
L 334.710863 32.26998 
L 334.828803 32.105636 
L 334.849943 32.002794 
L 334.93775 32.067735 
L 335.113439 31.893266 
L 335.124106 31.901357 
L 335.373455 31.974545 
L 335.43093 31.774102 
L 335.495185 31.798379 
L 335.619447 31.863479 
L 335.627815 31.758473 
L 335.975614 31.620676 
L 336.414033 31.79255 
L 336.509107 31.842346 
L 336.632195 31.64441 
L 336.65693 31.660906 
L 336.659118 31.553333 
L 336.919201 31.470146 
L 336.996594 31.270293 
L 337.009051 31.278388 
L 337.348276 31.259084 
L 337.465879 31.166245 
L 337.478284 31.174354 
L 337.674793 31.255915 
L 337.765108 31.16238 
L 337.800212 31.203303 
L 337.949519 31.236199 
L 337.969875 31.125641 
L 338.021529 31.183164 
L 338.275936 31.171058 
L 338.292721 31.059211 
L 338.343979 31.067459 
L 338.621195 31.021293 
L 338.688107 30.916911 
L 338.749227 30.958124 
L 338.761346 30.966394 
L 338.766457 30.853275 
L 339.244679 30.855146 
L 339.263583 30.740969 
L 339.299647 30.765692 
L 339.997889 30.850559 
L 340.121191 30.40202 
L 340.198473 30.443106 
L 340.377517 30.350705 
L 340.456632 30.367137 
L 340.462617 30.249718 
L 340.542269 30.290652 
L 341.017305 30.31265 
L 341.155822 30.218359 
L 341.158332 30.226636 
L 341.232416 30.251524 
L 341.798099 30.428172 
L 342.121874 30.47087 
L 342.151495 30.349533 
L 342.231637 30.400703 
L 342.69161 30.504132 
L 342.801817 30.161137 
L 342.816426 30.16965 
L 343.282199 30.342052 
L 343.438609 30.412176 
L 343.44725 30.286852 
L 343.542369 30.374757 
L 343.817089 30.463736 
L 343.827423 30.336836 
L 343.897998 30.363525 
L 344.219444 30.361087 
L 344.377642 30.010422 
L 344.859593 30.013534 
L 344.976567 29.752321 
L 345.003565 29.76108 
L 345.780124 29.85977 
L 345.798137 29.726645 
L 345.895402 29.744466 
L 345.983439 29.789217 
L 346.005337 29.655363 
L 346.107609 29.682111 
L 346.614182 30.001975 
L 346.707108 29.755086 
L 346.71843 29.764309 
L 346.75286 29.773545 
L 346.832277 29.51565 
L 347.126632 29.467869 
L 347.337055 29.355526 
L 347.342002 29.364611 
L 347.454843 29.382819 
L 347.494523 29.242579 
L 347.58807 29.287871 
L 347.669248 29.306073 
L 347.756488 29.059621 
L 347.931407 28.944565 
L 348.84173 29.054608 
L 348.93147 28.663554 
L 348.943205 28.681507 
L 349.781891 28.704298 
L 349.914661 28.297983 
L 349.952671 28.316017 
L 350.084937 28.361332 
L 350.114844 28.209275 
L 350.156812 28.236311 
L 350.360671 28.263464 
L 350.361486 28.110561 
L 350.454928 28.14653 
L 350.943988 28.23738 
L 350.985395 28.082769 
L 351.085983 28.119055 
L 351.550191 28.28503 
L 352.484504 28.420859 
L 352.670312 28.127021 
L 352.710554 28.155556 
L 353.01972 28.290484 
L 353.231947 28.388679 
L 353.301342 28.058268 
L 353.345994 28.077603 
L 353.52113 28.116456 
L 353.590677 27.793021 
L 353.683996 27.812073 
L 353.739044 27.821622 
L 353.796593 27.654256 
L 354.095424 27.730184 
L 354.169456 27.561538 
L 354.188974 27.58988 
L 354.51882 27.656543 
L 354.532188 27.486338 
L 354.55274 27.495793 
L 355.605001 27.563306 
L 355.649209 27.389082 
L 355.655308 27.398675 
L 355.802386 27.408285 
L 355.974718 27.252492 
L 356.083037 27.329097 
L 356.188305 27.013445 
L 356.2183 27.022876 
L 356.544645 26.713029 
L 356.574082 26.740797 
L 357.16568 26.872275 
L 357.268022 26.573702 
L 357.269525 26.58303 
L 357.366063 26.620504 
L 357.583833 26.445779 
L 357.642409 26.464342 
L 357.665837 26.279581 
L 357.761468 26.316287 
L 357.895983 26.325504 
L 357.914104 25.76696 
L 358.015132 25.810944 
L 358.091322 25.828647 
L 358.160395 25.460993 
L 358.223932 25.512656 
L 359.086743 25.557952 
L 359.214644 24.802392 
L 360.100574 24.945421 
L 360.101368 24.745931 
L 360.151014 24.779531 
L 360.875671 24.925191 
L 360.89767 24.72149 
L 360.962832 24.764299 
L 361.606176 24.912976 
L 361.65732 24.704687 
L 361.751897 24.730852 
L 361.881537 24.792505 
L 362.026774 24.590514 
L 362.489313 24.669392 
L 362.745805 24.25966 
L 362.778397 24.27663 
L 362.874184 24.310775 
L 363.542345 24.459016 
L 363.710945 24.530579 
L 363.850289 24.105394 
L 363.898668 24.131322 
L 363.901677 24.14 
L 363.932215 23.916788 
L 363.932629 23.925261 
L 364.636739 24.098507 
L 364.805482 23.887273 
L 365.689234 24.037037 
L 366.376063 24.248715 
L 366.435164 24.009396 
L 366.463071 24.018589 
L 366.987202 24.149488 
L 366.993438 24.158998 
L 367.234005 24.178082 
L 367.376341 23.942792 
L 367.394028 23.952119 
L 367.758806 23.724598 
L 367.76317 23.733717 
L 368.404682 23.816744 
L 368.423152 23.567171 
L 368.498768 23.594393 
L 368.615135 23.640188 
L 368.621567 23.387765 
L 368.728477 23.41464 
L 369.010462 23.478095 
L 370.095442 23.684597 
L 370.605603 23.811925 
L 370.607253 23.545274 
L 370.695691 23.584 
L 371.456488 23.835097 
L 371.502956 23.55814 
L 372.041526 23.711462 
L 373.393471 23.980926 
L 373.821786 24.128433 
L 374.411183 24.317447 
L 374.440965 24.013636 
L 374.516298 24.048787 
L 376.180381 24.404762 
L 376.194753 24.08614 
L 376.244028 24.135832 
L 377.316803 24.406811 
L 377.327697 24.420155 
L 377.361613 24.088199 
L 377.456325 24.114019 
L 378.324116 24.367576 
L 378.420914 24.395169 
L 378.645522 24.450891 
L 378.803306 24.117398 
L 378.852509 24.144535 
L 380.596801 24.48455 
L 381.233543 24.61931 
L 381.377011 24.649827 
L 382.025941 24.853451 
L 382.060876 24.09556 
L 382.115136 24.125134 
L 382.194846 24.169892 
L 382.253856 23.785637 
L 382.281573 23.8 
L 383.581084 24.037037 
L 384.310291 24.224242 
L 384.320747 23.818216 
L 384.712686 23.926154 
L 384.728814 23.513295 
L 384.806789 23.528185 
L 385.288109 23.695858 
L 385.310572 23.271937 
L 385.400332 23.316501 
L 385.720699 23.453441 
L 386.258163 23.579424 
L 386.411018 23.643983 
L 387.107072 23.827176 
L 387.123579 23.371064 
L 387.15114 23.387207 
L 388.46957 23.620659 
L 388.63556 23.672566 
L 388.73014 23.690022 
L 388.74123 23.213333 
L 388.836677 23.229844 
L 389.018708 22.765548 
L 390.041683 23.074766 
L 390.39143 23.231026 
L 391.571311 23.526055 
L 391.95448 23.603509 
L 393.289554 23.866321 
L 393.438023 23.950785 
L 393.543904 24.037037 
L 393.572658 23.468966 
L 394.158433 23.614054 
L 394.459672 23.699454 
L 394.476705 23.111781 
L 394.549437 23.131868 
L 394.591895 23.152066 
L 395.733685 23.317746 
L 395.873682 22.118182 
L 399.094424 22.771787 
L 399.179194 22.815773 
L 400.183994 23.139934 
L 400.99238 23.416438 
L 402.796229 23.742857 
L 402.815923 23.771326 
L 403.673257 24.006642 
L 405.907015 24.660558 
L 405.938894 23.8064 
L 406.044998 23.870968 
L 406.296867 23.969796 
L 406.996041 24.24557 
L 407.541708 24.578947 
L 407.942883 24.735714 
L 409.598748 25.241509 
L 409.619376 25.331429 
L 410.637471 25.611765 
L 411.04529 25.758209 
L 411.77639 25.909091 
L 411.925458 26.064615 
L 412.883701 26.446809 
L 413.229313 26.619459 
L 413.41323 26.678261 
L 414.440873 26.858564 
L 414.761139 27.044944 
L 417.857699 28.468354 
L 417.953039 28.549045 
L 418.332836 28.713548 
L 418.425419 28.882353 
L 418.540344 28.968421 
L 419.883323 29.324324 
L 420.087242 29.509589 
L 420.390703 29.604138 
L 420.431353 28.155556 
L 420.477489 28.241958 
L 421.430514 28.692754 
L 421.682414 29.077612 
L 422.66006 29.592248 
L 422.664285 29.7 
L 423.361882 30.265041 
L 423.376208 30.383607 
L 424.289934 30.751261 
L 424.386167 30.877966 
L 425.567481 31.407018 
L 426.055543 31.828829 
L 426.728943 31.974545 
L 427.070825 32.428037 
L 427.406023 32.584906 
L 427.526382 32.907692 
L 427.751625 33.243137 
L 427.764086 33.415842 
L 428.143363 33.771717 
L 428.270365 34.528421 
L 428.841606 35.13913 
L 429.743445 35.351648 
L 429.754293 35.568889 
L 430.590311 36.488372 
L 430.872523 36.980952 
L 431.452795 37.765432 
L 431.681769 38.321519 
L 431.850825 39.210526 
L 432.259107 40.172603 
L 432.814436 40.511111 
L 432.899801 41.585507 
L 433.20067 41.964706 
L 433.790066 42.355224 
L 433.894546 42.757576 
L 435.447363 43.6 
L 435.57373 44.04127 
L 436.50251 44.496774 
L 437.035185 44.967213 
L 437.35654 45.453333 
L 438.699156 45.955932 
L 439.286244 46.475862 
L 440.602354 47.014035 
L 442.201276 48.149091 
L 442.490369 49.369811 
L 442.518336 50.015385 
L 442.998796 50.686275 
L 443.20446 51.384 
L 443.589292 47.571429 
L 444.02337 48.233333 
L 444.178638 48.923404 
L 444.18871 49.643478 
L 445.009973 50.395556 
L 445.570051 51.181818 
L 446.635905 52.004651 
L 447.107412 53.770732 
L 447.286782 49.16 
L 447.299052 44.312821 
L 447.884476 45.063158 
L 448.210519 45.854054 
L 449.259919 46.688889 
L 449.509662 47.571429 
L 449.906733 48.505882 
L 450.492197 49.49697 
L 451.329058 50.55 
L 451.608099 51.670968 
L 453.152386 52.866667 
L 453.36419 56.985185 
L 454.07941 58.569231 
L 455.224579 51.384 
L 455.631975 43.6 
L 460.1448 44.808696 
L 460.17182 46.127273 
L 462.94402 47.571429 
L 464.377264 49.16 
L 465.49996 50.915789 
L 465.842992 52.866667 
L 469.240379 57.5 
L 469.284236 45.453333 
L 470.877028 47.571429 
L 472.453477 50.015385 
L 478.007002 52.866667 
L 483.457508 60.28 
L 483.54871 65.222222 
L 484.155115 43.6 
L 487.320071 47.571429 
L 491.156381 52.866667 
L 495.459691 15.8 
L 562.248557 15.8 
L 562.248557 15.8 
" style="fill:none;stroke:#0000ff;stroke-dasharray:7.4,3.2;stroke-dashoffset:0;stroke-width:2;"/>
   </g>
   <g id="line2d_24">
    <path clip-path="url(#p53153ba726)" d="M 36.710697 16.128205 
L 64.083775 16.210256 
L 64.498555 16.251282 
L 89.279205 16.333333 
L 89.401201 16.374359 
L 97.426552 16.45641 
L 97.532706 16.497436 
L 99.644491 16.579487 
L 99.764401 16.620513 
L 110.221169 16.702564 
L 110.314786 16.74359 
L 120.165108 16.825641 
L 120.308787 16.866667 
L 122.323018 16.948718 
L 122.423143 16.989744 
L 132.654334 17.071795 
L 132.769165 17.112821 
L 137.31911 17.194872 
L 137.426062 17.235897 
L 145.532779 17.317949 
L 145.646646 17.358974 
L 148.635045 17.441026 
L 148.743508 17.482051 
L 156.355178 17.564103 
L 156.485673 17.605128 
L 160.225891 17.687179 
L 160.338449 17.728205 
L 169.180963 17.810256 
L 169.291011 17.851282 
L 172.573359 17.933333 
L 172.687278 17.974359 
L 177.577816 18.05641 
L 177.68979 18.097436 
L 184.5783 18.179487 
L 184.689657 18.220513 
L 187.352819 18.302564 
L 187.494264 18.384615 
L 188.83466 18.466667 
L 188.945332 18.548718 
L 192.542682 18.630769 
L 192.648198 18.671795 
L 194.53711 18.753846 
L 194.651743 18.835897 
L 195.568035 18.917949 
L 195.677207 18.958974 
L 200.15204 19.041026 
L 200.266015 19.123077 
L 202.296449 19.205128 
L 202.411394 19.246154 
L 203.843046 19.328205 
L 203.955679 19.369231 
L 205.375085 19.451282 
L 205.48497 19.492308 
L 206.673984 19.574359 
L 206.793043 19.615385 
L 208.861838 19.697436 
L 208.969857 19.779487 
L 210.510374 19.861538 
L 210.62098 19.902564 
L 212.120043 19.984615 
L 212.228169 20.025641 
L 214.651283 20.107692 
L 214.762175 20.148718 
L 215.845284 20.230769 
L 215.963199 20.312821 
L 216.234818 20.394872 
L 216.345781 20.435897 
L 217.597664 20.517949 
L 217.705585 20.558974 
L 218.651095 20.641026 
L 218.760658 20.682051 
L 219.473906 20.764103 
L 219.58121 20.805128 
L 220.101325 20.887179 
L 220.21501 20.928205 
L 222.371761 21.010256 
L 222.482783 21.051282 
L 223.683789 21.133333 
L 223.795121 21.174359 
L 224.183227 21.25641 
L 224.302137 21.297436 
L 225.008761 21.379487 
L 225.119281 21.420513 
L 226.84677 21.502564 
L 226.987245 21.625641 
L 227.145794 21.707692 
L 227.258979 21.830769 
L 227.986084 21.912821 
L 228.097316 21.994872 
L 228.401212 22.076923 
L 228.516035 22.117949 
L 228.717251 22.2 
L 228.828566 22.282051 
L 230.113887 22.364103 
L 230.227132 22.487179 
L 231.102774 22.569231 
L 231.221462 22.692308 
L 231.767675 22.774359 
L 231.885907 22.85641 
L 232.140348 22.938462 
L 232.243789 23.020513 
L 232.510036 23.102564 
L 232.621272 23.184615 
L 232.969923 23.266667 
L 233.081076 23.348718 
L 233.63097 23.430769 
L 233.748475 23.471795 
L 234.058412 23.553846 
L 234.170485 23.594872 
L 234.762673 23.676923 
L 234.874765 23.8 
L 235.54948 23.882051 
L 235.659337 23.923077 
L 235.856411 24.005128 
L 235.966596 24.046154 
L 236.397975 24.128205 
L 236.512085 24.210256 
L 236.696231 24.292308 
L 236.79836 24.333333 
L 237.501416 24.415385 
L 237.611815 24.45641 
L 238.885663 24.538462 
L 238.997209 24.579487 
L 239.109851 24.661538 
L 239.221091 24.702564 
L 239.540284 24.784615 
L 239.653349 24.866667 
L 240.379185 24.948718 
L 240.492241 25.071795 
L 240.874365 25.153846 
L 240.984481 25.276923 
L 241.203583 25.358974 
L 241.311011 25.4 
L 241.651782 25.482051 
L 241.763003 25.523077 
L 242.310271 25.605128 
L 242.423721 25.687179 
L 242.745008 25.769231 
L 242.856746 25.810256 
L 242.962311 25.892308 
L 243.084078 25.933333 
L 243.35072 26.015385 
L 243.465663 26.097436 
L 243.822497 26.179487 
L 243.936269 26.261538 
L 244.070184 26.34359 
L 244.182406 26.425641 
L 244.429166 26.507692 
L 244.542043 26.589744 
L 244.671307 26.671795 
L 244.782211 26.794872 
L 244.891707 26.876923 
L 245.004363 27 
L 245.61282 27.082051 
L 245.725775 27.246154 
L 246.144034 27.328205 
L 246.259315 27.410256 
L 246.449233 27.492308 
L 246.556856 27.574359 
L 246.815337 27.65641 
L 246.925005 27.697436 
L 247.172009 27.779487 
L 247.287089 27.820513 
L 247.633808 27.902564 
L 247.743953 27.94359 
L 248.039267 28.025641 
L 248.165415 28.148718 
L 248.494603 28.230769 
L 248.611036 28.353846 
L 248.843063 28.435897 
L 248.95705 28.517949 
L 249.112111 28.6 
L 249.212108 28.682051 
L 249.374628 28.764103 
L 249.481631 28.846154 
L 249.758827 28.928205 
L 249.871354 28.969231 
L 250.006479 29.051282 
L 250.112112 29.133333 
L 250.386742 29.215385 
L 250.502587 29.297436 
L 250.760057 29.379487 
L 250.873437 29.461538 
L 251.047849 29.54359 
L 251.161485 29.625641 
L 251.271777 29.707692 
L 251.383191 29.789744 
L 251.522607 29.871795 
L 251.632994 29.912821 
L 251.784586 29.994872 
L 251.896967 30.076923 
L 252.003937 30.158974 
L 252.115833 30.241026 
L 252.509448 30.323077 
L 252.611173 30.405128 
L 253.163222 30.487179 
L 253.267968 30.528205 
L 253.392701 30.569231 
L 253.55163 30.651282 
L 253.658838 30.692308 
L 254.047659 30.774359 
L 254.179155 31.020513 
L 254.507824 31.102564 
L 254.622439 31.266667 
L 254.803468 31.348718 
L 254.916077 31.389744 
L 255.140336 31.471795 
L 255.25137 31.512821 
L 255.34181 31.594872 
L 255.443614 31.8 
L 255.575578 31.882051 
L 255.720168 32.046154 
L 256.094359 32.128205 
L 256.206002 32.251282 
L 256.499986 32.333333 
L 256.610832 32.415385 
L 256.970288 32.497436 
L 257.081125 32.538462 
L 257.176111 32.620513 
L 257.289108 32.702564 
L 257.50188 32.784615 
L 257.609896 32.907692 
L 257.702445 32.989744 
L 257.822458 33.071795 
L 257.972348 33.153846 
L 258.07738 33.194872 
L 258.265497 33.276923 
L 258.392184 33.4 
L 258.743823 33.482051 
L 258.868481 33.687179 
L 259.135796 33.769231 
L 259.244221 33.892308 
L 259.312205 33.974359 
L 259.421616 34.138462 
L 259.613901 34.220513 
L 259.724887 34.34359 
L 259.793009 34.425641 
L 259.929475 34.507692 
L 260.098631 34.589744 
L 260.214091 34.671795 
L 260.425539 34.753846 
L 260.559355 35.041026 
L 260.817917 35.123077 
L 260.935532 35.246154 
L 261.133179 35.328205 
L 261.243187 35.451282 
L 261.465641 35.533333 
L 261.583415 35.65641 
L 261.845718 35.738462 
L 262.020789 35.861538 
L 262.183899 35.94359 
L 262.294673 36.025641 
L 262.502536 36.107692 
L 262.622128 36.230769 
L 262.911506 36.312821 
L 263.013519 36.435897 
L 263.134497 36.476923 
L 263.241881 36.558974 
L 263.350806 36.723077 
L 263.438032 36.805128 
L 263.588908 37.051282 
L 263.647538 37.133333 
L 263.870674 37.25641 
L 263.99 37.338462 
L 264.105761 37.461538 
L 264.183514 37.54359 
L 264.305455 37.584615 
L 264.511836 37.666667 
L 264.629786 37.871795 
L 264.718123 37.953846 
L 264.830676 38.076923 
L 264.932465 38.158974 
L 265.04308 38.323077 
L 265.199038 38.405128 
L 265.307138 38.446154 
L 265.384752 38.528205 
L 265.50257 38.692308 
L 265.582011 38.774359 
L 265.712624 39.102564 
L 265.79816 39.184615 
L 265.918735 39.307692 
L 266.010538 39.389744 
L 266.107947 39.471795 
L 266.308551 39.635897 
L 266.385648 39.717949 
L 266.495056 39.841026 
L 266.611482 39.923077 
L 266.726307 40.169231 
L 266.862272 40.251282 
L 266.9724 40.374359 
L 267.094743 40.45641 
L 267.210649 40.661538 
L 267.269115 40.74359 
L 267.378556 40.825641 
L 267.611219 40.907692 
L 267.729179 41.030769 
L 268.119878 41.112821 
L 268.296264 41.4 
L 268.46422 41.482051 
L 268.577129 41.564103 
L 268.710229 41.646154 
L 268.834125 41.769231 
L 269.031096 41.851282 
L 269.148332 42.138462 
L 269.253901 42.220513 
L 269.359537 42.34359 
L 269.40012 42.425641 
L 269.525588 42.548718 
L 269.808872 42.630769 
L 269.97877 42.876923 
L 270.033669 42.958974 
L 270.142145 43.082051 
L 270.191729 43.164103 
L 270.301274 43.205128 
L 270.420407 43.410256 
L 270.557214 43.492308 
L 270.66741 43.574359 
L 270.776159 43.65641 
L 271.186702 44.148718 
L 271.332784 44.230769 
L 271.447272 44.435897 
L 271.539185 44.517949 
L 271.673556 44.764103 
L 271.756316 44.846154 
L 271.868948 44.928205 
L 271.923882 45.010256 
L 272.513519 45.830769 
L 272.715663 45.912821 
L 272.856655 46.158974 
L 272.992278 46.241026 
L 273.098675 46.405128 
L 273.344703 46.487179 
L 273.60309 46.897436 
L 273.729658 46.979487 
L 273.83035 47.225641 
L 273.93161 47.307692 
L 274.069113 47.430769 
L 274.138565 47.512821 
L 274.263979 47.635897 
L 274.31095 47.717949 
L 274.427366 47.841026 
L 274.509707 47.923077 
L 274.732607 48.333333 
L 274.795822 48.415385 
L 274.909095 48.497436 
L 275.093943 48.579487 
L 275.206576 48.866667 
L 275.268659 48.948718 
L 275.409531 49.153846 
L 275.578378 49.358974 
L 275.605873 49.441026 
L 275.726377 49.605128 
L 275.791024 49.687179 
L 275.993886 49.892308 
L 276.139955 49.974359 
L 276.257895 50.220513 
L 276.417282 50.302564 
L 276.612446 50.589744 
L 276.635874 50.671795 
L 276.741295 50.958974 
L 276.814444 51.041026 
L 276.943004 51.287179 
L 277.365487 51.820513 
L 277.474923 51.902564 
L 277.587599 52.025641 
L 277.680779 52.107692 
L 277.825545 52.271795 
L 277.954068 52.353846 
L 278.085768 52.558974 
L 278.241407 52.682051 
L 278.320703 52.764103 
L 278.425969 52.928205 
L 278.607745 53.010256 
L 278.737586 53.338462 
L 278.827607 53.420513 
L 279.075777 53.912821 
L 279.151394 53.994872 
L 279.246979 54.117949 
L 279.305501 54.2 
L 279.429142 54.241026 
L 279.555112 54.323077 
L 279.734904 54.733333 
L 279.823144 54.815385 
L 279.985056 55.225641 
L 280.063253 55.307692 
L 280.151605 55.389744 
L 280.24989 55.471795 
L 280.352839 55.923077 
L 280.470135 56.005128 
L 280.627054 56.333333 
L 281.04597 56.784615 
L 281.068096 56.866667 
L 281.355812 57.523077 
L 281.460319 57.769231 
L 281.68845 57.851282 
L 281.835273 57.974359 
L 281.907505 58.05641 
L 282.018389 58.302564 
L 282.051512 58.384615 
L 282.180097 58.712821 
L 282.278406 58.794872 
L 282.425436 59.082051 
L 282.511547 59.164103 
L 282.620401 59.369231 
L 282.783389 59.492308 
L 282.805441 59.574359 
L 283.121473 60.025641 
L 283.213211 60.107692 
L 283.340671 60.353846 
L 283.450102 60.435897 
L 283.582311 60.846154 
L 283.656142 60.928205 
L 283.770432 61.174359 
L 283.830017 61.25641 
L 283.958895 61.461538 
L 284.060621 61.54359 
L 284.194827 61.871795 
L 284.281367 61.953846 
L 284.388523 62.117949 
L 284.523342 62.2 
L 284.656807 62.528205 
L 284.701942 62.610256 
L 284.837022 62.979487 
L 284.849146 63.061538 
L 284.959964 63.430769 
L 285.03716 63.512821 
L 285.487161 64.374359 
L 285.537101 64.45641 
L 285.64467 64.661538 
L 285.76335 64.784615 
L 285.862 64.866667 
L 286.041321 65.317949 
L 287.119586 67.205128 
L 287.246901 67.410256 
L 287.410571 67.492308 
L 287.516991 67.861538 
L 287.541653 67.94359 
L 287.667813 68.230769 
L 288.429023 69.789744 
L 288.535238 70.241026 
L 288.60591 70.323077 
L 288.725733 70.528205 
L 288.758438 70.610256 
L 288.912619 70.938462 
L 288.942922 71.020513 
L 289.468694 71.964103 
L 289.632871 72.046154 
L 289.756443 72.415385 
L 289.902781 72.825641 
L 290.168882 73.071795 
L 290.249868 73.153846 
L 290.340606 73.235897 
L 290.396904 73.317949 
L 290.724544 74.097436 
L 290.773516 74.179487 
L 290.953471 74.548718 
L 291.259225 75 
L 291.283594 75.082051 
L 291.410506 75.328205 
L 291.504662 75.410256 
L 291.923683 75.902564 
L 292.051328 76.230769 
L 292.486413 77.051282 
L 292.70979 77.420513 
L 292.803027 77.502564 
L 293.162688 78.446154 
L 293.314692 78.528205 
L 293.59946 79.14359 
L 293.657095 79.225641 
L 293.875174 79.553846 
L 293.936504 79.635897 
L 294.40142 80.251282 
L 294.590467 80.702564 
L 295.371868 81.974359 
L 295.521139 82.261538 
L 295.569811 82.34359 
L 296.048271 82.958974 
L 296.157306 83.246154 
L 296.21579 83.328205 
L 296.311578 83.533333 
L 296.424263 83.738462 
L 296.539268 84.271795 
L 296.589142 84.353846 
L 296.708521 84.723077 
L 296.758988 84.805128 
L 298.850522 89.276923 
L 299.141098 89.892308 
L 299.277916 90.097436 
L 299.376708 90.261538 
L 299.595644 90.794872 
L 299.935193 91.533333 
L 300.283424 92.148718 
L 300.384974 92.435897 
L 300.477114 92.764103 
L 300.690597 93.092308 
L 300.817956 93.174359 
L 300.931205 93.297436 
L 301.024795 93.379487 
L 301.173279 93.871795 
L 301.264377 94.117949 
L 301.373313 94.446154 
L 301.415623 94.528205 
L 301.565034 94.85641 
L 301.655606 94.938462 
L 302.109321 95.964103 
L 302.36619 96.579487 
L 302.550174 97.112821 
L 302.678714 97.358974 
L 302.764281 97.441026 
L 302.860627 97.810256 
L 303.010797 98.138462 
L 303.168407 98.425641 
L 303.221999 98.507692 
L 303.321209 98.671795 
L 303.440635 98.876923 
L 303.563209 99.287179 
L 304.682141 101.830769 
L 304.830566 102.076923 
L 304.960383 102.446154 
L 305.223244 103.184615 
L 305.302769 103.266667 
L 306.040741 104.620513 
L 306.342209 105.235897 
L 306.44546 105.728205 
L 306.532872 105.810256 
L 306.876841 106.466667 
L 306.975549 106.548718 
L 307.08412 106.753846 
L 307.192672 107.246154 
L 308.151296 109.748718 
L 308.264996 110.035897 
L 308.723418 111.512821 
L 308.756872 111.594872 
L 308.945763 112.087179 
L 309.054174 112.292308 
L 309.382843 112.907692 
L 309.530416 113.317949 
L 311.415442 117.174359 
L 311.665404 117.625641 
L 311.857431 117.994872 
L 312.191283 118.528205 
L 312.282071 118.897436 
L 312.356566 118.979487 
L 312.570203 119.512821 
L 312.808596 120.005128 
L 312.914283 120.251282 
L 313.047171 120.579487 
L 313.501109 121.523077 
L 313.589353 121.728205 
L 313.750662 121.974359 
L 313.954408 122.220513 
L 314.27344 122.671795 
L 315.123093 124.394872 
L 315.184736 124.476923 
L 315.373668 124.928205 
L 315.456853 125.010256 
L 315.834458 125.461538 
L 315.988229 126.117949 
L 316.112229 126.405128 
L 316.225085 126.569231 
L 316.525593 126.897436 
L 316.643068 127.225641 
L 316.912868 127.841026 
L 318.154327 130.384615 
L 318.23779 130.466667 
L 318.90025 131.697436 
L 319.023369 131.861538 
L 319.082804 131.94359 
L 319.217636 132.107692 
L 319.331416 132.271795 
L 319.463938 132.476923 
L 319.614185 132.723077 
L 319.900688 133.133333 
L 320.030555 133.461538 
L 320.58063 134.610256 
L 320.686716 134.774359 
L 320.791399 135.061538 
L 320.891235 135.225641 
L 321.04741 135.430769 
L 321.165345 135.676923 
L 321.517914 136.251282 
L 321.848604 136.825641 
L 321.932302 137.071795 
L 321.990546 137.153846 
L 322.421301 138.138462 
L 322.458549 138.220513 
L 322.927511 139 
L 322.983616 139.082051 
L 323.131514 139.369231 
L 323.377271 139.65641 
L 323.680377 140.189744 
L 323.70624 140.271795 
L 323.818657 140.723077 
L 323.868957 140.805128 
L 323.982672 141.133333 
L 324.148749 141.502564 
L 324.195543 141.584615 
L 324.330957 141.912821 
L 324.474187 142.076923 
L 324.629532 142.323077 
L 324.746187 142.528205 
L 324.904899 142.979487 
L 325.051062 143.184615 
L 325.21425 143.676923 
L 326.24721 146.015385 
L 326.371079 146.179487 
L 326.63352 146.589744 
L 326.762479 146.835897 
L 326.868119 147.082051 
L 326.950968 147.328205 
L 327.931033 149.338462 
L 328.118938 149.54359 
L 328.592976 150.528205 
L 328.644858 150.610256 
L 328.762344 150.979487 
L 328.785043 151.061538 
L 328.933111 151.430769 
L 329.40701 152.210256 
L 329.600141 152.579487 
L 330.237969 153.605128 
L 330.380485 153.769231 
L 330.504075 154.097436 
L 330.63447 154.302564 
L 331.172995 155.615385 
L 331.27041 155.94359 
L 332.064252 157.215385 
L 332.171948 157.502564 
L 332.535561 158.035897 
L 332.594178 158.117949 
L 332.715605 158.487179 
L 333.946694 160.497436 
L 334.013466 160.579487 
L 334.127487 160.784615 
L 334.266809 160.948718 
L 335.298989 162.794872 
L 335.498491 163.082051 
L 336.807603 165.092308 
L 337.206795 165.420513 
L 337.653136 166.117949 
L 337.842912 166.610256 
L 337.983556 166.85641 
L 338.09883 167.102564 
L 338.199948 167.307692 
L 338.292721 167.471795 
L 338.712279 167.923077 
L 338.838284 168.210256 
L 338.946471 168.415385 
L 339.139943 168.579487 
L 339.295442 168.784615 
L 339.39117 168.907692 
L 339.486018 169.112821 
L 339.687283 169.441026 
L 339.88008 169.687179 
L 340.100322 169.892308 
L 340.136087 169.974359 
L 340.787634 170.753846 
L 341.017305 171.205128 
L 341.096207 171.287179 
L 341.299663 171.533333 
L 341.487078 171.861538 
L 341.660696 172.066667 
L 341.716545 172.271795 
L 342.20864 172.682051 
L 342.361524 173.010256 
L 342.573798 173.174359 
L 342.801817 173.420513 
L 343.12052 174.117949 
L 343.282199 174.282051 
L 343.678401 175.307692 
L 344.026967 175.676923 
L 344.105865 175.882051 
L 344.237611 176.128205 
L 344.420772 176.333333 
L 346.243596 178.876923 
L 346.342642 179.164103 
L 346.445234 179.328205 
L 346.539726 179.65641 
L 346.832277 180.148718 
L 346.935456 180.353846 
L 347.031972 180.517949 
L 347.258505 180.6 
L 347.390217 180.764103 
L 347.58807 181.010256 
L 347.756488 181.25641 
L 347.913596 181.338462 
L 348.152883 181.707692 
L 348.385239 181.871795 
L 348.410157 181.953846 
L 348.615393 182.035897 
L 348.783624 182.487179 
L 348.924544 182.692308 
L 349.030778 182.85641 
L 349.34676 183.307692 
L 349.437273 183.553846 
L 349.57296 183.758974 
L 349.781891 184.251282 
L 349.837997 184.333333 
L 350.943988 185.564103 
L 351.012384 185.646154 
L 351.11001 185.851282 
L 351.550191 186.466667 
L 351.694919 186.671795 
L 351.956608 187.164103 
L 352.276512 187.328205 
L 352.395664 187.615385 
L 352.677334 187.902564 
L 353.301342 188.969231 
L 353.739044 189.379487 
L 353.953848 189.461538 
L 354.083088 189.666667 
L 354.188974 189.830769 
L 354.504382 190.035897 
L 354.55274 190.158974 
L 354.903829 190.405128 
L 354.995122 190.569231 
L 355.168628 190.774359 
L 355.204028 190.85641 
L 355.470327 191.020513 
L 355.865892 191.266667 
L 356.045403 191.553846 
L 356.2183 191.882051 
L 356.44042 191.964103 
L 356.574082 192.210256 
L 356.728986 192.415385 
L 357.044094 192.74359 
L 357.228726 192.907692 
L 357.366063 193.276923 
L 357.598572 193.358974 
L 358.202822 194.05641 
L 358.330947 194.261538 
L 358.493727 194.507692 
L 358.598157 194.589744 
L 358.76691 194.794872 
L 358.87741 194.917949 
L 359.828713 195.902564 
L 360.061818 196.066667 
L 361.155219 197.379487 
L 361.298613 197.54359 
L 361.447555 197.748718 
L 361.551341 197.830769 
L 361.850999 198.158974 
L 361.881537 198.282051 
L 362.186791 198.364103 
L 362.483778 198.651282 
L 362.582484 198.692308 
L 363.550158 199.758974 
L 363.637236 199.882051 
L 363.892583 200.210256 
L 363.991314 200.415385 
L 364.285853 200.620513 
L 364.384747 200.866667 
L 364.623017 201.071795 
L 364.725804 201.153846 
L 364.805482 201.235897 
L 365.086971 201.4 
L 365.47745 201.728205 
L 367.234005 203.615385 
L 367.729548 203.697436 
L 367.76317 203.820513 
L 368.166322 204.025641 
L 368.576299 204.435897 
L 369.463549 205.338462 
L 369.739351 205.502564 
L 369.915579 205.625641 
L 370.095442 205.830769 
L 370.44173 206.241026 
L 370.456722 206.282051 
L 370.643774 206.446154 
L 371.018957 207.061538 
L 371.12992 207.184615 
L 371.7971 207.758974 
L 371.907014 207.923077 
L 372.126706 208.251282 
L 372.457151 208.497436 
L 372.61004 208.579487 
L 372.74335 208.74359 
L 372.888905 208.866667 
L 373.577643 209.358974 
L 373.680966 209.687179 
L 373.92234 209.851282 
L 374.036404 210.179487 
L 374.576834 210.548718 
L 374.676986 210.712821 
L 375.244843 211.123077 
L 375.449639 211.287179 
L 375.617982 211.492308 
L 376.161699 211.65641 
L 376.428348 211.984615 
L 377.185823 212.517949 
L 377.311969 212.682051 
L 377.365192 212.805128 
L 377.65119 213.051282 
L 377.853406 213.379487 
L 378.208772 213.502564 
L 378.965425 214.076923 
L 379.399316 214.282051 
L 379.78682 214.528205 
L 380.039538 214.733333 
L 381.04151 215.184615 
L 381.120795 215.266667 
L 381.419698 215.471795 
L 381.431433 215.512821 
L 381.822002 215.717949 
L 382.103432 216.005128 
L 382.253856 216.169231 
L 382.430452 216.251282 
L 382.761699 216.415385 
L 382.788467 216.45641 
L 383.007919 216.579487 
L 383.275299 216.784615 
L 383.773644 216.989744 
L 383.891564 217.071795 
L 384.165816 217.235897 
L 384.643251 217.605128 
L 385.082818 217.974359 
L 385.288109 218.138462 
L 385.38723 218.220513 
L 385.43699 218.384615 
L 385.641505 218.548718 
L 385.720699 218.630769 
L 386.112794 218.753846 
L 386.231634 218.917949 
L 386.585154 219.287179 
L 387.0995 219.492308 
L 387.15114 219.615385 
L 387.79258 219.861538 
L 389.736984 221.010256 
L 390.181844 221.379487 
L 390.587082 221.707692 
L 390.868472 221.994872 
L 392.262829 222.528205 
L 392.52966 222.651282 
L 393.1637 222.815385 
L 393.41809 223.061538 
L 393.572658 223.266667 
L 394.084191 223.430769 
L 394.20989 223.635897 
L 396.382858 224.374359 
L 396.390359 224.415385 
L 396.943651 224.579487 
L 397.02831 224.661538 
L 397.899437 225.030769 
L 397.986851 225.153846 
L 398.556376 225.317949 
L 398.627474 225.358974 
L 399.094424 225.523077 
L 399.179194 225.605128 
L 399.697734 225.933333 
L 399.752333 225.974359 
L 400.16769 226.138462 
L 400.32024 226.302564 
L 401.250297 226.753846 
L 402.269543 226.917949 
L 402.564403 227.082051 
L 403.165101 227.287179 
L 403.387007 227.410256 
L 404.245213 227.697436 
L 404.46305 227.779487 
L 405.042709 227.984615 
L 405.211767 228.107692 
L 405.873952 228.271795 
L 406.145264 228.476923 
L 406.950708 228.805128 
L 407.444477 229.133333 
L 408.777989 229.584615 
L 409.319989 229.748718 
L 409.323407 229.789744 
L 412.095436 230.610256 
L 412.250668 230.692308 
L 412.883701 230.85641 
L 413.41323 231.020513 
L 414.687309 231.184615 
L 414.761139 231.266667 
L 418.942346 232.374359 
L 420.087242 232.579487 
L 421.430514 232.866667 
L 421.682414 233.030769 
L 423.361882 233.482051 
L 423.376208 233.523077 
L 425.767559 233.892308 
L 425.7883 233.933333 
L 427.751625 234.34359 
L 427.764086 234.384615 
L 428.153022 234.548718 
L 428.841606 234.753846 
L 430.069145 234.917949 
L 431.425029 235.164103 
L 431.589034 235.246154 
L 432.259107 235.533333 
L 432.8689 235.65641 
L 432.899801 235.697436 
L 434.606793 235.861538 
L 442.490369 236.353846 
L 442.518336 236.394872 
L 451.608099 237.133333 
L 453.27205 237.25641 
L 453.36419 237.297436 
L 455.631975 237.338462 
L 464.377264 237.502564 
L 472.453477 237.748718 
L 524.069638 238.117949 
L 562.248557 238.158974 
L 562.248557 238.158974 
" style="fill:none;stroke:#008000;stroke-linecap:square;stroke-width:2;"/>
   </g>
   <g id="line2d_25">
    <path clip-path="url(#p53153ba726)" d="M 318.807183 238.2 
L 318.807183 38.04 
" style="fill:none;stroke:#ff0000;stroke-dasharray:1.5,2.475;stroke-dashoffset:0;stroke-width:1.5;"/>
   </g>
   <g id="line2d_26">
    <path clip-path="url(#p53153ba726)" d="M 36.8 38.04 
L 318.807183 38.04 
" style="fill:none;stroke:#ff0000;stroke-dasharray:1.5,2.475;stroke-dashoffset:0;stroke-width:1.5;"/>
   </g>
   <g id="line2d_27">
    <path clip-path="url(#p53153ba726)" d="M 36.8 131.451282 
L 318.807183 131.451282 
" style="fill:none;stroke:#ff0000;stroke-dasharray:1.5,2.475;stroke-dashoffset:0;stroke-width:1.5;"/>
   </g>
   <g id="line2d_28">
    <defs>
     <path d="M 0 3 
C 0.795609 3 1.55874 2.683901 2.12132 2.12132 
C 2.683901 1.55874 3 0.795609 3 0 
C 3 -0.795609 2.683901 -1.55874 2.12132 -2.12132 
C 1.55874 -2.683901 0.795609 -3 0 -3 
C -0.795609 -3 -1.55874 -2.683901 -2.12132 -2.12132 
C -2.683901 -1.55874 -3 -0.795609 -3 0 
C -3 0.795609 -2.683901 1.55874 -2.12132 2.12132 
C -1.55874 2.683901 -0.795609 3 0 3 
z
" id="m67e0a9e3be" style="stroke:#ff0000;"/>
    </defs>
    <g clip-path="url(#p53153ba726)">
     <use style="fill:#ff0000;stroke:#ff0000;" x="318.807183" xlink:href="#m67e0a9e3be" y="38.04"/>
    </g>
   </g>
   <g id="line2d_29">
    <g clip-path="url(#p53153ba726)">
     <use style="fill:#ff0000;stroke:#ff0000;" x="318.807183" xlink:href="#m67e0a9e3be" y="131.451282"/>
    </g>
   </g>
   <g id="patch_3">
    <path d="M 36.8 238.2 
L 36.8 15.8 
" style="fill:none;stroke:#000000;stroke-linecap:square;stroke-linejoin:miter;stroke-width:0.8;"/>
   </g>
   <g id="patch_4">
    <path d="M 565.2 238.2 
L 565.2 15.8 
" style="fill:none;stroke:#000000;stroke-linecap:square;stroke-linejoin:miter;stroke-width:0.8;"/>
   </g>
   <g id="patch_5">
    <path d="M 36.8 238.2 
L 565.2 238.2 
" style="fill:none;stroke:#000000;stroke-linecap:square;stroke-linejoin:miter;stroke-width:0.8;"/>
   </g>
   <g id="patch_6">
    <path d="M 36.8 15.8 
L 565.2 15.8 
" style="fill:none;stroke:#000000;stroke-linecap:square;stroke-linejoin:miter;stroke-width:0.8;"/>
   </g>
   <g id="legend_1">
    <g id="patch_7">
     <path d="M 431.4175 152.885 
L 554 152.885 
Q 557.2 152.885 557.2 149.685 
L 557.2 104.315 
Q 557.2 101.115 554 101.115 
L 431.4175 101.115 
Q 428.2175 101.115 428.2175 104.315 
L 428.2175 149.685 
Q 428.2175 152.885 431.4175 152.885 
z
" style="fill:#ffffff;opacity:0.8;stroke:#cccccc;stroke-linejoin:miter;"/>
    </g>
    <g id="line2d_30">
     <path d="M 434.6175 114.0725 
L 466.6175 114.0725 
" style="fill:none;stroke:#0000ff;stroke-dasharray:7.4,3.2;stroke-dashoffset:0;stroke-width:2;"/>
    </g>
    <g id="line2d_31"/>
    <g id="text_13">
     <text style="font-family:DejaVu Sans;font-size:16px;font-style:normal;font-weight:normal;text-anchor:start;" transform="rotate(-0, 479.4175, 119.6725)" x="479.4175" y="119.6725">Precision</text>
    </g>
    <g id="line2d_32">
     <path d="M 434.6175 137.5575 
L 466.6175 137.5575 
" style="fill:none;stroke:#008000;stroke-linecap:square;stroke-width:2;"/>
    </g>
    <g id="line2d_33"/>
    <g id="text_14">
     <text style="font-family:DejaVu Sans;font-size:16px;font-style:normal;font-weight:normal;text-anchor:start;" transform="rotate(-0, 479.4175, 143.1575)" x="479.4175" y="143.1575">Recall</text>
    </g>
   </g>
  </g>
 </g>
 <defs>
  <clipPath id="p53153ba726">
   <rect height="222.4" width="528.4" x="36.8" y="15.8"/>
  </clipPath>
 </defs>
</svg>
