<?xml version="1.0" encoding="utf-8" standalone="no"?>
<!DOCTYPE svg PUBLIC "-//W3C//DTD SVG 1.1//EN"
  "http://www.w3.org/Graphics/SVG/1.1/DTD/svg11.dtd">
<!-- Created with matplotlib (https://matplotlib.org/) -->
<svg height="432pt" version="1.1" viewBox="0 0 576 432" width="576pt" xmlns="http://www.w3.org/2000/svg" xmlns:xlink="http://www.w3.org/1999/xlink">
 <defs>
  <style type="text/css">
*{stroke-linecap:butt;stroke-linejoin:round;}
  </style>
 </defs>
 <g id="figure_1">
  <g id="patch_1">
   <path d="M 0 432 
L 576 432 
L 576 0 
L 0 0 
z
" style="fill:none;"/>
  </g>
  <g id="axes_1">
   <g id="patch_2">
    <path d="M 55.8 382.2 
L 555.7 382.2 
L 555.7 15.8 
L 55.8 15.8 
z
" style="fill:none;"/>
   </g>
   <g id="matplotlib.axis_1">
    <g id="xtick_1">
     <g id="line2d_1">
      <path clip-path="url(#p26c144aa0a)" d="M 55.8 382.2 
L 55.8 15.8 
" style="fill:none;stroke:#b0b0b0;stroke-linecap:square;stroke-width:0.8;"/>
     </g>
     <g id="line2d_2">
      <defs>
       <path d="M 0 0 
L 0 3.5 
" id="mbc9b46c6f8" style="stroke:#000000;stroke-width:0.8;"/>
      </defs>
      <g>
       <use style="stroke:#000000;stroke-width:0.8;" x="55.8" xlink:href="#mbc9b46c6f8" y="382.2"/>
      </g>
     </g>
     <g id="text_1">
      <text style="font-family:DejaVu Sans;font-size:12px;font-style:normal;font-weight:normal;text-anchor:middle;" transform="rotate(-0, 55.8, 398.318125)" x="55.8" y="398.318125">0.0</text>
     </g>
    </g>
    <g id="xtick_2">
     <g id="line2d_3">
      <path clip-path="url(#p26c144aa0a)" d="M 155.78 382.2 
L 155.78 15.8 
" style="fill:none;stroke:#b0b0b0;stroke-linecap:square;stroke-width:0.8;"/>
     </g>
     <g id="line2d_4">
      <g>
       <use style="stroke:#000000;stroke-width:0.8;" x="155.78" xlink:href="#mbc9b46c6f8" y="382.2"/>
      </g>
     </g>
     <g id="text_2">
      <text style="font-family:DejaVu Sans;font-size:12px;font-style:normal;font-weight:normal;text-anchor:middle;" transform="rotate(-0, 155.78, 398.318125)" x="155.78" y="398.318125">0.2</text>
     </g>
    </g>
    <g id="xtick_3">
     <g id="line2d_5">
      <path clip-path="url(#p26c144aa0a)" d="M 255.76 382.2 
L 255.76 15.8 
" style="fill:none;stroke:#b0b0b0;stroke-linecap:square;stroke-width:0.8;"/>
     </g>
     <g id="line2d_6">
      <g>
       <use style="stroke:#000000;stroke-width:0.8;" x="255.76" xlink:href="#mbc9b46c6f8" y="382.2"/>
      </g>
     </g>
     <g id="text_3">
      <text style="font-family:DejaVu Sans;font-size:12px;font-style:normal;font-weight:normal;text-anchor:middle;" transform="rotate(-0, 255.76, 398.318125)" x="255.76" y="398.318125">0.4</text>
     </g>
    </g>
    <g id="xtick_4">
     <g id="line2d_7">
      <path clip-path="url(#p26c144aa0a)" d="M 355.74 382.2 
L 355.74 15.8 
" style="fill:none;stroke:#b0b0b0;stroke-linecap:square;stroke-width:0.8;"/>
     </g>
     <g id="line2d_8">
      <g>
       <use style="stroke:#000000;stroke-width:0.8;" x="355.74" xlink:href="#mbc9b46c6f8" y="382.2"/>
      </g>
     </g>
     <g id="text_4">
      <text style="font-family:DejaVu Sans;font-size:12px;font-style:normal;font-weight:normal;text-anchor:middle;" transform="rotate(-0, 355.74, 398.318125)" x="355.74" y="398.318125">0.6</text>
     </g>
    </g>
    <g id="xtick_5">
     <g id="line2d_9">
      <path clip-path="url(#p26c144aa0a)" d="M 455.72 382.2 
L 455.72 15.8 
" style="fill:none;stroke:#b0b0b0;stroke-linecap:square;stroke-width:0.8;"/>
     </g>
     <g id="line2d_10">
      <g>
       <use style="stroke:#000000;stroke-width:0.8;" x="455.72" xlink:href="#mbc9b46c6f8" y="382.2"/>
      </g>
     </g>
     <g id="text_5">
      <text style="font-family:DejaVu Sans;font-size:12px;font-style:normal;font-weight:normal;text-anchor:middle;" transform="rotate(-0, 455.72, 398.318125)" x="455.72" y="398.318125">0.8</text>
     </g>
    </g>
    <g id="xtick_6">
     <g id="line2d_11">
      <path clip-path="url(#p26c144aa0a)" d="M 555.7 382.2 
L 555.7 15.8 
" style="fill:none;stroke:#b0b0b0;stroke-linecap:square;stroke-width:0.8;"/>
     </g>
     <g id="line2d_12">
      <g>
       <use style="stroke:#000000;stroke-width:0.8;" x="555.7" xlink:href="#mbc9b46c6f8" y="382.2"/>
      </g>
     </g>
     <g id="text_6">
      <text style="font-family:DejaVu Sans;font-size:12px;font-style:normal;font-weight:normal;text-anchor:middle;" transform="rotate(-0, 555.7, 398.318125)" x="555.7" y="398.318125">1.0</text>
     </g>
    </g>
    <g id="text_7">
     <text style="font-family:DejaVu Sans;font-size:16px;font-style:normal;font-weight:normal;text-anchor:middle;" transform="rotate(-0, 305.75, 416.97125)" x="305.75" y="416.97125">Recall</text>
    </g>
   </g>
   <g id="matplotlib.axis_2">
    <g id="ytick_1">
     <g id="line2d_13">
      <path clip-path="url(#p26c144aa0a)" d="M 55.8 382.2 
L 555.7 382.2 
" style="fill:none;stroke:#b0b0b0;stroke-linecap:square;stroke-width:0.8;"/>
     </g>
     <g id="line2d_14">
      <defs>
       <path d="M 0 0 
L -3.5 0 
" id="m67971806b6" style="stroke:#000000;stroke-width:0.8;"/>
      </defs>
      <g>
       <use style="stroke:#000000;stroke-width:0.8;" x="55.8" xlink:href="#m67971806b6" y="382.2"/>
      </g>
     </g>
     <g id="text_8">
      <text style="font-family:DejaVu Sans;font-size:12px;font-style:normal;font-weight:normal;text-anchor:end;" transform="rotate(-0, 48.8, 386.759062)" x="48.8" y="386.759062">0.0</text>
     </g>
    </g>
    <g id="ytick_2">
     <g id="line2d_15">
      <path clip-path="url(#p26c144aa0a)" d="M 55.8 308.92 
L 555.7 308.92 
" style="fill:none;stroke:#b0b0b0;stroke-linecap:square;stroke-width:0.8;"/>
     </g>
     <g id="line2d_16">
      <g>
       <use style="stroke:#000000;stroke-width:0.8;" x="55.8" xlink:href="#m67971806b6" y="308.92"/>
      </g>
     </g>
     <g id="text_9">
      <text style="font-family:DejaVu Sans;font-size:12px;font-style:normal;font-weight:normal;text-anchor:end;" transform="rotate(-0, 48.8, 313.479062)" x="48.8" y="313.479062">0.2</text>
     </g>
    </g>
    <g id="ytick_3">
     <g id="line2d_17">
      <path clip-path="url(#p26c144aa0a)" d="M 55.8 235.64 
L 555.7 235.64 
" style="fill:none;stroke:#b0b0b0;stroke-linecap:square;stroke-width:0.8;"/>
     </g>
     <g id="line2d_18">
      <g>
       <use style="stroke:#000000;stroke-width:0.8;" x="55.8" xlink:href="#m67971806b6" y="235.64"/>
      </g>
     </g>
     <g id="text_10">
      <text style="font-family:DejaVu Sans;font-size:12px;font-style:normal;font-weight:normal;text-anchor:end;" transform="rotate(-0, 48.8, 240.199062)" x="48.8" y="240.199062">0.4</text>
     </g>
    </g>
    <g id="ytick_4">
     <g id="line2d_19">
      <path clip-path="url(#p26c144aa0a)" d="M 55.8 162.36 
L 555.7 162.36 
" style="fill:none;stroke:#b0b0b0;stroke-linecap:square;stroke-width:0.8;"/>
     </g>
     <g id="line2d_20">
      <g>
       <use style="stroke:#000000;stroke-width:0.8;" x="55.8" xlink:href="#m67971806b6" y="162.36"/>
      </g>
     </g>
     <g id="text_11">
      <text style="font-family:DejaVu Sans;font-size:12px;font-style:normal;font-weight:normal;text-anchor:end;" transform="rotate(-0, 48.8, 166.919062)" x="48.8" y="166.919062">0.6</text>
     </g>
    </g>
    <g id="ytick_5">
     <g id="line2d_21">
      <path clip-path="url(#p26c144aa0a)" d="M 55.8 89.08 
L 555.7 89.08 
" style="fill:none;stroke:#b0b0b0;stroke-linecap:square;stroke-width:0.8;"/>
     </g>
     <g id="line2d_22">
      <g>
       <use style="stroke:#000000;stroke-width:0.8;" x="55.8" xlink:href="#m67971806b6" y="89.08"/>
      </g>
     </g>
     <g id="text_12">
      <text style="font-family:DejaVu Sans;font-size:12px;font-style:normal;font-weight:normal;text-anchor:end;" transform="rotate(-0, 48.8, 93.639062)" x="48.8" y="93.639062">0.8</text>
     </g>
    </g>
    <g id="ytick_6">
     <g id="line2d_23">
      <path clip-path="url(#p26c144aa0a)" d="M 55.8 15.8 
L 555.7 15.8 
" style="fill:none;stroke:#b0b0b0;stroke-linecap:square;stroke-width:0.8;"/>
     </g>
     <g id="line2d_24">
      <g>
       <use style="stroke:#000000;stroke-width:0.8;" x="55.8" xlink:href="#m67971806b6" y="15.8"/>
      </g>
     </g>
     <g id="text_13">
      <text style="font-family:DejaVu Sans;font-size:12px;font-style:normal;font-weight:normal;text-anchor:end;" transform="rotate(-0, 48.8, 20.359062)" x="48.8" y="20.359062">1.0</text>
     </g>
    </g>
    <g id="text_14">
     <text style="font-family:DejaVu Sans;font-size:16px;font-style:normal;font-weight:normal;text-anchor:middle;" transform="rotate(-90, 22.38875, 199)" x="22.38875" y="199">Precision</text>
    </g>
   </g>
   <g id="line2d_25">
    <path clip-path="url(#p26c144aa0a)" d="M 555.7 349.07699 
L 555.515569 349.022819 
L 555.515569 348.977297 
L 555.423354 348.792252 
L 555.331138 348.797856 
L 555.331138 348.686749 
L 555.331138 348.663532 
L 555.238923 348.664056 
L 554.962276 348.586062 
L 554.962276 348.570103 
L 554.870061 347.878538 
L 554.68563 347.837098 
L 554.68563 347.779218 
L 554.593414 347.726916 
L 554.501199 347.73269 
L 554.501199 347.621416 
L 554.408984 347.00253 
L 554.224553 346.960454 
L 554.224553 346.903299 
L 554.132337 346.794349 
L 553.855691 346.722017 
L 553.855691 346.701015 
L 553.763475 346.499453 
L 553.67126 346.50542 
L 553.67126 346.394295 
L 553.579044 345.817468 
L 553.486829 345.823539 
L 553.486829 345.712791 
L 553.394614 345.509003 
L 553.117967 345.416084 
L 553.025752 345.252331 
L 552.933536 345.258493 
L 552.933536 345.14762 
L 552.841321 344.488835 
L 552.564674 344.414584 
L 552.564674 344.396491 
L 552.472459 343.77277 
L 552.380243 343.779156 
L 552.380243 343.668109 
L 552.288028 343.03975 
L 552.195813 343.046246 
L 552.195813 342.935563 
L 552.103597 342.867688 
L 552.011382 342.874212 
L 552.011382 342.7633 
L 551.919166 342.461425 
L 551.734735 342.399976 
L 551.734735 342.363768 
L 551.64252 341.112767 
L 551.550304 341.119552 
L 551.550304 341.008733 
L 551.458089 340.668125 
L 551.365873 340.674976 
L 551.365873 340.564341 
L 551.273658 339.798329 
L 551.181443 339.805307 
L 551.181443 339.69453 
L 551.089227 338.472983 
L 550.997012 338.480153 
L 550.997012 338.369125 
L 550.904796 337.826698 
L 550.812581 337.833962 
L 550.812581 337.722598 
L 550.720365 336.750378 
L 550.62815 336.757796 
L 550.62815 336.647246 
L 550.535934 335.445743 
L 550.443719 335.453345 
L 550.443719 335.341893 
L 550.351503 333.93761 
L 550.259288 333.945424 
L 550.259288 333.834947 
L 550.167072 333.079732 
L 550.074857 333.087666 
L 550.074857 332.976881 
L 549.982642 332.858686 
L 549.890426 332.866653 
L 549.890426 332.756071 
L 549.798211 332.348457 
L 549.521564 332.269852 
L 549.521564 332.262225 
L 549.429349 330.732088 
L 549.337133 330.740352 
L 549.337133 330.629381 
L 549.244918 330.422511 
L 549.152702 330.43082 
L 549.152702 330.319839 
L 549.060487 329.522306 
L 548.876056 329.512263 
L 548.876056 329.428531 
L 548.783841 329.151186 
L 548.691625 329.159673 
L 548.691625 329.04883 
L 548.59941 328.5212 
L 548.507194 328.529773 
L 548.507194 328.419192 
L 548.414979 326.355074 
L 548.230548 326.332945 
L 548.230548 326.262668 
L 548.138332 325.448924 
L 548.046117 325.457907 
L 548.046117 325.347398 
L 547.953901 324.278825 
L 547.861686 324.287962 
L 547.861686 324.177968 
L 547.861686 323.956721 
L 547.769471 323.958961 
L 547.677255 323.968143 
L 547.677255 323.856887 
L 547.58504 323.262581 
L 547.492824 323.271855 
L 547.492824 323.161446 
L 547.400609 322.583396 
L 547.216178 322.556612 
L 547.216178 322.490951 
L 547.123962 321.524324 
L 547.031747 321.533827 
L 547.031747 321.42237 
L 546.939531 320.198145 
L 546.755101 320.170186 
L 546.755101 320.107003 
L 546.662885 319.514075 
L 546.57067 319.523836 
L 546.57067 319.412841 
L 546.478454 318.692576 
L 546.386239 318.702443 
L 546.386239 318.592625 
L 546.386239 317.406488 
L 546.294023 317.414361 
L 546.201808 317.424387 
L 546.201808 317.314379 
L 546.109592 315.420827 
L 546.017377 315.431098 
L 546.017377 315.321055 
L 545.925161 314.315035 
L 545.832946 314.325441 
L 545.832946 314.214051 
L 545.74073 313.560559 
L 545.5563 313.496766 
L 545.5563 313.470074 
L 545.464084 313.410126 
L 545.371869 313.420649 
L 545.371869 313.311039 
L 545.279653 311.726717 
L 545.003007 311.715466 
L 545.003007 311.648949 
L 544.910791 310.707317 
L 544.818576 310.718166 
L 544.818576 310.607546 
L 544.72636 310.388201 
L 544.634145 310.399091 
L 544.634145 310.287438 
L 544.54193 309.656386 
L 544.449714 309.667364 
L 544.449714 309.556097 
L 544.357499 309.187355 
L 544.265283 309.19839 
L 544.265283 309.08839 
L 544.173068 308.057619 
L 544.080852 308.068786 
L 544.080852 307.958151 
L 543.988637 306.001006 
L 543.896421 306.012406 
L 543.896421 305.901503 
L 543.804206 305.032459 
L 543.71199 305.04397 
L 543.71199 304.933264 
L 543.619775 304.031908 
L 543.527559 304.043533 
L 543.527559 303.933053 
L 543.435344 303.579516 
L 543.343129 303.591194 
L 543.343129 303.479389 
L 543.250913 302.803821 
L 543.158698 302.815586 
L 543.158698 302.704783 
L 543.066482 300.969086 
L 542.974267 300.981051 
L 542.974267 300.871854 
L 542.882051 299.663118 
L 542.605405 299.681843 
L 542.605405 299.590211 
L 542.513189 299.354642 
L 542.144328 299.357095 
L 542.144328 299.293118 
L 542.052112 298.940909 
L 541.959897 298.953112 
L 541.959897 298.841747 
L 541.867681 297.955969 
L 541.775466 297.968278 
L 541.775466 297.857902 
L 541.68325 297.485375 
L 541.498819 297.431978 
L 541.498819 297.398453 
L 541.406604 296.919894 
L 541.222173 296.9259 
L 541.222173 296.835319 
L 541.129958 295.605937 
L 541.037742 295.618502 
L 541.037742 295.509496 
L 540.945527 294.396848 
L 540.853311 294.409539 
L 540.853311 294.297423 
L 540.761096 294.241923 
L 540.66888 294.254633 
L 540.66888 294.146104 
L 540.576665 292.893398 
L 540.484449 292.906246 
L 540.484449 292.794318 
L 540.392234 292.60335 
L 540.300018 292.616232 
L 540.300018 292.507711 
L 540.207803 292.390882 
L 540.023372 292.316029 
L 540.023372 292.30763 
L 539.931157 291.429898 
L 539.838941 291.442905 
L 539.838941 291.331415 
L 539.838941 291.318533 
L 539.746726 291.331553 
L 539.746726 291.318669 
L 539.65451 291.331692 
L 539.65451 291.219885 
L 539.562295 290.93056 
L 539.470079 290.943625 
L 539.470079 290.835162 
L 539.377864 290.363579 
L 539.101217 290.345872 
L 539.101217 290.293118 
L 539.009002 289.935307 
L 538.916787 289.948481 
L 538.916787 289.837511 
L 538.824571 289.56095 
L 538.732356 289.574165 
L 538.732356 289.462249 
L 538.64014 288.364324 
L 538.547925 288.377656 
L 538.547925 288.267385 
L 538.455709 287.767382 
L 538.363494 287.780775 
L 538.363494 287.669053 
L 538.271278 287.519069 
L 538.179063 287.53249 
L 538.179063 287.424823 
L 538.086847 286.271286 
L 537.994632 286.284826 
L 537.994632 286.174258 
L 537.902417 286.076997 
L 537.810201 286.090561 
L 537.810201 285.979502 
L 537.717986 284.590457 
L 537.62577 284.60416 
L 537.62577 284.49458 
L 537.533555 284.503307 
L 537.533555 284.413467 
L 537.441339 284.427191 
L 537.441339 284.31717 
L 537.349124 283.999384 
L 537.256908 284.01315 
L 537.256908 283.902153 
L 537.164693 283.285643 
L 536.980262 283.313313 
L 536.980262 283.205789 
L 536.888046 282.637064 
L 536.795831 282.650964 
L 536.795831 282.541951 
L 536.703616 282.196022 
L 536.6114 282.209965 
L 536.6114 282.099942 
L 536.519185 281.629065 
L 536.426969 281.643063 
L 536.426969 281.531745 
L 536.334754 280.348384 
L 536.242538 280.362497 
L 536.242538 280.253725 
L 536.150323 278.360087 
L 536.058107 278.374373 
L 536.058107 278.266928 
L 535.965892 276.759257 
L 535.689246 276.767564 
L 535.689246 276.691722 
L 535.689246 275.844266 
L 535.59703 275.858772 
L 535.412599 275.798749 
L 535.412599 275.780924 
L 535.320384 274.684623 
L 535.228168 274.699233 
L 535.228168 274.589922 
L 535.135953 273.61073 
L 534.951522 273.602978 
L 534.951522 273.528592 
L 534.859306 273.076111 
L 534.767091 273.090861 
L 534.767091 272.984413 
L 534.674875 272.992906 
L 534.674875 272.546058 
L 534.398229 272.482945 
L 534.306014 271.745715 
L 534.121583 271.717684 
L 534.121583 271.666279 
L 534.029367 270.56435 
L 533.844936 270.548366 
L 533.844936 270.482696 
L 533.752721 269.275507 
L 533.660505 269.29058 
L 533.660505 269.183048 
L 533.56829 268.854024 
L 533.476075 268.869135 
L 533.476075 268.760755 
L 533.476075 268.570592 
L 533.383859 268.578923 
L 533.291644 268.59406 
L 533.291644 268.485111 
L 533.199428 267.496438 
L 532.922782 267.437993 
L 532.922782 267.431045 
L 532.830566 266.557096 
L 532.738351 266.572396 
L 532.738351 266.466471 
L 532.646135 266.269363 
L 532.55392 266.28469 
L 532.55392 266.178196 
L 532.461704 265.370588 
L 532.277274 265.300414 
L 532.277274 265.293195 
L 532.185058 264.822944 
L 532.000627 264.751856 
L 532.000627 264.744565 
L 531.908412 264.752729 
L 531.908412 264.635946 
L 531.816196 264.651411 
L 531.816196 264.541723 
L 531.723981 264.131169 
L 531.631765 264.146675 
L 531.631765 264.036 
L 531.631765 263.769531 
L 531.53955 263.777647 
L 531.447334 263.793183 
L 531.447334 263.681801 
L 531.355119 263.099792 
L 531.078473 263.109024 
L 531.078473 263.033874 
L 530.986257 263.041956 
L 530.986257 262.725267 
L 530.801826 262.748962 
L 530.801826 262.650599 
L 530.709611 262.408228 
L 530.617395 262.423884 
L 530.617395 262.317329 
L 530.52518 262.317758 
L 530.52518 262.249145 
L 530.432964 262.264818 
L 530.432964 262.157938 
L 530.340749 260.413771 
L 530.248533 260.429572 
L 530.248533 260.319351 
L 530.156318 260.264204 
L 529.971887 260.193213 
L 529.971887 260.185312 
L 529.879672 259.213424 
L 529.787456 259.229318 
L 529.787456 259.116803 
L 529.695241 258.729207 
L 529.603025 258.745137 
L 529.603025 258.6398 
L 529.51081 258.265266 
L 529.326379 258.215552 
L 529.326379 258.191036 
L 529.234163 257.838133 
L 529.141948 257.854136 
L 529.141948 257.747168 
L 529.141948 257.076509 
L 529.049733 257.084237 
L 528.957517 257.100293 
L 528.957517 256.991981 
L 528.865302 256.337405 
L 528.773086 256.353512 
L 528.773086 256.243861 
L 528.680871 254.886055 
L 528.588655 254.902257 
L 528.588655 254.790016 
L 528.49644 254.659161 
L 528.404224 254.675382 
L 528.404224 254.562697 
L 528.312009 253.635075 
L 528.219793 253.651363 
L 528.219793 253.545634 
L 528.127578 253.199395 
L 528.035362 253.215715 
L 528.035362 253.109226 
L 527.943147 252.429109 
L 527.850932 252.445479 
L 527.850932 252.337672 
L 527.758716 251.884837 
L 527.666501 251.901244 
L 527.666501 251.792488 
L 527.574285 251.590858 
L 527.48207 251.607289 
L 527.48207 251.497998 
L 527.389854 251.112159 
L 527.297639 251.128622 
L 527.297639 251.018486 
L 527.205423 250.786487 
L 527.113208 250.802975 
L 527.113208 250.692247 
L 527.020992 250.217482 
L 526.836562 250.213315 
L 526.836562 250.138809 
L 526.744346 249.715944 
L 526.559915 249.645822 
L 526.559915 249.636428 
L 526.4677 249.257255 
L 526.375484 249.273852 
L 526.375484 249.169819 
L 526.283269 248.654293 
L 526.191053 248.670929 
L 526.191053 248.565909 
L 526.098838 247.920034 
L 526.006622 247.936716 
L 526.006622 247.830495 
L 525.914407 247.508105 
L 525.822191 247.524814 
L 525.822191 247.417898 
L 525.729976 246.45486 
L 525.637761 246.47163 
L 525.637761 246.362992 
L 525.545545 246.270964 
L 525.45333 246.287749 
L 525.45333 246.178774 
L 525.361114 245.427857 
L 525.268899 245.444692 
L 525.268899 245.334317 
L 525.176683 244.917998 
L 525.084468 244.934865 
L 525.084468 244.82362 
L 524.992252 244.077217 
L 524.900037 244.094132 
L 524.900037 243.981476 
L 524.807821 243.854759 
L 524.715606 243.871691 
L 524.715606 243.768913 
L 524.623391 243.331832 
L 524.43896 243.35541 
L 524.43896 243.26217 
L 524.346744 242.936206 
L 524.254529 242.953198 
L 524.254529 242.848948 
L 524.162313 242.656989 
L 524.070098 242.674001 
L 524.070098 242.569291 
L 523.977882 241.975908 
L 523.885667 241.992959 
L 523.885667 241.887182 
L 523.793451 241.575331 
L 523.701236 241.592407 
L 523.701236 241.485982 
L 523.60902 241.150736 
L 523.42459 241.152828 
L 523.42459 241.077837 
L 523.332374 240.912504 
L 523.240159 240.929627 
L 523.240159 240.82209 
L 523.240159 239.792271 
L 523.147943 239.809447 
L 523.055728 239.826626 
L 523.055728 239.71736 
L 523.055728 239.179524 
L 522.963512 239.185715 
L 522.871297 239.202928 
L 522.871297 239.092659 
L 522.779081 237.795797 
L 522.686866 237.813076 
L 522.686866 237.700608 
L 522.59465 236.354533 
L 522.502435 236.371878 
L 522.502435 236.268592 
L 522.41022 235.767333 
L 522.318004 235.784708 
L 522.318004 235.680547 
L 522.225789 234.941263 
L 522.133573 234.958678 
L 522.133573 234.853296 
L 522.041358 233.701531 
L 521.856927 233.641187 
L 521.856927 233.629268 
L 521.764711 233.634826 
L 521.764711 233.515516 
L 521.58028 233.442955 
L 521.488065 232.485622 
L 521.303634 232.472225 
L 521.303634 232.411597 
L 521.211419 231.930148 
L 521.119203 231.947712 
L 521.119203 231.837736 
L 521.026988 231.647141 
L 520.934772 231.664723 
L 520.934772 231.554288 
L 520.842557 231.276599 
L 520.750341 231.2942 
L 520.750341 231.183177 
L 520.658126 229.931047 
L 520.56591 229.948701 
L 520.56591 229.835644 
L 520.473695 229.247502 
L 520.381479 229.265186 
L 520.381479 229.163754 
L 520.289264 228.608389 
L 520.197049 228.626101 
L 520.197049 228.523778 
L 520.104833 228.374935 
L 519.920402 228.371905 
L 519.920402 228.307719 
L 519.920402 228.179187 
L 519.828187 228.184061 
L 519.735971 228.201805 
L 519.735971 228.098813 
L 519.643756 227.755016 
L 519.367109 227.704714 
L 519.274894 227.70953 
L 519.274894 227.683605 
L 519.182678 227.701385 
L 519.182678 227.597598 
L 519.090463 226.12118 
L 518.906032 226.064166 
L 518.906032 226.050916 
L 518.813817 225.829885 
L 518.721601 225.847739 
L 518.721601 225.741341 
L 518.629386 224.768136 
L 518.352739 224.740918 
L 518.352739 224.713933 
L 518.260524 223.576381 
L 518.168308 223.594319 
L 518.168308 223.4847 
L 518.076093 222.245006 
L 517.891662 222.211293 
L 517.891662 222.169459 
L 517.799447 221.837984 
L 517.707231 221.855985 
L 517.707231 221.743836 
L 517.615016 220.745429 
L 517.338369 220.728485 
L 517.338369 220.700044 
L 517.246154 220.347458 
L 517.061723 220.31211 
L 517.061723 220.283506 
L 516.969507 219.914427 
L 516.877292 219.932507 
L 516.877292 219.831836 
L 516.785077 219.344696 
L 516.692861 219.362796 
L 516.692861 219.261376 
L 516.600646 219.264982 
L 516.600646 218.857971 
L 516.416215 218.792143 
L 516.416215 218.30925 
L 516.323999 218.312709 
L 516.231784 218.330849 
L 516.231784 218.228036 
L 516.139568 216.957539 
L 516.047353 216.975714 
L 516.047353 216.871151 
L 516.047353 216.331302 
L 515.955137 216.349492 
L 515.862922 216.367686 
L 515.862922 216.262309 
L 515.770707 216.039149 
L 515.678491 216.057356 
L 515.678491 215.951542 
L 515.586276 215.848661 
L 515.49406 215.866879 
L 515.49406 215.76078 
L 515.401845 215.047817 
L 515.309629 215.066056 
L 515.309629 214.95889 
L 515.217414 214.485483 
L 515.125198 214.50374 
L 515.125198 214.395807 
L 515.032983 214.104929 
L 514.848552 214.095005 
L 514.848552 214.033008 
L 514.756336 214.03578 
L 514.756336 213.973727 
L 514.664121 213.99201 
L 514.664121 213.883309 
L 514.571906 213.792757 
L 514.47969 213.811051 
L 514.47969 213.702071 
L 514.387475 213.173358 
L 514.295259 213.191669 
L 514.295259 213.081842 
L 514.203044 212.533079 
L 514.018613 212.538123 
L 514.018613 212.459034 
L 514.018613 212.300635 
L 513.926397 212.303117 
L 513.741966 212.292221 
L 513.741966 212.228734 
L 513.649751 211.609602 
L 513.46532 211.614334 
L 513.46532 211.534284 
L 513.373105 210.861125 
L 513.280889 210.87951 
L 513.280889 210.766406 
L 513.188674 210.086732 
L 513.096458 210.105134 
L 513.096458 210.007278 
L 513.004243 209.665932 
L 512.727596 209.622814 
L 512.635381 209.526332 
L 512.45095 209.497468 
L 512.45095 209.464585 
L 512.358735 208.739836 
L 512.266519 208.758286 
L 512.266519 208.658712 
L 512.174304 208.527593 
L 511.989873 208.514603 
L 511.989873 208.46466 
L 511.989873 207.795997 
L 511.897657 207.79769 
L 511.805442 207.816169 
L 511.805442 207.715408 
L 511.713226 207.262134 
L 511.621011 207.280626 
L 511.621011 207.179204 
L 511.528795 206.620751 
L 511.43658 206.639255 
L 511.43658 206.537046 
L 511.344365 206.042725 
L 511.252149 206.061242 
L 511.252149 205.958317 
L 511.252149 205.614364 
L 511.159934 205.632888 
L 511.067718 205.651415 
L 511.067718 205.547969 
L 510.975503 205.151503 
L 510.883287 205.170041 
L 510.883287 205.065987 
L 510.791072 204.370214 
L 510.698856 204.388765 
L 510.698856 204.283748 
L 510.606641 203.70486 
L 510.514425 203.723422 
L 510.514425 203.617574 
L 510.42221 203.211494 
L 510.329994 203.230066 
L 510.329994 203.123589 
L 510.237779 202.231974 
L 510.145564 202.250558 
L 510.145564 202.142869 
L 510.053348 201.675255 
L 509.961133 201.693848 
L 509.961133 201.585447 
L 509.868917 201.332471 
L 509.776702 201.351073 
L 509.776702 201.242215 
L 509.684486 200.293524 
L 509.592271 200.312136 
L 509.592271 200.201978 
L 509.500055 199.667801 
L 509.315624 199.631084 
L 509.315624 199.594082 
L 509.223409 198.944095 
L 509.131194 198.962726 
L 509.131194 198.850814 
L 509.038978 198.72002 
L 508.762332 198.663716 
L 508.670116 198.175619 
L 508.577901 198.194272 
L 508.577901 198.081281 
L 508.485685 197.816853 
L 508.39347 197.835514 
L 508.39347 197.740958 
L 508.301254 197.551258 
L 508.024608 197.550365 
L 508.024608 197.512406 
L 507.932393 197.322034 
L 507.747962 197.283266 
L 507.747962 197.264222 
L 507.655746 197.206698 
L 507.563531 197.225392 
L 507.563531 197.130034 
L 507.471315 196.035353 
L 507.194669 196.01418 
L 507.194669 195.99485 
L 507.102453 195.587283 
L 507.010238 195.605995 
L 507.010238 195.508841 
L 506.918023 195.196474 
L 506.825807 195.215192 
L 506.825807 195.117591 
L 506.733592 194.253289 
L 506.549161 194.21184 
L 506.549161 194.192106 
L 506.456945 193.755799 
L 506.180299 193.792167 
L 506.180299 193.712787 
L 506.088083 193.193957 
L 505.811437 193.150307 
L 505.719222 193.109076 
L 505.627006 193.127832 
L 505.627006 193.027773 
L 505.534791 192.564767 
L 505.35036 192.541898 
L 505.35036 192.501614 
L 505.258144 192.359073 
L 505.073713 192.336056 
L 505.073713 192.29566 
L 504.981498 191.543617 
L 504.797067 191.520051 
L 504.797067 191.479282 
L 504.704852 191.007461 
L 504.612636 191.026244 
L 504.612636 190.923716 
L 504.520421 190.613669 
L 504.33599 190.589463 
L 504.33599 190.548253 
L 504.243774 190.029681 
L 504.059343 190.067271 
L 504.059343 189.963583 
L 503.967128 189.899352 
L 503.782697 189.83307 
L 503.690481 189.768685 
L 503.598266 189.787499 
L 503.598266 189.683402 
L 503.598266 189.537477 
L 503.506051 189.556292 
L 503.32162 189.510446 
L 503.32162 189.489563 
L 503.229404 189.236492 
L 503.044973 189.211295 
L 503.044973 189.169368 
L 503.044973 189.106444 
L 502.952758 189.125277 
L 502.860542 189.144115 
L 502.860542 189.039147 
L 502.768327 188.446913 
L 502.676111 188.46575 
L 502.676111 188.36 
L 502.583896 187.954678 
L 502.491681 187.973517 
L 502.491681 187.867185 
L 502.399465 187.67301 
L 502.30725 187.691854 
L 502.30725 187.585169 
L 502.215034 187.218973 
L 502.122819 187.237819 
L 502.122819 187.130591 
L 502.030603 186.762434 
L 501.846172 186.778586 
L 501.846172 186.692355 
L 501.753957 186.127144 
L 501.47731 186.162006 
L 501.47731 186.075158 
L 501.385095 185.724048 
L 501.108449 185.73702 
L 501.108449 185.671554 
L 501.016233 185.384335 
L 500.739587 185.331403 
L 500.739587 184.671508 
L 500.647371 184.690379 
L 500.555156 184.709253 
L 500.555156 184.598837 
L 500.46294 183.774483 
L 500.370725 183.793351 
L 500.370725 183.681861 
L 500.27851 183.544432 
L 500.001863 183.533994 
L 500.001863 183.489259 
L 499.909648 183.194429 
L 499.725217 183.11991 
L 499.725217 183.07496 
L 499.633001 183.093847 
L 499.540786 183.112737 
L 499.540786 183.000271 
L 499.44857 182.386987 
L 499.356355 182.405872 
L 499.356355 182.292559 
L 499.264139 181.765738 
L 499.171924 181.784619 
L 499.171924 181.693376 
L 499.079709 181.598087 
L 498.987493 181.616972 
L 498.987493 181.525538 
L 498.895278 180.00039 
L 498.803062 180.019251 
L 498.803062 179.926316 
L 498.803062 179.20316 
L 498.710847 179.222007 
L 498.618631 179.240858 
L 498.618631 179.147167 
L 498.526416 178.978373 
L 498.4342 178.997227 
L 498.4342 178.903271 
L 498.341985 178.710404 
L 498.249769 178.729259 
L 498.249769 178.635016 
L 498.157554 178.228687 
L 498.065338 178.247539 
L 498.065338 178.15281 
L 497.973123 177.672875 
L 497.880908 177.691722 
L 497.880908 177.596436 
L 497.788692 176.945769 
L 497.696477 176.964605 
L 497.696477 176.8686 
L 497.696477 176.652259 
L 497.604261 176.671092 
L 497.512046 176.68993 
L 497.512046 176.593627 
L 497.41983 176.274686 
L 497.327615 176.293521 
L 497.327615 176.196806 
L 497.235399 175.560415 
L 497.143184 175.579239 
L 497.143184 175.481811 
L 497.050968 175.281081 
L 496.866538 175.220999 
L 496.774322 175.09305 
L 496.497676 175.051579 
L 496.40546 174.505232 
L 496.221029 174.493602 
L 496.221029 174.444284 
L 496.128814 174.290315 
L 496.036598 174.309151 
L 496.036598 174.210273 
L 496.036598 173.913075 
L 495.944383 173.931904 
L 495.759952 173.919957 
L 495.759952 173.870313 
L 495.667737 173.789793 
L 495.575521 173.808634 
L 495.575521 173.709176 
L 495.483306 172.652777 
L 495.39109 172.671593 
L 495.39109 172.571003 
L 495.298875 172.363134 
L 495.114444 172.400769 
L 495.114444 172.299856 
L 495.022228 172.16712 
L 494.930013 172.185941 
L 494.930013 172.084778 
L 494.837797 171.672556 
L 494.745582 171.69137 
L 494.745582 171.589687 
L 494.653367 171.430315 
L 494.561151 171.44913 
L 494.561151 171.34717 
L 494.468936 171.187312 
L 494.37672 171.206127 
L 494.37672 171.103889 
L 494.284505 170.969156 
L 494.192289 170.987971 
L 494.192289 170.885479 
L 494.100074 170.106564 
L 493.731212 170.130091 
L 493.731212 170.078386 
L 493.638996 169.318551 
L 493.546781 169.337339 
L 493.546781 169.233084 
L 493.454566 168.964635 
L 493.36235 168.983419 
L 493.36235 168.878773 
L 493.270135 168.556735 
L 493.085704 168.515484 
L 493.085704 168.4892 
L 492.993488 168.271133 
L 492.809057 168.282346 
L 492.809057 168.203254 
L 492.716842 168.169276 
L 492.440196 168.146453 
L 492.440196 168.120039 
L 492.34798 167.369978 
L 492.163549 167.407532 
L 492.163549 167.301041 
L 492.071334 167.133201 
L 491.979118 167.151979 
L 491.979118 167.045189 
L 491.886903 166.44784 
L 491.794687 166.4666 
L 491.794687 166.359083 
L 491.702472 166.000674 
L 491.610256 166.019426 
L 491.610256 165.911416 
L 491.518041 165.55127 
L 491.33361 165.534519 
L 491.33361 165.48025 
L 491.241395 165.281645 
L 491.056964 165.291935 
L 491.056964 165.210289 
L 490.964748 165.065553 
L 490.780317 164.993917 
L 490.688102 164.848755 
L 490.503671 164.831563 
L 490.503671 164.776838 
L 490.411455 164.4941 
L 490.31924 164.512848 
L 490.31924 164.403002 
L 490.227025 163.815587 
L 489.858163 163.807598 
L 489.858163 163.779939 
L 489.765947 163.660279 
L 489.581516 163.697769 
L 489.581516 163.58691 
L 489.489301 163.411376 
L 489.30487 163.421085 
L 489.30487 163.337687 
L 489.212654 163.105852 
L 489.120439 163.124596 
L 489.120439 163.013036 
L 489.120439 162.845484 
L 489.028224 162.86422 
L 488.843793 162.845793 
L 488.843793 162.78985 
L 488.843793 162.761867 
L 488.751577 162.780612 
L 488.659362 162.799362 
L 488.659362 162.687352 
L 488.659362 162.491058 
L 488.567146 162.509799 
L 488.382715 162.519223 
L 488.382715 162.434957 
L 488.2905 162.087793 
L 488.198284 162.106533 
L 488.198284 161.993694 
L 488.106069 161.020088 
L 487.829423 161.019224 
L 487.829423 160.990722 
L 487.737207 160.752568 
L 487.644992 160.771274 
L 487.644992 160.685515 
L 487.552776 160.589769 
L 487.460561 160.608475 
L 487.460561 160.522554 
L 487.368345 160.397905 
L 487.27613 160.416611 
L 487.27613 160.330503 
L 487.183914 159.484407 
L 486.907268 159.511492 
L 486.907268 159.453576 
L 486.815053 158.658217 
L 486.722837 158.676867 
L 486.722837 158.589291 
L 486.722837 158.091728 
L 486.630622 158.110355 
L 486.538406 158.128987 
L 486.538406 158.040943 
L 486.538406 157.95283 
L 486.446191 157.971459 
L 486.26176 157.949941 
L 486.26176 157.920535 
L 486.169544 157.526659 
L 485.985113 157.534385 
L 485.985113 157.475309 
L 485.892898 157.346105 
L 485.800683 157.364732 
L 485.800683 157.275935 
L 485.708467 157.087085 
L 485.616252 157.105707 
L 485.616252 157.016667 
L 485.524036 156.827244 
L 485.155174 156.812446 
L 485.062959 156.26385 
L 484.970743 156.282459 
L 484.970743 156.192631 
L 484.878528 155.941314 
L 484.786312 155.959915 
L 484.786312 155.869792 
L 484.694097 155.346113 
L 484.601882 155.364692 
L 484.601882 155.274054 
L 484.509666 155.141402 
L 484.23302 155.106297 
L 484.140804 154.395422 
L 483.771942 154.408654 
L 483.771942 154.378135 
L 483.679727 153.876605 
L 483.495296 153.883031 
L 483.495296 153.821664 
L 483.403081 153.440501 
L 483.21865 153.477576 
L 483.21865 153.385125 
L 483.21865 153.354292 
L 483.126434 153.37283 
L 482.849788 153.335905 
L 482.757572 152.921449 
L 482.665357 152.939984 
L 482.665357 152.846978 
L 482.573141 152.679264 
L 482.480926 152.697793 
L 482.480926 152.60455 
L 482.480926 152.511232 
L 482.388711 152.529756 
L 482.20428 152.56682 
L 482.20428 152.47341 
L 482.112064 151.584997 
L 482.019849 151.603486 
L 482.019849 151.509249 
L 482.019849 151.257575 
L 481.927633 151.27605 
L 481.743202 151.25 
L 481.743202 151.21848 
L 481.650987 151.04765 
L 481.374341 151.008313 
L 481.374341 150.786835 
L 481.282125 150.805311 
L 481.097694 150.842278 
L 481.097694 150.747213 
L 481.005479 150.543562 
L 480.821048 150.485181 
L 480.728832 150.376411 
L 480.452186 150.33632 
L 480.35997 149.939832 
L 480.267755 149.958303 
L 480.267755 149.862323 
L 480.267755 149.605985 
L 480.17554 149.624441 
L 479.991109 149.565079 
L 479.898893 149.422876 
L 479.806678 149.441337 
L 479.806678 149.344824 
L 479.714462 149.040975 
L 479.530031 149.013296 
L 479.530031 148.980995 
L 479.437816 148.546252 
L 479.253385 148.485762 
L 479.16117 148.146515 
L 479.068954 148.164932 
L 479.068954 148.067186 
L 478.976739 147.791858 
L 478.884523 147.810262 
L 478.884523 147.712177 
L 478.792308 147.107428 
L 478.515661 147.129657 
L 478.515661 147.063839 
L 478.423446 146.950462 
L 478.239015 146.888294 
L 478.146799 146.31133 
L 478.054584 146.329678 
L 478.054584 146.230155 
L 477.962369 146.148888 
L 477.870153 146.167234 
L 477.870153 146.06753 
L 477.777938 145.919504 
L 477.409076 145.892933 
L 477.409076 145.859594 
L 477.31686 145.877946 
L 477.224645 145.896303 
L 477.224645 145.796216 
L 477.224645 145.762835 
L 477.132429 145.781189 
L 476.855783 145.769474 
L 476.855783 145.736057 
L 476.763568 145.520221 
L 476.671352 145.538579 
L 476.671352 145.438057 
L 476.671352 145.102368 
L 476.579137 145.120703 
L 476.394706 145.123762 
L 476.394706 145.056478 
L 476.30249 145.007496 
L 476.210275 145.025841 
L 476.210275 144.924773 
L 476.118059 144.70694 
L 475.749198 144.678918 
L 475.749198 144.645103 
L 475.656982 144.663449 
L 475.564767 144.6818 
L 475.564767 144.580282 
L 475.564767 144.478677 
L 475.472551 144.497021 
L 475.380336 144.515369 
L 475.380336 144.413664 
L 475.380336 144.379743 
L 475.28812 144.398088 
L 475.195905 144.416438 
L 475.195905 144.314604 
L 475.103689 143.515072 
L 474.919258 143.551677 
L 474.919258 143.449032 
L 474.827043 143.261768 
L 474.734828 143.280063 
L 474.734828 143.17714 
L 474.642612 142.85169 
L 474.550397 142.869965 
L 474.550397 142.766643 
L 474.458181 142.232314 
L 474.365966 142.250555 
L 474.365966 142.146651 
L 474.27375 141.678779 
L 474.089319 141.61077 
L 473.997104 141.175341 
L 473.904888 141.19353 
L 473.904888 141.088592 
L 473.812673 140.65096 
L 473.720457 140.66912 
L 473.720457 140.563679 
L 473.628242 140.511486 
L 473.536027 140.529645 
L 473.536027 140.424035 
L 473.443811 139.948088 
L 472.982734 139.967996 
L 472.982734 139.932593 
L 472.890518 139.560586 
L 472.798303 139.578708 
L 472.798303 139.472077 
L 472.706087 139.312258 
L 472.429441 139.259701 
L 472.429441 138.902646 
L 472.337226 138.920741 
L 472.060579 138.867706 
L 471.968364 138.311622 
L 471.783933 138.347772 
L 471.783933 138.239793 
L 471.691717 138.185824 
L 471.322856 138.186048 
L 471.322856 138.149978 
L 471.23064 137.661926 
L 471.046209 137.589296 
L 470.953994 137.316865 
L 470.400701 137.31604 
L 470.400701 137.024468 
L 470.308486 137.042513 
L 470.124055 136.969075 
L 470.031839 136.914039 
L 469.847408 136.877006 
L 469.847408 136.840418 
L 469.755193 136.381796 
L 469.662977 136.399821 
L 469.662977 136.289547 
L 469.570762 136.049858 
L 469.386331 135.975247 
L 469.294115 135.030209 
L 468.925254 135.0648 
L 468.925254 134.990361 
L 468.925254 134.915878 
L 468.833038 134.933826 
L 468.556392 134.875856 
L 468.464176 134.632432 
L 468.18753 134.686284 
L 468.18753 134.574067 
L 468.095315 134.066949 
L 467.726453 134.063432 
L 467.726453 134.025807 
L 467.726453 133.837511 
L 467.634237 133.855426 
L 467.449806 133.815854 
L 467.449806 133.778129 
L 467.357591 133.455978 
L 467.17316 133.416073 
L 467.080944 133.206552 
L 466.896514 133.20439 
L 466.896514 133.166428 
L 466.804298 132.765939 
L 466.712083 132.783807 
L 466.712083 132.707579 
L 466.712083 132.554985 
L 466.619867 132.57284 
L 466.527652 132.590701 
L 466.527652 132.514321 
L 466.435436 132.341011 
L 465.789928 132.38948 
L 465.697713 132.330715 
L 465.605497 132.348596 
L 465.605497 132.271896 
L 465.513282 132.020931 
L 465.421066 132.038795 
L 465.421066 131.96187 
L 465.328851 131.632953 
L 464.959989 131.665742 
L 464.959989 131.627127 
L 464.959989 131.279055 
L 464.867773 131.296882 
L 464.683343 131.293807 
L 464.683343 131.255051 
L 464.591127 131.117731 
L 464.314481 131.093564 
L 464.314481 130.587537 
L 464.222265 130.605333 
L 463.853403 130.637548 
L 463.853403 130.59851 
L 463.761188 130.068471 
L 463.668973 130.086248 
L 463.668973 130.007781 
L 463.576757 129.277615 
L 463.300111 129.330782 
L 463.300111 129.251773 
L 463.207895 128.794364 
L 462.562387 128.838909 
L 462.470172 128.737412 
L 462.377956 128.75513 
L 462.377956 128.675581 
L 462.285741 128.573869 
L 462.10131 128.569458 
L 462.10131 128.529604 
L 462.10131 128.449859 
L 462.009094 128.467568 
L 461.732448 128.480824 
L 461.732448 128.440906 
L 461.640232 128.098771 
L 461.363586 128.111826 
L 461.363586 128.071755 
L 461.271371 127.244975 
L 460.994724 127.29791 
L 460.994724 127.217168 
L 460.902509 126.302512 
L 460.810293 126.320083 
L 460.810293 126.238683 
L 460.718078 126.093282 
L 460.533647 126.087625 
L 460.533647 126.04683 
L 460.441431 125.941919 
L 460.164785 125.953748 
L 460.164785 125.912873 
L 460.07257 125.561943 
L 459.703708 125.59111 
L 459.703708 125.550072 
L 459.611492 125.321102 
L 459.334846 125.332586 
L 459.334846 125.291428 
L 459.242631 124.979204 
L 459.150415 124.996726 
L 459.150415 124.914144 
L 459.150415 124.872832 
L 459.0582 124.890348 
L 458.781553 124.901591 
L 458.781553 124.860238 
L 458.781553 124.777492 
L 458.689338 124.795015 
L 458.504907 124.830079 
L 458.504907 124.747257 
L 458.412691 124.391394 
L 458.320476 124.408897 
L 458.320476 124.325766 
L 458.320476 124.117702 
L 458.22826 124.135184 
L 458.04383 124.086822 
L 457.951614 123.937449 
L 457.859399 123.95493 
L 457.859399 123.87141 
L 457.859399 123.746028 
L 457.767183 123.763495 
L 457.582752 123.714767 
L 457.490537 123.186952 
L 457.21389 123.197207 
L 457.21389 123.15514 
L 457.121675 122.877704 
L 456.752813 122.905208 
L 456.752813 122.862999 
L 456.660598 122.457534 
L 456.568382 122.474931 
L 456.568382 122.390178 
L 456.568382 122.347781 
L 456.476167 122.365171 
L 456.383951 122.382566 
L 456.383951 122.297714 
L 456.291736 121.97511 
L 456.107305 121.924693 
L 456.107305 121.796857 
L 456.015089 121.814213 
L 455.922874 121.831575 
L 455.922874 121.746265 
L 455.830659 121.421788 
L 455.738443 121.43912 
L 455.738443 121.353513 
L 455.646228 121.28517 
L 455.461797 121.234084 
L 455.369581 120.907834 
L 455.18515 120.85639 
L 455.18515 120.727204 
L 455.092935 120.744496 
L 454.724073 120.727483 
L 454.631858 120.52893 
L 454.447427 120.563528 
L 454.447427 120.477065 
L 454.355211 120.407836 
L 454.262996 120.425132 
L 454.262996 120.338538 
L 454.17078 120.008845 
L 453.986349 119.999934 
L 453.986349 119.956473 
L 453.986349 119.912997 
L 453.894134 119.93026 
L 453.801918 119.947529 
L 453.801918 119.860518 
L 453.709703 119.616376 
L 453.617488 119.633621 
L 453.617488 119.546361 
L 453.525272 119.476276 
L 453.248626 119.484312 
L 453.248626 119.440599 
L 453.15641 119.01987 
L 453.064195 119.037079 
L 453.064195 118.9493 
L 452.971979 118.658784 
L 452.787548 118.60508 
L 452.695333 118.490033 
L 452.603118 118.507209 
L 452.603118 118.418973 
L 452.603118 118.374833 
L 452.510902 118.392 
L 452.326471 118.382184 
L 452.326471 118.338 
L 452.234256 118.178277 
L 452.14204 118.19544 
L 452.14204 118.106893 
L 452.14204 117.796508 
L 452.049825 117.813636 
L 451.957609 117.830769 
L 451.957609 117.741935 
L 451.865394 117.625689 
L 451.680963 117.570929 
L 451.588747 116.87373 
L 451.312101 116.835326 
L 451.219886 116.628127 
L 450.943239 116.589443 
L 450.851024 116.381609 
L 450.666593 116.370654 
L 450.666593 116.325606 
L 450.574377 116.207394 
L 450.205516 116.185266 
L 450.1133 115.931067 
L 450.021085 115.948088 
L 450.021085 115.857541 
L 449.928869 115.738608 
L 449.652223 115.69891 
L 449.652223 115.608109 
L 449.560007 115.625115 
L 449.191146 115.602286 
L 449.09893 115.300598 
L 449.006715 115.317595 
L 449.006715 115.226384 
L 449.006715 115.180755 
L 448.914499 115.197744 
L 448.730068 115.231737 
L 448.730068 115.140404 
L 448.637853 114.974525 
L 448.361206 114.933927 
L 448.268991 114.675828 
L 448.176776 114.692793 
L 448.176776 114.600961 
L 448.176776 114.371105 
L 448.08456 114.388041 
L 447.807914 114.392847 
L 447.807914 114.346793 
L 447.715698 114.179346 
L 447.439052 114.137847 
L 447.439052 114.091661 
L 447.346836 114.108599 
L 447.254621 114.125543 
L 447.254621 114.033103 
L 447.254621 113.98686 
L 447.162405 114.003794 
L 446.885759 114.008353 
L 446.885759 113.962058 
L 446.885759 113.915746 
L 446.793544 113.932689 
L 446.516897 113.89084 
L 446.424682 113.629244 
L 446.240251 113.663112 
L 446.240251 113.570113 
L 446.148035 113.400832 
L 445.963605 113.34145 
L 445.871389 113.26507 
L 445.779174 113.281985 
L 445.779174 113.188611 
L 445.686958 112.784487 
L 445.594743 112.801357 
L 445.594743 112.707604 
L 445.502527 112.442787 
L 445.410312 112.459627 
L 445.410312 112.365592 
L 445.318096 112.241235 
L 445.225881 112.25806 
L 445.225881 112.163839 
L 445.225881 112.116704 
L 445.133665 112.13352 
L 444.949234 112.072816 
L 444.949234 112.025616 
L 444.857019 112.042433 
L 444.672588 112.028851 
L 444.672588 111.981602 
L 444.580373 111.761905 
L 444.395942 111.748152 
L 444.395942 111.700771 
L 444.303726 111.527863 
L 444.119295 111.513965 
L 444.119295 111.466468 
L 444.119295 111.418954 
L 444.02708 111.435738 
L 443.566003 111.424605 
L 443.473787 111.203237 
L 443.197141 111.158197 
L 443.104925 110.840451 
L 442.828279 110.794988 
L 442.736063 110.524015 
L 442.367202 110.542978 
L 442.367202 110.494923 
L 442.367202 110.398761 
L 442.274986 110.415504 
L 442.090555 110.449008 
L 442.090555 110.352745 
L 441.99834 110.224956 
L 441.721693 110.178712 
L 441.629478 109.760405 
L 441.445047 109.793813 
L 441.445047 109.696923 
L 441.352832 109.616655 
L 441.076185 109.618234 
L 441.076185 109.569688 
L 441.076185 109.326702 
L 440.98397 109.343377 
L 440.891754 109.360057 
L 440.891754 109.262719 
L 440.799539 109.084485 
L 440.522892 109.085689 
L 440.522892 109.036883 
L 440.522892 108.988061 
L 440.430677 109.004719 
L 439.9696 108.990335 
L 439.877384 108.615203 
L 439.785169 108.631845 
L 439.785169 108.533704 
L 439.692953 108.40298 
L 439.600738 108.419605 
L 439.600738 108.321264 
L 439.508522 107.597983 
L 439.047445 107.581713 
L 439.047445 107.532179 
L 438.95523 107.548728 
L 438.678583 107.548836 
L 438.678583 107.499242 
L 438.678583 107.350352 
L 438.586368 107.366896 
L 438.401937 107.350316 
L 438.401937 107.300615 
L 438.401937 107.250895 
L 438.309721 107.267438 
L 438.217506 107.283988 
L 438.217506 107.184471 
L 438.125291 106.951875 
L 437.756429 106.918157 
L 437.664213 106.684765 
L 437.387567 106.634169 
L 437.387567 106.584076 
L 437.295351 106.600582 
L 436.834274 106.582887 
L 436.834274 106.482499 
L 436.742059 106.499016 
L 436.465412 106.498359 
L 436.465412 106.448095 
L 436.373197 106.364028 
L 436.280981 106.380551 
L 436.280981 106.279869 
L 436.188766 106.145205 
L 435.91212 106.144288 
L 435.91212 106.093821 
L 435.819904 105.908253 
L 435.727689 105.924744 
L 435.727689 105.823581 
L 435.635473 105.383859 
L 435.358827 105.43318 
L 435.358827 105.331559 
L 435.358827 105.28072 
L 435.266611 105.297153 
L 434.989965 105.295607 
L 434.989965 105.244706 
L 434.897749 104.904271 
L 434.528888 104.91885 
L 434.528888 104.867748 
L 434.528888 104.714328 
L 434.436672 104.730727 
L 433.883379 104.778024 
L 433.883379 104.726782 
L 433.791164 104.589353 
L 433.330087 104.568758 
L 433.237871 104.276501 
L 433.05344 104.257779 
L 433.05344 104.206231 
L 432.961225 103.964575 
L 432.776794 103.997325 
L 432.776794 103.893943 
L 432.684578 103.703292 
L 432.223501 103.733271 
L 432.223501 103.681415 
L 432.131286 103.594 
L 431.854639 103.643102 
L 431.854639 103.539202 
L 431.762424 103.086996 
L 431.393562 103.100094 
L 431.393562 103.047886 
L 431.393562 102.629524 
L 431.301347 102.645794 
L 431.116916 102.625947 
L 431.116916 102.573523 
L 431.116916 102.468618 
L 431.0247 102.484878 
L 430.932485 102.501145 
L 430.932485 102.396133 
L 430.840269 102.307288 
L 430.655838 102.234586 
L 430.655838 102.181951 
L 430.563623 102.198195 
L 430.471407 102.214444 
L 430.471407 102.109087 
L 430.379192 101.91435 
L 430.102546 101.910215 
L 430.102546 101.85738 
L 430.01033 101.714959 
L 429.457037 101.812314 
L 429.457037 101.706367 
L 429.364822 101.191594 
L 429.272607 101.207764 
L 429.272607 101.101307 
L 429.180391 100.690778 
L 428.811529 100.75526 
L 428.811529 100.648328 
L 428.719314 100.503878 
L 428.627098 100.519985 
L 428.627098 100.412821 
L 428.627098 100.359209 
L 428.534883 100.3753 
L 427.98159 100.364589 
L 427.98159 100.095765 
L 427.889375 100.111849 
L 427.612728 100.052406 
L 427.612728 99.836697 
L 427.520513 99.852762 
L 427.428297 99.868834 
L 427.428297 99.760826 
L 427.336082 99.506473 
L 427.243866 99.522505 
L 427.243866 99.414179 
L 427.151651 98.83284 
L 426.96722 98.864745 
L 426.96722 98.755833 
L 426.875005 98.28057 
L 426.782789 98.296456 
L 426.782789 98.187052 
L 426.690574 97.819298 
L 426.598358 97.835128 
L 426.598358 97.725314 
L 426.506143 97.46619 
L 426.321712 97.497776 
L 426.321712 97.387618 
L 426.229496 97.1276 
L 425.860635 97.190657 
L 425.860635 97.080124 
L 425.860635 96.914164 
L 425.768419 96.929905 
L 425.215126 96.913625 
L 425.122911 96.818436 
L 424.754049 96.770405 
L 424.661834 96.674966 
L 424.477403 96.70649 
L 424.477403 96.595165 
L 424.477403 96.316472 
L 424.385187 96.332188 
L 424.108541 96.267683 
L 424.016325 96.003756 
L 423.831894 96.035147 
L 423.831894 95.923101 
L 423.831894 95.867045 
L 423.739679 95.882726 
L 423.647464 95.898413 
L 423.647464 95.786204 
L 423.647464 95.730067 
L 423.555248 95.745736 
L 423.370817 95.664705 
L 423.370817 95.552228 
L 423.278602 95.567884 
L 423.094171 95.599214 
L 423.094171 95.486601 
L 423.001955 95.16384 
L 422.725309 95.154204 
L 422.633094 94.716923 
L 422.172016 94.738073 
L 422.079801 94.412616 
L 421.803154 94.402335 
L 421.710939 94.132792 
L 421.618723 94.148315 
L 421.618723 94.091219 
L 421.526508 93.935291 
L 421.434293 93.950794 
L 421.434293 93.89359 
L 421.342077 93.62269 
L 421.157646 93.653628 
L 421.157646 93.596262 
L 421.065431 93.439475 
L 420.419923 93.490235 
L 420.419923 93.37512 
L 420.327707 93.390588 
L 420.143276 93.421544 
L 420.143276 93.363927 
L 420.143276 93.306286 
L 420.051061 93.321756 
L 419.774414 93.310507 
L 419.682199 93.094941 
L 419.589983 93.1104 
L 419.589983 93.052571 
L 419.497768 92.952282 
L 419.405552 92.967728 
L 419.405552 92.909812 
L 419.313337 92.809337 
L 419.128906 92.840208 
L 419.128906 92.782197 
L 419.128906 92.724163 
L 419.036691 92.739591 
L 418.298967 92.805103 
L 418.206752 92.704222 
L 417.745674 92.723349 
L 417.653459 92.03782 
L 417.561243 92.05321 
L 417.561243 91.99463 
L 417.561243 91.760073 
L 417.469028 91.775424 
L 417.192381 91.821517 
L 417.192381 91.762783 
L 417.192381 91.58644 
L 417.100166 91.601781 
L 417.007951 91.617129 
L 417.007951 91.558283 
L 417.007951 91.381601 
L 416.915735 91.396919 
L 416.731304 91.427575 
L 416.731304 91.368607 
L 416.639089 91.147787 
L 416.178011 91.165203 
L 416.178011 90.987635 
L 416.085796 91.002929 
L 415.993581 91.01823 
L 415.993581 90.958974 
L 415.901365 90.796334 
L 415.071426 90.874612 
L 414.97921 90.65189 
L 414.886995 90.667184 
L 414.886995 90.607603 
L 414.79478 90.443976 
L 414.702564 90.459247 
L 414.702564 90.39955 
L 414.702564 90.339828 
L 414.610349 90.355087 
L 414.425918 90.32585 
L 414.425918 90.266052 
L 414.333702 90.281311 
L 414.057056 90.267268 
L 414.057056 90.207385 
L 413.96484 90.222651 
L 413.78041 90.193266 
L 413.78041 90.133306 
L 413.688194 90.148573 
L 413.319332 90.209702 
L 413.319332 90.149671 
L 413.319332 89.728763 
L 413.227117 89.743987 
L 413.042686 89.714197 
L 412.95047 89.427728 
L 412.581609 89.428088 
L 412.581609 89.24658 
L 412.489393 89.261761 
L 412.397178 89.276949 
L 412.397178 89.216377 
L 412.304962 89.110325 
L 411.843885 89.125544 
L 411.751669 88.65413 
L 411.659454 88.669255 
L 411.659454 88.608306 
L 411.659454 88.547331 
L 411.567239 88.562443 
L 411.290592 88.546778 
L 411.198377 88.133861 
L 410.460653 88.254568 
L 410.460653 88.19324 
L 410.368438 87.96274 
L 409.90736 87.976662 
L 409.815145 87.745405 
L 409.722929 87.760469 
L 409.722929 87.698806 
L 409.722929 87.451897 
L 409.630714 87.466918 
L 409.354068 87.51202 
L 409.354068 87.450189 
L 409.354068 87.388332 
L 409.261852 87.403359 
L 409.169637 87.418392 
L 409.169637 87.356489 
L 409.077421 87.185624 
L 408.985206 87.200631 
L 408.985206 87.138604 
L 408.985206 86.952367 
L 408.89299 86.96734 
L 408.800775 86.98232 
L 408.800775 86.920168 
L 408.800775 86.857991 
L 408.708559 86.872957 
L 408.616344 86.887929 
L 408.616344 86.825706 
L 408.616344 86.763456 
L 408.524128 86.778415 
L 408.431913 86.79338 
L 408.431913 86.731084 
L 408.431913 86.544039 
L 408.339697 86.55897 
L 408.155267 86.588851 
L 408.155267 86.52642 
L 408.063051 86.353879 
L 407.786405 86.336069 
L 407.694189 86.163074 
L 407.601974 86.177975 
L 407.601974 86.115272 
L 407.509758 86.004663 
L 407.417543 86.019546 
L 407.417543 85.956743 
L 407.417543 85.893913 
L 407.325327 85.908782 
L 406.86425 85.920306 
L 406.86425 85.857361 
L 406.772035 85.872248 
L 406.310957 85.883745 
L 406.310957 85.820685 
L 406.218742 85.83559 
L 406.034311 85.865417 
L 406.034311 85.8023 
L 406.034311 85.675986 
L 405.942096 85.690878 
L 405.84988 85.705777 
L 405.84988 85.642559 
L 405.757665 85.404269 
L 405.573234 85.433995 
L 405.573234 85.370611 
L 405.573234 85.116802 
L 405.481018 85.131623 
L 405.019941 85.205822 
L 405.019941 85.142239 
L 404.927726 84.966145 
L 404.558864 84.961733 
L 404.466648 84.84898 
L 404.190002 84.893471 
L 404.190002 84.829603 
L 404.097786 84.524629 
L 403.636709 84.534525 
L 403.636709 84.213627 
L 403.544494 84.22838 
L 403.175632 84.223143 
L 403.175632 84.158799 
L 403.083416 84.173564 
L 401.884615 84.30156 
L 401.7924 84.057992 
L 401.607969 84.087611 
L 401.607969 84.022917 
L 401.607969 83.958194 
L 401.515754 83.972992 
L 400.870245 84.011918 
L 400.77803 83.76708 
L 399.948091 83.835435 
L 399.855875 83.524361 
L 399.394798 83.5331 
L 399.394798 83.402364 
L 399.302583 83.417163 
L 399.118152 83.446781 
L 399.118152 83.381336 
L 399.118152 83.315863 
L 399.025936 83.33066 
L 398.657074 83.38991 
L 398.657074 83.324353 
L 398.657074 83.258767 
L 398.564859 83.273573 
L 398.195997 83.267194 
L 398.103782 82.82144 
L 398.011566 82.836196 
L 398.011566 82.770271 
L 397.919351 82.653063 
L 397.73492 82.616494 
L 397.73492 82.484315 
L 397.642704 82.499029 
L 397.458273 82.528477 
L 397.458273 82.46231 
L 397.458273 82.329887 
L 397.366058 82.344587 
L 397.181627 82.374005 
L 397.181627 82.307716 
L 397.181627 82.241398 
L 397.089412 82.256094 
L 396.904981 82.219124 
L 396.904981 82.019801 
L 396.812765 82.034471 
L 396.536119 82.078519 
L 396.536119 82.011973 
L 396.443903 81.893455 
L 395.982826 81.900156 
L 395.982826 81.833422 
L 395.890611 81.8481 
L 395.337318 81.869457 
L 395.337318 81.802583 
L 395.245102 81.817283 
L 394.876241 81.809186 
L 394.876241 81.675173 
L 394.784025 81.689871 
L 394.415163 81.748727 
L 394.415163 81.681617 
L 394.322948 81.360277 
L 394.046301 81.33696 
L 394.046301 80.864753 
L 393.954086 80.879345 
L 393.861871 80.893943 
L 393.861871 80.826341 
L 393.861871 80.691044 
L 393.769655 80.705613 
L 393.400793 80.696201 
L 393.400793 80.560603 
L 393.308578 80.575169 
L 392.8475 80.58018 
L 392.8475 80.512232 
L 392.755285 80.526814 
L 392.478639 80.502571 
L 392.478639 80.434514 
L 392.386423 80.449097 
L 391.925346 80.453954 
L 391.925346 80.385763 
L 391.83313 80.400362 
L 390.81876 80.493019 
L 390.81876 80.42462 
L 390.726545 80.439274 
L 390.357683 80.429467 
L 390.357683 80.360945 
L 390.265468 80.375608 
L 390.081037 80.404953 
L 390.081037 80.336364 
L 390.081037 80.061692 
L 389.988821 80.076314 
L 389.619959 80.066059 
L 389.527744 79.736131 
L 388.974451 79.754672 
L 388.882236 79.631001 
L 388.697805 79.590986 
L 388.605589 79.467033 
L 388.421158 79.496198 
L 388.421158 79.42685 
L 388.328943 79.233158 
L 387.867866 79.236418 
L 387.77565 79.042105 
L 387.591219 79.071189 
L 387.591219 79.001472 
L 387.499004 78.666882 
L 387.406788 78.681364 
L 387.406788 78.611429 
L 387.314573 78.415867 
L 387.037927 78.389104 
L 387.037927 78.108318 
L 386.945711 78.122718 
L 386.669065 78.095628 
L 386.669065 78.025266 
L 386.576849 78.039667 
L 386.392418 77.998055 
L 386.300203 77.73035 
L 385.74691 77.745936 
L 385.74691 77.533674 
L 385.654695 77.548024 
L 385.562479 77.562381 
L 385.562479 77.491535 
L 385.562479 77.420656 
L 385.470264 77.434993 
L 385.193617 77.40708 
L 385.193617 77.265051 
L 385.101402 77.279375 
L 384.916971 77.308044 
L 384.916971 77.23694 
L 384.916971 77.023431 
L 384.824756 77.037722 
L 384.271463 77.05228 
L 384.179247 76.923818 
L 383.810386 76.981077 
L 383.810386 76.909581 
L 383.810386 76.838051 
L 383.71817 76.852355 
L 383.349308 76.83801 
L 383.349308 76.694648 
L 383.257093 76.708946 
L 382.980446 76.680094 
L 382.980446 76.608275 
L 382.888231 76.622572 
L 382.242723 76.650883 
L 382.150507 76.521169 
L 382.058292 76.535487 
L 382.058292 76.463396 
L 381.966076 76.044366 
L 381.597215 76.02895 
L 381.504999 75.462669 
L 380.490629 75.545757 
L 380.490629 75.472848 
L 380.398414 75.487039 
L 380.213983 75.515441 
L 380.213983 75.442456 
L 380.213983 75.369436 
L 380.121767 75.383619 
L 379.66069 75.381497 
L 379.66069 75.308323 
L 379.568474 75.322519 
L 379.015182 75.334528 
L 378.922966 75.202009 
L 378.277458 75.301605 
L 378.277458 75.228079 
L 378.185243 75.095133 
L 378.000812 75.123579 
L 378.000812 75.049904 
L 378.000812 74.902448 
L 377.908596 74.916639 
L 377.816381 74.930836 
L 377.816381 74.857026 
L 377.724165 74.649531 
L 377.263088 74.646328 
L 377.170873 74.512289 
L 376.61758 74.523051 
L 376.61758 74.374451 
L 376.525364 74.388599 
L 375.972072 74.399177 
L 375.879856 74.26431 
L 375.234348 74.288889 
L 375.234348 74.214171 
L 375.142132 74.22835 
L 374.957702 74.256727 
L 374.957702 74.181929 
L 374.957702 74.107094 
L 374.865486 74.121264 
L 374.773271 74.13544 
L 374.773271 74.06054 
L 374.773271 73.985603 
L 374.681055 73.999757 
L 374.496624 74.028085 
L 374.496624 73.953067 
L 374.404409 73.74191 
L 373.851116 73.751477 
L 373.758901 73.614949 
L 372.744531 73.695149 
L 372.744531 73.468252 
L 372.652315 73.482393 
L 372.375669 73.449092 
L 372.375669 73.373288 
L 372.283453 73.387426 
L 372.099022 73.339838 
L 372.099022 73.187952 
L 372.006807 73.202066 
L 370.900221 73.295781 
L 370.900221 73.143273 
L 370.808006 73.157432 
L 370.439144 73.13775 
L 370.346929 72.99901 
L 370.162498 73.027327 
L 370.162498 72.95078 
L 370.070282 72.658304 
L 369.978067 72.672403 
L 369.978067 72.595635 
L 369.885851 72.379146 
L 369.609205 72.344334 
L 369.609205 72.267313 
L 369.516989 72.281353 
L 369.332559 72.309453 
L 369.332559 72.232346 
L 369.240343 72.092032 
L 368.963697 72.134114 
L 368.963697 72.05683 
L 368.871481 71.761268 
L 368.594835 71.725656 
L 368.594835 71.648076 
L 368.502619 71.662034 
L 367.949327 71.668202 
L 367.949327 71.512625 
L 367.857111 71.526585 
L 367.211603 71.546523 
L 367.119388 71.326313 
L 366.934957 71.276056 
L 366.934957 71.197836 
L 366.842741 71.211777 
L 366.473879 71.189267 
L 366.473879 71.110887 
L 366.381664 71.12483 
L 365.828371 71.130101 
L 365.828371 71.051528 
L 365.736156 71.065488 
L 365.551725 71.014766 
L 365.551725 70.857324 
L 365.459509 70.871255 
L 364.814001 70.890061 
L 364.721786 70.746054 
L 364.260708 70.736722 
L 364.260708 70.65755 
L 364.168493 70.671498 
L 363.891847 70.713384 
L 363.891847 70.634105 
L 363.799631 70.489353 
L 363.430769 70.465647 
L 363.430769 70.386122 
L 363.338554 70.400051 
L 363.246338 70.413987 
L 363.246338 70.334389 
L 363.246338 70.25475 
L 363.154123 70.268659 
L 362.969692 70.296499 
L 362.969692 70.216769 
L 362.969692 70.136998 
L 362.877476 70.150895 
L 362.60083 70.11275 
L 362.60083 69.952869 
L 362.508615 69.966744 
L 362.416399 69.980625 
L 362.416399 69.90059 
L 362.416399 69.820513 
L 362.324184 69.834368 
L 361.863106 69.823529 
L 361.863106 69.743268 
L 361.770891 69.757132 
L 361.494245 69.718395 
L 361.494245 69.637983 
L 361.402029 69.65184 
L 360.756521 69.668455 
L 360.756521 69.426433 
L 360.664305 69.440279 
L 359.281074 69.567799 
L 359.281074 69.405603 
L 359.188858 69.419512 
L 359.004427 69.366139 
L 359.004427 69.284883 
L 358.912212 69.298779 
L 358.635565 69.259142 
L 358.635565 69.014784 
L 358.54335 69.028638 
L 358.266704 68.988637 
L 358.266704 68.906986 
L 358.174488 68.920834 
L 357.897842 68.880658 
L 357.805626 68.730825 
L 357.436764 68.786192 
L 357.436764 68.704211 
L 357.436764 68.54012 
L 357.344549 68.553927 
L 357.252334 68.56774 
L 357.252334 68.485595 
L 357.252334 68.403406 
L 357.160118 68.417191 
L 356.883472 68.458589 
L 356.883472 68.376285 
L 356.883472 68.293939 
L 356.791256 68.307717 
L 356.699041 68.321502 
L 356.699041 68.239076 
L 356.606825 68.087832 
L 356.330179 68.12909 
L 356.330179 68.046461 
L 356.330179 67.963789 
L 356.237963 67.97752 
L 354.48587 68.156708 
L 354.48587 68.073584 
L 354.393654 68.087424 
L 353.563715 68.128962 
L 353.563715 67.711536 
L 353.4715 67.725339 
L 352.733776 67.752239 
L 352.733776 67.500613 
L 352.641561 67.514408 
L 352.088268 67.513232 
L 352.088268 67.429091 
L 351.996052 67.442899 
L 351.903837 67.456715 
L 351.903837 67.372491 
L 351.903837 67.203909 
L 351.811621 67.217675 
L 350.889467 67.271179 
L 350.889467 67.186566 
L 350.797251 67.200376 
L 350.243959 67.1986 
L 350.243959 66.94395 
L 350.151743 66.957736 
L 349.59845 66.955496 
L 349.59845 66.87034 
L 349.506235 66.884139 
L 348.768511 66.994801 
L 348.768511 66.909426 
L 348.768511 66.738537 
L 348.676296 66.752345 
L 348.39965 66.708223 
L 348.39965 66.622584 
L 348.307434 66.636383 
L 347.938572 66.691655 
L 347.938572 66.605873 
L 347.846357 66.362003 
L 347.661926 66.389542 
L 347.661926 66.303514 
L 347.56971 66.058849 
L 347.477495 66.072559 
L 347.477495 65.986303 
L 347.477495 65.9 
L 347.385279 65.913677 
L 346.278694 66.078389 
L 346.278694 65.991781 
L 346.278694 65.905125 
L 346.186479 65.91886 
L 345.817617 65.973875 
L 345.817617 65.887071 
L 345.817617 65.626374 
L 345.725401 65.640066 
L 345.172108 65.635242 
L 345.172108 65.460826 
L 345.079893 65.474511 
L 344.895462 65.414562 
L 344.895462 65.327172 
L 344.803247 65.340839 
L 344.157738 65.349115 
L 344.157738 65.173769 
L 344.065523 65.187434 
L 343.881092 65.214788 
L 343.881092 65.126981 
L 343.788877 64.964846 
L 342.866722 65.013348 
L 342.866722 64.925118 
L 342.774507 64.938787 
L 342.49786 64.891476 
L 342.49786 64.714604 
L 342.405645 64.728241 
L 340.561336 64.913629 
L 340.46912 64.571019 
L 339.731396 64.591441 
L 339.731396 64.412507 
L 339.639181 64.426205 
L 338.717026 64.473827 
L 338.624811 64.12788 
L 338.348165 64.078833 
L 338.348165 63.988662 
L 338.255949 64.002325 
L 337.794872 63.980403 
L 337.794872 63.89 
L 337.702656 63.903666 
L 337.149364 63.985824 
L 337.149364 63.895216 
L 337.149364 63.804557 
L 337.057148 63.818234 
L 336.780502 63.768511 
L 336.780502 63.586758 
L 336.688286 63.6004 
L 336.319424 63.563979 
L 336.319424 63.381693 
L 336.227209 63.395308 
L 335.950563 63.344887 
L 335.950563 63.070642 
L 335.858347 63.084198 
L 335.305054 63.074023 
L 335.305054 62.982294 
L 335.212839 62.99586 
L 334.751762 62.971889 
L 334.751762 62.69582 
L 334.659546 62.709343 
L 334.3829 62.749957 
L 334.3829 62.657737 
L 334.290684 62.301764 
L 334.014038 62.249551 
L 333.921823 61.799188 
L 333.460745 61.772931 
L 333.36853 61.6 
L 332.723022 61.6 
L 332.723022 61.506558 
L 332.630806 61.519883 
L 331.985298 61.519696 
L 331.985298 61.425957 
L 331.893082 61.439298 
L 331.155359 61.546307 
L 331.155359 61.452301 
L 331.063143 61.277465 
L 329.956558 61.343682 
L 329.956558 61.154553 
L 329.864342 61.167925 
L 328.573326 61.260942 
L 328.48111 61.084173 
L 327.835602 61.082947 
L 327.743387 60.522834 
L 326.636801 60.587089 
L 326.544586 60.311789 
L 325.899078 60.405217 
L 325.899078 60.308698 
L 325.806862 60.032072 
L 325.438 59.988391 
L 325.438 59.794463 
L 325.345785 59.807706 
L 324.884708 59.77684 
L 324.884708 59.679578 
L 324.792492 59.692818 
L 323.962553 59.71477 
L 323.962553 59.617136 
L 323.870338 59.630406 
L 323.685907 59.65697 
L 323.685907 59.5592 
L 323.685907 59.461371 
L 323.593691 59.474613 
L 323.317045 59.51439 
L 323.317045 59.416398 
L 323.317045 59.318348 
L 323.224829 59.331571 
L 322.855968 59.286306 
L 322.855968 59.188006 
L 322.763752 59.201218 
L 322.302675 59.168883 
L 322.302675 58.971673 
L 322.210459 58.984855 
L 322.026028 59.011244 
L 322.026028 58.912469 
L 322.026028 58.813635 
L 321.933813 58.826789 
L 321.657167 58.767299 
L 321.657167 58.668239 
L 321.564951 58.681373 
L 320.550581 58.726937 
L 320.458366 58.541028 
L 319.167349 58.625974 
L 319.167349 58.525889 
L 319.075134 58.539109 
L 318.798487 58.578817 
L 318.798487 58.478563 
L 318.798487 58.378246 
L 318.706272 58.391445 
L 318.245195 58.357019 
L 318.245195 58.256415 
L 318.152979 58.269608 
L 317.876333 58.309238 
L 317.876333 58.208463 
L 317.876333 58.006725 
L 317.784117 58.019869 
L 317.599686 57.945137 
L 317.599686 57.844029 
L 317.507471 57.857143 
L 317.230825 57.896534 
L 317.230825 57.795253 
L 317.230825 57.693908 
L 317.138609 57.707 
L 316.400885 57.710373 
L 316.30867 57.418073 
L 314.464361 57.578395 
L 314.464361 57.475829 
L 314.372145 57.489001 
L 312.988913 57.584498 
L 312.988913 57.481347 
L 312.896698 57.494596 
L 312.158974 57.600892 
L 312.158974 57.497418 
L 312.158974 57.290271 
L 312.066759 57.30351 
L 311.605682 57.369831 
L 311.605682 57.265985 
L 311.513466 57.071296 
L 310.591312 57.099422 
L 310.591312 56.890488 
L 310.499096 56.903697 
L 310.406881 56.916913 
L 310.406881 56.812287 
L 310.406881 56.707593 
L 310.314665 56.72076 
L 309.853588 56.68178 
L 309.853588 56.576774 
L 309.761372 56.589932 
L 309.392511 56.537427 
L 309.300295 56.33989 
L 308.747002 56.3131 
L 308.747002 56.207395 
L 308.654787 56.220506 
L 306.626047 56.404642 
L 306.626047 56.191495 
L 306.533831 56.204712 
L 306.3494 56.231172 
L 306.3494 56.124402 
L 306.3494 56.017562 
L 306.257185 56.030744 
L 305.242815 56.069036 
L 305.242815 55.961685 
L 305.1506 55.974909 
L 304.873953 55.907089 
L 304.873953 55.799472 
L 304.781738 55.812669 
L 304.412876 55.7577 
L 304.412876 55.649785 
L 304.32066 55.662963 
L 303.859583 55.620808 
L 303.767368 55.41738 
L 303.398506 55.47001 
L 303.398506 55.361462 
L 303.398506 55.144149 
L 303.30629 55.157233 
L 302.752998 55.126933 
L 302.752998 55.017873 
L 302.660782 55.030954 
L 301.923058 55.026497 
L 301.923058 54.807432 
L 301.830843 54.820496 
L 301.093119 54.815385 
L 301.093119 54.485138 
L 301.000904 54.49815 
L 300.539827 54.563342 
L 300.539827 54.452915 
L 300.539827 54.231838 
L 300.447611 54.244804 
L 299.986534 54.198918 
L 299.986534 54.087995 
L 299.894318 54.100947 
L 299.617672 54.028726 
L 299.617672 53.917519 
L 299.525457 53.930441 
L 299.433241 53.943371 
L 299.433241 53.832022 
L 299.433241 53.720597 
L 299.341026 53.733469 
L 298.23444 53.776679 
L 298.142225 53.1162 
L 297.681147 53.180075 
L 297.681147 53.067397 
L 297.588932 53.080164 
L 296.943424 53.16978 
L 296.943424 53.05675 
L 296.851208 53.069553 
L 296.113485 53.172295 
L 296.021269 52.958192 
L 295.836838 52.983845 
L 295.744623 52.427326 
L 295.467976 52.465374 
L 295.467976 52.35116 
L 295.375761 52.363825 
L 295.19133 52.389182 
L 295.19133 52.274783 
L 295.099115 52.287439 
L 295.006899 52.300104 
L 295.006899 52.185556 
L 294.914684 52.198194 
L 294.822468 52.210841 
L 294.822468 51.981363 
L 294.730253 51.993948 
L 294.453606 52.031755 
L 294.453606 51.916754 
L 294.361391 51.929338 
L 293.715883 52.017674 
L 293.715883 51.902306 
L 293.623667 51.914925 
L 293.439236 51.940189 
L 293.439236 51.824633 
L 293.347021 51.837242 
L 293.254805 51.84986 
L 293.16259 51.630915 
L 292.885944 51.668632 
L 292.885944 51.552615 
L 292.793728 51.565169 
L 292.609297 51.590302 
L 292.517082 51.370313 
L 292.332651 51.395354 
L 292.332651 51.278873 
L 292.240435 51.29137 
L 291.594927 51.379096 
L 291.594927 51.1453 
L 291.502712 51.157794 
L 291.13385 51.207858 
L 291.13385 51.090652 
L 291.041634 51.103153 
L 290.11948 51.228653 
L 290.11948 51.110953 
L 290.027264 51.123515 
L 289.935049 51.136085 
L 289.935049 51.018227 
L 289.842833 51.030769 
L 289.473972 51.081027 
L 289.473972 50.962897 
L 289.381756 50.975446 
L 289.10511 51.013148 
L 289.10511 50.894782 
L 289.012894 50.907329 
L 287.814093 51.071264 
L 287.721878 50.845811 
L 287.537447 50.871033 
L 287.445232 50.405912 
L 287.07637 50.455884 
L 286.984154 50.228623 
L 286.338646 50.315942 
L 286.338646 50.195651 
L 286.246431 50.208122 
L 285.508707 50.308218 
L 285.508707 50.187486 
L 285.416491 50.2 
L 285.232061 50.225055 
L 285.232061 49.98309 
L 285.139845 49.995552 
L 284.770983 50.045491 
L 284.678768 49.815205 
L 284.494337 49.840088 
L 284.494337 49.718478 
L 284.402121 49.730893 
L 283.572182 49.843041 
L 283.572182 49.72094 
L 283.479967 49.733407 
L 283.111105 49.783364 
L 283.111105 49.660972 
L 283.01889 49.673444 
L 282.742243 49.710914 
L 282.742243 49.58827 
L 282.650028 49.600738 
L 282.557812 49.613215 
L 282.465597 49.379897 
L 282.18895 49.417166 
L 282.18895 49.294004 
L 282.096735 49.306405 
L 281.727873 49.356099 
L 281.635658 49.121455 
L 281.082365 49.195833 
L 281.082365 49.071902 
L 280.990149 49.084289 
L 280.713503 49.121506 
L 280.713503 48.997315 
L 280.621288 49.009698 
L 280.16021 49.071749 
L 280.16021 48.947215 
L 280.067995 48.959611 
L 279.238056 49.071595 
L 279.238056 48.821404 
L 279.14584 48.833809 
L 278.869194 48.871079 
L 278.776978 48.63253 
L 278.592548 48.657272 
L 278.592548 48.531549 
L 278.500332 48.543891 
L 277.670393 48.655392 
L 277.670393 48.529145 
L 277.578177 48.541537 
L 276.748238 48.653495 
L 276.748238 48.52672 
L 276.656023 48.539163 
L 276.471592 48.564079 
L 276.471592 48.437077 
L 276.379376 48.449505 
L 276.10273 48.486847 
L 276.10273 48.359573 
L 276.010515 48.371995 
L 275.733868 48.40932 
L 275.733868 48.281773 
L 275.641653 48.29419 
L 275.08836 48.368889 
L 275.08836 48.240935 
L 274.996145 48.253374 
L 274.903929 48.265823 
L 274.903929 48.137682 
L 274.811714 48.150096 
L 273.151835 48.375184 
L 273.151835 48.116905 
L 273.05962 48.129412 
L 272.967405 48.141928 
L 272.967405 48.012548 
L 272.875189 48.025029 
L 272.598543 48.062529 
L 272.598543 47.932868 
L 272.506327 47.945342 
L 272.137465 47.995334 
L 272.137465 47.865344 
L 272.04525 47.877821 
L 271.768604 47.91531 
L 271.768604 47.785035 
L 271.676388 47.797505 
L 270.200941 47.998352 
L 270.200941 47.86719 
L 270.108725 47.87978 
L 269.555433 47.955529 
L 269.555433 47.823937 
L 269.463217 47.83655 
L 269.00214 47.899763 
L 269.00214 47.767785 
L 268.909924 47.780411 
L 268.356632 47.856374 
L 268.356632 47.72396 
L 268.264416 47.736609 
L 268.172201 47.749267 
L 268.172201 47.616653 
L 268.079985 47.629274 
L 267.711123 47.679857 
L 267.618908 47.426412 
L 267.526692 47.438997 
L 267.526692 47.305732 
L 267.434477 47.31828 
L 266.604538 47.431655 
L 266.604538 47.297801 
L 266.512322 47.3104 
L 266.235676 47.348258 
L 266.235676 47.07984 
L 266.143461 47.092382 
L 264.852444 47.269032 
L 264.852444 47.133925 
L 264.760229 47.14657 
L 264.022505 47.248097 
L 264.022505 47.112434 
L 263.93029 47.125122 
L 263.192566 47.226992 
L 263.192566 47.090769 
L 263.10035 47.103499 
L 261.809334 47.282815 
L 261.809334 47.008518 
L 261.717119 47.021303 
L 261.440472 47.059721 
L 261.440472 46.922199 
L 261.348257 46.934975 
L 261.256041 46.947762 
L 261.256041 46.534211 
L 261.163826 46.546853 
L 260.979395 46.57217 
L 260.979395 46.433937 
L 260.887179 46.44656 
L 258.766224 46.739767 
L 258.766224 46.600166 
L 258.674008 46.612989 
L 258.489578 46.638667 
L 258.489578 46.498791 
L 258.397362 46.511593 
L 256.737484 46.743866 
L 256.737484 46.602858 
L 256.645268 46.615812 
L 256.460837 46.641751 
L 256.460837 46.500463 
L 256.368622 46.513395 
L 256.091976 46.552256 
L 256.091976 46.410633 
L 255.99976 46.423554 
L 255.907545 46.436486 
L 255.907545 46.294635 
L 255.815329 46.307523 
L 255.630898 46.333333 
L 255.630898 46.191198 
L 255.538683 46.204064 
L 254.432097 46.359319 
L 254.432097 46.216347 
L 254.339882 46.229302 
L 253.509943 46.346387 
L 253.417727 46.071918 
L 252.864435 46.149871 
L 252.864435 46.005582 
L 252.772219 46.018557 
L 252.587788 46.04454 
L 252.587788 45.899957 
L 252.495573 45.912909 
L 251.850065 46.003884 
L 251.850065 45.858722 
L 251.757849 45.871706 
L 251.573418 45.897709 
L 251.573418 45.752249 
L 251.481203 45.76521 
L 249.729109 46.013613 
L 249.729109 45.86687 
L 249.636894 45.88 
L 249.452463 45.906294 
L 249.360247 45.477758 
L 248.89917 45.54287 
L 248.89917 45.395083 
L 248.806954 45.408081 
L 248.069231 45.512472 
L 248.069231 45.364021 
L 247.977015 45.377062 
L 247.8848 45.390115 
L 247.8848 45.241413 
L 247.792584 45.254417 
L 246.962645 45.371973 
L 246.962645 45.222538 
L 246.87043 45.235597 
L 246.778214 45.248668 
L 246.778214 45.098978 
L 246.685999 45.112 
L 246.040491 45.203477 
L 246.040491 45.053167 
L 245.948275 45.06622 
L 244.657259 45.250202 
L 244.657259 45.098832 
L 244.565043 45.112 
L 243.735104 45.231047 
L 243.642889 44.481991 
L 242.905165 44.586194 
L 242.81295 44.292224 
L 241.890795 44.422385 
L 241.79858 44.126441 
L 240.78421 44.269701 
L 240.78421 44.114259 
L 240.691994 44.127289 
L 239.677624 44.271415 
L 239.677624 44.115039 
L 239.585409 44.128148 
L 239.124331 44.193875 
L 239.124331 44.036955 
L 239.032116 44.05007 
L 236.450083 44.422306 
L 236.450083 44.263277 
L 236.357868 44.276684 
L 236.173437 44.303536 
L 236.173437 44.144151 
L 236.081221 44.157527 
L 235.989006 44.170916 
L 235.989006 44.011242 
L 235.89679 44.024575 
L 235.527928 44.07803 
L 235.527928 43.917859 
L 235.435713 43.931185 
L 234.974636 43.998005 
L 234.974636 43.676367 
L 234.88242 43.689629 
L 234.329127 43.769466 
L 234.329127 43.607924 
L 234.236912 43.621203 
L 233.960266 43.661119 
L 233.960266 43.499139 
L 233.86805 43.512398 
L 233.499188 43.565564 
L 233.499188 43.403071 
L 233.406973 43.416323 
L 232.85368 43.4961 
L 232.85368 43.332948 
L 232.761465 43.346217 
L 232.392603 43.399421 
L 232.392603 43.235749 
L 232.300387 43.249009 
L 232.023741 43.288867 
L 232.023741 43.124746 
L 231.931526 43.137984 
L 231.378233 43.217687 
L 231.378233 43.052893 
L 231.286017 43.066148 
L 230.732725 43.145951 
L 230.732725 42.980478 
L 230.640509 42.99375 
L 229.533924 43.154028 
L 229.441708 42.83394 
L 227.874045 43.061905 
L 227.874045 42.893598 
L 227.78183 42.907051 
L 227.597399 42.933996 
L 227.597399 42.765291 
L 227.505184 42.778706 
L 227.136322 42.832502 
L 227.136322 42.493812 
L 227.044106 42.507139 
L 226.398598 42.600802 
L 226.398598 42.430576 
L 226.306383 42.443932 
L 226.029736 42.484078 
L 226.029736 42.313367 
L 225.937521 42.326697 
L 225.107582 42.447273 
L 225.015366 42.117046 
L 224.000996 42.264293 
L 224.000996 41.918126 
L 223.908781 41.931431 
L 223.816565 41.94475 
L 223.816565 41.771239 
L 223.72435 41.78449 
L 220.68124 42.229476 
L 220.68124 42.05296 
L 220.589024 42.066597 
L 220.496809 42.080249 
L 220.496809 41.90338 
L 220.404593 41.916961 
L 220.312378 41.930557 
L 220.312378 41.753333 
L 220.220162 41.766858 
L 220.035731 41.793949 
L 220.035731 41.438433 
L 219.943516 41.451829 
L 219.8513 41.465238 
L 219.8513 41.287029 
L 219.759085 41.300366 
L 219.205792 41.380682 
L 219.205792 41.201681 
L 219.113577 41.215029 
L 218.744715 41.268562 
L 218.744715 41.088936 
L 218.6525 41.102267 
L 217.545914 41.263342 
L 217.545914 41.082378 
L 217.453699 41.095805 
L 216.531544 41.23086 
L 216.531544 41.048718 
L 216.439329 41.062213 
L 214.871666 41.293851 
L 214.77945 40.939276 
L 214.226158 41.02103 
L 214.226158 40.836009 
L 214.133942 40.849593 
L 213.949511 40.876806 
L 213.949511 40.691304 
L 213.857296 40.70484 
L 213.304003 40.786361 
L 213.304003 40.6 
L 213.211787 40.613545 
L 212.474064 40.722436 
L 212.474064 40.535016 
L 212.381848 40.5486 
L 212.012987 40.603082 
L 212.012987 40.414978 
L 211.920771 40.42854 
L 210.353108 40.661402 
L 210.353108 40.471341 
L 210.260893 40.485078 
L 209.523169 40.595526 
L 209.430954 40.226667 
L 209.338738 40.240359 
L 209.338738 39.856566 
L 209.246523 39.870073 
L 208.877661 39.924254 
L 208.877661 39.731532 
L 208.785445 39.745014 
L 208.416584 39.799097 
L 208.416584 39.60565 
L 208.324368 39.619107 
L 207.217783 39.781787 
L 207.217783 39.586788 
L 207.125567 39.600342 
L 206.387844 39.70933 
L 206.387844 39.513173 
L 206.295628 39.526762 
L 203.344733 39.969994 
L 203.344733 39.770093 
L 203.252518 39.784103 
L 201.684855 40.024793 
L 201.684855 39.822682 
L 201.59264 39.836879 
L 201.500424 39.851094 
L 201.408209 39.459716 
L 198.733961 39.873297 
L 198.733961 39.666828 
L 198.641745 39.681231 
L 196.889651 39.958242 
L 196.889651 39.749175 
L 196.797436 39.763814 
L 195.506419 39.970654 
L 195.506419 39.759531 
L 195.414204 39.774321 
L 195.321989 39.789129 
L 195.321989 39.577503 
L 195.229773 39.592208 
L 195.045342 39.621672 
L 194.953127 39.211414 
L 193.754326 39.401751 
L 193.754326 39.187234 
L 193.66211 39.201879 
L 193.569895 39.216541 
L 193.569895 38.786198 
L 193.477679 38.800628 
L 192.002232 39.033989 
L 192.002232 38.816244 
L 191.910017 38.830857 
L 191.080077 38.963218 
L 191.080077 38.743898 
L 190.987862 38.758568 
L 190.434569 38.846983 
L 190.434569 38.626461 
L 190.342354 38.641131 
L 186.930382 39.197498 
L 186.930382 38.971542 
L 186.838166 38.986816 
L 186.653735 39.017426 
L 186.653735 38.790753 
L 186.56152 38.805948 
L 186.469305 38.821164 
L 186.469305 38.593911 
L 186.377089 38.609007 
L 186.284874 38.624122 
L 186.284874 38.396286 
L 186.192658 38.411281 
L 185.454935 38.531955 
L 185.362719 38.087701 
L 184.809426 38.17745 
L 184.809426 37.946407 
L 184.717211 37.96129 
L 184.163918 38.051012 
L 184.163918 37.818636 
L 184.071703 37.833514 
L 183.795056 37.878267 
L 183.795056 37.41139 
L 183.702841 37.426052 
L 182.227393 37.663374 
L 182.227393 37.426905 
L 182.135178 37.441758 
L 180.936377 37.636729 
L 180.936377 37.158501 
L 180.844162 37.173333 
L 180.4753 37.232869 
L 180.4753 36.992474 
L 180.383084 37.007252 
L 178.999852 37.231431 
L 178.999852 36.988152 
L 178.907637 37.003105 
L 177.524405 37.229957 
L 177.524405 36.983726 
L 177.43219 36.998857 
L 177.063328 37.059599 
L 177.063328 36.812186 
L 176.971112 36.82726 
L 176.694466 36.87261 
L 176.602251 36.390202 
L 175.956742 36.494569 
L 175.956742 36.244058 
L 175.864527 36.258883 
L 175.40345 36.333333 
L 175.40345 36.081428 
L 175.311234 36.09621 
L 174.112433 36.290361 
L 174.112433 36.035641 
L 174.020218 36.050553 
L 171.161538 36.523982 
L 171.161538 36.263094 
L 171.069323 36.27855 
L 169.225014 36.592638 
L 169.225014 36.327398 
L 169.132798 36.343164 
L 168.948367 36.374769 
L 168.948367 36.108545 
L 168.856152 36.124191 
L 166.45855 36.539623 
L 166.45855 35.995276 
L 166.366335 36.01119 
L 165.905257 36.091139 
L 165.813042 35.558287 
L 165.536395 35.605405 
L 165.536395 35.329674 
L 165.44418 35.345223 
L 164.798672 35.454764 
L 164.798672 35.176923 
L 164.706456 35.192462 
L 163.876517 35.333441 
L 163.876517 35.053032 
L 163.784302 35.068608 
L 161.939993 35.385526 
L 161.939993 35.100082 
L 161.847777 35.11598 
L 161.478915 35.179835 
L 161.478915 34.892804 
L 161.3867 34.908609 
L 161.294484 34.924441 
L 161.294484 34.636484 
L 161.202269 34.652116 
L 160.37233 34.79398 
L 160.37233 34.503264 
L 160.280114 34.518928 
L 160.003468 34.566079 
L 159.911253 33.996633 
L 159.634606 34.0427 
L 159.634606 33.748649 
L 159.542391 33.763821 
L 157.882512 34.041373 
L 157.882512 33.742268 
L 157.790297 33.757696 
L 157.237004 33.850821 
L 157.237004 33.549481 
L 157.144789 33.564848 
L 156.775927 33.626586 
L 156.775927 33.323478 
L 156.683711 33.338729 
L 156.499281 33.369311 
L 156.499281 33.064921 
L 156.407065 33.08 
L 156.038203 33.140578 
L 156.038203 32.220387 
L 155.945988 32.234828 
L 155.392695 32.322016 
L 155.30048 31.716312 
L 152.626231 32.136306 
L 152.626231 31.817486 
L 152.534016 31.832088 
L 152.257369 31.876051 
L 152.257369 31.555535 
L 152.165154 31.569963 
L 152.072939 31.584418 
L 151.980723 30.631279 
L 150.41306 30.866916 
L 150.41306 30.53826 
L 150.320845 30.55206 
L 148.476536 30.833588 
L 148.476536 30.497994 
L 148.38432 30.512046 
L 146.447796 30.813463 
L 146.447796 30.470313 
L 146.35558 30.484653 
L 145.525641 30.61499 
L 145.525641 30.267917 
L 145.433426 30.282213 
L 144.603486 30.412164 
L 144.603486 30.061078 
L 144.511271 30.075325 
L 144.419056 30.0896 
L 144.419056 29.737137 
L 144.32684 29.751102 
L 141.560376 30.183471 
L 141.468161 29.468808 
L 141.007084 29.54 
L 141.007084 29.172263 
L 140.914868 29.186221 
L 139.070559 29.471642 
L 139.070559 29.095197 
L 138.978343 29.109402 
L 135.19751 29.719106 
L 135.19751 29.324832 
L 135.105294 29.339978 
L 133.537631 29.60274 
L 133.537631 29.199771 
L 133.445416 29.215103 
L 133.353201 29.23047 
L 133.353201 28.825688 
L 133.260985 28.840643 
L 132.246615 29.007442 
L 132.246615 28.596275 
L 132.1544 28.611189 
L 131.508891 28.716569 
L 131.508891 28.300706 
L 131.416676 28.31543 
L 127.359196 28.999503 
L 127.359196 28.560199 
L 127.26698 28.57609 
L 124.684947 29.037677 
L 124.684947 28.581395 
L 124.592732 28.59793 
L 118.322081 29.83234 
L 118.322081 29.331818 
L 118.229865 29.351067 
L 115.371186 29.97619 
L 115.371186 29.451267 
L 115.278971 29.471642 
L 112.973584 30.00155 
L 112.973584 29.454658 
L 112.881369 29.475894 
L 110.483767 30.052188 
L 110.483767 29.480519 
L 110.391551 29.502764 
L 105.780778 30.715398 
L 105.780778 29.466785 
L 105.688563 29.491103 
L 105.319701 29.589247 
L 105.319701 28.956194 
L 105.227486 28.979856 
L 102.645453 29.678788 
L 102.645453 29.009867 
L 102.553237 29.034981 
L 101.999945 29.187692 
L 101.999945 28.507514 
L 101.907729 28.532046 
L 100.893359 28.808284 
L 100.893359 28.109881 
L 100.801144 28.134257 
L 97.665818 29.024628 
L 97.665818 28.273191 
L 97.573603 28.299787 
L 95.913724 28.79867 
L 95.821509 27.25 
L 91.856244 28.465679 
L 89.366427 29.37037 
L 89.366427 28.434483 
L 89.274211 28.468085 
L 88.352057 28.814208 
L 88.352057 27.846027 
L 88.259841 27.879121 
L 87.429902 28.185352 
L 87.337687 26.209091 
L 84.110146 27.35836 
L 81.251467 28.611189 
L 78.761649 29.946718 
L 78.023925 30.39761 
L 78.023925 28.9904 
L 77.93171 29.043373 
L 75.810754 30.39115 
L 73.87423 31.885854 
L 72.122136 33.529032 
L 70.554473 35.312426 
L 69.171241 37.212987 
L 68.341302 38.542069 
L 68.341302 36.155556 
L 68.249087 36.297902 
L 66.95807 38.522481 
L 65.75927 41.068966 
L 64.652684 43.984615 
L 63.638314 47.31828 
L 62.716159 51.115663 
L 61.88622 55.410811 
L 61.056281 60.895385 
L 60.318557 67.224561 
L 59.673049 74.424 
L 59.673049 68.142857 
L 59.580834 69.233333 
L 58.935326 78.356098 
L 58.935326 62.774359 
L 58.84311 64.010526 
L 58.289817 73.05 
L 57.736525 86.261538 
L 57.736525 61.6 
L 57.644309 63.591304 
L 57.183232 76.866667 
L 56.998801 84.5 
L 56.998801 64.653333 
L 56.906586 68.142857 
L 56.537724 89.08 
L 56.445508 97.222222 
L 56.445508 61.6 
L 56.353293 68.142857 
L 56.261077 76.866667 
L 56.261077 15.8 
L 56.168862 15.8 
L 55.8 15.8 
L 55.8 15.8 
" style="fill:none;stroke:#0000ff;stroke-linecap:square;stroke-width:2;"/>
   </g>
   <g id="line2d_26">
    <path clip-path="url(#p26c144aa0a)" d="M 295.744623 382.2 
L 295.744623 52.44 
" style="fill:none;stroke:#ff0000;stroke-dasharray:1.5,2.475;stroke-dashoffset:0;stroke-width:1.5;"/>
   </g>
   <g id="line2d_27">
    <path clip-path="url(#p26c144aa0a)" d="M 55.8 52.44 
L 295.744623 52.44 
" style="fill:none;stroke:#ff0000;stroke-dasharray:1.5,2.475;stroke-dashoffset:0;stroke-width:1.5;"/>
   </g>
   <g id="line2d_28">
    <defs>
     <path d="M 0 3 
C 0.795609 3 1.55874 2.683901 2.12132 2.12132 
C 2.683901 1.55874 3 0.795609 3 0 
C 3 -0.795609 2.683901 -1.55874 2.12132 -2.12132 
C 1.55874 -2.683901 0.795609 -3 0 -3 
C -0.795609 -3 -1.55874 -2.683901 -2.12132 -2.12132 
C -2.683901 -1.55874 -3 -0.795609 -3 0 
C -3 0.795609 -2.683901 1.55874 -2.12132 2.12132 
C -1.55874 2.683901 -0.795609 3 0 3 
z
" id="mac2b75dbf1" style="stroke:#ff0000;"/>
    </defs>
    <g clip-path="url(#p26c144aa0a)">
     <use style="fill:#ff0000;stroke:#ff0000;" x="295.744623" xlink:href="#mac2b75dbf1" y="52.44"/>
    </g>
   </g>
   <g id="patch_3">
    <path d="M 55.8 382.2 
L 55.8 15.8 
" style="fill:none;stroke:#000000;stroke-linecap:square;stroke-linejoin:miter;stroke-width:0.8;"/>
   </g>
   <g id="patch_4">
    <path d="M 555.7 382.2 
L 555.7 15.8 
" style="fill:none;stroke:#000000;stroke-linecap:square;stroke-linejoin:miter;stroke-width:0.8;"/>
   </g>
   <g id="patch_5">
    <path d="M 55.8 382.2 
L 555.7 382.2 
" style="fill:none;stroke:#000000;stroke-linecap:square;stroke-linejoin:miter;stroke-width:0.8;"/>
   </g>
   <g id="patch_6">
    <path d="M 55.8 15.8 
L 555.7 15.8 
" style="fill:none;stroke:#000000;stroke-linecap:square;stroke-linejoin:miter;stroke-width:0.8;"/>
   </g>
  </g>
 </g>
 <defs>
  <clipPath id="p26c144aa0a">
   <rect height="366.4" width="499.9" x="55.8" y="15.8"/>
  </clipPath>
 </defs>
</svg>
