<?xml version="1.0" encoding="utf-8" standalone="no"?>
<!DOCTYPE svg PUBLIC "-//W3C//DTD SVG 1.1//EN"
  "http://www.w3.org/Graphics/SVG/1.1/DTD/svg11.dtd">
<!-- Created with matplotlib (https://matplotlib.org/) -->
<svg height="432pt" version="1.1" viewBox="0 0 576 432" width="576pt" xmlns="http://www.w3.org/2000/svg" xmlns:xlink="http://www.w3.org/1999/xlink">
 <defs>
  <style type="text/css">
*{stroke-linecap:butt;stroke-linejoin:round;}
  </style>
 </defs>
 <g id="figure_1">
  <g id="patch_1">
   <path d="M 0 432 
L 576 432 
L 576 0 
L 0 0 
z
" style="fill:none;"/>
  </g>
  <g id="axes_1">
   <g id="patch_2">
    <path d="M 55.8 382.2 
L 555.7 382.2 
L 555.7 15.8 
L 55.8 15.8 
z
" style="fill:none;"/>
   </g>
   <g id="matplotlib.axis_1">
    <g id="xtick_1">
     <g id="line2d_1">
      <path clip-path="url(#pf8d60db836)" d="M 55.8 382.2 
L 55.8 15.8 
" style="fill:none;stroke:#b0b0b0;stroke-linecap:square;stroke-width:0.8;"/>
     </g>
     <g id="line2d_2">
      <defs>
       <path d="M 0 0 
L 0 3.5 
" id="m2d1c3b5d88" style="stroke:#000000;stroke-width:0.8;"/>
      </defs>
      <g>
       <use style="stroke:#000000;stroke-width:0.8;" x="55.8" xlink:href="#m2d1c3b5d88" y="382.2"/>
      </g>
     </g>
     <g id="text_1">
      <text style="font-family:DejaVu Sans;font-size:12px;font-style:normal;font-weight:normal;text-anchor:middle;" transform="rotate(-0, 55.8, 398.318125)" x="55.8" y="398.318125">0.0</text>
     </g>
    </g>
    <g id="xtick_2">
     <g id="line2d_3">
      <path clip-path="url(#pf8d60db836)" d="M 155.78 382.2 
L 155.78 15.8 
" style="fill:none;stroke:#b0b0b0;stroke-linecap:square;stroke-width:0.8;"/>
     </g>
     <g id="line2d_4">
      <g>
       <use style="stroke:#000000;stroke-width:0.8;" x="155.78" xlink:href="#m2d1c3b5d88" y="382.2"/>
      </g>
     </g>
     <g id="text_2">
      <text style="font-family:DejaVu Sans;font-size:12px;font-style:normal;font-weight:normal;text-anchor:middle;" transform="rotate(-0, 155.78, 398.318125)" x="155.78" y="398.318125">0.2</text>
     </g>
    </g>
    <g id="xtick_3">
     <g id="line2d_5">
      <path clip-path="url(#pf8d60db836)" d="M 255.76 382.2 
L 255.76 15.8 
" style="fill:none;stroke:#b0b0b0;stroke-linecap:square;stroke-width:0.8;"/>
     </g>
     <g id="line2d_6">
      <g>
       <use style="stroke:#000000;stroke-width:0.8;" x="255.76" xlink:href="#m2d1c3b5d88" y="382.2"/>
      </g>
     </g>
     <g id="text_3">
      <text style="font-family:DejaVu Sans;font-size:12px;font-style:normal;font-weight:normal;text-anchor:middle;" transform="rotate(-0, 255.76, 398.318125)" x="255.76" y="398.318125">0.4</text>
     </g>
    </g>
    <g id="xtick_4">
     <g id="line2d_7">
      <path clip-path="url(#pf8d60db836)" d="M 355.74 382.2 
L 355.74 15.8 
" style="fill:none;stroke:#b0b0b0;stroke-linecap:square;stroke-width:0.8;"/>
     </g>
     <g id="line2d_8">
      <g>
       <use style="stroke:#000000;stroke-width:0.8;" x="355.74" xlink:href="#m2d1c3b5d88" y="382.2"/>
      </g>
     </g>
     <g id="text_4">
      <text style="font-family:DejaVu Sans;font-size:12px;font-style:normal;font-weight:normal;text-anchor:middle;" transform="rotate(-0, 355.74, 398.318125)" x="355.74" y="398.318125">0.6</text>
     </g>
    </g>
    <g id="xtick_5">
     <g id="line2d_9">
      <path clip-path="url(#pf8d60db836)" d="M 455.72 382.2 
L 455.72 15.8 
" style="fill:none;stroke:#b0b0b0;stroke-linecap:square;stroke-width:0.8;"/>
     </g>
     <g id="line2d_10">
      <g>
       <use style="stroke:#000000;stroke-width:0.8;" x="455.72" xlink:href="#m2d1c3b5d88" y="382.2"/>
      </g>
     </g>
     <g id="text_5">
      <text style="font-family:DejaVu Sans;font-size:12px;font-style:normal;font-weight:normal;text-anchor:middle;" transform="rotate(-0, 455.72, 398.318125)" x="455.72" y="398.318125">0.8</text>
     </g>
    </g>
    <g id="xtick_6">
     <g id="line2d_11">
      <path clip-path="url(#pf8d60db836)" d="M 555.7 382.2 
L 555.7 15.8 
" style="fill:none;stroke:#b0b0b0;stroke-linecap:square;stroke-width:0.8;"/>
     </g>
     <g id="line2d_12">
      <g>
       <use style="stroke:#000000;stroke-width:0.8;" x="555.7" xlink:href="#m2d1c3b5d88" y="382.2"/>
      </g>
     </g>
     <g id="text_6">
      <text style="font-family:DejaVu Sans;font-size:12px;font-style:normal;font-weight:normal;text-anchor:middle;" transform="rotate(-0, 555.7, 398.318125)" x="555.7" y="398.318125">1.0</text>
     </g>
    </g>
    <g id="text_7">
     <text style="font-family:DejaVu Sans;font-size:16px;font-style:normal;font-weight:normal;text-anchor:middle;" transform="rotate(-0, 305.75, 416.97125)" x="305.75" y="416.97125">False Positive Rate (Fall-Out)</text>
    </g>
   </g>
   <g id="matplotlib.axis_2">
    <g id="ytick_1">
     <g id="line2d_13">
      <path clip-path="url(#pf8d60db836)" d="M 55.8 382.2 
L 555.7 382.2 
" style="fill:none;stroke:#b0b0b0;stroke-linecap:square;stroke-width:0.8;"/>
     </g>
     <g id="line2d_14">
      <defs>
       <path d="M 0 0 
L -3.5 0 
" id="m1eefa572d5" style="stroke:#000000;stroke-width:0.8;"/>
      </defs>
      <g>
       <use style="stroke:#000000;stroke-width:0.8;" x="55.8" xlink:href="#m1eefa572d5" y="382.2"/>
      </g>
     </g>
     <g id="text_8">
      <text style="font-family:DejaVu Sans;font-size:12px;font-style:normal;font-weight:normal;text-anchor:end;" transform="rotate(-0, 48.8, 386.759062)" x="48.8" y="386.759062">0.0</text>
     </g>
    </g>
    <g id="ytick_2">
     <g id="line2d_15">
      <path clip-path="url(#pf8d60db836)" d="M 55.8 308.92 
L 555.7 308.92 
" style="fill:none;stroke:#b0b0b0;stroke-linecap:square;stroke-width:0.8;"/>
     </g>
     <g id="line2d_16">
      <g>
       <use style="stroke:#000000;stroke-width:0.8;" x="55.8" xlink:href="#m1eefa572d5" y="308.92"/>
      </g>
     </g>
     <g id="text_9">
      <text style="font-family:DejaVu Sans;font-size:12px;font-style:normal;font-weight:normal;text-anchor:end;" transform="rotate(-0, 48.8, 313.479062)" x="48.8" y="313.479062">0.2</text>
     </g>
    </g>
    <g id="ytick_3">
     <g id="line2d_17">
      <path clip-path="url(#pf8d60db836)" d="M 55.8 235.64 
L 555.7 235.64 
" style="fill:none;stroke:#b0b0b0;stroke-linecap:square;stroke-width:0.8;"/>
     </g>
     <g id="line2d_18">
      <g>
       <use style="stroke:#000000;stroke-width:0.8;" x="55.8" xlink:href="#m1eefa572d5" y="235.64"/>
      </g>
     </g>
     <g id="text_10">
      <text style="font-family:DejaVu Sans;font-size:12px;font-style:normal;font-weight:normal;text-anchor:end;" transform="rotate(-0, 48.8, 240.199062)" x="48.8" y="240.199062">0.4</text>
     </g>
    </g>
    <g id="ytick_4">
     <g id="line2d_19">
      <path clip-path="url(#pf8d60db836)" d="M 55.8 162.36 
L 555.7 162.36 
" style="fill:none;stroke:#b0b0b0;stroke-linecap:square;stroke-width:0.8;"/>
     </g>
     <g id="line2d_20">
      <g>
       <use style="stroke:#000000;stroke-width:0.8;" x="55.8" xlink:href="#m1eefa572d5" y="162.36"/>
      </g>
     </g>
     <g id="text_11">
      <text style="font-family:DejaVu Sans;font-size:12px;font-style:normal;font-weight:normal;text-anchor:end;" transform="rotate(-0, 48.8, 166.919062)" x="48.8" y="166.919062">0.6</text>
     </g>
    </g>
    <g id="ytick_5">
     <g id="line2d_21">
      <path clip-path="url(#pf8d60db836)" d="M 55.8 89.08 
L 555.7 89.08 
" style="fill:none;stroke:#b0b0b0;stroke-linecap:square;stroke-width:0.8;"/>
     </g>
     <g id="line2d_22">
      <g>
       <use style="stroke:#000000;stroke-width:0.8;" x="55.8" xlink:href="#m1eefa572d5" y="89.08"/>
      </g>
     </g>
     <g id="text_12">
      <text style="font-family:DejaVu Sans;font-size:12px;font-style:normal;font-weight:normal;text-anchor:end;" transform="rotate(-0, 48.8, 93.639062)" x="48.8" y="93.639062">0.8</text>
     </g>
    </g>
    <g id="ytick_6">
     <g id="line2d_23">
      <path clip-path="url(#pf8d60db836)" d="M 55.8 15.8 
L 555.7 15.8 
" style="fill:none;stroke:#b0b0b0;stroke-linecap:square;stroke-width:0.8;"/>
     </g>
     <g id="line2d_24">
      <g>
       <use style="stroke:#000000;stroke-width:0.8;" x="55.8" xlink:href="#m1eefa572d5" y="15.8"/>
      </g>
     </g>
     <g id="text_13">
      <text style="font-family:DejaVu Sans;font-size:12px;font-style:normal;font-weight:normal;text-anchor:end;" transform="rotate(-0, 48.8, 20.359062)" x="48.8" y="20.359062">1.0</text>
     </g>
    </g>
    <g id="text_14">
     <text style="font-family:DejaVu Sans;font-size:16px;font-style:normal;font-weight:normal;text-anchor:middle;" transform="rotate(-90, 22.38875, 199)" x="22.38875" y="199">True Positive Rate (Recall)</text>
    </g>
   </g>
   <g id="line2d_25">
    <path clip-path="url(#pf8d60db836)" d="M 55.8 382.2 
L 55.90991 358.341081 
L 55.91907 358.341081 
L 56.02898 338.537502 
L 56.038139 338.537502 
L 56.14805 317.246966 
L 56.157209 317.246966 
L 56.267119 308.730751 
L 56.294597 308.730751 
L 56.404507 302.309795 
L 56.413666 302.309795 
L 56.523577 293.590814 
L 56.532736 293.590814 
L 56.642646 287.169858 
L 56.651806 287.169858 
L 56.761716 279.937834 
L 56.770875 279.937834 
L 56.871626 269.664305 
L 56.899104 269.596716 
L 57.009014 262.432282 
L 57.018174 262.432282 
L 57.128084 257.160339 
L 57.137243 257.160339 
L 57.247154 251.618041 
L 57.256313 251.618041 
L 57.366223 245.129496 
L 57.384542 245.061907 
L 57.494452 240.330677 
L 57.52193 240.263088 
L 57.63184 234.923557 
L 57.640999 234.923557 
L 57.75091 227.961889 
L 57.769228 227.961889 
L 57.879138 223.027892 
L 57.888298 223.027892 
L 57.998208 218.431839 
L 58.016527 218.431839 
L 58.126437 214.444088 
L 58.144755 214.376499 
L 58.254666 211.199816 
L 58.263825 211.199816 
L 58.373735 208.023132 
L 58.382895 208.023132 
L 58.492805 206.13064 
L 58.511123 206.063051 
L 58.621034 203.359491 
L 58.630193 203.359491 
L 58.740103 201.196643 
L 58.749263 201.196643 
L 58.859173 199.304151 
L 58.868332 199.304151 
L 58.978243 195.586755 
L 58.996561 195.586755 
L 59.106471 192.410072 
L 59.115631 192.410072 
L 59.225541 189.571334 
L 59.2347 189.571334 
L 59.335451 186.867773 
L 59.35377 186.867773 
L 59.454521 184.569747 
L 59.472839 184.569747 
L 59.555272 182.880022 
L 59.610227 182.812433 
L 59.720138 179.230216 
L 59.738456 179.162627 
L 59.830048 178.013614 
L 59.866685 178.013614 
L 59.976595 176.391478 
L 59.985755 176.391478 
L 60.077347 174.83693 
L 60.104824 174.83693 
L 60.214735 171.795425 
L 60.223894 171.795425 
L 60.333804 169.632577 
L 60.370441 169.632577 
L 60.480351 167.740085 
L 60.489511 167.740085 
L 60.599421 165.171703 
L 60.626899 165.171703 
L 60.736809 163.27921 
L 60.745968 163.27921 
L 60.83756 161.116362 
L 60.865038 161.116362 
L 60.965789 159.764582 
L 60.984107 159.764582 
L 61.084859 157.331378 
L 61.103177 157.331378 
L 61.213087 155.776831 
L 61.231406 155.709242 
L 61.332157 153.951928 
L 61.350475 153.951928 
L 61.460386 152.397381 
L 61.478704 152.397381 
L 61.588615 151.586312 
L 61.597774 151.586312 
L 61.707684 149.355875 
L 61.716843 149.355875 
L 61.826754 147.66615 
L 61.845072 147.598561 
L 61.954983 146.044014 
L 61.98246 146.044014 
L 62.092371 143.475632 
L 62.165644 143.408043 
L 62.275555 142.25903 
L 62.284714 142.25903 
L 62.394624 140.772072 
L 62.412943 140.772072 
L 62.522853 139.690647 
L 62.532012 139.690647 
L 62.632764 139.014757 
L 62.67856 139.014757 
L 62.78847 138.000922 
L 62.797629 138.000922 
L 62.90754 136.987087 
L 62.916699 136.987087 
L 63.026609 134.418705 
L 63.054087 134.418705 
L 63.13652 134.013171 
L 63.182316 134.013171 
L 63.273908 132.188268 
L 63.310544 132.120679 
L 63.411296 131.309611 
L 63.47541 131.242022 
L 63.567002 129.957831 
L 63.59448 129.957831 
L 63.70439 128.403284 
L 63.713549 128.403284 
L 63.8143 126.848736 
L 63.841778 126.848736 
L 63.951688 125.699723 
L 63.997484 125.632134 
L 64.107395 124.280354 
L 64.134872 124.212765 
L 64.235624 123.469286 
L 64.253942 123.469286 
L 64.345534 122.793396 
L 64.418808 122.725807 
L 64.519559 121.644383 
L 64.547036 121.644383 
L 64.656947 120.900904 
L 64.684424 120.833315 
L 64.776016 120.157425 
L 64.84929 120.157425 
L 64.9592 118.940823 
L 64.995837 118.873234 
L 65.087429 117.656632 
L 65.124066 117.656632 
L 65.19734 117.048331 
L 65.279772 116.980742 
L 65.389683 115.899317 
L 65.408001 115.899317 
L 65.508752 115.155838 
L 65.527071 115.155838 
L 65.609504 114.209592 
L 65.6553 114.142003 
L 65.76521 113.66888 
L 65.792688 113.66888 
L 65.88428 113.060579 
L 65.957553 112.99299 
L 66.049145 112.3171 
L 66.094941 112.249511 
L 66.195692 111.573621 
L 66.22317 111.506032 
L 66.33308 110.627375 
L 66.360558 110.627375 
L 66.424672 110.357019 
L 66.507105 110.28943 
L 66.607857 110.019074 
L 66.726926 109.951485 
L 66.827677 109.61354 
L 66.845996 109.61354 
L 66.955906 108.802472 
L 66.983384 108.802472 
L 67.074976 108.396938 
L 67.184886 108.329349 
L 67.294797 107.383103 
L 67.322274 107.315514 
L 67.386389 106.90998 
L 67.468821 106.90998 
L 67.578732 106.369268 
L 67.606209 106.301679 
L 67.688642 105.693378 
L 67.734438 105.625789 
L 67.844349 104.88231 
L 67.853508 104.88231 
L 67.917622 104.274008 
L 67.972577 104.274008 
L 68.036692 103.733296 
L 68.119125 103.665707 
L 68.219876 103.192584 
L 68.238194 103.192584 
L 68.348105 102.246338 
L 68.366423 102.178749 
L 68.467174 101.570448 
L 68.503811 101.570448 
L 68.567925 100.894558 
L 68.714473 100.826969 
L 68.824383 100.353846 
L 68.833542 100.353846 
L 68.915975 99.813134 
L 68.97093 99.813134 
L 69.053363 99.340011 
L 69.099159 99.340011 
L 69.19991 98.596532 
L 69.254865 98.528943 
L 69.355617 98.05582 
L 69.401413 97.988231 
L 69.502164 97.244752 
L 69.557119 97.177163 
L 69.667029 96.568862 
L 69.740303 96.501273 
L 69.850213 96.230917 
L 69.877691 96.163328 
L 69.987601 95.757794 
L 70.00592 95.757794 
L 70.106671 94.879137 
L 70.143308 94.811548 
L 70.244059 94.473603 
L 70.271537 94.406014 
L 70.363129 93.932891 
L 70.427243 93.865302 
L 70.527994 93.189412 
L 70.582949 93.121823 
L 70.69286 92.513521 
L 70.711178 92.513521 
L 70.775293 92.107987 
L 70.92184 92.040398 
L 70.985954 91.702453 
L 71.086706 91.634864 
L 71.196616 91.094152 
L 71.279049 91.026563 
L 71.388959 90.688618 
L 71.425596 90.621029 
L 71.526347 90.215495 
L 71.617939 90.147906 
L 71.71869 89.472016 
L 71.764486 89.404427 
L 71.865238 89.066482 
L 71.95683 88.998893 
L 72.030103 88.660948 
L 72.121695 88.593359 
L 72.204128 88.323003 
L 72.249924 88.323003 
L 72.341516 87.782291 
L 72.460586 87.714702 
L 72.561337 87.309168 
L 72.579655 87.309168 
L 72.64377 87.106401 
L 72.744521 87.038812 
L 72.808635 86.4981 
L 72.891068 86.430511 
L 72.991819 85.82221 
L 73.065093 85.82221 
L 73.175003 85.281498 
L 73.403983 85.213909 
L 73.403983 85.011142 
L 73.605486 84.943553 
L 73.715396 84.402841 
L 73.752033 84.335252 
L 73.843625 83.591773 
L 73.971854 83.524184 
L 74.054286 83.253828 
L 74.274107 83.186239 
L 74.310744 82.780705 
L 74.438973 82.713116 
L 74.503087 82.307582 
L 74.594679 82.307582 
L 74.70459 81.902048 
L 74.787022 81.834459 
L 74.887774 81.023391 
L 75.034321 80.955802 
L 75.135072 80.550267 
L 75.226664 80.482678 
L 75.318256 80.009555 
L 75.473963 79.941966 
L 75.565555 79.401254 
L 75.611351 79.333665 
L 75.611351 79.130898 
L 75.84949 79.063309 
L 75.904445 78.860542 
L 76.069311 78.792953 
L 76.160903 78.31983 
L 76.234176 78.31983 
L 76.334927 77.779118 
L 76.399042 77.711529 
L 76.499793 77.576351 
L 76.518111 77.576351 
L 76.573067 77.103228 
L 76.719614 77.035639 
L 76.829524 76.765283 
L 76.857002 76.697694 
L 76.948594 76.427338 
L 77.040186 76.427338 
L 77.113459 76.021804 
L 77.22337 75.954215 
L 77.296643 75.751448 
L 77.470668 75.683859 
L 77.553101 75.481092 
L 77.708807 75.413503 
L 77.745444 75.278325 
L 77.919469 75.210736 
L 78.02022 75.007969 
L 78.084335 75.007969 
L 78.130131 74.805202 
L 78.331633 74.805202 
L 78.441543 74.26449 
L 78.459862 74.196901 
L 78.560613 73.926545 
L 78.59725 73.858956 
L 78.59725 73.723778 
L 78.725479 73.656189 
L 78.807911 73.318244 
L 78.844548 73.318244 
L 78.954459 72.777532 
L 79.009414 72.709943 
L 79.101006 72.574765 
L 79.201757 72.507176 
L 79.265871 72.169231 
L 79.467374 72.101642 
L 79.577284 71.898875 
L 79.678036 71.831286 
L 79.705513 71.696108 
L 79.842901 71.628519 
L 79.870379 71.425752 
L 80.016926 71.358163 
L 80.053563 71.087807 
L 80.181792 71.020218 
L 80.291702 70.817451 
L 80.328339 70.749862 
L 80.401612 70.479506 
L 80.456568 70.479506 
L 80.54816 70.073972 
L 80.612274 70.006383 
L 80.630592 69.803616 
L 80.822936 69.736027 
L 80.822936 69.668438 
L 81.024438 69.668438 
L 81.097712 69.330493 
L 81.207622 69.262904 
L 81.317532 68.924958 
L 81.354169 68.924958 
L 81.372488 68.722191 
L 81.500716 68.654602 
L 81.528194 68.519424 
L 81.674741 68.451835 
L 81.6839 68.249068 
L 81.903721 68.181479 
L 82.004472 67.843534 
L 82.196816 67.775945 
L 82.306726 67.573178 
L 82.480751 67.505589 
L 82.517388 67.167644 
L 82.645616 67.100055 
L 82.755527 66.829699 
L 82.773845 66.76211 
L 82.773845 66.694521 
L 82.920392 66.626932 
L 82.975348 66.356576 
L 83.240964 66.288987 
L 83.240964 66.221398 
L 83.433308 66.221398 
L 83.534059 65.951042 
L 83.75388 65.883453 
L 83.845472 65.680686 
L 83.909586 65.613097 
L 83.992019 65.342741 
L 84.349228 65.275152 
L 84.413342 65.139974 
L 84.504934 65.072385 
L 84.605685 64.802029 
L 84.651481 64.73444 
L 84.743073 64.531673 
L 84.852984 64.464084 
L 84.962894 64.126139 
L 85.017849 64.05855 
L 85.12776 63.720605 
L 85.292625 63.653016 
L 85.402536 63.517838 
L 85.448332 63.450249 
L 85.530765 63.179893 
L 85.604038 63.112304 
L 85.713949 62.841948 
L 85.878814 62.774359 
L 85.933769 62.639181 
L 86.052839 62.571592 
L 86.052839 62.504003 
L 86.300137 62.436414 
L 86.391729 62.233647 
L 86.666505 62.166058 
L 86.767257 61.692935 
L 86.868008 61.625346 
L 86.904645 61.490168 
L 87.106147 61.422579 
L 87.161102 61.287401 
L 87.454197 61.219812 
L 87.472515 60.949456 
L 87.793087 60.881867 
L 87.884679 60.6791 
L 87.98543 60.611511 
L 88.086181 60.408744 
L 88.278525 60.341155 
L 88.370117 60.070799 
L 88.489186 60.00321 
L 88.589938 59.868032 
L 88.937987 59.800443 
L 88.992942 59.530087 
L 89.166967 59.462498 
L 89.2494 59.192142 
L 89.460062 59.124553 
L 89.542494 58.854197 
L 89.58829 58.786608 
L 89.698201 58.65143 
L 89.982136 58.583841 
L 90.073728 58.448663 
L 90.147002 58.448663 
L 90.147002 58.313485 
L 90.403459 58.245896 
L 90.403459 58.178307 
L 90.568325 58.110718 
L 90.568325 58.043129 
L 90.888897 57.97554 
L 90.989648 57.840362 
L 91.108718 57.772773 
L 91.218628 57.502417 
L 91.777339 57.434828 
L 91.777339 57.367239 
L 92.216981 57.29965 
L 92.271936 57.164471 
L 92.537553 57.096882 
L 92.537553 57.029293 
L 92.839807 56.961704 
L 92.903921 56.691348 
L 93.050468 56.623759 
L 93.087105 56.353403 
L 93.407677 56.285814 
L 93.407677 56.218225 
L 93.581702 56.218225 
L 93.581702 56.083047 
L 93.865637 56.015458 
L 93.902274 55.88028 
L 94.05798 55.812691 
L 94.131254 55.542335 
L 94.268642 55.542335 
L 94.277801 55.339568 
L 94.561736 55.271979 
L 94.671647 55.069212 
L 94.790716 55.001623 
L 94.790716 54.934034 
L 95.065492 54.866445 
L 95.129607 54.731267 
L 95.358587 54.663678 
L 95.395223 54.5285 
L 95.669999 54.5285 
L 95.752432 54.190555 
L 95.908139 54.122966 
L 96.018049 53.920199 
L 96.054686 53.85261 
L 96.1188 53.649843 
L 96.182915 53.649843 
L 96.292825 53.447076 
L 96.46685 53.379487 
L 96.46685 53.311898 
L 96.659193 53.244309 
L 96.704989 53.109131 
L 96.92481 53.041542 
L 97.03472 52.906364 
L 97.318656 52.838775 
L 97.410248 52.636008 
L 97.529317 52.568419 
L 97.529317 52.50083 
L 97.72166 52.433241 
L 97.776616 52.162885 
L 98.060551 52.095296 
L 98.170461 51.82494 
L 98.326168 51.757351 
L 98.326168 51.689762 
L 98.784128 51.622173 
L 98.793287 51.486995 
L 99.068063 51.419406 
L 99.068063 51.351817 
L 99.205451 51.284228 
L 99.232928 51.14905 
L 99.809958 51.081461 
L 99.892391 50.811105 
L 100.01146 50.743516 
L 100.112212 50.47316 
L 100.222122 50.405571 
L 100.222122 50.337982 
L 100.423624 50.270393 
L 100.423624 50.202804 
L 100.625127 50.202804 
L 100.680082 50.000037 
L 100.808311 49.932448 
L 100.808311 49.864859 
L 101.156361 49.79727 
L 101.192997 49.662092 
L 101.522729 49.594503 
L 101.596002 49.459325 
L 102.154713 49.391736 
L 102.255465 49.256558 
L 102.557718 49.188969 
L 102.557718 49.12138 
L 103.079793 49.053791 
L 103.079793 48.986202 
L 103.354569 48.918613 
L 103.354569 48.851024 
L 103.720937 48.783435 
L 103.739255 48.648257 
L 104.25217 48.580668 
L 104.25217 48.513079 
L 104.426195 48.513079 
L 104.426195 48.377901 
L 104.783404 48.310312 
L 104.783404 48.242723 
L 105.259682 48.175134 
L 105.360434 48.039956 
L 105.671846 47.972367 
L 105.681006 47.837189 
L 106.102329 47.7696 
L 106.138966 47.634422 
L 106.276354 47.566833 
L 106.276354 47.499244 
L 106.706836 47.431655 
L 106.807587 47.161299 
L 106.944975 47.09371 
L 106.944975 47.026121 
L 107.338821 46.958532 
L 107.338821 46.890943 
L 107.677711 46.823354 
L 107.677711 46.755765 
L 107.998283 46.688176 
L 107.998283 46.620587 
L 108.401288 46.552998 
L 108.437925 46.350231 
L 108.593631 46.282642 
L 108.593631 46.215053 
L 108.987477 46.147464 
L 108.987477 46.079875 
L 109.372163 46.012286 
L 109.399641 45.877108 
L 109.537029 45.809519 
L 109.610302 45.606752 
L 109.857601 45.539163 
L 109.958352 45.403985 
L 110.581178 45.336395 
L 110.581178 45.268806 
L 110.746043 45.201217 
L 110.855954 45.066039 
L 111.066615 44.99845 
L 111.066615 44.863272 
L 111.955058 44.795683 
L 111.955058 44.728094 
L 112.330585 44.660505 
L 112.330585 44.592916 
L 112.696953 44.525327 
L 112.696953 44.457738 
L 113.026684 44.390149 
L 113.026684 44.32256 
L 113.411371 44.254971 
L 113.411371 44.187382 
L 113.676987 44.119793 
L 113.722783 43.984615 
L 113.979241 43.917026 
L 114.025037 43.714259 
L 114.757773 43.64667 
L 114.858524 43.511492 
L 115.060027 43.443903 
L 115.060027 43.376314 
L 115.966788 43.308725 
L 115.966788 43.241136 
L 116.763638 43.173547 
L 116.818593 42.97078 
L 117.569648 42.903191 
L 117.569648 42.835602 
L 117.743672 42.768013 
L 117.807787 42.632835 
L 118.925209 42.565246 
L 119.025961 42.227301 
L 119.355692 42.159712 
L 119.364851 42.024534 
L 119.529717 41.956945 
L 119.575513 41.821767 
L 119.758697 41.754178 
L 119.758697 41.686589 
L 120.445637 41.619 
L 120.445637 41.551411 
L 121.334079 41.483822 
L 121.334079 41.416233 
L 121.920268 41.348644 
L 121.920268 41.281055 
L 122.176725 41.213466 
L 122.286636 41.078288 
L 122.707959 41.010699 
L 122.744596 40.875521 
L 123.486491 40.807932 
L 123.568924 40.672754 
L 123.678834 40.605165 
L 123.752108 40.469987 
L 124.741302 40.402398 
L 124.741302 40.334809 
L 125.419082 40.26722 
L 125.501515 40.132042 
L 126.25257 40.064453 
L 126.25257 39.996864 
L 127.580654 39.929275 
L 127.580654 39.861686 
L 128.285912 39.794097 
L 128.285912 39.726508 
L 128.826305 39.726508 
L 128.826305 39.59133 
L 129.806339 39.523741 
L 129.806339 39.456152 
L 130.035319 39.388563 
L 130.035319 39.320974 
L 130.429165 39.253385 
L 130.447483 39.118207 
L 131.226016 39.050618 
L 131.226016 38.983029 
L 131.482473 38.91544 
L 131.482473 38.847851 
L 131.986229 38.780262 
L 132.09614 38.577495 
L 132.590736 38.509906 
L 132.66401 38.374728 
L 133.442542 38.307139 
L 133.442542 38.23955 
L 133.680681 38.171961 
L 133.680681 38.104372 
L 134.523328 38.036783 
L 134.523328 37.969194 
L 134.981288 37.901605 
L 134.981288 37.834016 
L 135.842253 37.766427 
L 135.842253 37.698838 
L 136.226939 37.631249 
L 136.226939 37.56366 
L 136.932197 37.496071 
L 136.932197 37.428482 
L 137.619137 37.360893 
L 137.619137 37.293304 
L 138.104575 37.225715 
L 138.104575 37.158126 
L 138.38851 37.090537 
L 138.38851 37.022948 
L 138.892266 36.955359 
L 138.928903 36.820181 
L 139.524251 36.752592 
L 139.615843 36.617414 
L 140.137918 36.549825 
L 140.137918 36.482236 
L 140.485967 36.414647 
L 140.485967 36.347058 
L 140.815698 36.279469 
L 140.815698 36.21188 
L 142.006394 36.144291 
L 142.006394 36.076702 
L 142.226215 36.009113 
L 142.226215 35.941524 
L 142.995588 35.873935 
L 142.995588 35.806346 
L 143.755802 35.738757 
L 143.755802 35.671168 
L 145.184637 35.603579 
L 145.184637 35.53599 
L 146.008965 35.468401 
L 146.008965 35.400812 
L 146.457766 35.333223 
L 146.457766 35.265634 
L 147.446959 35.198045 
L 147.446959 35.130456 
L 147.849964 35.062867 
L 147.849964 34.995278 
L 148.408675 34.927689 
L 148.408675 34.8601 
L 148.994864 34.792511 
L 148.994864 34.724922 
L 150.139764 34.657333 
L 150.139764 34.589744 
L 150.286312 34.522155 
L 150.286312 34.454566 
L 152.154788 34.386977 
L 152.154788 34.319388 
L 152.759296 34.251799 
L 152.759296 34.18421 
L 152.969957 34.116621 
L 152.969957 34.049032 
L 153.345485 33.981443 
L 153.345485 33.913854 
L 153.830922 33.846265 
L 153.922514 33.575909 
L 154.756001 33.508319 
L 154.756001 33.44073 
L 155.525374 33.373141 
L 155.525374 33.305552 
L 156.038289 33.237963 
L 156.056608 33.102785 
L 156.661115 33.035196 
L 156.661115 32.967607 
L 156.935891 32.900018 
L 156.935891 32.832429 
L 158.126587 32.76484 
L 158.126587 32.697251 
L 158.538751 32.629662 
L 158.538751 32.562073 
L 159.711129 32.494484 
L 159.766084 32.359306 
L 160.526298 32.291717 
L 160.526298 32.224128 
L 161.341466 32.156539 
L 161.341466 32.08895 
L 161.826904 32.021361 
L 161.826904 31.953772 
L 162.825257 31.886183 
L 162.825257 31.818594 
L 164.199137 31.751005 
L 164.254092 31.615827 
L 165.930226 31.548238 
L 165.930226 31.480649 
L 167.011012 31.41306 
L 167.111763 31.277882 
L 167.817021 31.210293 
L 167.817021 31.142704 
L 168.412369 31.075115 
L 168.412369 31.007526 
L 168.833692 30.939937 
L 168.833692 30.872348 
L 170.482349 30.804759 
L 170.482349 30.73717 
L 172.204278 30.669581 
L 172.204278 30.601992 
L 172.341666 30.601992 
L 172.341666 30.466814 
L 173.797979 30.399225 
L 173.834616 30.264047 
L 176.435829 30.196458 
L 176.435829 30.128869 
L 179.769778 30.06128 
L 179.769778 29.993691 
L 182.004623 29.926102 
L 182.004623 29.858513 
L 183.039612 29.790924 
L 183.076249 29.655746 
L 184.037965 29.588157 
L 184.037965 29.520568 
L 185.091273 29.520568 
L 185.091273 29.38539 
L 186.428516 29.317801 
L 186.510949 29.182623 
L 187.399392 29.115034 
L 187.399392 29.047445 
L 190.028082 28.979856 
L 190.028082 28.912267 
L 190.504361 28.844678 
L 190.504361 28.777089 
L 192.436952 28.7095 
L 192.436952 28.641911 
L 193.499419 28.574322 
L 193.499419 28.506733 
L 194.854981 28.439144 
L 194.854981 28.371555 
L 196.421204 28.303966 
L 196.421204 28.236377 
L 197.648537 28.168788 
L 197.648537 28.101199 
L 198.445387 28.03361 
L 198.445387 27.966021 
L 199.288034 27.898432 
L 199.397944 27.763254 
L 200.643596 27.695665 
L 200.643596 27.628076 
L 201.522879 27.560487 
L 201.550356 27.425309 
L 202.255615 27.35772 
L 202.255615 27.290131 
L 203.977544 27.222542 
L 203.977544 27.154953 
L 204.499619 27.087364 
L 204.499619 27.019775 
L 205.195718 26.952186 
L 205.195718 26.884597 
L 208.282369 26.817008 
L 208.392279 26.68183 
L 210.700398 26.614241 
L 210.700398 26.546652 
L 214.254167 26.479063 
L 214.254167 26.411474 
L 214.79456 26.343885 
L 214.79456 26.276296 
L 216.076848 26.208707 
L 216.076848 26.141118 
L 216.580604 26.073529 
L 216.580604 26.00594 
L 217.707186 25.938351 
L 217.707186 25.870762 
L 220.262603 25.803173 
L 220.262603 25.735584 
L 221.178523 25.667995 
L 221.260956 25.465228 
L 222.140239 25.397639 
L 222.186035 25.194872 
L 225.703168 25.127283 
L 225.703168 25.059694 
L 230.814002 24.992105 
L 230.814002 24.924516 
L 233.085483 24.856927 
L 233.085483 24.789338 
L 234.459363 24.721749 
L 234.459363 24.65416 
L 237.47274 24.586571 
L 237.47274 24.518982 
L 240.467799 24.451393 
L 240.467799 24.383804 
L 247.007468 24.316215 
L 247.007468 24.248626 
L 250.790218 24.181037 
L 250.790218 24.113448 
L 252.438874 24.045859 
L 252.438874 23.97827 
L 255.012609 23.910681 
L 255.012609 23.843092 
L 256.194146 23.775503 
L 256.194146 23.707914 
L 259.793712 23.640325 
L 259.894463 23.505147 
L 265.527371 23.437558 
L 265.527371 23.369969 
L 266.360859 23.30238 
L 266.360859 23.234791 
L 266.901251 23.167202 
L 266.901251 23.099613 
L 269.868832 23.032024 
L 269.868832 22.964435 
L 274.301885 22.896846 
L 274.301885 22.829257 
L 282.60928 22.761668 
L 282.618439 22.62649 
L 288.865014 22.558901 
L 288.865014 22.491312 
L 294.250624 22.423723 
L 294.250624 22.356134 
L 295.294773 22.288545 
L 295.294773 22.220956 
L 301.687895 22.153367 
L 301.687895 22.085778 
L 306.835365 22.018189 
L 306.835365 21.9506 
L 308.511499 21.883011 
L 308.511499 21.815422 
L 313.155214 21.747833 
L 313.155214 21.680243 
L 314.382546 21.612654 
L 314.382546 21.545065 
L 319.933022 21.477476 
L 319.933022 21.409887 
L 324.466826 21.342298 
L 324.466826 21.274709 
L 327.892367 21.20712 
L 327.892367 21.139531 
L 340.953387 21.071942 
L 340.953387 21.004353 
L 345.029231 20.936764 
L 345.029231 20.869175 
L 347.401464 20.801586 
L 347.401464 20.733997 
L 351.596378 20.666408 
L 351.596378 20.598819 
L 354.371615 20.53123 
L 354.371615 20.463641 
L 358.291753 20.396052 
L 358.291753 20.328463 
L 366.745695 20.260874 
L 366.745695 20.193285 
L 369.850664 20.125696 
L 369.850664 20.058107 
L 371.27034 19.990518 
L 371.27034 19.922929 
L 378.267969 19.85534 
L 378.267969 19.787751 
L 388.178224 19.720162 
L 388.178224 19.652573 
L 399.425722 19.584984 
L 399.425722 19.517395 
L 407.549933 19.449806 
L 407.549933 19.382217 
L 415.921442 19.314628 
L 415.921442 19.247039 
L 420.949843 19.17945 
L 420.949843 19.111861 
L 434.981738 19.044272 
L 434.981738 18.976683 
L 444.305804 18.909094 
L 444.305804 18.841505 
L 448.345012 18.773916 
L 448.345012 18.706327 
L 460.865639 18.638738 
L 460.865639 18.571149 
L 465.710856 18.50356 
L 465.710856 18.435971 
L 467.881586 18.368382 
L 467.881586 18.300793 
L 476.839284 18.233204 
L 476.839284 18.165615 
L 484.90854 18.098026 
L 484.90854 18.030437 
L 486.090077 17.962848 
L 486.090077 17.895259 
L 496.165197 17.82767 
L 496.165197 17.760081 
L 498.42752 17.692492 
L 498.42752 17.624903 
L 499.920469 17.557314 
L 499.920469 17.489725 
L 504.27109 17.422136 
L 504.27109 17.354547 
L 513.952364 17.286958 
L 513.952364 17.219369 
L 517.222199 17.15178 
L 517.222199 17.084191 
L 518.522805 17.016602 
L 518.522805 16.949013 
L 521.023267 16.881424 
L 521.023267 16.813835 
L 523.496251 16.746246 
L 523.496251 16.678657 
L 533.543894 16.611068 
L 533.543894 16.543479 
L 535.412371 16.47589 
L 535.412371 16.408301 
L 546.641551 16.340712 
L 546.641551 16.273123 
L 548.171137 16.205534 
L 548.25357 16.070356 
L 553.18122 16.002767 
L 553.18122 15.935178 
L 555.388587 15.867589 
L 555.388587 15.8 
L 555.7 15.8 
L 555.7 15.8 
" style="fill:none;stroke:#0000ff;stroke-dasharray:2,3.3;stroke-dashoffset:0;stroke-width:2;"/>
   </g>
   <g id="line2d_26">
    <path clip-path="url(#pf8d60db836)" d="M 55.8 382.2 
L 55.8 374.630031 
L 55.8 362.46401 
L 55.8 348.337908 
L 55.8 333.806272 
L 55.8 319.00428 
L 55.8 306.365136 
L 55.8 294.401882 
L 55.8 282.641395 
L 55.8 269.799483 
L 55.8 257.633462 
L 55.8 249.117248 
L 55.8 239.992732 
L 55.8 231.679284 
L 55.8 222.014056 
L 55.8 213.970965 
L 55.809159 205.657517 
L 55.827478 197.884781 
L 55.827478 191.666593 
L 55.827478 185.313226 
L 55.827478 178.621915 
L 55.827478 173.282383 
L 55.845796 166.861428 
L 55.845796 160.508061 
L 55.854955 155.16853 
L 55.854955 150.099354 
L 55.854955 145.706069 
L 55.854955 140.501716 
L 55.864114 134.959417 
L 55.864114 130.971666 
L 55.882433 127.186681 
L 55.90991 122.725807 
L 55.90991 118.873234 
L 55.928229 110.762553 
L 55.928229 107.58587 
L 55.937388 103.124995 
L 55.946547 99.745545 
L 55.946547 96.433684 
L 55.974025 94.473603 
L 55.992343 91.296919 
L 56.010662 87.917469 
L 56.019821 84.402841 
L 56.02898 81.699281 
L 56.056458 79.536432 
L 56.074776 76.630105 
L 56.111413 74.129312 
L 56.14805 71.222985 
L 56.14805 68.992548 
L 56.175527 66.694521 
L 56.212164 64.802029 
L 56.248801 62.504003 
L 56.340393 61.084634 
L 56.36787 59.192142 
L 56.441144 56.894115 
L 56.514418 55.407157 
L 56.560214 53.17672 
L 56.670124 50.405571 
L 56.780034 48.986202 
L 56.899104 47.499244 
L 56.9449 45.877108 
L 57.073129 44.660505 
L 57.164721 43.376314 
L 57.256313 41.821767 
L 57.384542 40.672754 
L 57.52193 38.780262 
L 57.613522 38.036783 
L 57.787546 36.685003 
L 57.952412 35.53599 
L 58.163074 34.589744 
L 58.492805 33.711087 
L 58.758422 32.291717 
L 59.014879 31.007526 
L 59.326292 29.993691 
L 59.701819 28.912267 
L 60.095665 27.966021 
L 60.571943 26.749419 
L 61.039063 26.00594 
L 61.707684 25.059694 
L 62.284714 24.181037 
L 62.916699 23.369969 
L 63.695231 22.761668 
L 64.702743 22.220956 
L 65.783528 21.747833 
L 66.919269 21.477476 
L 68.531289 20.733997 
L 70.189104 20.396052 
L 72.29572 19.787751 
L 74.841978 19.247039 
L 77.553101 18.909094 
L 81.399965 18.50356 
L 85.539924 18.233204 
L 91.410971 17.760081 
L 98.115506 17.354547 
L 106.853383 17.016602 
L 118.027608 16.340712 
L 132.856353 16.070356 
L 153.895037 16.002767 
L 184.587517 15.867589 
L 234.990597 15.8 
L 324.393552 15.8 
L 555.7 15.8 
" style="fill:none;stroke:#1f77b4;stroke-linecap:square;stroke-width:2;"/>
   </g>
   <g id="line2d_27">
    <path clip-path="url(#pf8d60db836)" d="M 55.8 382.2 
L 555.7 15.8 
" style="fill:none;stroke:#000000;stroke-dasharray:5.55,2.4;stroke-dashoffset:0;stroke-width:1.5;"/>
   </g>
   <g id="line2d_28">
    <path clip-path="url(#pf8d60db836)" d="M 58.447009 382.2 
L 58.447009 206.333407 
" style="fill:none;stroke:#ff0000;stroke-dasharray:1.5,2.475;stroke-dashoffset:0;stroke-width:1.5;"/>
   </g>
   <g id="line2d_29">
    <path clip-path="url(#pf8d60db836)" d="M 55.8 206.333407 
L 58.447009 206.333407 
" style="fill:none;stroke:#ff0000;stroke-dasharray:1.5,2.475;stroke-dashoffset:0;stroke-width:1.5;"/>
   </g>
   <g id="line2d_30">
    <defs>
     <path d="M 0 3 
C 0.795609 3 1.55874 2.683901 2.12132 2.12132 
C 2.683901 1.55874 3 0.795609 3 0 
C 3 -0.795609 2.683901 -1.55874 2.12132 -2.12132 
C 1.55874 -2.683901 0.795609 -3 0 -3 
C -0.795609 -3 -1.55874 -2.683901 -2.12132 -2.12132 
C -2.683901 -1.55874 -3 -0.795609 -3 0 
C -3 0.795609 -2.683901 1.55874 -2.12132 2.12132 
C -1.55874 2.683901 -0.795609 3 0 3 
z
" id="mb8f87fcd27" style="stroke:#ff0000;"/>
    </defs>
    <g clip-path="url(#pf8d60db836)">
     <use style="fill:#ff0000;stroke:#ff0000;" x="58.447009" xlink:href="#mb8f87fcd27" y="206.333407"/>
    </g>
   </g>
   <g id="line2d_31">
    <path clip-path="url(#pf8d60db836)" d="M 58.447009 382.2 
L 58.447009 33.711087 
" style="fill:none;stroke:#ff0000;stroke-dasharray:1.5,2.475;stroke-dashoffset:0;stroke-width:1.5;"/>
   </g>
   <g id="line2d_32">
    <g clip-path="url(#pf8d60db836)">
     <use style="fill:#ff0000;stroke:#ff0000;" x="58.447009" xlink:href="#mb8f87fcd27" y="33.711087"/>
    </g>
   </g>
   <g id="patch_3">
    <path d="M 55.8 382.2 
L 55.8 15.8 
" style="fill:none;stroke:#000000;stroke-linecap:square;stroke-linejoin:miter;stroke-width:0.8;"/>
   </g>
   <g id="patch_4">
    <path d="M 555.7 382.2 
L 555.7 15.8 
" style="fill:none;stroke:#000000;stroke-linecap:square;stroke-linejoin:miter;stroke-width:0.8;"/>
   </g>
   <g id="patch_5">
    <path d="M 55.8 382.2 
L 555.7 382.2 
" style="fill:none;stroke:#000000;stroke-linecap:square;stroke-linejoin:miter;stroke-width:0.8;"/>
   </g>
   <g id="patch_6">
    <path d="M 55.8 15.8 
L 555.7 15.8 
" style="fill:none;stroke:#000000;stroke-linecap:square;stroke-linejoin:miter;stroke-width:0.8;"/>
   </g>
   <g id="legend_1">
    <g id="patch_7">
     <path d="M 372.8975 374.2 
L 544.5 374.2 
Q 547.7 374.2 547.7 371 
L 547.7 325.63 
Q 547.7 322.43 544.5 322.43 
L 372.8975 322.43 
Q 369.6975 322.43 369.6975 325.63 
L 369.6975 371 
Q 369.6975 374.2 372.8975 374.2 
z
" style="fill:#ffffff;opacity:0.8;stroke:#cccccc;stroke-linejoin:miter;"/>
    </g>
    <g id="line2d_33">
     <path d="M 376.0975 335.3875 
L 408.0975 335.3875 
" style="fill:none;stroke:#0000ff;stroke-dasharray:2,3.3;stroke-dashoffset:0;stroke-width:2;"/>
    </g>
    <g id="line2d_34"/>
    <g id="text_15">
     <text style="font-family:DejaVu Sans;font-size:16px;font-style:normal;font-weight:normal;text-anchor:start;" transform="rotate(-0, 420.8975, 340.9875)" x="420.8975" y="340.9875">SGD</text>
    </g>
    <g id="line2d_35">
     <path d="M 376.0975 358.8725 
L 408.0975 358.8725 
" style="fill:none;stroke:#1f77b4;stroke-linecap:square;stroke-width:2;"/>
    </g>
    <g id="line2d_36"/>
    <g id="text_16">
     <text style="font-family:DejaVu Sans;font-size:16px;font-style:normal;font-weight:normal;text-anchor:start;" transform="rotate(-0, 420.8975, 364.4725)" x="420.8975" y="364.4725">Random Forest</text>
    </g>
   </g>
  </g>
 </g>
 <defs>
  <clipPath id="pf8d60db836">
   <rect height="366.4" width="499.9" x="55.8" y="15.8"/>
  </clipPath>
 </defs>
</svg>
