<?xml version="1.0" encoding="utf-8" standalone="no"?>
<!DOCTYPE svg PUBLIC "-//W3C//DTD SVG 1.1//EN"
  "http://www.w3.org/Graphics/SVG/1.1/DTD/svg11.dtd">
<svg xmlns:xlink="http://www.w3.org/1999/xlink" width="360pt" height="216pt" viewBox="0 0 360 216" xmlns="http://www.w3.org/2000/svg" version="1.1">
 <metadata>
  <rdf:RDF xmlns:dc="http://purl.org/dc/elements/1.1/" xmlns:cc="http://creativecommons.org/ns#" xmlns:rdf="http://www.w3.org/1999/02/22-rdf-syntax-ns#">
   <cc:Work>
    <dc:type rdf:resource="http://purl.org/dc/dcmitype/StillImage"/>
    <dc:date>2022-12-08T08:10:36.885024</dc:date>
    <dc:format>image/svg+xml</dc:format>
    <dc:creator>
     <cc:Agent>
      <dc:title>Matplotlib v3.5.1, https://matplotlib.org/</dc:title>
     </cc:Agent>
    </dc:creator>
   </cc:Work>
  </rdf:RDF>
 </metadata>
 <defs>
  <style type="text/css">*{stroke-linejoin: round; stroke-linecap: butt}</style>
 </defs>
 <g id="figure_1">
  <g id="patch_1">
   <path d="M 0 216 
L 360 216 
L 360 0 
L 0 0 
L 0 216 
z
" style="fill: none"/>
  </g>
  <g id="axes_1">
   <g id="patch_2">
    <path d="M 51.05 167.2 
L 330.1375 167.2 
L 330.1375 15.8 
L 51.05 15.8 
z
" style="fill: #ffffff"/>
   </g>
   <g id="PathCollection_1">
    <defs>
     <path id="mbc03e06821" d="M 0 0.5 
C 0.132602 0.5 0.25979 0.447317 0.353553 0.353553 
C 0.447317 0.25979 0.5 0.132602 0.5 0 
C 0.5 -0.132602 0.447317 -0.25979 0.353553 -0.353553 
C 0.25979 -0.447317 0.132602 -0.5 0 -0.5 
C -0.132602 -0.5 -0.25979 -0.447317 -0.353553 -0.353553 
C -0.447317 -0.25979 -0.5 -0.132602 -0.5 0 
C -0.5 0.132602 -0.447317 0.25979 -0.353553 0.353553 
C -0.25979 0.447317 -0.132602 0.5 0 0.5 
z
" style="stroke: #1f77b4"/>
    </defs>
    <g clip-path="url(#p4ba423d806)">
     <use xlink:href="#mbc03e06821" x="93.168555" y="76.36" style="fill: #1f77b4; stroke: #1f77b4"/>
     <use xlink:href="#mbc03e06821" x="94.947543" y="82.416" style="fill: #1f77b4; stroke: #1f77b4"/>
     <use xlink:href="#mbc03e06821" x="107.983357" y="93.014" style="fill: #1f77b4; stroke: #1f77b4"/>
     <use xlink:href="#mbc03e06821" x="109.171525" y="79.388" style="fill: #1f77b4; stroke: #1f77b4"/>
     <use xlink:href="#mbc03e06821" x="125.434894" y="74.846" style="fill: #1f77b4; stroke: #1f77b4"/>
     <use xlink:href="#mbc03e06821" x="131.464798" y="82.416" style="fill: #1f77b4; stroke: #1f77b4"/>
     <use xlink:href="#mbc03e06821" x="135.075283" y="94.528" style="fill: #1f77b4; stroke: #1f77b4"/>
     <use xlink:href="#mbc03e06821" x="139.993288" y="89.986" style="fill: #1f77b4; stroke: #1f77b4"/>
     <use xlink:href="#mbc03e06821" x="147.486276" y="80.902" style="fill: #1f77b4; stroke: #1f77b4"/>
     <use xlink:href="#mbc03e06821" x="171.358672" y="68.79" style="fill: #1f77b4; stroke: #1f77b4"/>
     <use xlink:href="#mbc03e06821" x="177.547326" y="79.388" style="fill: #1f77b4; stroke: #1f77b4"/>
     <use xlink:href="#mbc03e06821" x="189.973157" y="76.36" style="fill: #1f77b4; stroke: #1f77b4"/>
     <use xlink:href="#mbc03e06821" x="202.155159" y="77.874" style="fill: #1f77b4; stroke: #1f77b4"/>
     <use xlink:href="#mbc03e06821" x="215.448055" y="55.164" style="fill: #1f77b4; stroke: #1f77b4"/>
     <use xlink:href="#mbc03e06821" x="223.362767" y="56.678" style="fill: #1f77b4; stroke: #1f77b4"/>
     <use xlink:href="#mbc03e06821" x="226.293721" y="68.79" style="fill: #1f77b4; stroke: #1f77b4"/>
     <use xlink:href="#mbc03e06821" x="237.604328" y="62.734" style="fill: #1f77b4; stroke: #1f77b4"/>
     <use xlink:href="#mbc03e06821" x="241.743563" y="61.22" style="fill: #1f77b4; stroke: #1f77b4"/>
     <use xlink:href="#mbc03e06821" x="246.290256" y="55.164" style="fill: #1f77b4; stroke: #1f77b4"/>
     <use xlink:href="#mbc03e06821" x="252.606811" y="56.678" style="fill: #1f77b4; stroke: #1f77b4"/>
     <use xlink:href="#mbc03e06821" x="253.868073" y="56.678" style="fill: #1f77b4; stroke: #1f77b4"/>
     <use xlink:href="#mbc03e06821" x="254.430508" y="62.734" style="fill: #1f77b4; stroke: #1f77b4"/>
     <use xlink:href="#mbc03e06821" x="254.647531" y="64.248" style="fill: #1f77b4; stroke: #1f77b4"/>
     <use xlink:href="#mbc03e06821" x="283.000859" y="58.192" style="fill: #1f77b4; stroke: #1f77b4"/>
     <use xlink:href="#mbc03e06821" x="287.597974" y="53.65" style="fill: #1f77b4; stroke: #1f77b4"/>
     <use xlink:href="#mbc03e06821" x="288.096992" y="56.678" style="fill: #1f77b4; stroke: #1f77b4"/>
     <use xlink:href="#mbc03e06821" x="289.905846" y="61.22" style="fill: #1f77b4; stroke: #1f77b4"/>
     <use xlink:href="#mbc03e06821" x="293.456867" y="53.65" style="fill: #1f77b4; stroke: #1f77b4"/>
     <use xlink:href="#mbc03e06821" x="310.625581" y="58.192" style="fill: #1f77b4; stroke: #1f77b4"/>
    </g>
   </g>
   <g id="matplotlib.axis_1">
    <g id="xtick_1">
     <g id="line2d_1">
      <defs>
       <path id="me9db1bb181" d="M 0 0 
L 0 3.5 
" style="stroke: #000000; stroke-width: 0.8"/>
      </defs>
      <g>
       <use xlink:href="#me9db1bb181" x="51.05" y="167.2" style="stroke: #000000; stroke-width: 0.8"/>
      </g>
     </g>
     <g id="text_1">
      <text style="font: 12px 'sans-serif'; text-anchor: middle" x="51.05" y="183.318125" transform="rotate(-0, 51.05, 183.318125)">0</text>
     </g>
    </g>
    <g id="xtick_2">
     <g id="line2d_2">
      <g>
       <use xlink:href="#me9db1bb181" x="97.564583" y="167.2" style="stroke: #000000; stroke-width: 0.8"/>
      </g>
     </g>
     <g id="text_2">
      <text style="font: 12px 'sans-serif'; text-anchor: middle" x="97.564583" y="183.318125" transform="rotate(-0, 97.564583, 183.318125)">10000</text>
     </g>
    </g>
    <g id="xtick_3">
     <g id="line2d_3">
      <g>
       <use xlink:href="#me9db1bb181" x="144.079167" y="167.2" style="stroke: #000000; stroke-width: 0.8"/>
      </g>
     </g>
     <g id="text_3">
      <text style="font: 12px 'sans-serif'; text-anchor: middle" x="144.079167" y="183.318125" transform="rotate(-0, 144.079167, 183.318125)">20000</text>
     </g>
    </g>
    <g id="xtick_4">
     <g id="line2d_4">
      <g>
       <use xlink:href="#me9db1bb181" x="190.59375" y="167.2" style="stroke: #000000; stroke-width: 0.8"/>
      </g>
     </g>
     <g id="text_4">
      <text style="font: 12px 'sans-serif'; text-anchor: middle" x="190.59375" y="183.318125" transform="rotate(-0, 190.59375, 183.318125)">30000</text>
     </g>
    </g>
    <g id="xtick_5">
     <g id="line2d_5">
      <g>
       <use xlink:href="#me9db1bb181" x="237.108333" y="167.2" style="stroke: #000000; stroke-width: 0.8"/>
      </g>
     </g>
     <g id="text_5">
      <text style="font: 12px 'sans-serif'; text-anchor: middle" x="237.108333" y="183.318125" transform="rotate(-0, 237.108333, 183.318125)">40000</text>
     </g>
    </g>
    <g id="xtick_6">
     <g id="line2d_6">
      <g>
       <use xlink:href="#me9db1bb181" x="283.622917" y="167.2" style="stroke: #000000; stroke-width: 0.8"/>
      </g>
     </g>
     <g id="text_6">
      <text style="font: 12px 'sans-serif'; text-anchor: middle" x="283.622917" y="183.318125" transform="rotate(-0, 283.622917, 183.318125)">50000</text>
     </g>
    </g>
    <g id="xtick_7">
     <g id="line2d_7">
      <g>
       <use xlink:href="#me9db1bb181" x="330.1375" y="167.2" style="stroke: #000000; stroke-width: 0.8"/>
      </g>
     </g>
     <g id="text_7">
      <text style="font: 12px 'sans-serif'; text-anchor: middle" x="330.1375" y="183.318125" transform="rotate(-0, 330.1375, 183.318125)">60000</text>
     </g>
    </g>
    <g id="text_8">
     <text style="font: 14px 'sans-serif'; text-anchor: middle" x="190.59375" y="200.451562" transform="rotate(-0, 190.59375, 200.451562)">GDP per capita (USD)</text>
    </g>
   </g>
   <g id="matplotlib.axis_2">
    <g id="ytick_1">
     <g id="line2d_8">
      <defs>
       <path id="m968eb5253d" d="M 0 0 
L -3.5 0 
" style="stroke: #000000; stroke-width: 0.8"/>
      </defs>
      <g>
       <use xlink:href="#m968eb5253d" x="51.05" y="167.2" style="stroke: #000000; stroke-width: 0.8"/>
      </g>
     </g>
     <g id="text_9">
      <text style="font: 12px 'sans-serif'; text-anchor: end" x="44.05" y="171.759062" transform="rotate(-0, 44.05, 171.759062)">0</text>
     </g>
    </g>
    <g id="ytick_2">
     <g id="line2d_9">
      <g>
       <use xlink:href="#m968eb5253d" x="51.05" y="136.92" style="stroke: #000000; stroke-width: 0.8"/>
      </g>
     </g>
     <g id="text_10">
      <text style="font: 12px 'sans-serif'; text-anchor: end" x="44.05" y="141.479062" transform="rotate(-0, 44.05, 141.479062)">2</text>
     </g>
    </g>
    <g id="ytick_3">
     <g id="line2d_10">
      <g>
       <use xlink:href="#m968eb5253d" x="51.05" y="106.64" style="stroke: #000000; stroke-width: 0.8"/>
      </g>
     </g>
     <g id="text_11">
      <text style="font: 12px 'sans-serif'; text-anchor: end" x="44.05" y="111.199063" transform="rotate(-0, 44.05, 111.199063)">4</text>
     </g>
    </g>
    <g id="ytick_4">
     <g id="line2d_11">
      <g>
       <use xlink:href="#m968eb5253d" x="51.05" y="76.36" style="stroke: #000000; stroke-width: 0.8"/>
      </g>
     </g>
     <g id="text_12">
      <text style="font: 12px 'sans-serif'; text-anchor: end" x="44.05" y="80.919063" transform="rotate(-0, 44.05, 80.919063)">6</text>
     </g>
    </g>
    <g id="ytick_5">
     <g id="line2d_12">
      <g>
       <use xlink:href="#m968eb5253d" x="51.05" y="46.08" style="stroke: #000000; stroke-width: 0.8"/>
      </g>
     </g>
     <g id="text_13">
      <text style="font: 12px 'sans-serif'; text-anchor: end" x="44.05" y="50.639063" transform="rotate(-0, 44.05, 50.639063)">8</text>
     </g>
    </g>
    <g id="ytick_6">
     <g id="line2d_13">
      <g>
       <use xlink:href="#m968eb5253d" x="51.05" y="15.8" style="stroke: #000000; stroke-width: 0.8"/>
      </g>
     </g>
     <g id="text_14">
      <text style="font: 12px 'sans-serif'; text-anchor: end" x="44.05" y="20.359063" transform="rotate(-0, 44.05, 20.359063)">10</text>
     </g>
    </g>
    <g id="text_15">
     <text style="font: 14px 'sans-serif'; text-anchor: middle" x="21.868438" y="91.5" transform="rotate(-90, 21.868438, 91.5)">Life satisfaction</text>
    </g>
   </g>
   <g id="line2d_14">
    <path d="M 51.05 93.724781 
L 330.1375 49.10831 
L 330.1375 49.10831 
" clip-path="url(#p4ba423d806)" style="fill: none; stroke: #0000ff; stroke-width: 1.5; stroke-linecap: square"/>
   </g>
   <g id="line2d_15">
    <path d="M 156.114769 167.2 
L 156.114769 76.928546 
" clip-path="url(#p4ba423d806)" style="fill: none; stroke-dasharray: 5.55,2.4; stroke-dashoffset: 0; stroke: #ff0000; stroke-width: 1.5"/>
   </g>
   <g id="line2d_16">
    <defs>
     <path id="m5ec3193a4b" d="M 0 3 
C 0.795609 3 1.55874 2.683901 2.12132 2.12132 
C 2.683901 1.55874 3 0.795609 3 0 
C 3 -0.795609 2.683901 -1.55874 2.12132 -2.12132 
C 1.55874 -2.683901 0.795609 -3 0 -3 
C -0.795609 -3 -1.55874 -2.683901 -2.12132 -2.12132 
C -2.683901 -1.55874 -3 -0.795609 -3 0 
C -3 0.795609 -2.683901 1.55874 -2.12132 2.12132 
C -1.55874 2.683901 -0.795609 3 0 3 
z
" style="stroke: #ff0000"/>
    </defs>
    <g clip-path="url(#p4ba423d806)">
     <use xlink:href="#m5ec3193a4b" x="156.114769" y="76.928546" style="fill: #ff0000; stroke: #ff0000"/>
    </g>
   </g>
   <g id="patch_3">
    <path d="M 51.05 167.2 
L 51.05 15.8 
" style="fill: none; stroke: #000000; stroke-width: 0.8; stroke-linejoin: miter; stroke-linecap: square"/>
   </g>
   <g id="patch_4">
    <path d="M 330.1375 167.2 
L 330.1375 15.8 
" style="fill: none; stroke: #000000; stroke-width: 0.8; stroke-linejoin: miter; stroke-linecap: square"/>
   </g>
   <g id="patch_5">
    <path d="M 51.05 167.2 
L 330.1375 167.2 
" style="fill: none; stroke: #000000; stroke-width: 0.8; stroke-linejoin: miter; stroke-linecap: square"/>
   </g>
   <g id="patch_6">
    <path d="M 51.05 15.8 
L 330.1375 15.8 
" style="fill: none; stroke: #000000; stroke-width: 0.8; stroke-linejoin: miter; stroke-linecap: square"/>
   </g>
   <g id="text_16">
    <!-- $\theta_0 = 4.85$ -->
    <g style="fill: #0000ff" transform="translate(74.307292 53.65)">
     <text>
      <tspan style="font: oblique 14px 'DejaVu Sans'" x="0" y="-0.25">θ</tspan>
      <tspan style="font: 9.8px 'DejaVu Sans'" x="8.56543" y="2.046875">0</tspan>
      <tspan style="font: 14px 'DejaVu Sans'" x="17.91084 32.368848 41.276074 45.35127 54.258496" y="-0.25">=4.85</tspan>
     </text>
    </g>
   </g>
   <g id="text_17">
    <!-- $\theta_1 = 4.91 \times 10^{-5}$ -->
    <g style="fill: #0000ff" transform="translate(74.307292 67.276)">
     <text>
      <tspan style="font: oblique 14px 'DejaVu Sans'" x="0" y="-0.4984375000000014">θ</tspan>
      <tspan style="font: 9.8px 'DejaVu Sans'" x="8.56543 98.674707 106.886035" y="1.7984374999999986 -5.857812500000001 -5.857812500000001">1−5</tspan>
      <tspan style="font: 14px 'DejaVu Sans'" x="17.91084 32.368848 41.276074 45.72627 54.633496 66.268262 80.72627 89.633496" y="-0.4984375000000014">=4.91×10</tspan>
     </text>
    </g>
   </g>
   <g id="text_18">
    <text style="fill: #0000ff; font: 14px 'sans-serif'; text-anchor: start" x="167.336458" y="91.5" transform="rotate(-0, 167.336458, 91.5)">Prediction = 5.96</text>
   </g>
  </g>
 </g>
 <defs>
  <clipPath id="p4ba423d806">
   <rect x="51.05" y="15.8" width="279.0875" height="151.4"/>
  </clipPath>
 </defs>
</svg>
