<?xml version="1.0" encoding="utf-8" standalone="no"?>
<!DOCTYPE svg PUBLIC "-//W3C//DTD SVG 1.1//EN"
  "http://www.w3.org/Graphics/SVG/1.1/DTD/svg11.dtd">
<!-- Created with matplotlib (https://matplotlib.org/) -->
<svg height="216pt" version="1.1" viewBox="0 0 360 216" width="360pt" xmlns="http://www.w3.org/2000/svg" xmlns:xlink="http://www.w3.org/1999/xlink">
 <defs>
  <style type="text/css">
*{stroke-linecap:butt;stroke-linejoin:round;}
  </style>
 </defs>
 <g id="figure_1">
  <g id="patch_1">
   <path d="M 0 216 
L 360 216 
L 360 0 
L 0 0 
z
" style="fill:#ffffff;"/>
  </g>
  <g id="axes_1">
   <g id="patch_2">
    <path d="M 51.05 167.2 
L 330.1375 167.2 
L 330.1375 15.8 
L 51.05 15.8 
z
" style="fill:#ffffff;"/>
   </g>
   <g id="PathCollection_1">
    <defs>
     <path d="M 0 0.5 
C 0.132602 0.5 0.25979 0.447317 0.353553 0.353553 
C 0.447317 0.25979 0.5 0.132602 0.5 0 
C 0.5 -0.132602 0.447317 -0.25979 0.353553 -0.353553 
C 0.25979 -0.447317 0.132602 -0.5 0 -0.5 
C -0.132602 -0.5 -0.25979 -0.447317 -0.353553 -0.353553 
C -0.447317 -0.25979 -0.5 -0.132602 -0.5 0 
C -0.5 0.132602 -0.447317 0.25979 -0.353553 0.353553 
C -0.25979 0.447317 -0.132602 0.5 0 0.5 
z
" id="m06fa6b7e87" style="stroke:#1f77b4;"/>
    </defs>
    <g clip-path="url(#p609b7d975b)">
     <use style="fill:#1f77b4;stroke:#1f77b4;" x="93.168555" xlink:href="#m06fa6b7e87" y="76.36"/>
     <use style="fill:#1f77b4;stroke:#1f77b4;" x="94.947543" xlink:href="#m06fa6b7e87" y="82.416"/>
     <use style="fill:#1f77b4;stroke:#1f77b4;" x="107.983357" xlink:href="#m06fa6b7e87" y="93.014"/>
     <use style="fill:#1f77b4;stroke:#1f77b4;" x="109.171525" xlink:href="#m06fa6b7e87" y="79.388"/>
     <use style="fill:#1f77b4;stroke:#1f77b4;" x="125.434894" xlink:href="#m06fa6b7e87" y="74.846"/>
     <use style="fill:#1f77b4;stroke:#1f77b4;" x="131.464798" xlink:href="#m06fa6b7e87" y="82.416"/>
     <use style="fill:#1f77b4;stroke:#1f77b4;" x="135.075283" xlink:href="#m06fa6b7e87" y="94.528"/>
     <use style="fill:#1f77b4;stroke:#1f77b4;" x="139.993288" xlink:href="#m06fa6b7e87" y="89.986"/>
     <use style="fill:#1f77b4;stroke:#1f77b4;" x="147.486276" xlink:href="#m06fa6b7e87" y="80.902"/>
     <use style="fill:#1f77b4;stroke:#1f77b4;" x="171.358672" xlink:href="#m06fa6b7e87" y="68.79"/>
     <use style="fill:#1f77b4;stroke:#1f77b4;" x="177.547326" xlink:href="#m06fa6b7e87" y="79.388"/>
     <use style="fill:#1f77b4;stroke:#1f77b4;" x="189.973157" xlink:href="#m06fa6b7e87" y="76.36"/>
     <use style="fill:#1f77b4;stroke:#1f77b4;" x="202.155159" xlink:href="#m06fa6b7e87" y="77.874"/>
     <use style="fill:#1f77b4;stroke:#1f77b4;" x="215.448055" xlink:href="#m06fa6b7e87" y="55.164"/>
     <use style="fill:#1f77b4;stroke:#1f77b4;" x="223.362767" xlink:href="#m06fa6b7e87" y="56.678"/>
     <use style="fill:#1f77b4;stroke:#1f77b4;" x="226.293721" xlink:href="#m06fa6b7e87" y="68.79"/>
     <use style="fill:#1f77b4;stroke:#1f77b4;" x="237.604328" xlink:href="#m06fa6b7e87" y="62.734"/>
     <use style="fill:#1f77b4;stroke:#1f77b4;" x="241.743563" xlink:href="#m06fa6b7e87" y="61.22"/>
     <use style="fill:#1f77b4;stroke:#1f77b4;" x="246.290256" xlink:href="#m06fa6b7e87" y="55.164"/>
     <use style="fill:#1f77b4;stroke:#1f77b4;" x="252.606811" xlink:href="#m06fa6b7e87" y="56.678"/>
     <use style="fill:#1f77b4;stroke:#1f77b4;" x="253.868073" xlink:href="#m06fa6b7e87" y="56.678"/>
     <use style="fill:#1f77b4;stroke:#1f77b4;" x="254.430508" xlink:href="#m06fa6b7e87" y="62.734"/>
     <use style="fill:#1f77b4;stroke:#1f77b4;" x="254.647531" xlink:href="#m06fa6b7e87" y="64.248"/>
     <use style="fill:#1f77b4;stroke:#1f77b4;" x="283.000859" xlink:href="#m06fa6b7e87" y="58.192"/>
     <use style="fill:#1f77b4;stroke:#1f77b4;" x="287.597974" xlink:href="#m06fa6b7e87" y="53.65"/>
     <use style="fill:#1f77b4;stroke:#1f77b4;" x="288.096992" xlink:href="#m06fa6b7e87" y="56.678"/>
     <use style="fill:#1f77b4;stroke:#1f77b4;" x="289.905846" xlink:href="#m06fa6b7e87" y="61.22"/>
     <use style="fill:#1f77b4;stroke:#1f77b4;" x="293.456867" xlink:href="#m06fa6b7e87" y="53.65"/>
     <use style="fill:#1f77b4;stroke:#1f77b4;" x="310.625581" xlink:href="#m06fa6b7e87" y="58.192"/>
    </g>
   </g>
   <g id="matplotlib.axis_1">
    <g id="xtick_1">
     <g id="line2d_1">
      <defs>
       <path d="M 0 0 
L 0 3.5 
" id="m71a4fa38b0" style="stroke:#000000;stroke-width:0.8;"/>
      </defs>
      <g>
       <use style="stroke:#000000;stroke-width:0.8;" x="51.05" xlink:href="#m71a4fa38b0" y="167.2"/>
      </g>
     </g>
     <g id="text_1">
      <text style="font-family:DejaVu Sans;font-size:12px;font-style:normal;font-weight:normal;text-anchor:middle;" transform="rotate(-0, 51.05, 183.318125)" x="51.05" y="183.318125">0</text>
     </g>
    </g>
    <g id="xtick_2">
     <g id="line2d_2">
      <g>
       <use style="stroke:#000000;stroke-width:0.8;" x="97.564583" xlink:href="#m71a4fa38b0" y="167.2"/>
      </g>
     </g>
     <g id="text_2">
      <text style="font-family:DejaVu Sans;font-size:12px;font-style:normal;font-weight:normal;text-anchor:middle;" transform="rotate(-0, 97.564583, 183.318125)" x="97.564583" y="183.318125">10000</text>
     </g>
    </g>
    <g id="xtick_3">
     <g id="line2d_3">
      <g>
       <use style="stroke:#000000;stroke-width:0.8;" x="144.079167" xlink:href="#m71a4fa38b0" y="167.2"/>
      </g>
     </g>
     <g id="text_3">
      <text style="font-family:DejaVu Sans;font-size:12px;font-style:normal;font-weight:normal;text-anchor:middle;" transform="rotate(-0, 144.079167, 183.318125)" x="144.079167" y="183.318125">20000</text>
     </g>
    </g>
    <g id="xtick_4">
     <g id="line2d_4">
      <g>
       <use style="stroke:#000000;stroke-width:0.8;" x="190.59375" xlink:href="#m71a4fa38b0" y="167.2"/>
      </g>
     </g>
     <g id="text_4">
      <text style="font-family:DejaVu Sans;font-size:12px;font-style:normal;font-weight:normal;text-anchor:middle;" transform="rotate(-0, 190.59375, 183.318125)" x="190.59375" y="183.318125">30000</text>
     </g>
    </g>
    <g id="xtick_5">
     <g id="line2d_5">
      <g>
       <use style="stroke:#000000;stroke-width:0.8;" x="237.108333" xlink:href="#m71a4fa38b0" y="167.2"/>
      </g>
     </g>
     <g id="text_5">
      <text style="font-family:DejaVu Sans;font-size:12px;font-style:normal;font-weight:normal;text-anchor:middle;" transform="rotate(-0, 237.108333, 183.318125)" x="237.108333" y="183.318125">40000</text>
     </g>
    </g>
    <g id="xtick_6">
     <g id="line2d_6">
      <g>
       <use style="stroke:#000000;stroke-width:0.8;" x="283.622917" xlink:href="#m71a4fa38b0" y="167.2"/>
      </g>
     </g>
     <g id="text_6">
      <text style="font-family:DejaVu Sans;font-size:12px;font-style:normal;font-weight:normal;text-anchor:middle;" transform="rotate(-0, 283.622917, 183.318125)" x="283.622917" y="183.318125">50000</text>
     </g>
    </g>
    <g id="xtick_7">
     <g id="line2d_7">
      <g>
       <use style="stroke:#000000;stroke-width:0.8;" x="330.1375" xlink:href="#m71a4fa38b0" y="167.2"/>
      </g>
     </g>
     <g id="text_7">
      <text style="font-family:DejaVu Sans;font-size:12px;font-style:normal;font-weight:normal;text-anchor:middle;" transform="rotate(-0, 330.1375, 183.318125)" x="330.1375" y="183.318125">60000</text>
     </g>
    </g>
    <g id="text_8">
     <text style="font-family:DejaVu Sans;font-size:14px;font-style:normal;font-weight:normal;text-anchor:middle;" transform="rotate(-0, 190.59375, 200.451562)" x="190.59375" y="200.451562">GDP per capita (USD)</text>
    </g>
   </g>
   <g id="matplotlib.axis_2">
    <g id="ytick_1">
     <g id="line2d_8">
      <defs>
       <path d="M 0 0 
L -3.5 0 
" id="mb2aff91064" style="stroke:#000000;stroke-width:0.8;"/>
      </defs>
      <g>
       <use style="stroke:#000000;stroke-width:0.8;" x="51.05" xlink:href="#mb2aff91064" y="167.2"/>
      </g>
     </g>
     <g id="text_9">
      <text style="font-family:DejaVu Sans;font-size:12px;font-style:normal;font-weight:normal;text-anchor:end;" transform="rotate(-0, 44.05, 171.759062)" x="44.05" y="171.759062">0</text>
     </g>
    </g>
    <g id="ytick_2">
     <g id="line2d_9">
      <g>
       <use style="stroke:#000000;stroke-width:0.8;" x="51.05" xlink:href="#mb2aff91064" y="136.92"/>
      </g>
     </g>
     <g id="text_10">
      <text style="font-family:DejaVu Sans;font-size:12px;font-style:normal;font-weight:normal;text-anchor:end;" transform="rotate(-0, 44.05, 141.479062)" x="44.05" y="141.479062">2</text>
     </g>
    </g>
    <g id="ytick_3">
     <g id="line2d_10">
      <g>
       <use style="stroke:#000000;stroke-width:0.8;" x="51.05" xlink:href="#mb2aff91064" y="106.64"/>
      </g>
     </g>
     <g id="text_11">
      <text style="font-family:DejaVu Sans;font-size:12px;font-style:normal;font-weight:normal;text-anchor:end;" transform="rotate(-0, 44.05, 111.199063)" x="44.05" y="111.199063">4</text>
     </g>
    </g>
    <g id="ytick_4">
     <g id="line2d_11">
      <g>
       <use style="stroke:#000000;stroke-width:0.8;" x="51.05" xlink:href="#mb2aff91064" y="76.36"/>
      </g>
     </g>
     <g id="text_12">
      <text style="font-family:DejaVu Sans;font-size:12px;font-style:normal;font-weight:normal;text-anchor:end;" transform="rotate(-0, 44.05, 80.919063)" x="44.05" y="80.919063">6</text>
     </g>
    </g>
    <g id="ytick_5">
     <g id="line2d_12">
      <g>
       <use style="stroke:#000000;stroke-width:0.8;" x="51.05" xlink:href="#mb2aff91064" y="46.08"/>
      </g>
     </g>
     <g id="text_13">
      <text style="font-family:DejaVu Sans;font-size:12px;font-style:normal;font-weight:normal;text-anchor:end;" transform="rotate(-0, 44.05, 50.639063)" x="44.05" y="50.639063">8</text>
     </g>
    </g>
    <g id="ytick_6">
     <g id="line2d_13">
      <g>
       <use style="stroke:#000000;stroke-width:0.8;" x="51.05" xlink:href="#mb2aff91064" y="15.8"/>
      </g>
     </g>
     <g id="text_14">
      <text style="font-family:DejaVu Sans;font-size:12px;font-style:normal;font-weight:normal;text-anchor:end;" transform="rotate(-0, 44.05, 20.359063)" x="44.05" y="20.359063">10</text>
     </g>
    </g>
    <g id="text_15">
     <text style="font-family:DejaVu Sans;font-size:14px;font-style:normal;font-weight:normal;text-anchor:middle;" transform="rotate(-90, 21.868438, 91.5)" x="21.868438" y="91.5">Life satisfaction</text>
    </g>
   </g>
   <g id="line2d_14">
    <path clip-path="url(#p609b7d975b)" d="M 51.05 93.724781 
L 330.1375 49.10831 
L 330.1375 49.10831 
" style="fill:none;stroke:#0000ff;stroke-linecap:square;stroke-width:1.5;"/>
   </g>
   <g id="line2d_15">
    <path clip-path="url(#p609b7d975b)" d="M 156.114769 167.2 
L 156.114769 76.928546 
" style="fill:none;stroke:#ff0000;stroke-dasharray:5.55,2.4;stroke-dashoffset:0;stroke-width:1.5;"/>
   </g>
   <g id="line2d_16">
    <defs>
     <path d="M 0 3 
C 0.795609 3 1.55874 2.683901 2.12132 2.12132 
C 2.683901 1.55874 3 0.795609 3 0 
C 3 -0.795609 2.683901 -1.55874 2.12132 -2.12132 
C 1.55874 -2.683901 0.795609 -3 0 -3 
C -0.795609 -3 -1.55874 -2.683901 -2.12132 -2.12132 
C -2.683901 -1.55874 -3 -0.795609 -3 0 
C -3 0.795609 -2.683901 1.55874 -2.12132 2.12132 
C -1.55874 2.683901 -0.795609 3 0 3 
z
" id="m3ecc683cf7" style="stroke:#ff0000;"/>
    </defs>
    <g clip-path="url(#p609b7d975b)">
     <use style="fill:#ff0000;stroke:#ff0000;" x="156.114769" xlink:href="#m3ecc683cf7" y="76.928546"/>
    </g>
   </g>
   <g id="patch_3">
    <path d="M 51.05 167.2 
L 51.05 15.8 
" style="fill:none;stroke:#000000;stroke-linecap:square;stroke-linejoin:miter;stroke-width:0.8;"/>
   </g>
   <g id="patch_4">
    <path d="M 330.1375 167.2 
L 330.1375 15.8 
" style="fill:none;stroke:#000000;stroke-linecap:square;stroke-linejoin:miter;stroke-width:0.8;"/>
   </g>
   <g id="patch_5">
    <path d="M 51.05 167.2 
L 330.1375 167.2 
" style="fill:none;stroke:#000000;stroke-linecap:square;stroke-linejoin:miter;stroke-width:0.8;"/>
   </g>
   <g id="patch_6">
    <path d="M 51.05 15.8 
L 330.1375 15.8 
" style="fill:none;stroke:#000000;stroke-linecap:square;stroke-linejoin:miter;stroke-width:0.8;"/>
   </g>
   <g id="text_16">
    <!-- $\theta_0 = 4.85$ -->
    <g style="fill:#0000ff;" transform="translate(74.307292 53.65)">
     <text>
      <tspan style="font-family:DejaVu Sans;font-size:14px;font-style:oblique;font-weight:oblique;" x="0" y="-0.25">θ</tspan>
      <tspan style="font-family:DejaVu Sans;font-size:9.8px;font-style:book;font-weight:book;" x="8.56543" y="2.046875">0</tspan>
      <tspan style="font-family:DejaVu Sans;font-size:14px;font-style:book;font-weight:book;" x="17.91084 32.368848 41.276074 45.35127 54.258496" y="-0.25">=4.85</tspan>
     </text>
    </g>
   </g>
   <g id="text_17">
    <!-- $\theta_1 = 4.91 \times 10^{-5}$ -->
    <g style="fill:#0000ff;" transform="translate(74.307292 67.276)">
     <text>
      <tspan style="font-family:DejaVu Sans;font-size:14px;font-style:oblique;font-weight:oblique;" x="0" y="-0.4984375000000014">θ</tspan>
      <tspan style="font-family:DejaVu Sans;font-size:9.8px;font-style:book;font-weight:book;" x="8.56543 98.674707 106.886035" y="1.7984374999999986 -5.857812500000001 -5.857812500000001">1−5</tspan>
      <tspan style="font-family:DejaVu Sans;font-size:14px;font-style:book;font-weight:book;" x="17.91084 32.368848 41.276074 45.72627 54.633496 66.268262 80.72627 89.633496" y="-0.4984375000000014">=4.91×10</tspan>
     </text>
    </g>
   </g>
   <g id="text_18">
    <text style="fill:#0000ff;font-family:DejaVu Sans;font-size:14px;font-style:normal;font-weight:normal;text-anchor:start;" transform="rotate(-0, 167.336458, 91.5)" x="167.336458" y="91.5">Prediction = 5.96</text>
   </g>
  </g>
 </g>
 <defs>
  <clipPath id="p609b7d975b">
   <rect height="151.4" width="279.0875" x="51.05" y="15.8"/>
  </clipPath>
 </defs>
</svg>
