<?xml version="1.0" encoding="utf-8" standalone="no"?>
<!DOCTYPE svg PUBLIC "-//W3C//DTD SVG 1.1//EN"
  "http://www.w3.org/Graphics/SVG/1.1/DTD/svg11.dtd">
<!-- Created with matplotlib (https://matplotlib.org/) -->
<svg height="288pt" version="1.1" viewBox="0 0 432 288" width="432pt" xmlns="http://www.w3.org/2000/svg" xmlns:xlink="http://www.w3.org/1999/xlink">
 <defs>
  <style type="text/css">
*{stroke-linecap:butt;stroke-linejoin:round;}
  </style>
 </defs>
 <g id="figure_1">
  <g id="patch_1">
   <path d="M 0 288 
L 432 288 
L 432 0 
L 0 0 
z
" style="fill:#ffffff;"/>
  </g>
  <g id="axes_1">
   <g id="patch_2">
    <path d="M 54 252 
L 388.8 252 
L 388.8 34.56 
L 54 34.56 
z
" style="fill:#ffffff;"/>
   </g>
   <g id="matplotlib.axis_1">
    <g id="xtick_1">
     <g id="line2d_1">
      <defs>
       <path d="M 0 0 
L 0 3.5 
" id="m3c0bc2ed7a" style="stroke:#000000;stroke-width:0.8;"/>
      </defs>
      <g>
       <use style="stroke:#000000;stroke-width:0.8;" x="75.371081" xlink:href="#m3c0bc2ed7a" y="252"/>
      </g>
     </g>
     <g id="text_1">
      <text style="font-family:DejaVu Sans;font-size:12px;font-style:normal;font-weight:normal;text-anchor:middle;" transform="rotate(-0, 75.371081, 268.118125)" x="75.371081" y="268.118125">10000</text>
     </g>
    </g>
    <g id="xtick_2">
     <g id="line2d_2">
      <g>
       <use style="stroke:#000000;stroke-width:0.8;" x="140.475198" xlink:href="#m3c0bc2ed7a" y="252"/>
      </g>
     </g>
     <g id="text_2">
      <text style="font-family:DejaVu Sans;font-size:12px;font-style:normal;font-weight:normal;text-anchor:middle;" transform="rotate(-0, 140.475198, 268.118125)" x="140.475198" y="268.118125">20000</text>
     </g>
    </g>
    <g id="xtick_3">
     <g id="line2d_3">
      <g>
       <use style="stroke:#000000;stroke-width:0.8;" x="205.579315" xlink:href="#m3c0bc2ed7a" y="252"/>
      </g>
     </g>
     <g id="text_3">
      <text style="font-family:DejaVu Sans;font-size:12px;font-style:normal;font-weight:normal;text-anchor:middle;" transform="rotate(-0, 205.579315, 268.118125)" x="205.579315" y="268.118125">30000</text>
     </g>
    </g>
    <g id="xtick_4">
     <g id="line2d_4">
      <g>
       <use style="stroke:#000000;stroke-width:0.8;" x="270.683433" xlink:href="#m3c0bc2ed7a" y="252"/>
      </g>
     </g>
     <g id="text_4">
      <text style="font-family:DejaVu Sans;font-size:12px;font-style:normal;font-weight:normal;text-anchor:middle;" transform="rotate(-0, 270.683433, 268.118125)" x="270.683433" y="268.118125">40000</text>
     </g>
    </g>
    <g id="xtick_5">
     <g id="line2d_5">
      <g>
       <use style="stroke:#000000;stroke-width:0.8;" x="335.78755" xlink:href="#m3c0bc2ed7a" y="252"/>
      </g>
     </g>
     <g id="text_5">
      <text style="font-family:DejaVu Sans;font-size:12px;font-style:normal;font-weight:normal;text-anchor:middle;" transform="rotate(-0, 335.78755, 268.118125)" x="335.78755" y="268.118125">50000</text>
     </g>
    </g>
   </g>
   <g id="matplotlib.axis_2">
    <g id="ytick_1">
     <g id="line2d_6">
      <defs>
       <path d="M 0 0 
L -3.5 0 
" id="ma8824e1193" style="stroke:#000000;stroke-width:0.8;"/>
      </defs>
      <g>
       <use style="stroke:#000000;stroke-width:0.8;" x="54" xlink:href="#ma8824e1193" y="227.473939"/>
      </g>
     </g>
     <g id="text_6">
      <text style="font-family:DejaVu Sans;font-size:12px;font-style:normal;font-weight:normal;text-anchor:end;" transform="rotate(-0, 47, 232.033002)" x="47" y="232.033002">5.0</text>
     </g>
    </g>
    <g id="ytick_2">
     <g id="line2d_7">
      <g>
       <use style="stroke:#000000;stroke-width:0.8;" x="54" xlink:href="#ma8824e1193" y="190.867879"/>
      </g>
     </g>
     <g id="text_7">
      <text style="font-family:DejaVu Sans;font-size:12px;font-style:normal;font-weight:normal;text-anchor:end;" transform="rotate(-0, 47, 195.426941)" x="47" y="195.426941">5.5</text>
     </g>
    </g>
    <g id="ytick_3">
     <g id="line2d_8">
      <g>
       <use style="stroke:#000000;stroke-width:0.8;" x="54" xlink:href="#ma8824e1193" y="154.261818"/>
      </g>
     </g>
     <g id="text_8">
      <text style="font-family:DejaVu Sans;font-size:12px;font-style:normal;font-weight:normal;text-anchor:end;" transform="rotate(-0, 47, 158.820881)" x="47" y="158.820881">6.0</text>
     </g>
    </g>
    <g id="ytick_4">
     <g id="line2d_9">
      <g>
       <use style="stroke:#000000;stroke-width:0.8;" x="54" xlink:href="#ma8824e1193" y="117.655758"/>
      </g>
     </g>
     <g id="text_9">
      <text style="font-family:DejaVu Sans;font-size:12px;font-style:normal;font-weight:normal;text-anchor:end;" transform="rotate(-0, 47, 122.21482)" x="47" y="122.21482">6.5</text>
     </g>
    </g>
    <g id="ytick_5">
     <g id="line2d_10">
      <g>
       <use style="stroke:#000000;stroke-width:0.8;" x="54" xlink:href="#ma8824e1193" y="81.049697"/>
      </g>
     </g>
     <g id="text_10">
      <text style="font-family:DejaVu Sans;font-size:12px;font-style:normal;font-weight:normal;text-anchor:end;" transform="rotate(-0, 47, 85.608759)" x="47" y="85.608759">7.0</text>
     </g>
    </g>
    <g id="ytick_6">
     <g id="line2d_11">
      <g>
       <use style="stroke:#000000;stroke-width:0.8;" x="54" xlink:href="#ma8824e1193" y="44.443636"/>
      </g>
     </g>
     <g id="text_11">
      <text style="font-family:DejaVu Sans;font-size:12px;font-style:normal;font-weight:normal;text-anchor:end;" transform="rotate(-0, 47, 49.002699)" x="47" y="49.002699">7.5</text>
     </g>
    </g>
   </g>
   <g id="line2d_12">
    <path clip-path="url(#pfe3aa4b1bd)" d="M 69.218182 154.261818 
L 71.708141 183.546667 
L 89.953713 234.795152 
L 91.616733 168.904242 
L 114.379749 146.940606 
L 122.819502 183.546667 
L 127.872916 242.116364 
L 134.7564 220.152727 
L 145.243957 176.225455 
L 178.656946 117.655758 
L 187.318893 168.904242 
L 204.710703 154.261818 
L 221.761237 161.58303 
L 240.366633 51.764848 
L 251.444456 59.086061 
L 255.546764 117.655758 
L 271.377651 88.370909 
L 277.17113 81.049697 
L 283.534907 51.764848 
L 292.375871 59.086061 
L 294.141195 59.086061 
L 294.928408 88.370909 
L 295.232164 95.692121 
L 334.916887 66.407273 
L 341.351237 44.443636 
L 342.049687 59.086061 
L 344.58145 81.049697 
L 349.551635 44.443636 
L 373.581818 66.407273 
" style="fill:none;stroke:#ff0000;stroke-linecap:square;stroke-width:1.5;"/>
    <defs>
     <path d="M 0 1.5 
C 0.397805 1.5 0.77937 1.341951 1.06066 1.06066 
C 1.341951 0.77937 1.5 0.397805 1.5 0 
C 1.5 -0.397805 1.341951 -0.77937 1.06066 -1.06066 
C 0.77937 -1.341951 0.397805 -1.5 0 -1.5 
C -0.397805 -1.5 -0.77937 -1.341951 -1.06066 -1.06066 
C -1.341951 -0.77937 -1.5 -0.397805 -1.5 0 
C -1.5 0.397805 -1.341951 0.77937 -1.06066 1.06066 
C -0.77937 1.341951 -0.397805 1.5 0 1.5 
z
" id="md592ae3c1a" style="stroke:#ff0000;"/>
    </defs>
    <g clip-path="url(#pfe3aa4b1bd)">
     <use style="fill:#ff0000;stroke:#ff0000;" x="69.218182" xlink:href="#md592ae3c1a" y="154.261818"/>
     <use style="fill:#ff0000;stroke:#ff0000;" x="71.708141" xlink:href="#md592ae3c1a" y="183.546667"/>
     <use style="fill:#ff0000;stroke:#ff0000;" x="89.953713" xlink:href="#md592ae3c1a" y="234.795152"/>
     <use style="fill:#ff0000;stroke:#ff0000;" x="91.616733" xlink:href="#md592ae3c1a" y="168.904242"/>
     <use style="fill:#ff0000;stroke:#ff0000;" x="114.379749" xlink:href="#md592ae3c1a" y="146.940606"/>
     <use style="fill:#ff0000;stroke:#ff0000;" x="122.819502" xlink:href="#md592ae3c1a" y="183.546667"/>
     <use style="fill:#ff0000;stroke:#ff0000;" x="127.872916" xlink:href="#md592ae3c1a" y="242.116364"/>
     <use style="fill:#ff0000;stroke:#ff0000;" x="134.7564" xlink:href="#md592ae3c1a" y="220.152727"/>
     <use style="fill:#ff0000;stroke:#ff0000;" x="145.243957" xlink:href="#md592ae3c1a" y="176.225455"/>
     <use style="fill:#ff0000;stroke:#ff0000;" x="178.656946" xlink:href="#md592ae3c1a" y="117.655758"/>
     <use style="fill:#ff0000;stroke:#ff0000;" x="187.318893" xlink:href="#md592ae3c1a" y="168.904242"/>
     <use style="fill:#ff0000;stroke:#ff0000;" x="204.710703" xlink:href="#md592ae3c1a" y="154.261818"/>
     <use style="fill:#ff0000;stroke:#ff0000;" x="221.761237" xlink:href="#md592ae3c1a" y="161.58303"/>
     <use style="fill:#ff0000;stroke:#ff0000;" x="240.366633" xlink:href="#md592ae3c1a" y="51.764848"/>
     <use style="fill:#ff0000;stroke:#ff0000;" x="251.444456" xlink:href="#md592ae3c1a" y="59.086061"/>
     <use style="fill:#ff0000;stroke:#ff0000;" x="255.546764" xlink:href="#md592ae3c1a" y="117.655758"/>
     <use style="fill:#ff0000;stroke:#ff0000;" x="271.377651" xlink:href="#md592ae3c1a" y="88.370909"/>
     <use style="fill:#ff0000;stroke:#ff0000;" x="277.17113" xlink:href="#md592ae3c1a" y="81.049697"/>
     <use style="fill:#ff0000;stroke:#ff0000;" x="283.534907" xlink:href="#md592ae3c1a" y="51.764848"/>
     <use style="fill:#ff0000;stroke:#ff0000;" x="292.375871" xlink:href="#md592ae3c1a" y="59.086061"/>
     <use style="fill:#ff0000;stroke:#ff0000;" x="294.141195" xlink:href="#md592ae3c1a" y="59.086061"/>
     <use style="fill:#ff0000;stroke:#ff0000;" x="294.928408" xlink:href="#md592ae3c1a" y="88.370909"/>
     <use style="fill:#ff0000;stroke:#ff0000;" x="295.232164" xlink:href="#md592ae3c1a" y="95.692121"/>
     <use style="fill:#ff0000;stroke:#ff0000;" x="334.916887" xlink:href="#md592ae3c1a" y="66.407273"/>
     <use style="fill:#ff0000;stroke:#ff0000;" x="341.351237" xlink:href="#md592ae3c1a" y="44.443636"/>
     <use style="fill:#ff0000;stroke:#ff0000;" x="342.049687" xlink:href="#md592ae3c1a" y="59.086061"/>
     <use style="fill:#ff0000;stroke:#ff0000;" x="344.58145" xlink:href="#md592ae3c1a" y="81.049697"/>
     <use style="fill:#ff0000;stroke:#ff0000;" x="349.551635" xlink:href="#md592ae3c1a" y="44.443636"/>
     <use style="fill:#ff0000;stroke:#ff0000;" x="373.581818" xlink:href="#md592ae3c1a" y="66.407273"/>
    </g>
   </g>
   <g id="patch_3">
    <path d="M 54 252 
L 54 34.56 
" style="fill:none;stroke:#000000;stroke-linecap:square;stroke-linejoin:miter;stroke-width:0.8;"/>
   </g>
   <g id="patch_4">
    <path d="M 388.8 252 
L 388.8 34.56 
" style="fill:none;stroke:#000000;stroke-linecap:square;stroke-linejoin:miter;stroke-width:0.8;"/>
   </g>
   <g id="patch_5">
    <path d="M 54 252 
L 388.8 252 
" style="fill:none;stroke:#000000;stroke-linecap:square;stroke-linejoin:miter;stroke-width:0.8;"/>
   </g>
   <g id="patch_6">
    <path d="M 54 34.56 
L 388.8 34.56 
" style="fill:none;stroke:#000000;stroke-linecap:square;stroke-linejoin:miter;stroke-width:0.8;"/>
   </g>
  </g>
 </g>
 <defs>
  <clipPath id="pfe3aa4b1bd">
   <rect height="217.44" width="334.8" x="54" y="34.56"/>
  </clipPath>
 </defs>
</svg>
