<?xml version="1.0" encoding="utf-8" standalone="no"?>
<!DOCTYPE svg PUBLIC "-//W3C//DTD SVG 1.1//EN"
  "http://www.w3.org/Graphics/SVG/1.1/DTD/svg11.dtd">
<!-- Created with matplotlib (https://matplotlib.org/) -->
<svg height="216pt" version="1.1" viewBox="0 0 360 216" width="360pt" xmlns="http://www.w3.org/2000/svg" xmlns:xlink="http://www.w3.org/1999/xlink">
 <defs>
  <style type="text/css">
*{stroke-linecap:butt;stroke-linejoin:round;}
  </style>
 </defs>
 <g id="figure_1">
  <g id="patch_1">
   <path d="M 0 216 
L 360 216 
L 360 0 
L 0 0 
z
" style="fill:#ffffff;"/>
  </g>
  <g id="axes_1">
   <g id="patch_2">
    <path d="M 51.05 167.2 
L 330.1375 167.2 
L 330.1375 15.8 
L 51.05 15.8 
z
" style="fill:#ffffff;"/>
   </g>
   <g id="PathCollection_1">
    <defs>
     <path d="M 0 2.236068 
C 0.593012 2.236068 1.161816 2.000462 1.581139 1.581139 
C 2.000462 1.161816 2.236068 0.593012 2.236068 0 
C 2.236068 -0.593012 2.000462 -1.161816 1.581139 -1.581139 
C 1.161816 -2.000462 0.593012 -2.236068 0 -2.236068 
C -0.593012 -2.236068 -1.161816 -2.000462 -1.581139 -1.581139 
C -2.000462 -1.161816 -2.236068 -0.593012 -2.236068 0 
C -2.236068 0.593012 -2.000462 1.161816 -1.581139 1.581139 
C -1.161816 2.000462 -0.593012 2.236068 0 2.236068 
z
" id="m4946284607" style="stroke:#1f77b4;"/>
    </defs>
    <g clip-path="url(#pccce1ec234)">
     <use style="fill:#1f77b4;stroke:#1f77b4;" x="93.168555" xlink:href="#m4946284607" y="76.36"/>
     <use style="fill:#1f77b4;stroke:#1f77b4;" x="94.947543" xlink:href="#m4946284607" y="82.416"/>
     <use style="fill:#1f77b4;stroke:#1f77b4;" x="107.983357" xlink:href="#m4946284607" y="93.014"/>
     <use style="fill:#1f77b4;stroke:#1f77b4;" x="109.171525" xlink:href="#m4946284607" y="79.388"/>
     <use style="fill:#1f77b4;stroke:#1f77b4;" x="125.434894" xlink:href="#m4946284607" y="74.846"/>
     <use style="fill:#1f77b4;stroke:#1f77b4;" x="131.464798" xlink:href="#m4946284607" y="82.416"/>
     <use style="fill:#1f77b4;stroke:#1f77b4;" x="135.075283" xlink:href="#m4946284607" y="94.528"/>
     <use style="fill:#1f77b4;stroke:#1f77b4;" x="139.993288" xlink:href="#m4946284607" y="89.986"/>
     <use style="fill:#1f77b4;stroke:#1f77b4;" x="147.486276" xlink:href="#m4946284607" y="80.902"/>
     <use style="fill:#1f77b4;stroke:#1f77b4;" x="171.358672" xlink:href="#m4946284607" y="68.79"/>
     <use style="fill:#1f77b4;stroke:#1f77b4;" x="177.547326" xlink:href="#m4946284607" y="79.388"/>
     <use style="fill:#1f77b4;stroke:#1f77b4;" x="189.973157" xlink:href="#m4946284607" y="76.36"/>
     <use style="fill:#1f77b4;stroke:#1f77b4;" x="202.155159" xlink:href="#m4946284607" y="77.874"/>
     <use style="fill:#1f77b4;stroke:#1f77b4;" x="215.448055" xlink:href="#m4946284607" y="55.164"/>
     <use style="fill:#1f77b4;stroke:#1f77b4;" x="223.362767" xlink:href="#m4946284607" y="56.678"/>
     <use style="fill:#1f77b4;stroke:#1f77b4;" x="226.293721" xlink:href="#m4946284607" y="68.79"/>
     <use style="fill:#1f77b4;stroke:#1f77b4;" x="237.604328" xlink:href="#m4946284607" y="62.734"/>
     <use style="fill:#1f77b4;stroke:#1f77b4;" x="241.743563" xlink:href="#m4946284607" y="61.22"/>
     <use style="fill:#1f77b4;stroke:#1f77b4;" x="246.290256" xlink:href="#m4946284607" y="55.164"/>
     <use style="fill:#1f77b4;stroke:#1f77b4;" x="252.606811" xlink:href="#m4946284607" y="56.678"/>
     <use style="fill:#1f77b4;stroke:#1f77b4;" x="253.868073" xlink:href="#m4946284607" y="56.678"/>
     <use style="fill:#1f77b4;stroke:#1f77b4;" x="254.430508" xlink:href="#m4946284607" y="62.734"/>
     <use style="fill:#1f77b4;stroke:#1f77b4;" x="254.647531" xlink:href="#m4946284607" y="64.248"/>
     <use style="fill:#1f77b4;stroke:#1f77b4;" x="283.000859" xlink:href="#m4946284607" y="58.192"/>
     <use style="fill:#1f77b4;stroke:#1f77b4;" x="287.597974" xlink:href="#m4946284607" y="53.65"/>
     <use style="fill:#1f77b4;stroke:#1f77b4;" x="288.096992" xlink:href="#m4946284607" y="56.678"/>
     <use style="fill:#1f77b4;stroke:#1f77b4;" x="289.905846" xlink:href="#m4946284607" y="61.22"/>
     <use style="fill:#1f77b4;stroke:#1f77b4;" x="293.456867" xlink:href="#m4946284607" y="53.65"/>
     <use style="fill:#1f77b4;stroke:#1f77b4;" x="310.625581" xlink:href="#m4946284607" y="58.192"/>
    </g>
   </g>
   <g id="matplotlib.axis_1">
    <g id="xtick_1">
     <g id="line2d_1">
      <defs>
       <path d="M 0 0 
L 0 3.5 
" id="m844800cdf0" style="stroke:#000000;stroke-width:0.8;"/>
      </defs>
      <g>
       <use style="stroke:#000000;stroke-width:0.8;" x="51.05" xlink:href="#m844800cdf0" y="167.2"/>
      </g>
     </g>
     <g id="text_1">
      <text style="font-family:DejaVu Sans;font-size:12px;font-style:normal;font-weight:normal;text-anchor:middle;" transform="rotate(-0, 51.05, 183.318125)" x="51.05" y="183.318125">0</text>
     </g>
    </g>
    <g id="xtick_2">
     <g id="line2d_2">
      <g>
       <use style="stroke:#000000;stroke-width:0.8;" x="97.564583" xlink:href="#m844800cdf0" y="167.2"/>
      </g>
     </g>
     <g id="text_2">
      <text style="font-family:DejaVu Sans;font-size:12px;font-style:normal;font-weight:normal;text-anchor:middle;" transform="rotate(-0, 97.564583, 183.318125)" x="97.564583" y="183.318125">10000</text>
     </g>
    </g>
    <g id="xtick_3">
     <g id="line2d_3">
      <g>
       <use style="stroke:#000000;stroke-width:0.8;" x="144.079167" xlink:href="#m844800cdf0" y="167.2"/>
      </g>
     </g>
     <g id="text_3">
      <text style="font-family:DejaVu Sans;font-size:12px;font-style:normal;font-weight:normal;text-anchor:middle;" transform="rotate(-0, 144.079167, 183.318125)" x="144.079167" y="183.318125">20000</text>
     </g>
    </g>
    <g id="xtick_4">
     <g id="line2d_4">
      <g>
       <use style="stroke:#000000;stroke-width:0.8;" x="190.59375" xlink:href="#m844800cdf0" y="167.2"/>
      </g>
     </g>
     <g id="text_4">
      <text style="font-family:DejaVu Sans;font-size:12px;font-style:normal;font-weight:normal;text-anchor:middle;" transform="rotate(-0, 190.59375, 183.318125)" x="190.59375" y="183.318125">30000</text>
     </g>
    </g>
    <g id="xtick_5">
     <g id="line2d_5">
      <g>
       <use style="stroke:#000000;stroke-width:0.8;" x="237.108333" xlink:href="#m844800cdf0" y="167.2"/>
      </g>
     </g>
     <g id="text_5">
      <text style="font-family:DejaVu Sans;font-size:12px;font-style:normal;font-weight:normal;text-anchor:middle;" transform="rotate(-0, 237.108333, 183.318125)" x="237.108333" y="183.318125">40000</text>
     </g>
    </g>
    <g id="xtick_6">
     <g id="line2d_6">
      <g>
       <use style="stroke:#000000;stroke-width:0.8;" x="283.622917" xlink:href="#m844800cdf0" y="167.2"/>
      </g>
     </g>
     <g id="text_6">
      <text style="font-family:DejaVu Sans;font-size:12px;font-style:normal;font-weight:normal;text-anchor:middle;" transform="rotate(-0, 283.622917, 183.318125)" x="283.622917" y="183.318125">50000</text>
     </g>
    </g>
    <g id="xtick_7">
     <g id="line2d_7">
      <g>
       <use style="stroke:#000000;stroke-width:0.8;" x="330.1375" xlink:href="#m844800cdf0" y="167.2"/>
      </g>
     </g>
     <g id="text_7">
      <text style="font-family:DejaVu Sans;font-size:12px;font-style:normal;font-weight:normal;text-anchor:middle;" transform="rotate(-0, 330.1375, 183.318125)" x="330.1375" y="183.318125">60000</text>
     </g>
    </g>
    <g id="text_8">
     <text style="font-family:DejaVu Sans;font-size:14px;font-style:normal;font-weight:normal;text-anchor:middle;" transform="rotate(-0, 190.59375, 200.451562)" x="190.59375" y="200.451562">GDP per capita (USD)</text>
    </g>
   </g>
   <g id="matplotlib.axis_2">
    <g id="ytick_1">
     <g id="line2d_8">
      <defs>
       <path d="M 0 0 
L -3.5 0 
" id="mab21cc1fd1" style="stroke:#000000;stroke-width:0.8;"/>
      </defs>
      <g>
       <use style="stroke:#000000;stroke-width:0.8;" x="51.05" xlink:href="#mab21cc1fd1" y="167.2"/>
      </g>
     </g>
     <g id="text_9">
      <text style="font-family:DejaVu Sans;font-size:12px;font-style:normal;font-weight:normal;text-anchor:end;" transform="rotate(-0, 44.05, 171.759062)" x="44.05" y="171.759062">0</text>
     </g>
    </g>
    <g id="ytick_2">
     <g id="line2d_9">
      <g>
       <use style="stroke:#000000;stroke-width:0.8;" x="51.05" xlink:href="#mab21cc1fd1" y="136.92"/>
      </g>
     </g>
     <g id="text_10">
      <text style="font-family:DejaVu Sans;font-size:12px;font-style:normal;font-weight:normal;text-anchor:end;" transform="rotate(-0, 44.05, 141.479062)" x="44.05" y="141.479062">2</text>
     </g>
    </g>
    <g id="ytick_3">
     <g id="line2d_10">
      <g>
       <use style="stroke:#000000;stroke-width:0.8;" x="51.05" xlink:href="#mab21cc1fd1" y="106.64"/>
      </g>
     </g>
     <g id="text_11">
      <text style="font-family:DejaVu Sans;font-size:12px;font-style:normal;font-weight:normal;text-anchor:end;" transform="rotate(-0, 44.05, 111.199063)" x="44.05" y="111.199063">4</text>
     </g>
    </g>
    <g id="ytick_4">
     <g id="line2d_11">
      <g>
       <use style="stroke:#000000;stroke-width:0.8;" x="51.05" xlink:href="#mab21cc1fd1" y="76.36"/>
      </g>
     </g>
     <g id="text_12">
      <text style="font-family:DejaVu Sans;font-size:12px;font-style:normal;font-weight:normal;text-anchor:end;" transform="rotate(-0, 44.05, 80.919063)" x="44.05" y="80.919063">6</text>
     </g>
    </g>
    <g id="ytick_5">
     <g id="line2d_12">
      <g>
       <use style="stroke:#000000;stroke-width:0.8;" x="51.05" xlink:href="#mab21cc1fd1" y="46.08"/>
      </g>
     </g>
     <g id="text_13">
      <text style="font-family:DejaVu Sans;font-size:12px;font-style:normal;font-weight:normal;text-anchor:end;" transform="rotate(-0, 44.05, 50.639063)" x="44.05" y="50.639063">8</text>
     </g>
    </g>
    <g id="ytick_6">
     <g id="line2d_13">
      <g>
       <use style="stroke:#000000;stroke-width:0.8;" x="51.05" xlink:href="#mab21cc1fd1" y="15.8"/>
      </g>
     </g>
     <g id="text_14">
      <text style="font-family:DejaVu Sans;font-size:12px;font-style:normal;font-weight:normal;text-anchor:end;" transform="rotate(-0, 44.05, 20.359063)" x="44.05" y="20.359063">10</text>
     </g>
    </g>
    <g id="text_15">
     <text style="font-family:DejaVu Sans;font-size:14px;font-style:normal;font-weight:normal;text-anchor:middle;" transform="rotate(-90, 21.868438, 91.5)" x="21.868438" y="91.5">Life satisfaction</text>
    </g>
   </g>
   <g id="line2d_14">
    <defs>
     <path d="M 0 3 
C 0.795609 3 1.55874 2.683901 2.12132 2.12132 
C 2.683901 1.55874 3 0.795609 3 0 
C 3 -0.795609 2.683901 -1.55874 2.12132 -2.12132 
C 1.55874 -2.683901 0.795609 -3 0 -3 
C -0.795609 -3 -1.55874 -2.683901 -2.12132 -2.12132 
C -2.683901 -1.55874 -3 -0.795609 -3 0 
C -3 0.795609 -2.683901 1.55874 -2.12132 2.12132 
C -1.55874 2.683901 -0.795609 3 0 3 
z
" id="m9c52f6833c" style="stroke:#ff0000;"/>
    </defs>
    <g clip-path="url(#pccce1ec234)">
     <use style="fill:#ff0000;stroke:#ff0000;" x="107.983357" xlink:href="#m9c52f6833c" y="93.014"/>
    </g>
   </g>
   <g id="line2d_15">
    <g clip-path="url(#pccce1ec234)">
     <use style="fill:#ff0000;stroke:#ff0000;" x="177.547326" xlink:href="#m9c52f6833c" y="79.388"/>
    </g>
   </g>
   <g id="line2d_16">
    <g clip-path="url(#pccce1ec234)">
     <use style="fill:#ff0000;stroke:#ff0000;" x="226.293721" xlink:href="#m9c52f6833c" y="68.79"/>
    </g>
   </g>
   <g id="line2d_17">
    <g clip-path="url(#pccce1ec234)">
     <use style="fill:#ff0000;stroke:#ff0000;" x="288.096992" xlink:href="#m9c52f6833c" y="56.678"/>
    </g>
   </g>
   <g id="line2d_18">
    <g clip-path="url(#pccce1ec234)">
     <use style="fill:#ff0000;stroke:#ff0000;" x="310.625581" xlink:href="#m9c52f6833c" y="58.192"/>
    </g>
   </g>
   <g id="patch_3">
    <path d="M 51.05 167.2 
L 51.05 15.8 
" style="fill:none;stroke:#000000;stroke-linecap:square;stroke-linejoin:miter;stroke-width:0.8;"/>
   </g>
   <g id="patch_4">
    <path d="M 330.1375 167.2 
L 330.1375 15.8 
" style="fill:none;stroke:#000000;stroke-linecap:square;stroke-linejoin:miter;stroke-width:0.8;"/>
   </g>
   <g id="patch_5">
    <path d="M 51.05 167.2 
L 330.1375 167.2 
" style="fill:none;stroke:#000000;stroke-linecap:square;stroke-linejoin:miter;stroke-width:0.8;"/>
   </g>
   <g id="patch_6">
    <path d="M 51.05 15.8 
L 330.1375 15.8 
" style="fill:none;stroke:#000000;stroke-linecap:square;stroke-linejoin:miter;stroke-width:0.8;"/>
   </g>
   <g id="patch_7">
    <path d="M 115.508988 137.358779 
Q 113.111236 123.690998 110.713483 110.023218 
L 108.497327 110.412 
Q 108.691693 104.285812 108.886059 98.159624 
Q 111.154089 103.853832 113.422118 109.548039 
L 111.205962 109.936822 
Q 113.603715 123.604602 116.001467 137.272383 
L 115.508988 137.358779 
z
" style="stroke:#000000;stroke-linecap:round;"/>
   </g>
   <g id="text_16">
    <text style="font-family:DejaVu Sans;font-size:10px;font-style:normal;font-weight:normal;text-anchor:start;" transform="rotate(-0, 74.307292, 152.06)" x="74.307292" y="152.06">Hungary</text>
   </g>
   <g id="patch_8">
    <path d="M 164.850469 126.353046 
Q 168.82073 111.361894 172.790992 96.370743 
L 170.615977 95.794712 
Q 173.360598 90.313954 176.105218 84.833197 
Q 175.77728 90.953989 175.449342 97.074782 
L 173.274328 96.49875 
Q 169.304067 111.489901 165.333805 126.481053 
L 164.850469 126.353046 
z
" style="stroke:#000000;stroke-linecap:round;"/>
   </g>
   <g id="text_17">
    <text style="font-family:DejaVu Sans;font-size:10px;font-style:normal;font-weight:normal;text-anchor:start;" transform="rotate(-0, 134.77625, 141.462)" x="134.77625" y="141.462">Korea</text>
   </g>
   <g id="patch_9">
    <path d="M 219.91916 115.786754 
Q 221.852607 100.945349 223.786054 86.103944 
L 221.554907 85.813284 
Q 223.56963 80.02424 225.584354 74.235197 
Q 226.048683 80.347196 226.513011 86.459195 
L 224.281864 86.168535 
Q 222.348417 101.00994 220.41497 115.851345 
L 219.91916 115.786754 
z
" style="stroke:#000000;stroke-linecap:round;"/>
   </g>
   <g id="text_18">
    <text style="font-family:DejaVu Sans;font-size:10px;font-style:normal;font-weight:normal;text-anchor:start;" transform="rotate(-0, 185.942292, 130.864)" x="185.942292" y="130.864">France</text>
   </g>
   <g id="patch_10">
    <path d="M 282.001572 106.406164 
Q 283.887087 90.360987 285.772602 74.31581 
L 283.537978 74.053213 
Q 285.479698 68.240077 287.421417 62.426941 
Q 287.962613 68.531851 288.503809 74.636762 
L 286.269185 74.374165 
Q 284.38367 90.419342 282.498156 106.464518 
L 282.001572 106.406164 
z
" style="stroke:#000000;stroke-linecap:round;"/>
   </g>
   <g id="text_19">
    <text style="font-family:DejaVu Sans;font-size:10px;font-style:normal;font-weight:normal;text-anchor:start;" transform="rotate(-0, 237.108333, 121.78)" x="237.108333" y="121.78">Australia</text>
   </g>
   <g id="patch_11">
    <path d="M 312.361262 95.693659 
Q 311.802028 85.133792 311.242793 74.573926 
L 308.995942 74.692916 
Q 309.926968 68.636758 310.857995 62.5806 
Q 312.42347 68.504547 313.988945 74.428494 
L 311.742093 74.547484 
Q 312.301328 85.10735 312.860563 95.667217 
L 312.361262 95.693659 
z
" style="stroke:#000000;stroke-linecap:round;"/>
   </g>
   <g id="text_20">
    <text style="font-family:DejaVu Sans;font-size:10px;font-style:normal;font-weight:normal;text-anchor:start;" transform="rotate(-0, 292.925833, 109.668)" x="292.925833" y="109.668">U.S.</text>
   </g>
  </g>
 </g>
 <defs>
  <clipPath id="pccce1ec234">
   <rect height="151.4" width="279.0875" x="51.05" y="15.8"/>
  </clipPath>
 </defs>
</svg>
