<?xml version="1.0" encoding="utf-8" standalone="no"?>
<!DOCTYPE svg PUBLIC "-//W3C//DTD SVG 1.1//EN"
  "http://www.w3.org/Graphics/SVG/1.1/DTD/svg11.dtd">
<svg xmlns:xlink="http://www.w3.org/1999/xlink" width="360pt" height="216pt" viewBox="0 0 360 216" xmlns="http://www.w3.org/2000/svg" version="1.1">
 <metadata>
  <rdf:RDF xmlns:dc="http://purl.org/dc/elements/1.1/" xmlns:cc="http://creativecommons.org/ns#" xmlns:rdf="http://www.w3.org/1999/02/22-rdf-syntax-ns#">
   <cc:Work>
    <dc:type rdf:resource="http://purl.org/dc/dcmitype/StillImage"/>
    <dc:date>2022-12-08T08:10:35.226779</dc:date>
    <dc:format>image/svg+xml</dc:format>
    <dc:creator>
     <cc:Agent>
      <dc:title>Matplotlib v3.5.1, https://matplotlib.org/</dc:title>
     </cc:Agent>
    </dc:creator>
   </cc:Work>
  </rdf:RDF>
 </metadata>
 <defs>
  <style type="text/css">*{stroke-linejoin: round; stroke-linecap: butt}</style>
 </defs>
 <g id="figure_1">
  <g id="patch_1">
   <path d="M 0 216 
L 360 216 
L 360 0 
L 0 0 
L 0 216 
z
" style="fill: none"/>
  </g>
  <g id="axes_1">
   <g id="patch_2">
    <path d="M 51.05 167.2 
L 330.1375 167.2 
L 330.1375 15.8 
L 51.05 15.8 
z
" style="fill: #ffffff"/>
   </g>
   <g id="PathCollection_1">
    <defs>
     <path id="m27dfc2318f" d="M 0 2.236068 
C 0.593012 2.236068 1.161816 2.000462 1.581139 1.581139 
C 2.000462 1.161816 2.236068 0.593012 2.236068 0 
C 2.236068 -0.593012 2.000462 -1.161816 1.581139 -1.581139 
C 1.161816 -2.000462 0.593012 -2.236068 0 -2.236068 
C -0.593012 -2.236068 -1.161816 -2.000462 -1.581139 -1.581139 
C -2.000462 -1.161816 -2.236068 -0.593012 -2.236068 0 
C -2.236068 0.593012 -2.000462 1.161816 -1.581139 1.581139 
C -1.161816 2.000462 -0.593012 2.236068 0 2.236068 
z
" style="stroke: #1f77b4"/>
    </defs>
    <g clip-path="url(#pef07d77668)">
     <use xlink:href="#m27dfc2318f" x="93.168555" y="76.36" style="fill: #1f77b4; stroke: #1f77b4"/>
     <use xlink:href="#m27dfc2318f" x="94.947543" y="82.416" style="fill: #1f77b4; stroke: #1f77b4"/>
     <use xlink:href="#m27dfc2318f" x="107.983357" y="93.014" style="fill: #1f77b4; stroke: #1f77b4"/>
     <use xlink:href="#m27dfc2318f" x="109.171525" y="79.388" style="fill: #1f77b4; stroke: #1f77b4"/>
     <use xlink:href="#m27dfc2318f" x="125.434894" y="74.846" style="fill: #1f77b4; stroke: #1f77b4"/>
     <use xlink:href="#m27dfc2318f" x="131.464798" y="82.416" style="fill: #1f77b4; stroke: #1f77b4"/>
     <use xlink:href="#m27dfc2318f" x="135.075283" y="94.528" style="fill: #1f77b4; stroke: #1f77b4"/>
     <use xlink:href="#m27dfc2318f" x="139.993288" y="89.986" style="fill: #1f77b4; stroke: #1f77b4"/>
     <use xlink:href="#m27dfc2318f" x="147.486276" y="80.902" style="fill: #1f77b4; stroke: #1f77b4"/>
     <use xlink:href="#m27dfc2318f" x="171.358672" y="68.79" style="fill: #1f77b4; stroke: #1f77b4"/>
     <use xlink:href="#m27dfc2318f" x="177.547326" y="79.388" style="fill: #1f77b4; stroke: #1f77b4"/>
     <use xlink:href="#m27dfc2318f" x="189.973157" y="76.36" style="fill: #1f77b4; stroke: #1f77b4"/>
     <use xlink:href="#m27dfc2318f" x="202.155159" y="77.874" style="fill: #1f77b4; stroke: #1f77b4"/>
     <use xlink:href="#m27dfc2318f" x="215.448055" y="55.164" style="fill: #1f77b4; stroke: #1f77b4"/>
     <use xlink:href="#m27dfc2318f" x="223.362767" y="56.678" style="fill: #1f77b4; stroke: #1f77b4"/>
     <use xlink:href="#m27dfc2318f" x="226.293721" y="68.79" style="fill: #1f77b4; stroke: #1f77b4"/>
     <use xlink:href="#m27dfc2318f" x="237.604328" y="62.734" style="fill: #1f77b4; stroke: #1f77b4"/>
     <use xlink:href="#m27dfc2318f" x="241.743563" y="61.22" style="fill: #1f77b4; stroke: #1f77b4"/>
     <use xlink:href="#m27dfc2318f" x="246.290256" y="55.164" style="fill: #1f77b4; stroke: #1f77b4"/>
     <use xlink:href="#m27dfc2318f" x="252.606811" y="56.678" style="fill: #1f77b4; stroke: #1f77b4"/>
     <use xlink:href="#m27dfc2318f" x="253.868073" y="56.678" style="fill: #1f77b4; stroke: #1f77b4"/>
     <use xlink:href="#m27dfc2318f" x="254.430508" y="62.734" style="fill: #1f77b4; stroke: #1f77b4"/>
     <use xlink:href="#m27dfc2318f" x="254.647531" y="64.248" style="fill: #1f77b4; stroke: #1f77b4"/>
     <use xlink:href="#m27dfc2318f" x="283.000859" y="58.192" style="fill: #1f77b4; stroke: #1f77b4"/>
     <use xlink:href="#m27dfc2318f" x="287.597974" y="53.65" style="fill: #1f77b4; stroke: #1f77b4"/>
     <use xlink:href="#m27dfc2318f" x="288.096992" y="56.678" style="fill: #1f77b4; stroke: #1f77b4"/>
     <use xlink:href="#m27dfc2318f" x="289.905846" y="61.22" style="fill: #1f77b4; stroke: #1f77b4"/>
     <use xlink:href="#m27dfc2318f" x="293.456867" y="53.65" style="fill: #1f77b4; stroke: #1f77b4"/>
     <use xlink:href="#m27dfc2318f" x="310.625581" y="58.192" style="fill: #1f77b4; stroke: #1f77b4"/>
    </g>
   </g>
   <g id="matplotlib.axis_1">
    <g id="xtick_1">
     <g id="line2d_1">
      <defs>
       <path id="m1359737c72" d="M 0 0 
L 0 3.5 
" style="stroke: #000000; stroke-width: 0.8"/>
      </defs>
      <g>
       <use xlink:href="#m1359737c72" x="51.05" y="167.2" style="stroke: #000000; stroke-width: 0.8"/>
      </g>
     </g>
     <g id="text_1">
      <text style="font: 12px 'sans-serif'; text-anchor: middle" x="51.05" y="183.318125" transform="rotate(-0, 51.05, 183.318125)">0</text>
     </g>
    </g>
    <g id="xtick_2">
     <g id="line2d_2">
      <g>
       <use xlink:href="#m1359737c72" x="97.564583" y="167.2" style="stroke: #000000; stroke-width: 0.8"/>
      </g>
     </g>
     <g id="text_2">
      <text style="font: 12px 'sans-serif'; text-anchor: middle" x="97.564583" y="183.318125" transform="rotate(-0, 97.564583, 183.318125)">10000</text>
     </g>
    </g>
    <g id="xtick_3">
     <g id="line2d_3">
      <g>
       <use xlink:href="#m1359737c72" x="144.079167" y="167.2" style="stroke: #000000; stroke-width: 0.8"/>
      </g>
     </g>
     <g id="text_3">
      <text style="font: 12px 'sans-serif'; text-anchor: middle" x="144.079167" y="183.318125" transform="rotate(-0, 144.079167, 183.318125)">20000</text>
     </g>
    </g>
    <g id="xtick_4">
     <g id="line2d_4">
      <g>
       <use xlink:href="#m1359737c72" x="190.59375" y="167.2" style="stroke: #000000; stroke-width: 0.8"/>
      </g>
     </g>
     <g id="text_4">
      <text style="font: 12px 'sans-serif'; text-anchor: middle" x="190.59375" y="183.318125" transform="rotate(-0, 190.59375, 183.318125)">30000</text>
     </g>
    </g>
    <g id="xtick_5">
     <g id="line2d_5">
      <g>
       <use xlink:href="#m1359737c72" x="237.108333" y="167.2" style="stroke: #000000; stroke-width: 0.8"/>
      </g>
     </g>
     <g id="text_5">
      <text style="font: 12px 'sans-serif'; text-anchor: middle" x="237.108333" y="183.318125" transform="rotate(-0, 237.108333, 183.318125)">40000</text>
     </g>
    </g>
    <g id="xtick_6">
     <g id="line2d_6">
      <g>
       <use xlink:href="#m1359737c72" x="283.622917" y="167.2" style="stroke: #000000; stroke-width: 0.8"/>
      </g>
     </g>
     <g id="text_6">
      <text style="font: 12px 'sans-serif'; text-anchor: middle" x="283.622917" y="183.318125" transform="rotate(-0, 283.622917, 183.318125)">50000</text>
     </g>
    </g>
    <g id="xtick_7">
     <g id="line2d_7">
      <g>
       <use xlink:href="#m1359737c72" x="330.1375" y="167.2" style="stroke: #000000; stroke-width: 0.8"/>
      </g>
     </g>
     <g id="text_7">
      <text style="font: 12px 'sans-serif'; text-anchor: middle" x="330.1375" y="183.318125" transform="rotate(-0, 330.1375, 183.318125)">60000</text>
     </g>
    </g>
    <g id="text_8">
     <text style="font: 14px 'sans-serif'; text-anchor: middle" x="190.59375" y="200.451562" transform="rotate(-0, 190.59375, 200.451562)">GDP per capita (USD)</text>
    </g>
   </g>
   <g id="matplotlib.axis_2">
    <g id="ytick_1">
     <g id="line2d_8">
      <defs>
       <path id="m8d53a81778" d="M 0 0 
L -3.5 0 
" style="stroke: #000000; stroke-width: 0.8"/>
      </defs>
      <g>
       <use xlink:href="#m8d53a81778" x="51.05" y="167.2" style="stroke: #000000; stroke-width: 0.8"/>
      </g>
     </g>
     <g id="text_9">
      <text style="font: 12px 'sans-serif'; text-anchor: end" x="44.05" y="171.759062" transform="rotate(-0, 44.05, 171.759062)">0</text>
     </g>
    </g>
    <g id="ytick_2">
     <g id="line2d_9">
      <g>
       <use xlink:href="#m8d53a81778" x="51.05" y="136.92" style="stroke: #000000; stroke-width: 0.8"/>
      </g>
     </g>
     <g id="text_10">
      <text style="font: 12px 'sans-serif'; text-anchor: end" x="44.05" y="141.479062" transform="rotate(-0, 44.05, 141.479062)">2</text>
     </g>
    </g>
    <g id="ytick_3">
     <g id="line2d_10">
      <g>
       <use xlink:href="#m8d53a81778" x="51.05" y="106.64" style="stroke: #000000; stroke-width: 0.8"/>
      </g>
     </g>
     <g id="text_11">
      <text style="font: 12px 'sans-serif'; text-anchor: end" x="44.05" y="111.199063" transform="rotate(-0, 44.05, 111.199063)">4</text>
     </g>
    </g>
    <g id="ytick_4">
     <g id="line2d_11">
      <g>
       <use xlink:href="#m8d53a81778" x="51.05" y="76.36" style="stroke: #000000; stroke-width: 0.8"/>
      </g>
     </g>
     <g id="text_12">
      <text style="font: 12px 'sans-serif'; text-anchor: end" x="44.05" y="80.919063" transform="rotate(-0, 44.05, 80.919063)">6</text>
     </g>
    </g>
    <g id="ytick_5">
     <g id="line2d_12">
      <g>
       <use xlink:href="#m8d53a81778" x="51.05" y="46.08" style="stroke: #000000; stroke-width: 0.8"/>
      </g>
     </g>
     <g id="text_13">
      <text style="font: 12px 'sans-serif'; text-anchor: end" x="44.05" y="50.639063" transform="rotate(-0, 44.05, 50.639063)">8</text>
     </g>
    </g>
    <g id="ytick_6">
     <g id="line2d_13">
      <g>
       <use xlink:href="#m8d53a81778" x="51.05" y="15.8" style="stroke: #000000; stroke-width: 0.8"/>
      </g>
     </g>
     <g id="text_14">
      <text style="font: 12px 'sans-serif'; text-anchor: end" x="44.05" y="20.359063" transform="rotate(-0, 44.05, 20.359063)">10</text>
     </g>
    </g>
    <g id="text_15">
     <text style="font: 14px 'sans-serif'; text-anchor: middle" x="21.868438" y="91.5" transform="rotate(-90, 21.868438, 91.5)">Life satisfaction</text>
    </g>
   </g>
   <g id="line2d_14">
    <defs>
     <path id="m52defa3c7e" d="M 0 3 
C 0.795609 3 1.55874 2.683901 2.12132 2.12132 
C 2.683901 1.55874 3 0.795609 3 0 
C 3 -0.795609 2.683901 -1.55874 2.12132 -2.12132 
C 1.55874 -2.683901 0.795609 -3 0 -3 
C -0.795609 -3 -1.55874 -2.683901 -2.12132 -2.12132 
C -2.683901 -1.55874 -3 -0.795609 -3 0 
C -3 0.795609 -2.683901 1.55874 -2.12132 2.12132 
C -1.55874 2.683901 -0.795609 3 0 3 
z
" style="stroke: #ff0000"/>
    </defs>
    <g clip-path="url(#pef07d77668)">
     <use xlink:href="#m52defa3c7e" x="107.983357" y="93.014" style="fill: #ff0000; stroke: #ff0000"/>
    </g>
   </g>
   <g id="line2d_15">
    <g clip-path="url(#pef07d77668)">
     <use xlink:href="#m52defa3c7e" x="177.547326" y="79.388" style="fill: #ff0000; stroke: #ff0000"/>
    </g>
   </g>
   <g id="line2d_16">
    <g clip-path="url(#pef07d77668)">
     <use xlink:href="#m52defa3c7e" x="226.293721" y="68.79" style="fill: #ff0000; stroke: #ff0000"/>
    </g>
   </g>
   <g id="line2d_17">
    <g clip-path="url(#pef07d77668)">
     <use xlink:href="#m52defa3c7e" x="288.096992" y="56.678" style="fill: #ff0000; stroke: #ff0000"/>
    </g>
   </g>
   <g id="line2d_18">
    <g clip-path="url(#pef07d77668)">
     <use xlink:href="#m52defa3c7e" x="310.625581" y="58.192" style="fill: #ff0000; stroke: #ff0000"/>
    </g>
   </g>
   <g id="patch_3">
    <path d="M 51.05 167.2 
L 51.05 15.8 
" style="fill: none; stroke: #000000; stroke-width: 0.8; stroke-linejoin: miter; stroke-linecap: square"/>
   </g>
   <g id="patch_4">
    <path d="M 330.1375 167.2 
L 330.1375 15.8 
" style="fill: none; stroke: #000000; stroke-width: 0.8; stroke-linejoin: miter; stroke-linecap: square"/>
   </g>
   <g id="patch_5">
    <path d="M 51.05 167.2 
L 330.1375 167.2 
" style="fill: none; stroke: #000000; stroke-width: 0.8; stroke-linejoin: miter; stroke-linecap: square"/>
   </g>
   <g id="patch_6">
    <path d="M 51.05 15.8 
L 330.1375 15.8 
" style="fill: none; stroke: #000000; stroke-width: 0.8; stroke-linejoin: miter; stroke-linecap: square"/>
   </g>
   <g id="patch_7">
    <path d="M 115.508988 137.358779 
Q 113.111236 123.690998 110.713483 110.023218 
L 108.497327 110.412 
Q 108.691693 104.285812 108.886059 98.159624 
Q 111.154089 103.853832 113.422118 109.548039 
L 111.205962 109.936822 
Q 113.603715 123.604602 116.001467 137.272383 
L 115.508988 137.358779 
z
" style="stroke: #000000; stroke-linecap: round"/>
   </g>
   <g id="text_16">
    <text style="font: 10px 'sans-serif'; text-anchor: start" x="74.307292" y="152.06" transform="rotate(-0, 74.307292, 152.06)">Hungary</text>
   </g>
   <g id="patch_8">
    <path d="M 164.850469 126.353046 
Q 168.82073 111.361894 172.790992 96.370743 
L 170.615977 95.794712 
Q 173.360598 90.313954 176.105218 84.833197 
Q 175.77728 90.953989 175.449342 97.074782 
L 173.274328 96.49875 
Q 169.304067 111.489901 165.333805 126.481053 
L 164.850469 126.353046 
z
" style="stroke: #000000; stroke-linecap: round"/>
   </g>
   <g id="text_17">
    <text style="font: 10px 'sans-serif'; text-anchor: start" x="134.77625" y="141.462" transform="rotate(-0, 134.77625, 141.462)">Korea</text>
   </g>
   <g id="patch_9">
    <path d="M 219.91916 115.786754 
Q 221.852607 100.945349 223.786054 86.103944 
L 221.554907 85.813284 
Q 223.56963 80.02424 225.584354 74.235197 
Q 226.048683 80.347196 226.513011 86.459195 
L 224.281864 86.168535 
Q 222.348417 101.00994 220.41497 115.851345 
L 219.91916 115.786754 
z
" style="stroke: #000000; stroke-linecap: round"/>
   </g>
   <g id="text_18">
    <text style="font: 10px 'sans-serif'; text-anchor: start" x="185.942292" y="130.864" transform="rotate(-0, 185.942292, 130.864)">France</text>
   </g>
   <g id="patch_10">
    <path d="M 282.001572 106.406164 
Q 283.887087 90.360987 285.772602 74.31581 
L 283.537978 74.053213 
Q 285.479698 68.240077 287.421417 62.426941 
Q 287.962613 68.531851 288.503809 74.636762 
L 286.269185 74.374165 
Q 284.38367 90.419342 282.498156 106.464518 
L 282.001572 106.406164 
z
" style="stroke: #000000; stroke-linecap: round"/>
   </g>
   <g id="text_19">
    <text style="font: 10px 'sans-serif'; text-anchor: start" x="237.108333" y="121.78" transform="rotate(-0, 237.108333, 121.78)">Australia</text>
   </g>
   <g id="patch_11">
    <path d="M 312.361262 95.693659 
Q 311.802028 85.133792 311.242793 74.573926 
L 308.995942 74.692916 
Q 309.926968 68.636758 310.857995 62.5806 
Q 312.42347 68.504547 313.988945 74.428494 
L 311.742093 74.547484 
Q 312.301328 85.10735 312.860563 95.667217 
L 312.361262 95.693659 
z
" style="stroke: #000000; stroke-linecap: round"/>
   </g>
   <g id="text_20">
    <text style="font: 10px 'sans-serif'; text-anchor: start" x="292.925833" y="109.668" transform="rotate(-0, 292.925833, 109.668)">U.S.</text>
   </g>
  </g>
 </g>
 <defs>
  <clipPath id="pef07d77668">
   <rect x="51.05" y="15.8" width="279.0875" height="151.4"/>
  </clipPath>
 </defs>
</svg>
