<?xml version="1.0" encoding="utf-8" standalone="no"?>
<!DOCTYPE svg PUBLIC "-//W3C//DTD SVG 1.1//EN"
  "http://www.w3.org/Graphics/SVG/1.1/DTD/svg11.dtd">
<svg xmlns:xlink="http://www.w3.org/1999/xlink" width="576pt" height="216pt" viewBox="0 0 576 216" xmlns="http://www.w3.org/2000/svg" version="1.1">
 <metadata>
  <rdf:RDF xmlns:dc="http://purl.org/dc/elements/1.1/" xmlns:cc="http://creativecommons.org/ns#" xmlns:rdf="http://www.w3.org/1999/02/22-rdf-syntax-ns#">
   <cc:Work>
    <dc:type rdf:resource="http://purl.org/dc/dcmitype/StillImage"/>
    <dc:date>2022-12-08T08:10:38.120952</dc:date>
    <dc:format>image/svg+xml</dc:format>
    <dc:creator>
     <cc:Agent>
      <dc:title>Matplotlib v3.5.1, https://matplotlib.org/</dc:title>
     </cc:Agent>
    </dc:creator>
   </cc:Work>
  </rdf:RDF>
 </metadata>
 <defs>
  <style type="text/css">*{stroke-linejoin: round; stroke-linecap: butt}</style>
 </defs>
 <g id="figure_1">
  <g id="patch_1">
   <path d="M 0 216 
L 576 216 
L 576 0 
L 0 0 
L 0 216 
z
" style="fill: none"/>
  </g>
  <g id="axes_1">
   <g id="patch_2">
    <path d="M 51.05 167.2 
L 565.2 167.2 
L 565.2 15.8 
L 51.05 15.8 
z
" style="fill: #ffffff"/>
   </g>
   <g id="PathCollection_1">
    <defs>
     <path id="mbb1c7a9a86" d="M 0 2.236068 
C 0.593012 2.236068 1.161816 2.000462 1.581139 1.581139 
C 2.000462 1.161816 2.236068 0.593012 2.236068 0 
C 2.236068 -0.593012 2.000462 -1.161816 1.581139 -1.581139 
C 1.161816 -2.000462 0.593012 -2.236068 0 -2.236068 
C -0.593012 -2.236068 -1.161816 -2.000462 -1.581139 -1.581139 
C -2.000462 -1.161816 -2.236068 -0.593012 -2.236068 0 
C -2.236068 0.593012 -2.000462 1.161816 -1.581139 1.581139 
C -1.161816 2.000462 -0.593012 2.236068 0 2.236068 
z
" style="stroke: #1f77b4"/>
    </defs>
    <g clip-path="url(#pc705d17749)">
     <use xlink:href="#mbb1c7a9a86" x="91.574359" y="61.22" style="fill: #1f77b4; stroke: #1f77b4"/>
     <use xlink:href="#mbb1c7a9a86" x="93.160194" y="65.762" style="fill: #1f77b4; stroke: #1f77b4"/>
     <use xlink:href="#mbb1c7a9a86" x="93.373491" y="76.36" style="fill: #1f77b4; stroke: #1f77b4"/>
     <use xlink:href="#mbb1c7a9a86" x="95.161135" y="82.416" style="fill: #1f77b4; stroke: #1f77b4"/>
     <use xlink:href="#mbb1c7a9a86" x="108.260377" y="93.014" style="fill: #1f77b4; stroke: #1f77b4"/>
     <use xlink:href="#mbb1c7a9a86" x="109.454327" y="79.388" style="fill: #1f77b4; stroke: #1f77b4"/>
     <use xlink:href="#mbb1c7a9a86" x="113.406603" y="65.762" style="fill: #1f77b4; stroke: #1f77b4"/>
     <use xlink:href="#mbb1c7a9a86" x="125.796828" y="74.846" style="fill: #1f77b4; stroke: #1f77b4"/>
     <use xlink:href="#mbb1c7a9a86" x="131.710404" y="68.79" style="fill: #1f77b4; stroke: #1f77b4"/>
     <use xlink:href="#mbb1c7a9a86" x="131.856072" y="82.416" style="fill: #1f77b4; stroke: #1f77b4"/>
     <use xlink:href="#mbb1c7a9a86" x="135.484124" y="94.528" style="fill: #1f77b4; stroke: #1f77b4"/>
     <use xlink:href="#mbb1c7a9a86" x="140.426059" y="89.986" style="fill: #1f77b4; stroke: #1f77b4"/>
     <use xlink:href="#mbb1c7a9a86" x="147.955506" y="80.902" style="fill: #1f77b4; stroke: #1f77b4"/>
     <use xlink:href="#mbb1c7a9a86" x="171.944057" y="68.79" style="fill: #1f77b4; stroke: #1f77b4"/>
     <use xlink:href="#mbb1c7a9a86" x="178.162823" y="79.388" style="fill: #1f77b4; stroke: #1f77b4"/>
     <use xlink:href="#mbb1c7a9a86" x="190.649115" y="76.36" style="fill: #1f77b4; stroke: #1f77b4"/>
     <use xlink:href="#mbb1c7a9a86" x="202.890391" y="77.874" style="fill: #1f77b4; stroke: #1f77b4"/>
     <use xlink:href="#mbb1c7a9a86" x="216.247965" y="55.164" style="fill: #1f77b4; stroke: #1f77b4"/>
     <use xlink:href="#mbb1c7a9a86" x="224.201188" y="56.678" style="fill: #1f77b4; stroke: #1f77b4"/>
     <use xlink:href="#mbb1c7a9a86" x="227.146403" y="68.79" style="fill: #1f77b4; stroke: #1f77b4"/>
     <use xlink:href="#mbb1c7a9a86" x="238.512044" y="62.734" style="fill: #1f77b4; stroke: #1f77b4"/>
     <use xlink:href="#mbb1c7a9a86" x="242.671419" y="61.22" style="fill: #1f77b4; stroke: #1f77b4"/>
     <use xlink:href="#mbb1c7a9a86" x="247.240236" y="55.164" style="fill: #1f77b4; stroke: #1f77b4"/>
     <use xlink:href="#mbb1c7a9a86" x="253.587525" y="56.678" style="fill: #1f77b4; stroke: #1f77b4"/>
     <use xlink:href="#mbb1c7a9a86" x="254.854923" y="56.678" style="fill: #1f77b4; stroke: #1f77b4"/>
     <use xlink:href="#mbb1c7a9a86" x="255.420096" y="62.734" style="fill: #1f77b4; stroke: #1f77b4"/>
     <use xlink:href="#mbb1c7a9a86" x="255.638175" y="64.248" style="fill: #1f77b4; stroke: #1f77b4"/>
     <use xlink:href="#mbb1c7a9a86" x="284.129461" y="58.192" style="fill: #1f77b4; stroke: #1f77b4"/>
     <use xlink:href="#mbb1c7a9a86" x="288.748944" y="53.65" style="fill: #1f77b4; stroke: #1f77b4"/>
     <use xlink:href="#mbb1c7a9a86" x="289.25039" y="56.678" style="fill: #1f77b4; stroke: #1f77b4"/>
     <use xlink:href="#mbb1c7a9a86" x="291.068046" y="61.22" style="fill: #1f77b4; stroke: #1f77b4"/>
     <use xlink:href="#mbb1c7a9a86" x="294.636345" y="53.65" style="fill: #1f77b4; stroke: #1f77b4"/>
     <use xlink:href="#mbb1c7a9a86" x="311.888597" y="58.192" style="fill: #1f77b4; stroke: #1f77b4"/>
     <use xlink:href="#mbb1c7a9a86" x="400.775325" y="55.164" style="fill: #1f77b4; stroke: #1f77b4"/>
     <use xlink:href="#mbb1c7a9a86" x="428.133724" y="53.65" style="fill: #1f77b4; stroke: #1f77b4"/>
     <use xlink:href="#mbb1c7a9a86" x="527.779663" y="62.734" style="fill: #1f77b4; stroke: #1f77b4"/>
    </g>
   </g>
   <g id="matplotlib.axis_1">
    <g id="xtick_1">
     <g id="line2d_1">
      <defs>
       <path id="m48cc4a5956" d="M 0 0 
L 0 3.5 
" style="stroke: #000000; stroke-width: 0.8"/>
      </defs>
      <g>
       <use xlink:href="#m48cc4a5956" x="51.05" y="167.2" style="stroke: #000000; stroke-width: 0.8"/>
      </g>
     </g>
     <g id="text_1">
      <text style="font: 12px 'sans-serif'; text-anchor: middle" x="51.05" y="183.318125" transform="rotate(-0, 51.05, 183.318125)">0</text>
     </g>
    </g>
    <g id="xtick_2">
     <g id="line2d_2">
      <g>
       <use xlink:href="#m48cc4a5956" x="144.531818" y="167.2" style="stroke: #000000; stroke-width: 0.8"/>
      </g>
     </g>
     <g id="text_2">
      <text style="font: 12px 'sans-serif'; text-anchor: middle" x="144.531818" y="183.318125" transform="rotate(-0, 144.531818, 183.318125)">20000</text>
     </g>
    </g>
    <g id="xtick_3">
     <g id="line2d_3">
      <g>
       <use xlink:href="#m48cc4a5956" x="238.013636" y="167.2" style="stroke: #000000; stroke-width: 0.8"/>
      </g>
     </g>
     <g id="text_3">
      <text style="font: 12px 'sans-serif'; text-anchor: middle" x="238.013636" y="183.318125" transform="rotate(-0, 238.013636, 183.318125)">40000</text>
     </g>
    </g>
    <g id="xtick_4">
     <g id="line2d_4">
      <g>
       <use xlink:href="#m48cc4a5956" x="331.495455" y="167.2" style="stroke: #000000; stroke-width: 0.8"/>
      </g>
     </g>
     <g id="text_4">
      <text style="font: 12px 'sans-serif'; text-anchor: middle" x="331.495455" y="183.318125" transform="rotate(-0, 331.495455, 183.318125)">60000</text>
     </g>
    </g>
    <g id="xtick_5">
     <g id="line2d_5">
      <g>
       <use xlink:href="#m48cc4a5956" x="424.977273" y="167.2" style="stroke: #000000; stroke-width: 0.8"/>
      </g>
     </g>
     <g id="text_5">
      <text style="font: 12px 'sans-serif'; text-anchor: middle" x="424.977273" y="183.318125" transform="rotate(-0, 424.977273, 183.318125)">80000</text>
     </g>
    </g>
    <g id="xtick_6">
     <g id="line2d_6">
      <g>
       <use xlink:href="#m48cc4a5956" x="518.459091" y="167.2" style="stroke: #000000; stroke-width: 0.8"/>
      </g>
     </g>
     <g id="text_6">
      <text style="font: 12px 'sans-serif'; text-anchor: middle" x="518.459091" y="183.318125" transform="rotate(-0, 518.459091, 183.318125)">100000</text>
     </g>
    </g>
    <g id="text_7">
     <text style="font: 14px 'sans-serif'; text-anchor: middle" x="308.125" y="200.451562" transform="rotate(-0, 308.125, 200.451562)">GDP per capita (USD)</text>
    </g>
   </g>
   <g id="matplotlib.axis_2">
    <g id="ytick_1">
     <g id="line2d_7">
      <defs>
       <path id="m555479f7c9" d="M 0 0 
L -3.5 0 
" style="stroke: #000000; stroke-width: 0.8"/>
      </defs>
      <g>
       <use xlink:href="#m555479f7c9" x="51.05" y="167.2" style="stroke: #000000; stroke-width: 0.8"/>
      </g>
     </g>
     <g id="text_8">
      <text style="font: 12px 'sans-serif'; text-anchor: end" x="44.05" y="171.759062" transform="rotate(-0, 44.05, 171.759062)">0</text>
     </g>
    </g>
    <g id="ytick_2">
     <g id="line2d_8">
      <g>
       <use xlink:href="#m555479f7c9" x="51.05" y="136.92" style="stroke: #000000; stroke-width: 0.8"/>
      </g>
     </g>
     <g id="text_9">
      <text style="font: 12px 'sans-serif'; text-anchor: end" x="44.05" y="141.479062" transform="rotate(-0, 44.05, 141.479062)">2</text>
     </g>
    </g>
    <g id="ytick_3">
     <g id="line2d_9">
      <g>
       <use xlink:href="#m555479f7c9" x="51.05" y="106.64" style="stroke: #000000; stroke-width: 0.8"/>
      </g>
     </g>
     <g id="text_10">
      <text style="font: 12px 'sans-serif'; text-anchor: end" x="44.05" y="111.199063" transform="rotate(-0, 44.05, 111.199063)">4</text>
     </g>
    </g>
    <g id="ytick_4">
     <g id="line2d_10">
      <g>
       <use xlink:href="#m555479f7c9" x="51.05" y="76.36" style="stroke: #000000; stroke-width: 0.8"/>
      </g>
     </g>
     <g id="text_11">
      <text style="font: 12px 'sans-serif'; text-anchor: end" x="44.05" y="80.919063" transform="rotate(-0, 44.05, 80.919063)">6</text>
     </g>
    </g>
    <g id="ytick_5">
     <g id="line2d_11">
      <g>
       <use xlink:href="#m555479f7c9" x="51.05" y="46.08" style="stroke: #000000; stroke-width: 0.8"/>
      </g>
     </g>
     <g id="text_12">
      <text style="font: 12px 'sans-serif'; text-anchor: end" x="44.05" y="50.639063" transform="rotate(-0, 44.05, 50.639063)">8</text>
     </g>
    </g>
    <g id="ytick_6">
     <g id="line2d_12">
      <g>
       <use xlink:href="#m555479f7c9" x="51.05" y="15.8" style="stroke: #000000; stroke-width: 0.8"/>
      </g>
     </g>
     <g id="text_13">
      <text style="font: 12px 'sans-serif'; text-anchor: end" x="44.05" y="20.359063" transform="rotate(-0, 44.05, 20.359063)">10</text>
     </g>
    </g>
    <g id="text_14">
     <text style="font: 14px 'sans-serif'; text-anchor: middle" x="21.868438" y="91.5" transform="rotate(-90, 21.868438, 91.5)">Life satisfaction</text>
    </g>
   </g>
   <g id="line2d_13">
    <path d="M 51.05 21.620247 
L 54.652653 27.994683 
L 58.255305 33.913645 
L 61.857958 39.395051 
L 65.460611 44.456567 
L 69.063263 49.1156 
L 72.665916 53.389288 
L 76.268569 57.294492 
L 79.871221 60.84779 
L 83.473874 64.06547 
L 87.076527 66.963521 
L 90.679179 69.557627 
L 94.281832 71.863161 
L 97.884484 73.895181 
L 101.487137 75.66842 
L 105.08979 77.197283 
L 108.692442 78.495845 
L 112.295095 79.57784 
L 116.412412 80.566386 
L 120.52973 81.30899 
L 124.647047 81.824491 
L 128.764364 82.131126 
L 133.396346 82.248354 
L 138.028328 82.147692 
L 143.174975 81.808448 
L 148.836286 81.193768 
L 155.012262 80.278146 
L 161.702903 79.050088 
L 169.422873 77.397734 
L 179.201502 75.05741 
L 196.7001 70.579308 
L 211.625375 66.863777 
L 221.918669 64.523104 
L 231.182633 62.637889 
L 239.931932 61.082415 
L 248.166567 59.834846 
L 256.401201 58.804491 
L 264.635836 57.991262 
L 273.385135 57.357475 
L 282.134434 56.945589 
L 291.398398 56.72634 
L 301.691692 56.703621 
L 314.043644 56.907232 
L 334.115566 57.505106 
L 352.643493 57.975231 
L 364.480781 58.054575 
L 374.774074 57.904242 
L 384.038038 57.557062 
L 393.302002 56.987651 
L 402.565966 56.187751 
L 411.82993 55.163636 
L 422.123223 53.791683 
L 434.475175 51.905788 
L 458.14975 48.232116 
L 465.86972 47.286214 
L 472.56036 46.692428 
L 478.221672 46.414053 
L 483.368318 46.386217 
L 488.0003 46.581854 
L 492.117618 46.96029 
L 496.234935 47.55846 
L 499.837588 48.284049 
L 503.44024 49.219136 
L 507.042893 50.384703 
L 510.645546 51.802866 
L 513.733534 53.237097 
L 516.821522 54.889353 
L 519.90951 56.775656 
L 522.997497 58.912702 
L 526.085485 61.317876 
L 529.173473 64.009271 
L 532.261461 67.0057 
L 535.349449 70.326712 
L 538.437437 73.992611 
L 541.525425 78.024464 
L 544.613413 82.444125 
L 547.701401 87.274246 
L 550.789389 92.538295 
L 553.877377 98.260572 
L 556.965365 104.466223 
L 560.053353 111.18126 
L 563.141341 118.432577 
L 565.2 123.578407 
L 565.2 123.578407 
" clip-path="url(#pc705d17749)" style="fill: none; stroke: #1f77b4; stroke-width: 1.5; stroke-linecap: square"/>
   </g>
   <g id="patch_3">
    <path d="M 51.05 167.2 
L 51.05 15.8 
" style="fill: none; stroke: #000000; stroke-width: 0.8; stroke-linejoin: miter; stroke-linecap: square"/>
   </g>
   <g id="patch_4">
    <path d="M 565.2 167.2 
L 565.2 15.8 
" style="fill: none; stroke: #000000; stroke-width: 0.8; stroke-linejoin: miter; stroke-linecap: square"/>
   </g>
   <g id="patch_5">
    <path d="M 51.05 167.2 
L 565.2 167.2 
" style="fill: none; stroke: #000000; stroke-width: 0.8; stroke-linejoin: miter; stroke-linecap: square"/>
   </g>
   <g id="patch_6">
    <path d="M 51.05 15.8 
L 565.2 15.8 
" style="fill: none; stroke: #000000; stroke-width: 0.8; stroke-linejoin: miter; stroke-linecap: square"/>
   </g>
  </g>
 </g>
 <defs>
  <clipPath id="pc705d17749">
   <rect x="51.05" y="15.8" width="514.15" height="151.4"/>
  </clipPath>
 </defs>
</svg>
