<?xml version="1.0" encoding="utf-8" standalone="no"?>
<!DOCTYPE svg PUBLIC "-//W3C//DTD SVG 1.1//EN"
  "http://www.w3.org/Graphics/SVG/1.1/DTD/svg11.dtd">
<svg xmlns:xlink="http://www.w3.org/1999/xlink" width="576pt" height="216pt" viewBox="0 0 576 216" xmlns="http://www.w3.org/2000/svg" version="1.1">
 <metadata>
  <rdf:RDF xmlns:dc="http://purl.org/dc/elements/1.1/" xmlns:cc="http://creativecommons.org/ns#" xmlns:rdf="http://www.w3.org/1999/02/22-rdf-syntax-ns#">
   <cc:Work>
    <dc:type rdf:resource="http://purl.org/dc/dcmitype/StillImage"/>
    <dc:date>2022-12-08T08:10:37.560128</dc:date>
    <dc:format>image/svg+xml</dc:format>
    <dc:creator>
     <cc:Agent>
      <dc:title>Matplotlib v3.5.1, https://matplotlib.org/</dc:title>
     </cc:Agent>
    </dc:creator>
   </cc:Work>
  </rdf:RDF>
 </metadata>
 <defs>
  <style type="text/css">*{stroke-linejoin: round; stroke-linecap: butt}</style>
 </defs>
 <g id="figure_1">
  <g id="patch_1">
   <path d="M 0 216 
L 576 216 
L 576 0 
L 0 0 
L 0 216 
z
" style="fill: none"/>
  </g>
  <g id="axes_1">
   <g id="patch_2">
    <path d="M 51.05 167.2 
L 565.2 167.2 
L 565.2 15.8 
L 51.05 15.8 
z
" style="fill: #ffffff"/>
   </g>
   <g id="PathCollection_1">
    <defs>
     <path id="m532e49cb17" d="M 0 2.236068 
C 0.593012 2.236068 1.161816 2.000462 1.581139 1.581139 
C 2.000462 1.161816 2.236068 0.593012 2.236068 0 
C 2.236068 -0.593012 2.000462 -1.161816 1.581139 -1.581139 
C 1.161816 -2.000462 0.593012 -2.236068 0 -2.236068 
C -0.593012 -2.236068 -1.161816 -2.000462 -1.581139 -1.581139 
C -2.000462 -1.161816 -2.236068 -0.593012 -2.236068 0 
C -2.236068 0.593012 -2.000462 1.161816 -1.581139 1.581139 
C -1.161816 2.000462 -0.593012 2.236068 0 2.236068 
z
" style="stroke: #1f77b4"/>
    </defs>
    <g clip-path="url(#pfd36d6fbb0)">
     <use xlink:href="#m532e49cb17" x="93.373491" y="76.36" style="fill: #1f77b4; stroke: #1f77b4"/>
     <use xlink:href="#m532e49cb17" x="95.161135" y="82.416" style="fill: #1f77b4; stroke: #1f77b4"/>
     <use xlink:href="#m532e49cb17" x="108.260377" y="93.014" style="fill: #1f77b4; stroke: #1f77b4"/>
     <use xlink:href="#m532e49cb17" x="109.454327" y="79.388" style="fill: #1f77b4; stroke: #1f77b4"/>
     <use xlink:href="#m532e49cb17" x="125.796828" y="74.846" style="fill: #1f77b4; stroke: #1f77b4"/>
     <use xlink:href="#m532e49cb17" x="131.856072" y="82.416" style="fill: #1f77b4; stroke: #1f77b4"/>
     <use xlink:href="#m532e49cb17" x="135.484124" y="94.528" style="fill: #1f77b4; stroke: #1f77b4"/>
     <use xlink:href="#m532e49cb17" x="140.426059" y="89.986" style="fill: #1f77b4; stroke: #1f77b4"/>
     <use xlink:href="#m532e49cb17" x="147.955506" y="80.902" style="fill: #1f77b4; stroke: #1f77b4"/>
     <use xlink:href="#m532e49cb17" x="171.944057" y="68.79" style="fill: #1f77b4; stroke: #1f77b4"/>
     <use xlink:href="#m532e49cb17" x="178.162823" y="79.388" style="fill: #1f77b4; stroke: #1f77b4"/>
     <use xlink:href="#m532e49cb17" x="190.649115" y="76.36" style="fill: #1f77b4; stroke: #1f77b4"/>
     <use xlink:href="#m532e49cb17" x="202.890391" y="77.874" style="fill: #1f77b4; stroke: #1f77b4"/>
     <use xlink:href="#m532e49cb17" x="216.247965" y="55.164" style="fill: #1f77b4; stroke: #1f77b4"/>
     <use xlink:href="#m532e49cb17" x="224.201188" y="56.678" style="fill: #1f77b4; stroke: #1f77b4"/>
     <use xlink:href="#m532e49cb17" x="227.146403" y="68.79" style="fill: #1f77b4; stroke: #1f77b4"/>
     <use xlink:href="#m532e49cb17" x="238.512044" y="62.734" style="fill: #1f77b4; stroke: #1f77b4"/>
     <use xlink:href="#m532e49cb17" x="242.671419" y="61.22" style="fill: #1f77b4; stroke: #1f77b4"/>
     <use xlink:href="#m532e49cb17" x="247.240236" y="55.164" style="fill: #1f77b4; stroke: #1f77b4"/>
     <use xlink:href="#m532e49cb17" x="253.587525" y="56.678" style="fill: #1f77b4; stroke: #1f77b4"/>
     <use xlink:href="#m532e49cb17" x="254.854923" y="56.678" style="fill: #1f77b4; stroke: #1f77b4"/>
     <use xlink:href="#m532e49cb17" x="255.420096" y="62.734" style="fill: #1f77b4; stroke: #1f77b4"/>
     <use xlink:href="#m532e49cb17" x="255.638175" y="64.248" style="fill: #1f77b4; stroke: #1f77b4"/>
     <use xlink:href="#m532e49cb17" x="284.129461" y="58.192" style="fill: #1f77b4; stroke: #1f77b4"/>
     <use xlink:href="#m532e49cb17" x="288.748944" y="53.65" style="fill: #1f77b4; stroke: #1f77b4"/>
     <use xlink:href="#m532e49cb17" x="289.25039" y="56.678" style="fill: #1f77b4; stroke: #1f77b4"/>
     <use xlink:href="#m532e49cb17" x="291.068046" y="61.22" style="fill: #1f77b4; stroke: #1f77b4"/>
     <use xlink:href="#m532e49cb17" x="294.636345" y="53.65" style="fill: #1f77b4; stroke: #1f77b4"/>
     <use xlink:href="#m532e49cb17" x="311.888597" y="58.192" style="fill: #1f77b4; stroke: #1f77b4"/>
    </g>
   </g>
   <g id="matplotlib.axis_1">
    <g id="xtick_1">
     <g id="line2d_1">
      <defs>
       <path id="mf20a774e8c" d="M 0 0 
L 0 3.5 
" style="stroke: #000000; stroke-width: 0.8"/>
      </defs>
      <g>
       <use xlink:href="#mf20a774e8c" x="51.05" y="167.2" style="stroke: #000000; stroke-width: 0.8"/>
      </g>
     </g>
     <g id="text_1">
      <text style="font: 12px 'sans-serif'; text-anchor: middle" x="51.05" y="183.318125" transform="rotate(-0, 51.05, 183.318125)">0</text>
     </g>
    </g>
    <g id="xtick_2">
     <g id="line2d_2">
      <g>
       <use xlink:href="#mf20a774e8c" x="144.531818" y="167.2" style="stroke: #000000; stroke-width: 0.8"/>
      </g>
     </g>
     <g id="text_2">
      <text style="font: 12px 'sans-serif'; text-anchor: middle" x="144.531818" y="183.318125" transform="rotate(-0, 144.531818, 183.318125)">20000</text>
     </g>
    </g>
    <g id="xtick_3">
     <g id="line2d_3">
      <g>
       <use xlink:href="#mf20a774e8c" x="238.013636" y="167.2" style="stroke: #000000; stroke-width: 0.8"/>
      </g>
     </g>
     <g id="text_3">
      <text style="font: 12px 'sans-serif'; text-anchor: middle" x="238.013636" y="183.318125" transform="rotate(-0, 238.013636, 183.318125)">40000</text>
     </g>
    </g>
    <g id="xtick_4">
     <g id="line2d_4">
      <g>
       <use xlink:href="#mf20a774e8c" x="331.495455" y="167.2" style="stroke: #000000; stroke-width: 0.8"/>
      </g>
     </g>
     <g id="text_4">
      <text style="font: 12px 'sans-serif'; text-anchor: middle" x="331.495455" y="183.318125" transform="rotate(-0, 331.495455, 183.318125)">60000</text>
     </g>
    </g>
    <g id="xtick_5">
     <g id="line2d_5">
      <g>
       <use xlink:href="#mf20a774e8c" x="424.977273" y="167.2" style="stroke: #000000; stroke-width: 0.8"/>
      </g>
     </g>
     <g id="text_5">
      <text style="font: 12px 'sans-serif'; text-anchor: middle" x="424.977273" y="183.318125" transform="rotate(-0, 424.977273, 183.318125)">80000</text>
     </g>
    </g>
    <g id="xtick_6">
     <g id="line2d_6">
      <g>
       <use xlink:href="#mf20a774e8c" x="518.459091" y="167.2" style="stroke: #000000; stroke-width: 0.8"/>
      </g>
     </g>
     <g id="text_6">
      <text style="font: 12px 'sans-serif'; text-anchor: middle" x="518.459091" y="183.318125" transform="rotate(-0, 518.459091, 183.318125)">100000</text>
     </g>
    </g>
    <g id="text_7">
     <text style="font: 14px 'sans-serif'; text-anchor: middle" x="308.125" y="200.451562" transform="rotate(-0, 308.125, 200.451562)">GDP per capita (USD)</text>
    </g>
   </g>
   <g id="matplotlib.axis_2">
    <g id="ytick_1">
     <g id="line2d_7">
      <defs>
       <path id="m3e99fe314e" d="M 0 0 
L -3.5 0 
" style="stroke: #000000; stroke-width: 0.8"/>
      </defs>
      <g>
       <use xlink:href="#m3e99fe314e" x="51.05" y="167.2" style="stroke: #000000; stroke-width: 0.8"/>
      </g>
     </g>
     <g id="text_8">
      <text style="font: 12px 'sans-serif'; text-anchor: end" x="44.05" y="171.759062" transform="rotate(-0, 44.05, 171.759062)">0</text>
     </g>
    </g>
    <g id="ytick_2">
     <g id="line2d_8">
      <g>
       <use xlink:href="#m3e99fe314e" x="51.05" y="136.92" style="stroke: #000000; stroke-width: 0.8"/>
      </g>
     </g>
     <g id="text_9">
      <text style="font: 12px 'sans-serif'; text-anchor: end" x="44.05" y="141.479062" transform="rotate(-0, 44.05, 141.479062)">2</text>
     </g>
    </g>
    <g id="ytick_3">
     <g id="line2d_9">
      <g>
       <use xlink:href="#m3e99fe314e" x="51.05" y="106.64" style="stroke: #000000; stroke-width: 0.8"/>
      </g>
     </g>
     <g id="text_10">
      <text style="font: 12px 'sans-serif'; text-anchor: end" x="44.05" y="111.199063" transform="rotate(-0, 44.05, 111.199063)">4</text>
     </g>
    </g>
    <g id="ytick_4">
     <g id="line2d_10">
      <g>
       <use xlink:href="#m3e99fe314e" x="51.05" y="76.36" style="stroke: #000000; stroke-width: 0.8"/>
      </g>
     </g>
     <g id="text_11">
      <text style="font: 12px 'sans-serif'; text-anchor: end" x="44.05" y="80.919063" transform="rotate(-0, 44.05, 80.919063)">6</text>
     </g>
    </g>
    <g id="ytick_5">
     <g id="line2d_11">
      <g>
       <use xlink:href="#m3e99fe314e" x="51.05" y="46.08" style="stroke: #000000; stroke-width: 0.8"/>
      </g>
     </g>
     <g id="text_12">
      <text style="font: 12px 'sans-serif'; text-anchor: end" x="44.05" y="50.639063" transform="rotate(-0, 44.05, 50.639063)">8</text>
     </g>
    </g>
    <g id="ytick_6">
     <g id="line2d_12">
      <g>
       <use xlink:href="#m3e99fe314e" x="51.05" y="15.8" style="stroke: #000000; stroke-width: 0.8"/>
      </g>
     </g>
     <g id="text_13">
      <text style="font: 12px 'sans-serif'; text-anchor: end" x="44.05" y="20.359063" transform="rotate(-0, 44.05, 20.359063)">10</text>
     </g>
    </g>
    <g id="text_14">
     <text style="font: 14px 'sans-serif'; text-anchor: middle" x="21.868438" y="91.5" transform="rotate(-90, 21.868438, 91.5)">Life satisfaction</text>
    </g>
   </g>
   <g id="line2d_13">
    <defs>
     <path id="m3cf9232637" d="M -3 3 
L 3 3 
L 3 -3 
L -3 -3 
z
" style="stroke: #ff0000; stroke-linejoin: miter"/>
    </defs>
    <g clip-path="url(#pfd36d6fbb0)">
     <use xlink:href="#m3cf9232637" x="91.574359" y="61.22" style="fill: #ff0000; stroke: #ff0000; stroke-linejoin: miter"/>
    </g>
   </g>
   <g id="line2d_14">
    <g clip-path="url(#pfd36d6fbb0)">
     <use xlink:href="#m3cf9232637" x="93.160194" y="65.762" style="fill: #ff0000; stroke: #ff0000; stroke-linejoin: miter"/>
    </g>
   </g>
   <g id="line2d_15">
    <g clip-path="url(#pfd36d6fbb0)">
     <use xlink:href="#m3cf9232637" x="113.406603" y="65.762" style="fill: #ff0000; stroke: #ff0000; stroke-linejoin: miter"/>
    </g>
   </g>
   <g id="line2d_16">
    <g clip-path="url(#pfd36d6fbb0)">
     <use xlink:href="#m3cf9232637" x="131.710404" y="68.79" style="fill: #ff0000; stroke: #ff0000; stroke-linejoin: miter"/>
    </g>
   </g>
   <g id="line2d_17">
    <g clip-path="url(#pfd36d6fbb0)">
     <use xlink:href="#m3cf9232637" x="400.775325" y="55.164" style="fill: #ff0000; stroke: #ff0000; stroke-linejoin: miter"/>
    </g>
   </g>
   <g id="line2d_18">
    <g clip-path="url(#pfd36d6fbb0)">
     <use xlink:href="#m3cf9232637" x="428.133724" y="53.65" style="fill: #ff0000; stroke: #ff0000; stroke-linejoin: miter"/>
    </g>
   </g>
   <g id="line2d_19">
    <g clip-path="url(#pfd36d6fbb0)">
     <use xlink:href="#m3cf9232637" x="527.779663" y="62.734" style="fill: #ff0000; stroke: #ff0000; stroke-linejoin: miter"/>
    </g>
   </g>
   <g id="line2d_20">
    <path d="M 51.05 93.724781 
L 565.2 11.927917 
L 565.2 11.927917 
" clip-path="url(#pfd36d6fbb0)" style="fill: none; stroke-dasharray: 1.5,2.475; stroke-dashoffset: 0; stroke: #0000ff; stroke-width: 1.5"/>
   </g>
   <g id="line2d_21">
    <path d="M 51.05 79.947728 
L 565.2 41.348191 
L 565.2 41.348191 
" clip-path="url(#pfd36d6fbb0)" style="fill: none; stroke: #000000; stroke-width: 1.5; stroke-linecap: square"/>
   </g>
   <g id="patch_3">
    <path d="M 51.05 167.2 
L 51.05 15.8 
" style="fill: none; stroke: #000000; stroke-width: 0.8; stroke-linejoin: miter; stroke-linecap: square"/>
   </g>
   <g id="patch_4">
    <path d="M 565.2 167.2 
L 565.2 15.8 
" style="fill: none; stroke: #000000; stroke-width: 0.8; stroke-linejoin: miter; stroke-linecap: square"/>
   </g>
   <g id="patch_5">
    <path d="M 51.05 167.2 
L 565.2 167.2 
" style="fill: none; stroke: #000000; stroke-width: 0.8; stroke-linejoin: miter; stroke-linecap: square"/>
   </g>
   <g id="patch_6">
    <path d="M 51.05 15.8 
L 565.2 15.8 
" style="fill: none; stroke: #000000; stroke-width: 0.8; stroke-linejoin: miter; stroke-linecap: square"/>
   </g>
   <g id="patch_7">
    <path d="M 85.226828 37.769615 
Q 86.496828 42.277077 87.766828 46.784538 
L 89.932508 46.174347 
Q 90.356551 52.288567 90.780595 58.402787 
Q 87.950241 52.966557 85.119887 47.530328 
L 87.285566 46.920136 
Q 86.015566 42.412675 84.745566 37.905213 
L 85.226828 37.769615 
z
" style="stroke: #000000; stroke-linecap: round"/>
   </g>
   <g id="text_15">
    <text style="font: 10px 'sans-serif'; text-anchor: start" x="55.724091" y="30.94" transform="rotate(-0, 55.724091, 30.94)">Brazil</text>
   </g>
   <g id="patch_8">
    <path d="M 101.205476 38.366325 
Q 99.408524 44.689549 97.611571 51.012773 
L 99.775874 51.62783 
Q 96.933445 57.057199 94.091016 62.486568 
Q 94.528664 56.373801 94.966313 50.261035 
L 97.130615 50.876093 
Q 98.927568 44.552869 100.72452 38.229646 
L 101.205476 38.366325 
z
" style="stroke: #000000; stroke-linecap: round"/>
   </g>
   <g id="text_16">
    <text style="font: 10px 'sans-serif'; text-anchor: start" x="102.465" y="30.94" transform="rotate(-0, 102.465, 30.94)">Mexico</text>
   </g>
   <g id="patch_9">
    <path d="M 160.581765 37.709679 
Q 144.924936 47.116679 129.268108 56.523679 
L 130.426892 58.452336 
Q 124.640351 60.470762 118.85381 62.489187 
Q 123.352813 58.327809 127.851817 54.166431 
L 129.010601 56.095088 
Q 144.667429 46.688088 160.324257 37.281088 
L 160.581765 37.709679 
z
" style="stroke: #000000; stroke-linecap: round"/>
   </g>
   <g id="text_17">
    <text style="font: 10px 'sans-serif'; text-anchor: start" x="167.902273" y="30.94" transform="rotate(-0, 167.902273, 30.94)">Chile</text>
   </g>
   <g id="patch_10">
    <path d="M 204.449084 37.688838 
Q 177.784859 49.18957 151.120634 60.690302 
L 152.011742 62.756319 
Q 146.008681 63.984226 140.00562 65.212133 
Q 145.018561 61.688651 150.031502 58.16517 
L 150.92261 60.231187 
Q 177.586835 48.730455 204.25106 37.229723 
L 204.449084 37.688838 
z
" style="stroke: #000000; stroke-linecap: round"/>
   </g>
   <g id="text_18">
    <text style="font: 10px 'sans-serif'; text-anchor: start" x="214.643182" y="30.94" transform="rotate(-0, 214.643182, 30.94)">Czech Republic</text>
   </g>
   <g id="patch_11">
    <path d="M 373.405189 106.166297 
Q 382.599484 88.854339 391.793778 71.542382 
L 389.80664 70.487022 
Q 393.724228 65.775557 397.641817 61.064091 
Q 395.93216 66.948178 394.222502 72.832265 
L 392.235364 71.776906 
Q 383.04107 89.088864 373.846775 106.400821 
L 373.405189 106.166297 
z
" style="stroke: #000000; stroke-linecap: round"/>
   </g>
   <g id="text_19">
    <text style="font: 10px 'sans-serif'; text-anchor: start" x="331.495455" y="121.78" transform="rotate(-0, 331.495455, 121.78)">Norway</text>
   </g>
   <g id="patch_12">
    <path d="M 418.01848 106.081113 
Q 421.275523 88.76311 424.532567 71.445107 
L 422.321334 71.029234 
Q 424.658572 65.364814 426.99581 59.700394 
Q 427.115497 65.826895 427.235185 71.953395 
L 425.023952 71.537523 
Q 421.766908 88.855526 418.509865 106.173529 
L 418.01848 106.081113 
z
" style="stroke: #000000; stroke-linecap: round"/>
   </g>
   <g id="text_20">
    <text style="font: 10px 'sans-serif'; text-anchor: start" x="387.584545" y="121.78" transform="rotate(-0, 387.584545, 121.78)">Switzerland</text>
   </g>
   <g id="patch_13">
    <path d="M 532.923675 107.065787 
Q 531.265915 93.445804 529.608154 79.825821 
L 527.374638 80.097675 
Q 527.890301 73.988649 528.405964 67.879624 
Q 530.371986 73.68659 532.338008 79.493556 
L 530.104491 79.76541 
Q 531.762252 93.385392 533.420012 107.005375 
L 532.923675 107.065787 
z
" style="stroke: #000000; stroke-linecap: round"/>
   </g>
   <g id="text_21">
    <text style="font: 10px 'sans-serif'; text-anchor: start" x="471.718182" y="121.78" transform="rotate(-0, 471.718182, 121.78)">Luxembourg</text>
   </g>
  </g>
 </g>
 <defs>
  <clipPath id="pfd36d6fbb0">
   <rect x="51.05" y="15.8" width="514.15" height="151.4"/>
  </clipPath>
 </defs>
</svg>
