<?xml version="1.0" encoding="utf-8" standalone="no"?>
<!DOCTYPE svg PUBLIC "-//W3C//DTD SVG 1.1//EN"
  "http://www.w3.org/Graphics/SVG/1.1/DTD/svg11.dtd">
<!-- Created with matplotlib (https://matplotlib.org/) -->
<svg height="288pt" version="1.1" viewBox="0 0 576 288" width="576pt" xmlns="http://www.w3.org/2000/svg" xmlns:xlink="http://www.w3.org/1999/xlink">
 <defs>
  <style type="text/css">
*{stroke-linecap:butt;stroke-linejoin:round;}
  </style>
 </defs>
 <g id="figure_1">
  <g id="patch_1">
   <path d="M 0 288 
L 576 288 
L 576 0 
L 0 0 
z
" style="fill:none;"/>
  </g>
  <g id="axes_1">
   <g id="patch_2">
    <path d="M 54.8 239.2 
L 565.2 239.2 
L 565.2 15.8 
L 54.8 15.8 
z
" style="fill:none;"/>
   </g>
   <g id="PathCollection_1">
    <path clip-path="url(#p2d35fa91d9)" d="M 59.955556 239.2 
L 65.111111 239.2 
L 70.266667 239.2 
L 75.422222 239.2 
L 80.577778 239.2 
L 85.733333 239.2 
L 90.888889 239.2 
L 96.044444 239.2 
L 101.2 239.2 
L 106.355556 239.2 
L 111.511111 239.2 
L 116.666667 239.2 
L 121.822222 239.2 
L 126.977778 239.2 
L 132.133333 239.2 
L 137.288889 239.2 
L 142.444444 239.2 
L 147.6 239.2 
L 152.755556 239.2 
L 157.911111 239.2 
L 163.066667 239.2 
L 168.222222 239.2 
L 173.377778 239.2 
L 178.533333 239.2 
L 183.688889 239.2 
L 188.844444 239.2 
L 194 239.2 
L 199.155556 239.2 
L 204.311111 239.2 
L 209.466667 239.2 
L 214.622222 239.2 
L 219.777778 239.2 
L 224.933333 239.2 
L 230.088889 239.2 
L 235.244444 239.2 
L 240.4 239.2 
L 245.555556 239.2 
L 250.711111 239.2 
L 255.866667 239.2 
L 261.022222 239.2 
L 266.177778 239.2 
L 271.333333 239.2 
L 276.488889 239.2 
L 281.644444 239.2 
L 286.8 239.2 
L 291.955556 239.2 
L 297.111111 239.2 
L 302.266667 239.2 
L 307.422222 239.2 
L 312.577778 239.2 
L 317.733333 239.2 
L 322.888889 239.2 
L 328.044444 239.2 
L 333.2 239.2 
L 338.355556 239.2 
L 343.511111 239.2 
L 348.666667 239.2 
L 353.822222 239.2 
L 358.977778 239.2 
L 364.133333 239.2 
L 369.288889 239.2 
L 374.444444 239.2 
L 379.6 239.2 
L 384.755556 239.2 
L 389.911111 239.2 
L 395.066667 239.2 
L 400.222222 239.2 
L 405.377778 239.2 
L 410.533333 239.2 
L 415.688889 239.2 
L 420.844444 239.2 
L 426 239.2 
L 431.155556 239.2 
L 436.311111 239.2 
L 441.466667 239.2 
L 446.622222 239.2 
L 451.777778 239.2 
L 456.933333 239.2 
L 462.088889 239.2 
L 467.244444 239.2 
L 472.4 239.2 
L 477.555556 239.2 
L 482.711111 239.2 
L 487.866667 239.2 
L 493.022222 239.2 
L 498.177778 239.2 
L 503.333333 239.2 
L 508.488889 239.2 
L 513.644444 239.2 
L 518.8 239.2 
L 523.955556 239.2 
L 529.111111 239.2 
L 534.266667 239.2 
L 539.422222 239.2 
L 544.577778 239.2 
L 549.733333 239.2 
L 554.888889 239.2 
L 560.044444 239.2 
L 565.2 239.2 
L 565.2 236.943434 
L 565.2 234.686869 
L 565.2 232.430303 
L 565.2 230.173737 
L 565.2 227.917172 
L 565.2 225.660606 
L 565.2 223.40404 
L 565.2 221.147475 
L 565.2 218.890909 
L 565.2 216.634343 
L 565.2 214.377778 
L 565.2 212.121212 
L 565.2 209.864646 
L 565.2 207.608081 
L 565.2 205.351515 
L 565.2 203.094949 
L 565.2 200.838384 
L 565.2 198.581818 
L 565.2 196.325253 
L 565.2 194.068687 
L 565.2 191.812121 
L 565.2 189.555556 
L 565.2 187.29899 
L 565.2 185.042424 
L 565.2 182.785859 
L 565.2 180.529293 
L 565.2 179.965152 
L 560.044444 179.965152 
L 554.888889 179.965152 
L 549.733333 179.965152 
L 544.577778 179.965152 
L 539.422222 179.965152 
L 534.266667 179.965152 
L 529.111111 179.965152 
L 523.955556 179.965152 
L 518.8 179.965152 
L 513.644444 179.965152 
L 508.488889 179.965152 
L 503.333333 179.965152 
L 498.177778 179.965152 
L 493.022222 179.965152 
L 487.866667 179.965152 
L 482.711111 179.965152 
L 477.555556 179.965152 
L 472.4 179.965152 
L 467.244444 179.965152 
L 462.088889 179.965152 
L 456.933333 179.965152 
L 451.777778 179.965152 
L 446.622222 179.965152 
L 441.466667 179.965152 
L 436.311111 179.965152 
L 431.155556 179.965152 
L 426 179.965152 
L 420.844444 179.965152 
L 415.688889 179.965152 
L 410.533333 179.965152 
L 405.377778 179.965152 
L 400.222222 179.965152 
L 395.066667 179.965152 
L 389.911111 179.965152 
L 384.755556 179.965152 
L 379.6 179.965152 
L 374.444444 179.965152 
L 369.288889 179.965152 
L 364.133333 179.965152 
L 358.977778 179.965152 
L 353.822222 179.965152 
L 348.666667 179.965152 
L 343.511111 179.965152 
L 338.355556 179.965152 
L 333.2 179.965152 
L 328.044444 179.965152 
L 322.888889 179.965152 
L 317.733333 179.965152 
L 312.577778 179.965152 
L 307.422222 179.965152 
L 302.266667 179.965152 
L 297.111111 179.965152 
L 291.955556 179.965152 
L 286.8 179.965152 
L 281.644444 179.965152 
L 276.488889 179.965152 
L 271.333333 179.965152 
L 266.177778 179.965152 
L 261.022222 179.965152 
L 255.866667 179.965152 
L 250.711111 179.965152 
L 245.555556 179.965152 
L 240.4 179.965152 
L 235.244444 179.965152 
L 230.088889 179.965152 
L 224.933333 179.965152 
L 219.777778 179.965152 
L 214.622222 179.965152 
L 209.466667 179.965152 
L 204.311111 179.965152 
L 199.155556 179.965152 
L 194 179.965152 
L 188.844444 179.965152 
L 183.688889 179.965152 
L 178.533333 179.965152 
L 173.377778 179.965152 
L 168.222222 179.965152 
L 163.066667 179.965152 
L 157.911111 179.965152 
L 152.755556 179.965152 
L 147.6 179.965152 
L 142.444444 179.965152 
L 137.288889 179.965152 
L 132.133333 179.965152 
L 126.977778 179.965152 
L 121.822222 179.965152 
L 116.666667 179.965152 
L 111.511111 179.965152 
L 106.355556 179.965152 
L 101.2 179.965152 
L 96.044444 179.965152 
L 90.888889 179.965152 
L 85.733333 179.965152 
L 80.577778 179.965152 
L 75.422222 179.965152 
L 70.266667 179.965152 
L 65.111111 179.965152 
L 59.955556 179.965152 
L 54.8 179.965152 
L 54.8 180.529293 
L 54.8 182.785859 
L 54.8 185.042424 
L 54.8 187.29899 
L 54.8 189.555556 
L 54.8 191.812121 
L 54.8 194.068687 
L 54.8 196.325253 
L 54.8 198.581818 
L 54.8 200.838384 
L 54.8 203.094949 
L 54.8 205.351515 
L 54.8 207.608081 
L 54.8 209.864646 
L 54.8 212.121212 
L 54.8 214.377778 
L 54.8 216.634343 
L 54.8 218.890909 
L 54.8 221.147475 
L 54.8 223.40404 
L 54.8 225.660606 
L 54.8 227.917172 
L 54.8 230.173737 
L 54.8 232.430303 
L 54.8 234.686869 
L 54.8 236.943434 
L 54.8 239.2 
z
" style="fill:#fafab0;fill-opacity:0.3;"/>
   </g>
   <g id="PathCollection_2">
    <path clip-path="url(#p2d35fa91d9)" d="M 59.955556 179.965152 
L 65.111111 179.965152 
L 70.266667 179.965152 
L 75.422222 179.965152 
L 80.577778 179.965152 
L 85.733333 179.965152 
L 90.888889 179.965152 
L 96.044444 179.965152 
L 101.2 179.965152 
L 106.355556 179.965152 
L 111.511111 179.965152 
L 116.666667 179.965152 
L 121.822222 179.965152 
L 126.977778 179.965152 
L 132.133333 179.965152 
L 137.288889 179.965152 
L 142.444444 179.965152 
L 147.6 179.965152 
L 152.755556 179.965152 
L 157.911111 179.965152 
L 163.066667 179.965152 
L 168.222222 179.965152 
L 173.377778 179.965152 
L 178.533333 179.965152 
L 183.688889 179.965152 
L 188.844444 179.965152 
L 194 179.965152 
L 199.155556 179.965152 
L 204.311111 179.965152 
L 209.466667 179.965152 
L 214.622222 179.965152 
L 219.777778 179.965152 
L 224.933333 179.965152 
L 230.088889 179.965152 
L 235.244444 179.965152 
L 240.4 179.965152 
L 245.555556 179.965152 
L 250.711111 179.965152 
L 255.866667 179.965152 
L 261.022222 179.965152 
L 266.177778 179.965152 
L 271.333333 179.965152 
L 276.488889 179.965152 
L 281.644444 179.965152 
L 286.8 179.965152 
L 291.955556 179.965152 
L 297.111111 179.965152 
L 302.266667 179.965152 
L 307.422222 179.965152 
L 312.577778 179.965152 
L 317.733333 179.965152 
L 322.888889 179.965152 
L 328.044444 179.965152 
L 333.2 179.965152 
L 338.355556 179.965152 
L 343.511111 179.965152 
L 348.666667 179.965152 
L 353.822222 179.965152 
L 358.977778 179.965152 
L 364.133333 179.965152 
L 369.288889 179.965152 
L 374.444444 179.965152 
L 379.6 179.965152 
L 384.755556 179.965152 
L 389.911111 179.965152 
L 395.066667 179.965152 
L 400.222222 179.965152 
L 405.377778 179.965152 
L 410.533333 179.965152 
L 415.688889 179.965152 
L 420.844444 179.965152 
L 426 179.965152 
L 431.155556 179.965152 
L 436.311111 179.965152 
L 441.466667 179.965152 
L 446.622222 179.965152 
L 451.777778 179.965152 
L 456.933333 179.965152 
L 462.088889 179.965152 
L 467.244444 179.965152 
L 472.4 179.965152 
L 477.555556 179.965152 
L 482.711111 179.965152 
L 487.866667 179.965152 
L 493.022222 179.965152 
L 498.177778 179.965152 
L 503.333333 179.965152 
L 508.488889 179.965152 
L 513.644444 179.965152 
L 518.8 179.965152 
L 523.955556 179.965152 
L 529.111111 179.965152 
L 534.266667 179.965152 
L 539.422222 179.965152 
L 544.577778 179.965152 
L 549.733333 179.965152 
L 554.888889 179.965152 
L 560.044444 179.965152 
L 565.2 179.965152 
L 565.2 179.40101 
L 560.044444 179.40101 
L 554.888889 179.40101 
L 549.733333 179.40101 
L 544.577778 179.40101 
L 539.422222 179.40101 
L 534.266667 179.40101 
L 529.111111 179.40101 
L 523.955556 179.40101 
L 518.8 179.40101 
L 513.644444 179.40101 
L 508.488889 179.40101 
L 503.333333 179.40101 
L 498.177778 179.40101 
L 493.022222 179.40101 
L 487.866667 179.40101 
L 482.711111 179.40101 
L 477.555556 179.40101 
L 472.4 179.40101 
L 467.244444 179.40101 
L 462.088889 179.40101 
L 456.933333 179.40101 
L 451.777778 179.40101 
L 446.622222 179.40101 
L 441.466667 179.40101 
L 436.311111 179.40101 
L 431.155556 179.40101 
L 426 179.40101 
L 420.844444 179.40101 
L 415.688889 179.40101 
L 410.533333 179.40101 
L 405.377778 179.40101 
L 400.222222 179.40101 
L 395.066667 179.40101 
L 389.911111 179.40101 
L 384.755556 179.40101 
L 379.6 179.40101 
L 374.444444 179.40101 
L 369.288889 179.40101 
L 364.133333 179.40101 
L 358.977778 179.40101 
L 353.822222 179.40101 
L 348.666667 179.40101 
L 343.511111 179.40101 
L 338.355556 179.40101 
L 333.2 179.40101 
L 328.044444 179.40101 
L 322.888889 179.40101 
L 317.733333 179.40101 
L 312.577778 179.40101 
L 307.422222 179.40101 
L 302.266667 179.40101 
L 297.111111 179.40101 
L 291.955556 179.40101 
L 286.8 179.40101 
L 281.644444 179.40101 
L 276.488889 179.40101 
L 271.333333 179.40101 
L 266.177778 179.40101 
L 261.022222 179.40101 
L 255.866667 179.40101 
L 250.711111 179.40101 
L 245.555556 179.40101 
L 240.4 179.40101 
L 235.244444 179.40101 
L 230.088889 179.40101 
L 224.933333 179.40101 
L 219.777778 179.40101 
L 214.622222 179.40101 
L 209.466667 179.40101 
L 204.311111 179.40101 
L 199.155556 179.40101 
L 194 179.40101 
L 188.844444 179.40101 
L 183.688889 179.40101 
L 178.533333 179.40101 
L 173.377778 179.40101 
L 168.222222 179.40101 
L 163.066667 179.40101 
L 157.911111 179.40101 
L 152.755556 179.40101 
L 147.6 179.40101 
L 142.444444 179.40101 
L 137.288889 179.40101 
L 132.133333 179.40101 
L 126.977778 179.40101 
L 121.822222 179.40101 
L 116.666667 179.40101 
L 111.511111 179.40101 
L 106.355556 179.40101 
L 101.2 179.40101 
L 96.044444 179.40101 
L 90.888889 179.40101 
L 85.733333 179.40101 
L 80.577778 179.40101 
L 75.422222 179.40101 
L 70.266667 179.40101 
L 65.111111 179.40101 
L 59.955556 179.40101 
L 54.8 179.40101 
L 54.8 179.965152 
z
" style="fill:#fafab0;fill-opacity:0.3;"/>
   </g>
   <g id="PathCollection_3">
    <path clip-path="url(#p2d35fa91d9)" d="M 59.955556 179.40101 
L 65.111111 179.40101 
L 70.266667 179.40101 
L 75.422222 179.40101 
L 80.577778 179.40101 
L 85.733333 179.40101 
L 90.888889 179.40101 
L 96.044444 179.40101 
L 101.2 179.40101 
L 106.355556 179.40101 
L 111.511111 179.40101 
L 116.666667 179.40101 
L 121.822222 179.40101 
L 126.977778 179.40101 
L 132.133333 179.40101 
L 137.288889 179.40101 
L 142.444444 179.40101 
L 147.6 179.40101 
L 152.755556 179.40101 
L 157.911111 179.40101 
L 163.066667 179.40101 
L 168.222222 179.40101 
L 173.377778 179.40101 
L 178.533333 179.40101 
L 183.688889 179.40101 
L 188.844444 179.40101 
L 194 179.40101 
L 199.155556 179.40101 
L 204.311111 179.40101 
L 209.466667 179.40101 
L 214.622222 179.40101 
L 219.777778 179.40101 
L 224.933333 179.40101 
L 230.088889 179.40101 
L 235.244444 179.40101 
L 240.4 179.40101 
L 245.555556 179.40101 
L 250.711111 179.40101 
L 255.866667 179.40101 
L 261.022222 179.40101 
L 266.177778 179.40101 
L 271.333333 179.40101 
L 276.488889 179.40101 
L 281.644444 179.40101 
L 286.8 179.40101 
L 291.955556 179.40101 
L 297.111111 179.40101 
L 302.266667 179.40101 
L 307.422222 179.40101 
L 312.577778 179.40101 
L 317.733333 179.40101 
L 322.888889 179.40101 
L 328.044444 179.40101 
L 333.2 179.40101 
L 338.355556 179.40101 
L 343.511111 179.40101 
L 348.666667 179.40101 
L 353.822222 179.40101 
L 358.977778 179.40101 
L 364.133333 179.40101 
L 369.288889 179.40101 
L 374.444444 179.40101 
L 379.6 179.40101 
L 384.755556 179.40101 
L 389.911111 179.40101 
L 395.066667 179.40101 
L 400.222222 179.40101 
L 405.377778 179.40101 
L 410.533333 179.40101 
L 415.688889 179.40101 
L 420.844444 179.40101 
L 426 179.40101 
L 431.155556 179.40101 
L 436.311111 179.40101 
L 441.466667 179.40101 
L 446.622222 179.40101 
L 451.777778 179.40101 
L 456.933333 179.40101 
L 462.088889 179.40101 
L 467.244444 179.40101 
L 472.4 179.40101 
L 477.555556 179.40101 
L 482.711111 179.40101 
L 487.866667 179.40101 
L 493.022222 179.40101 
L 498.177778 179.40101 
L 503.333333 179.40101 
L 508.488889 179.40101 
L 513.644444 179.40101 
L 518.8 179.40101 
L 523.955556 179.40101 
L 529.111111 179.40101 
L 534.266667 179.40101 
L 539.422222 179.40101 
L 544.577778 179.40101 
L 549.733333 179.40101 
L 554.888889 179.40101 
L 560.044444 179.40101 
L 565.2 179.40101 
L 565.2 178.836869 
L 560.044444 178.836869 
L 554.888889 178.836869 
L 549.733333 178.836869 
L 544.577778 178.836869 
L 539.422222 178.836869 
L 534.266667 178.836869 
L 529.111111 178.836869 
L 523.955556 178.836869 
L 518.8 178.836869 
L 513.644444 178.836869 
L 508.488889 178.836869 
L 503.333333 178.836869 
L 498.177778 178.836869 
L 493.022222 178.836869 
L 487.866667 178.836869 
L 482.711111 178.836869 
L 477.555556 178.836869 
L 472.4 178.836869 
L 467.244444 178.836869 
L 462.088889 178.836869 
L 456.933333 178.836869 
L 451.777778 178.836869 
L 446.622222 178.836869 
L 441.466667 178.836869 
L 436.311111 178.836869 
L 431.155556 178.836869 
L 426 178.836869 
L 420.844444 178.836869 
L 415.688889 178.836869 
L 410.533333 178.836869 
L 405.377778 178.836869 
L 400.222222 178.836869 
L 395.066667 178.836869 
L 389.911111 178.836869 
L 384.755556 178.836869 
L 379.6 178.836869 
L 374.444444 178.836869 
L 369.288889 178.836869 
L 364.133333 178.836869 
L 358.977778 178.836869 
L 353.822222 178.836869 
L 348.666667 178.836869 
L 343.511111 178.836869 
L 338.355556 178.836869 
L 333.2 178.836869 
L 328.044444 178.836869 
L 322.888889 178.836869 
L 317.733333 178.836869 
L 312.577778 178.836869 
L 307.422222 178.836869 
L 302.266667 178.836869 
L 297.111111 178.836869 
L 291.955556 178.836869 
L 286.8 178.836869 
L 281.644444 178.836869 
L 276.488889 178.836869 
L 271.333333 178.836869 
L 266.177778 178.836869 
L 261.022222 178.836869 
L 255.866667 178.836869 
L 250.711111 178.836869 
L 245.555556 178.836869 
L 240.4 178.836869 
L 235.244444 178.836869 
L 230.088889 178.836869 
L 224.933333 178.836869 
L 219.777778 178.836869 
L 214.622222 178.836869 
L 209.466667 178.836869 
L 204.311111 178.836869 
L 199.155556 178.836869 
L 194 178.836869 
L 188.844444 178.836869 
L 183.688889 178.836869 
L 178.533333 178.836869 
L 173.377778 178.836869 
L 168.222222 178.836869 
L 163.066667 178.836869 
L 157.911111 178.836869 
L 152.755556 178.836869 
L 147.6 178.836869 
L 142.444444 178.836869 
L 137.288889 178.836869 
L 132.133333 178.836869 
L 126.977778 178.836869 
L 121.822222 178.836869 
L 116.666667 178.836869 
L 111.511111 178.836869 
L 106.355556 178.836869 
L 101.2 178.836869 
L 96.044444 178.836869 
L 90.888889 178.836869 
L 85.733333 178.836869 
L 80.577778 178.836869 
L 75.422222 178.836869 
L 70.266667 178.836869 
L 65.111111 178.836869 
L 59.955556 178.836869 
L 54.8 178.836869 
L 54.8 179.40101 
z
" style="fill:#fafab0;fill-opacity:0.3;"/>
   </g>
   <g id="PathCollection_4">
    <path clip-path="url(#p2d35fa91d9)" d="M 59.955556 178.836869 
L 65.111111 178.836869 
L 70.266667 178.836869 
L 75.422222 178.836869 
L 80.577778 178.836869 
L 85.733333 178.836869 
L 90.888889 178.836869 
L 96.044444 178.836869 
L 101.2 178.836869 
L 106.355556 178.836869 
L 111.511111 178.836869 
L 116.666667 178.836869 
L 121.822222 178.836869 
L 126.977778 178.836869 
L 132.133333 178.836869 
L 137.288889 178.836869 
L 142.444444 178.836869 
L 147.6 178.836869 
L 152.755556 178.836869 
L 157.911111 178.836869 
L 163.066667 178.836869 
L 168.222222 178.836869 
L 173.377778 178.836869 
L 178.533333 178.836869 
L 183.688889 178.836869 
L 188.844444 178.836869 
L 194 178.836869 
L 199.155556 178.836869 
L 204.311111 178.836869 
L 209.466667 178.836869 
L 214.622222 178.836869 
L 219.777778 178.836869 
L 224.933333 178.836869 
L 230.088889 178.836869 
L 235.244444 178.836869 
L 240.4 178.836869 
L 245.555556 178.836869 
L 250.711111 178.836869 
L 255.866667 178.836869 
L 261.022222 178.836869 
L 266.177778 178.836869 
L 271.333333 178.836869 
L 276.488889 178.836869 
L 281.644444 178.836869 
L 286.8 178.836869 
L 291.955556 178.836869 
L 297.111111 178.836869 
L 302.266667 178.836869 
L 307.422222 178.836869 
L 312.577778 178.836869 
L 317.733333 178.836869 
L 322.888889 178.836869 
L 328.044444 178.836869 
L 333.2 178.836869 
L 338.355556 178.836869 
L 343.511111 178.836869 
L 348.666667 178.836869 
L 353.822222 178.836869 
L 358.977778 178.836869 
L 364.133333 178.836869 
L 369.288889 178.836869 
L 374.444444 178.836869 
L 379.6 178.836869 
L 384.755556 178.836869 
L 389.911111 178.836869 
L 395.066667 178.836869 
L 400.222222 178.836869 
L 405.377778 178.836869 
L 410.533333 178.836869 
L 415.688889 178.836869 
L 420.844444 178.836869 
L 426 178.836869 
L 431.155556 178.836869 
L 436.311111 178.836869 
L 441.466667 178.836869 
L 446.622222 178.836869 
L 451.777778 178.836869 
L 456.933333 178.836869 
L 462.088889 178.836869 
L 467.244444 178.836869 
L 472.4 178.836869 
L 477.555556 178.836869 
L 482.711111 178.836869 
L 487.866667 178.836869 
L 493.022222 178.836869 
L 498.177778 178.836869 
L 503.333333 178.836869 
L 508.488889 178.836869 
L 513.644444 178.836869 
L 518.8 178.836869 
L 523.955556 178.836869 
L 529.111111 178.836869 
L 534.266667 178.836869 
L 539.422222 178.836869 
L 544.577778 178.836869 
L 549.733333 178.836869 
L 554.888889 178.836869 
L 560.044444 178.836869 
L 565.2 178.836869 
L 565.2 178.272727 
L 565.2 176.016162 
L 565.2 173.759596 
L 565.2 171.50303 
L 565.2 169.246465 
L 565.2 166.989899 
L 565.2 164.733333 
L 565.2 162.476768 
L 565.2 160.220202 
L 565.2 157.963636 
L 565.2 155.707071 
L 565.2 153.450505 
L 565.2 151.193939 
L 565.2 148.937374 
L 565.2 146.680808 
L 565.2 144.424242 
L 565.2 142.167677 
L 565.2 139.911111 
L 565.2 137.654545 
L 565.2 135.39798 
L 565.2 133.141414 
L 565.2 130.884848 
L 565.2 128.628283 
L 565.2 126.371717 
L 565.2 124.115152 
L 565.2 121.858586 
L 565.2 119.60202 
L 565.2 117.345455 
L 565.2 115.088889 
L 565.2 112.832323 
L 565.2 110.575758 
L 560.044444 110.575758 
L 554.888889 110.575758 
L 549.733333 110.575758 
L 544.577778 110.575758 
L 539.422222 110.575758 
L 534.266667 110.575758 
L 529.111111 110.575758 
L 523.955556 110.575758 
L 518.8 110.575758 
L 513.644444 110.575758 
L 508.488889 110.575758 
L 503.333333 110.575758 
L 498.177778 110.575758 
L 493.022222 110.575758 
L 487.866667 110.575758 
L 482.711111 110.575758 
L 477.555556 110.575758 
L 472.4 110.575758 
L 467.244444 110.575758 
L 462.088889 110.575758 
L 456.933333 110.575758 
L 451.777778 110.575758 
L 446.622222 110.575758 
L 441.466667 110.575758 
L 436.311111 110.575758 
L 431.155556 110.575758 
L 426 110.575758 
L 420.844444 110.575758 
L 415.688889 110.575758 
L 410.533333 110.575758 
L 405.377778 110.575758 
L 400.222222 110.575758 
L 395.066667 110.575758 
L 389.911111 110.575758 
L 384.755556 110.575758 
L 379.6 110.575758 
L 374.444444 110.575758 
L 369.288889 110.575758 
L 364.133333 110.575758 
L 358.977778 110.575758 
L 353.822222 110.575758 
L 348.666667 110.575758 
L 343.511111 110.575758 
L 338.355556 110.575758 
L 333.2 110.575758 
L 328.044444 110.575758 
L 322.888889 110.575758 
L 317.733333 110.575758 
L 312.577778 110.575758 
L 307.422222 110.575758 
L 302.266667 110.575758 
L 297.111111 110.575758 
L 291.955556 110.575758 
L 286.8 110.575758 
L 281.644444 110.575758 
L 276.488889 110.575758 
L 271.333333 110.575758 
L 266.177778 110.575758 
L 261.022222 110.575758 
L 255.866667 110.575758 
L 250.711111 110.575758 
L 245.555556 110.575758 
L 240.4 110.575758 
L 235.244444 110.575758 
L 230.088889 110.575758 
L 224.933333 110.575758 
L 219.777778 110.575758 
L 214.622222 110.575758 
L 209.466667 110.575758 
L 204.311111 110.575758 
L 199.155556 110.575758 
L 194 110.575758 
L 188.844444 110.575758 
L 183.688889 110.575758 
L 178.533333 110.575758 
L 173.377778 110.575758 
L 168.222222 110.575758 
L 163.066667 110.575758 
L 157.911111 110.575758 
L 152.755556 110.575758 
L 147.6 110.575758 
L 142.444444 110.575758 
L 137.288889 110.575758 
L 132.133333 110.575758 
L 126.977778 110.575758 
L 121.822222 110.575758 
L 116.666667 110.575758 
L 111.511111 110.575758 
L 106.355556 110.575758 
L 101.2 110.575758 
L 96.044444 110.575758 
L 90.888889 110.575758 
L 85.733333 110.575758 
L 80.577778 110.575758 
L 75.422222 110.575758 
L 70.266667 110.575758 
L 65.111111 110.575758 
L 59.955556 110.575758 
L 54.8 110.575758 
L 54.8 112.832323 
L 54.8 115.088889 
L 54.8 117.345455 
L 54.8 119.60202 
L 54.8 121.858586 
L 54.8 124.115152 
L 54.8 126.371717 
L 54.8 128.628283 
L 54.8 130.884848 
L 54.8 133.141414 
L 54.8 135.39798 
L 54.8 137.654545 
L 54.8 139.911111 
L 54.8 142.167677 
L 54.8 144.424242 
L 54.8 146.680808 
L 54.8 148.937374 
L 54.8 151.193939 
L 54.8 153.450505 
L 54.8 155.707071 
L 54.8 157.963636 
L 54.8 160.220202 
L 54.8 162.476768 
L 54.8 164.733333 
L 54.8 166.989899 
L 54.8 169.246465 
L 54.8 171.50303 
L 54.8 173.759596 
L 54.8 176.016162 
L 54.8 178.272727 
L 54.8 178.836869 
z
" style="fill:#9898ff;fill-opacity:0.3;"/>
   </g>
   <g id="PathCollection_5">
    <path clip-path="url(#p2d35fa91d9)" d="M 59.955556 110.575758 
L 65.111111 110.575758 
L 70.266667 110.575758 
L 75.422222 110.575758 
L 80.577778 110.575758 
L 85.733333 110.575758 
L 90.888889 110.575758 
L 96.044444 110.575758 
L 101.2 110.575758 
L 106.355556 110.575758 
L 111.511111 110.575758 
L 116.666667 110.575758 
L 121.822222 110.575758 
L 126.977778 110.575758 
L 132.133333 110.575758 
L 137.288889 110.575758 
L 142.444444 110.575758 
L 147.6 110.575758 
L 152.755556 110.575758 
L 157.911111 110.575758 
L 163.066667 110.575758 
L 168.222222 110.575758 
L 173.377778 110.575758 
L 178.533333 110.575758 
L 183.688889 110.575758 
L 188.844444 110.575758 
L 194 110.575758 
L 199.155556 110.575758 
L 204.311111 110.575758 
L 209.466667 110.575758 
L 214.622222 110.575758 
L 219.777778 110.575758 
L 224.933333 110.575758 
L 230.088889 110.575758 
L 235.244444 110.575758 
L 240.4 110.575758 
L 245.555556 110.575758 
L 250.711111 110.575758 
L 255.866667 110.575758 
L 261.022222 110.575758 
L 266.177778 110.575758 
L 271.333333 110.575758 
L 276.488889 110.575758 
L 281.644444 110.575758 
L 286.8 110.575758 
L 291.955556 110.575758 
L 297.111111 110.575758 
L 302.266667 110.575758 
L 307.422222 110.575758 
L 312.577778 110.575758 
L 317.733333 110.575758 
L 322.888889 110.575758 
L 328.044444 110.575758 
L 333.2 110.575758 
L 338.355556 110.575758 
L 343.511111 110.575758 
L 348.666667 110.575758 
L 353.822222 110.575758 
L 358.977778 110.575758 
L 364.133333 110.575758 
L 369.288889 110.575758 
L 374.444444 110.575758 
L 379.6 110.575758 
L 384.755556 110.575758 
L 389.911111 110.575758 
L 395.066667 110.575758 
L 400.222222 110.575758 
L 405.377778 110.575758 
L 410.533333 110.575758 
L 415.688889 110.575758 
L 420.844444 110.575758 
L 426 110.575758 
L 431.155556 110.575758 
L 436.311111 110.575758 
L 441.466667 110.575758 
L 446.622222 110.575758 
L 451.777778 110.575758 
L 456.933333 110.575758 
L 462.088889 110.575758 
L 467.244444 110.575758 
L 472.4 110.575758 
L 477.555556 110.575758 
L 482.711111 110.575758 
L 487.866667 110.575758 
L 493.022222 110.575758 
L 498.177778 110.575758 
L 503.333333 110.575758 
L 508.488889 110.575758 
L 513.644444 110.575758 
L 518.8 110.575758 
L 523.955556 110.575758 
L 529.111111 110.575758 
L 534.266667 110.575758 
L 539.422222 110.575758 
L 544.577778 110.575758 
L 549.733333 110.575758 
L 554.888889 110.575758 
L 560.044444 110.575758 
L 565.2 110.575758 
L 565.2 110.011616 
L 560.044444 110.011616 
L 554.888889 110.011616 
L 549.733333 110.011616 
L 544.577778 110.011616 
L 539.422222 110.011616 
L 534.266667 110.011616 
L 529.111111 110.011616 
L 523.955556 110.011616 
L 518.8 110.011616 
L 513.644444 110.011616 
L 508.488889 110.011616 
L 503.333333 110.011616 
L 498.177778 110.011616 
L 493.022222 110.011616 
L 487.866667 110.011616 
L 482.711111 110.011616 
L 477.555556 110.011616 
L 472.4 110.011616 
L 467.244444 110.011616 
L 462.088889 110.011616 
L 456.933333 110.011616 
L 451.777778 110.011616 
L 446.622222 110.011616 
L 441.466667 110.011616 
L 436.311111 110.011616 
L 431.155556 110.011616 
L 426 110.011616 
L 420.844444 110.011616 
L 415.688889 110.011616 
L 410.533333 110.011616 
L 405.377778 110.011616 
L 400.222222 110.011616 
L 395.066667 110.011616 
L 389.911111 110.011616 
L 384.755556 110.011616 
L 379.6 110.011616 
L 374.444444 110.011616 
L 369.288889 110.011616 
L 364.133333 110.011616 
L 358.977778 110.011616 
L 353.822222 110.011616 
L 348.666667 110.011616 
L 343.511111 110.011616 
L 338.355556 110.011616 
L 333.2 110.011616 
L 328.044444 110.011616 
L 322.888889 110.011616 
L 317.733333 110.011616 
L 312.577778 110.011616 
L 307.422222 110.011616 
L 302.266667 110.011616 
L 297.111111 110.011616 
L 291.955556 110.011616 
L 286.8 110.011616 
L 281.644444 110.011616 
L 276.488889 110.011616 
L 271.333333 110.011616 
L 266.177778 110.011616 
L 261.022222 110.011616 
L 255.866667 110.011616 
L 250.711111 110.011616 
L 245.555556 110.011616 
L 240.4 110.011616 
L 235.244444 110.011616 
L 230.088889 110.011616 
L 224.933333 110.011616 
L 219.777778 110.011616 
L 214.622222 110.011616 
L 209.466667 110.011616 
L 204.311111 110.011616 
L 199.155556 110.011616 
L 194 110.011616 
L 188.844444 110.011616 
L 183.688889 110.011616 
L 178.533333 110.011616 
L 173.377778 110.011616 
L 168.222222 110.011616 
L 163.066667 110.011616 
L 157.911111 110.011616 
L 152.755556 110.011616 
L 147.6 110.011616 
L 142.444444 110.011616 
L 137.288889 110.011616 
L 132.133333 110.011616 
L 126.977778 110.011616 
L 121.822222 110.011616 
L 116.666667 110.011616 
L 111.511111 110.011616 
L 106.355556 110.011616 
L 101.2 110.011616 
L 96.044444 110.011616 
L 90.888889 110.011616 
L 85.733333 110.011616 
L 80.577778 110.011616 
L 75.422222 110.011616 
L 70.266667 110.011616 
L 65.111111 110.011616 
L 59.955556 110.011616 
L 54.8 110.011616 
L 54.8 110.575758 
z
" style="fill:#9898ff;fill-opacity:0.3;"/>
   </g>
   <g id="PathCollection_6">
    <path clip-path="url(#p2d35fa91d9)" d="M 59.955556 110.011616 
L 65.111111 110.011616 
L 70.266667 110.011616 
L 75.422222 110.011616 
L 80.577778 110.011616 
L 85.733333 110.011616 
L 90.888889 110.011616 
L 96.044444 110.011616 
L 101.2 110.011616 
L 106.355556 110.011616 
L 111.511111 110.011616 
L 116.666667 110.011616 
L 121.822222 110.011616 
L 126.977778 110.011616 
L 132.133333 110.011616 
L 137.288889 110.011616 
L 142.444444 110.011616 
L 147.6 110.011616 
L 152.755556 110.011616 
L 157.911111 110.011616 
L 163.066667 110.011616 
L 168.222222 110.011616 
L 173.377778 110.011616 
L 178.533333 110.011616 
L 183.688889 110.011616 
L 188.844444 110.011616 
L 194 110.011616 
L 199.155556 110.011616 
L 204.311111 110.011616 
L 209.466667 110.011616 
L 214.622222 110.011616 
L 219.777778 110.011616 
L 224.933333 110.011616 
L 230.088889 110.011616 
L 235.244444 110.011616 
L 240.4 110.011616 
L 245.555556 110.011616 
L 250.711111 110.011616 
L 255.866667 110.011616 
L 261.022222 110.011616 
L 266.177778 110.011616 
L 271.333333 110.011616 
L 276.488889 110.011616 
L 281.644444 110.011616 
L 286.8 110.011616 
L 291.955556 110.011616 
L 297.111111 110.011616 
L 302.266667 110.011616 
L 307.422222 110.011616 
L 312.577778 110.011616 
L 317.733333 110.011616 
L 322.888889 110.011616 
L 328.044444 110.011616 
L 333.2 110.011616 
L 338.355556 110.011616 
L 343.511111 110.011616 
L 348.666667 110.011616 
L 353.822222 110.011616 
L 358.977778 110.011616 
L 364.133333 110.011616 
L 369.288889 110.011616 
L 374.444444 110.011616 
L 379.6 110.011616 
L 384.755556 110.011616 
L 389.911111 110.011616 
L 395.066667 110.011616 
L 400.222222 110.011616 
L 405.377778 110.011616 
L 410.533333 110.011616 
L 415.688889 110.011616 
L 420.844444 110.011616 
L 426 110.011616 
L 431.155556 110.011616 
L 436.311111 110.011616 
L 441.466667 110.011616 
L 446.622222 110.011616 
L 451.777778 110.011616 
L 456.933333 110.011616 
L 462.088889 110.011616 
L 467.244444 110.011616 
L 472.4 110.011616 
L 477.555556 110.011616 
L 482.711111 110.011616 
L 487.866667 110.011616 
L 493.022222 110.011616 
L 498.177778 110.011616 
L 503.333333 110.011616 
L 508.488889 110.011616 
L 513.644444 110.011616 
L 518.8 110.011616 
L 523.955556 110.011616 
L 529.111111 110.011616 
L 534.266667 110.011616 
L 539.422222 110.011616 
L 544.577778 110.011616 
L 549.733333 110.011616 
L 554.888889 110.011616 
L 560.044444 110.011616 
L 565.2 110.011616 
L 565.2 109.447475 
L 560.044444 109.447475 
L 554.888889 109.447475 
L 549.733333 109.447475 
L 544.577778 109.447475 
L 539.422222 109.447475 
L 534.266667 109.447475 
L 529.111111 109.447475 
L 523.955556 109.447475 
L 518.8 109.447475 
L 513.644444 109.447475 
L 508.488889 109.447475 
L 503.333333 109.447475 
L 498.177778 109.447475 
L 493.022222 109.447475 
L 487.866667 109.447475 
L 482.711111 109.447475 
L 477.555556 109.447475 
L 472.4 109.447475 
L 467.244444 109.447475 
L 462.088889 109.447475 
L 456.933333 109.447475 
L 451.777778 109.447475 
L 446.622222 109.447475 
L 441.466667 109.447475 
L 436.311111 109.447475 
L 431.155556 109.447475 
L 426 109.447475 
L 420.844444 109.447475 
L 415.688889 109.447475 
L 410.533333 109.447475 
L 405.377778 109.447475 
L 400.222222 109.447475 
L 395.066667 109.447475 
L 389.911111 109.447475 
L 384.755556 109.447475 
L 379.6 109.447475 
L 374.444444 109.447475 
L 369.288889 109.447475 
L 364.133333 109.447475 
L 358.977778 109.447475 
L 353.822222 109.447475 
L 348.666667 109.447475 
L 343.511111 109.447475 
L 338.355556 109.447475 
L 333.2 109.447475 
L 328.044444 109.447475 
L 322.888889 109.447475 
L 317.733333 109.447475 
L 312.577778 109.447475 
L 307.422222 109.447475 
L 302.266667 109.447475 
L 297.111111 109.447475 
L 291.955556 109.447475 
L 286.8 109.447475 
L 281.644444 109.447475 
L 276.488889 109.447475 
L 271.333333 109.447475 
L 266.177778 109.447475 
L 261.022222 109.447475 
L 255.866667 109.447475 
L 250.711111 109.447475 
L 245.555556 109.447475 
L 240.4 109.447475 
L 235.244444 109.447475 
L 230.088889 109.447475 
L 224.933333 109.447475 
L 219.777778 109.447475 
L 214.622222 109.447475 
L 209.466667 109.447475 
L 204.311111 109.447475 
L 199.155556 109.447475 
L 194 109.447475 
L 188.844444 109.447475 
L 183.688889 109.447475 
L 178.533333 109.447475 
L 173.377778 109.447475 
L 168.222222 109.447475 
L 163.066667 109.447475 
L 157.911111 109.447475 
L 152.755556 109.447475 
L 147.6 109.447475 
L 142.444444 109.447475 
L 137.288889 109.447475 
L 132.133333 109.447475 
L 126.977778 109.447475 
L 121.822222 109.447475 
L 116.666667 109.447475 
L 111.511111 109.447475 
L 106.355556 109.447475 
L 101.2 109.447475 
L 96.044444 109.447475 
L 90.888889 109.447475 
L 85.733333 109.447475 
L 80.577778 109.447475 
L 75.422222 109.447475 
L 70.266667 109.447475 
L 65.111111 109.447475 
L 59.955556 109.447475 
L 54.8 109.447475 
L 54.8 110.011616 
z
" style="fill:#a0faa0;fill-opacity:0.3;"/>
   </g>
   <g id="PathCollection_7">
    <path clip-path="url(#p2d35fa91d9)" d="M 59.955556 109.447475 
L 65.111111 109.447475 
L 70.266667 109.447475 
L 75.422222 109.447475 
L 80.577778 109.447475 
L 85.733333 109.447475 
L 90.888889 109.447475 
L 96.044444 109.447475 
L 101.2 109.447475 
L 106.355556 109.447475 
L 111.511111 109.447475 
L 116.666667 109.447475 
L 121.822222 109.447475 
L 126.977778 109.447475 
L 132.133333 109.447475 
L 137.288889 109.447475 
L 142.444444 109.447475 
L 147.6 109.447475 
L 152.755556 109.447475 
L 157.911111 109.447475 
L 163.066667 109.447475 
L 168.222222 109.447475 
L 173.377778 109.447475 
L 178.533333 109.447475 
L 183.688889 109.447475 
L 188.844444 109.447475 
L 194 109.447475 
L 199.155556 109.447475 
L 204.311111 109.447475 
L 209.466667 109.447475 
L 214.622222 109.447475 
L 219.777778 109.447475 
L 224.933333 109.447475 
L 230.088889 109.447475 
L 235.244444 109.447475 
L 240.4 109.447475 
L 245.555556 109.447475 
L 250.711111 109.447475 
L 255.866667 109.447475 
L 261.022222 109.447475 
L 266.177778 109.447475 
L 271.333333 109.447475 
L 276.488889 109.447475 
L 281.644444 109.447475 
L 286.8 109.447475 
L 291.955556 109.447475 
L 297.111111 109.447475 
L 302.266667 109.447475 
L 307.422222 109.447475 
L 312.577778 109.447475 
L 317.733333 109.447475 
L 322.888889 109.447475 
L 328.044444 109.447475 
L 333.2 109.447475 
L 338.355556 109.447475 
L 343.511111 109.447475 
L 348.666667 109.447475 
L 353.822222 109.447475 
L 358.977778 109.447475 
L 364.133333 109.447475 
L 369.288889 109.447475 
L 374.444444 109.447475 
L 379.6 109.447475 
L 384.755556 109.447475 
L 389.911111 109.447475 
L 395.066667 109.447475 
L 400.222222 109.447475 
L 405.377778 109.447475 
L 410.533333 109.447475 
L 415.688889 109.447475 
L 420.844444 109.447475 
L 426 109.447475 
L 431.155556 109.447475 
L 436.311111 109.447475 
L 441.466667 109.447475 
L 446.622222 109.447475 
L 451.777778 109.447475 
L 456.933333 109.447475 
L 462.088889 109.447475 
L 467.244444 109.447475 
L 472.4 109.447475 
L 477.555556 109.447475 
L 482.711111 109.447475 
L 487.866667 109.447475 
L 493.022222 109.447475 
L 498.177778 109.447475 
L 503.333333 109.447475 
L 508.488889 109.447475 
L 513.644444 109.447475 
L 518.8 109.447475 
L 523.955556 109.447475 
L 529.111111 109.447475 
L 534.266667 109.447475 
L 539.422222 109.447475 
L 544.577778 109.447475 
L 549.733333 109.447475 
L 554.888889 109.447475 
L 560.044444 109.447475 
L 565.2 109.447475 
L 565.2 108.883333 
L 560.044444 108.883333 
L 554.888889 108.883333 
L 549.733333 108.883333 
L 544.577778 108.883333 
L 539.422222 108.883333 
L 534.266667 108.883333 
L 529.111111 108.883333 
L 523.955556 108.883333 
L 518.8 108.883333 
L 513.644444 108.883333 
L 508.488889 108.883333 
L 503.333333 108.883333 
L 498.177778 108.883333 
L 493.022222 108.883333 
L 487.866667 108.883333 
L 482.711111 108.883333 
L 477.555556 108.883333 
L 472.4 108.883333 
L 467.244444 108.883333 
L 462.088889 108.883333 
L 456.933333 108.883333 
L 451.777778 108.883333 
L 446.622222 108.883333 
L 441.466667 108.883333 
L 436.311111 108.883333 
L 431.155556 108.883333 
L 426 108.883333 
L 420.844444 108.883333 
L 415.688889 108.883333 
L 410.533333 108.883333 
L 405.377778 108.883333 
L 400.222222 108.883333 
L 395.066667 108.883333 
L 389.911111 108.883333 
L 384.755556 108.883333 
L 379.6 108.883333 
L 374.444444 108.883333 
L 369.288889 108.883333 
L 364.133333 108.883333 
L 358.977778 108.883333 
L 353.822222 108.883333 
L 348.666667 108.883333 
L 343.511111 108.883333 
L 338.355556 108.883333 
L 333.2 108.883333 
L 328.044444 108.883333 
L 322.888889 108.883333 
L 317.733333 108.883333 
L 312.577778 108.883333 
L 307.422222 108.883333 
L 302.266667 108.883333 
L 297.111111 108.883333 
L 291.955556 108.883333 
L 286.8 108.883333 
L 281.644444 108.883333 
L 276.488889 108.883333 
L 271.333333 108.883333 
L 266.177778 108.883333 
L 261.022222 108.883333 
L 255.866667 108.883333 
L 250.711111 108.883333 
L 245.555556 108.883333 
L 240.4 108.883333 
L 235.244444 108.883333 
L 230.088889 108.883333 
L 224.933333 108.883333 
L 219.777778 108.883333 
L 214.622222 108.883333 
L 209.466667 108.883333 
L 204.311111 108.883333 
L 199.155556 108.883333 
L 194 108.883333 
L 188.844444 108.883333 
L 183.688889 108.883333 
L 178.533333 108.883333 
L 173.377778 108.883333 
L 168.222222 108.883333 
L 163.066667 108.883333 
L 157.911111 108.883333 
L 152.755556 108.883333 
L 147.6 108.883333 
L 142.444444 108.883333 
L 137.288889 108.883333 
L 132.133333 108.883333 
L 126.977778 108.883333 
L 121.822222 108.883333 
L 116.666667 108.883333 
L 111.511111 108.883333 
L 106.355556 108.883333 
L 101.2 108.883333 
L 96.044444 108.883333 
L 90.888889 108.883333 
L 85.733333 108.883333 
L 80.577778 108.883333 
L 75.422222 108.883333 
L 70.266667 108.883333 
L 65.111111 108.883333 
L 59.955556 108.883333 
L 54.8 108.883333 
L 54.8 109.447475 
z
" style="fill:#a0faa0;fill-opacity:0.3;"/>
   </g>
   <g id="PathCollection_8">
    <path clip-path="url(#p2d35fa91d9)" d="M 59.955556 108.883333 
L 65.111111 108.883333 
L 70.266667 108.883333 
L 75.422222 108.883333 
L 80.577778 108.883333 
L 85.733333 108.883333 
L 90.888889 108.883333 
L 96.044444 108.883333 
L 101.2 108.883333 
L 106.355556 108.883333 
L 111.511111 108.883333 
L 116.666667 108.883333 
L 121.822222 108.883333 
L 126.977778 108.883333 
L 132.133333 108.883333 
L 137.288889 108.883333 
L 142.444444 108.883333 
L 147.6 108.883333 
L 152.755556 108.883333 
L 157.911111 108.883333 
L 163.066667 108.883333 
L 168.222222 108.883333 
L 173.377778 108.883333 
L 178.533333 108.883333 
L 183.688889 108.883333 
L 188.844444 108.883333 
L 194 108.883333 
L 199.155556 108.883333 
L 204.311111 108.883333 
L 209.466667 108.883333 
L 214.622222 108.883333 
L 219.777778 108.883333 
L 224.933333 108.883333 
L 230.088889 108.883333 
L 235.244444 108.883333 
L 240.4 108.883333 
L 245.555556 108.883333 
L 250.711111 108.883333 
L 255.866667 108.883333 
L 261.022222 108.883333 
L 266.177778 108.883333 
L 271.333333 108.883333 
L 276.488889 108.883333 
L 281.644444 108.883333 
L 286.8 108.883333 
L 291.955556 108.883333 
L 297.111111 108.883333 
L 302.266667 108.883333 
L 307.422222 108.883333 
L 312.577778 108.883333 
L 317.733333 108.883333 
L 322.888889 108.883333 
L 328.044444 108.883333 
L 333.2 108.883333 
L 338.355556 108.883333 
L 343.511111 108.883333 
L 348.666667 108.883333 
L 353.822222 108.883333 
L 358.977778 108.883333 
L 364.133333 108.883333 
L 369.288889 108.883333 
L 374.444444 108.883333 
L 379.6 108.883333 
L 384.755556 108.883333 
L 389.911111 108.883333 
L 395.066667 108.883333 
L 400.222222 108.883333 
L 405.377778 108.883333 
L 410.533333 108.883333 
L 415.688889 108.883333 
L 420.844444 108.883333 
L 426 108.883333 
L 431.155556 108.883333 
L 436.311111 108.883333 
L 441.466667 108.883333 
L 446.622222 108.883333 
L 451.777778 108.883333 
L 456.933333 108.883333 
L 462.088889 108.883333 
L 467.244444 108.883333 
L 472.4 108.883333 
L 477.555556 108.883333 
L 482.711111 108.883333 
L 487.866667 108.883333 
L 493.022222 108.883333 
L 498.177778 108.883333 
L 503.333333 108.883333 
L 508.488889 108.883333 
L 513.644444 108.883333 
L 518.8 108.883333 
L 523.955556 108.883333 
L 529.111111 108.883333 
L 534.266667 108.883333 
L 539.422222 108.883333 
L 544.577778 108.883333 
L 549.733333 108.883333 
L 554.888889 108.883333 
L 560.044444 108.883333 
L 565.2 108.883333 
L 565.2 108.319192 
L 565.2 106.062626 
L 565.2 103.806061 
L 565.2 101.549495 
L 565.2 99.292929 
L 565.2 97.036364 
L 565.2 94.779798 
L 565.2 92.523232 
L 565.2 90.266667 
L 565.2 88.010101 
L 565.2 85.753535 
L 565.2 83.49697 
L 565.2 81.240404 
L 565.2 78.983838 
L 565.2 76.727273 
L 565.2 74.470707 
L 565.2 72.214141 
L 565.2 69.957576 
L 565.2 67.70101 
L 565.2 65.444444 
L 565.2 63.187879 
L 565.2 60.931313 
L 565.2 58.674747 
L 565.2 56.418182 
L 565.2 54.161616 
L 565.2 51.905051 
L 565.2 49.648485 
L 565.2 47.391919 
L 565.2 45.135354 
L 565.2 42.878788 
L 565.2 40.622222 
L 565.2 38.365657 
L 565.2 36.109091 
L 565.2 33.852525 
L 565.2 31.59596 
L 565.2 29.339394 
L 565.2 27.082828 
L 565.2 24.826263 
L 565.2 22.569697 
L 565.2 20.313131 
L 565.2 18.056566 
L 565.2 15.8 
L 560.044444 15.8 
L 554.888889 15.8 
L 549.733333 15.8 
L 544.577778 15.8 
L 539.422222 15.8 
L 534.266667 15.8 
L 529.111111 15.8 
L 523.955556 15.8 
L 518.8 15.8 
L 513.644444 15.8 
L 508.488889 15.8 
L 503.333333 15.8 
L 498.177778 15.8 
L 493.022222 15.8 
L 487.866667 15.8 
L 482.711111 15.8 
L 477.555556 15.8 
L 472.4 15.8 
L 467.244444 15.8 
L 462.088889 15.8 
L 456.933333 15.8 
L 451.777778 15.8 
L 446.622222 15.8 
L 441.466667 15.8 
L 436.311111 15.8 
L 431.155556 15.8 
L 426 15.8 
L 420.844444 15.8 
L 415.688889 15.8 
L 410.533333 15.8 
L 405.377778 15.8 
L 400.222222 15.8 
L 395.066667 15.8 
L 389.911111 15.8 
L 384.755556 15.8 
L 379.6 15.8 
L 374.444444 15.8 
L 369.288889 15.8 
L 364.133333 15.8 
L 358.977778 15.8 
L 353.822222 15.8 
L 348.666667 15.8 
L 343.511111 15.8 
L 338.355556 15.8 
L 333.2 15.8 
L 328.044444 15.8 
L 322.888889 15.8 
L 317.733333 15.8 
L 312.577778 15.8 
L 307.422222 15.8 
L 302.266667 15.8 
L 297.111111 15.8 
L 291.955556 15.8 
L 286.8 15.8 
L 281.644444 15.8 
L 276.488889 15.8 
L 271.333333 15.8 
L 266.177778 15.8 
L 261.022222 15.8 
L 255.866667 15.8 
L 250.711111 15.8 
L 245.555556 15.8 
L 240.4 15.8 
L 235.244444 15.8 
L 230.088889 15.8 
L 224.933333 15.8 
L 219.777778 15.8 
L 214.622222 15.8 
L 209.466667 15.8 
L 204.311111 15.8 
L 199.155556 15.8 
L 194 15.8 
L 188.844444 15.8 
L 183.688889 15.8 
L 178.533333 15.8 
L 173.377778 15.8 
L 168.222222 15.8 
L 163.066667 15.8 
L 157.911111 15.8 
L 152.755556 15.8 
L 147.6 15.8 
L 142.444444 15.8 
L 137.288889 15.8 
L 132.133333 15.8 
L 126.977778 15.8 
L 121.822222 15.8 
L 116.666667 15.8 
L 111.511111 15.8 
L 106.355556 15.8 
L 101.2 15.8 
L 96.044444 15.8 
L 90.888889 15.8 
L 85.733333 15.8 
L 80.577778 15.8 
L 75.422222 15.8 
L 70.266667 15.8 
L 65.111111 15.8 
L 59.955556 15.8 
L 54.8 15.8 
L 54.8 18.056566 
L 54.8 20.313131 
L 54.8 22.569697 
L 54.8 24.826263 
L 54.8 27.082828 
L 54.8 29.339394 
L 54.8 31.59596 
L 54.8 33.852525 
L 54.8 36.109091 
L 54.8 38.365657 
L 54.8 40.622222 
L 54.8 42.878788 
L 54.8 45.135354 
L 54.8 47.391919 
L 54.8 49.648485 
L 54.8 51.905051 
L 54.8 54.161616 
L 54.8 56.418182 
L 54.8 58.674747 
L 54.8 60.931313 
L 54.8 63.187879 
L 54.8 65.444444 
L 54.8 67.70101 
L 54.8 69.957576 
L 54.8 72.214141 
L 54.8 74.470707 
L 54.8 76.727273 
L 54.8 78.983838 
L 54.8 81.240404 
L 54.8 83.49697 
L 54.8 85.753535 
L 54.8 88.010101 
L 54.8 90.266667 
L 54.8 92.523232 
L 54.8 94.779798 
L 54.8 97.036364 
L 54.8 99.292929 
L 54.8 101.549495 
L 54.8 103.806061 
L 54.8 106.062626 
L 54.8 108.319192 
L 54.8 108.883333 
z
" style="fill:#a0faa0;fill-opacity:0.3;"/>
   </g>
   <g id="matplotlib.axis_1">
    <g id="xtick_1">
     <g id="line2d_1">
      <defs>
       <path d="M 0 0 
L 0 3.5 
" id="m2e94ff460c" style="stroke:#000000;stroke-width:0.8;"/>
      </defs>
      <g>
       <use style="stroke:#000000;stroke-width:0.8;" x="54.8" xlink:href="#m2e94ff460c" y="239.2"/>
      </g>
     </g>
     <g id="text_1">
      <text style="font-family:DejaVu Sans;font-size:12px;font-style:normal;font-weight:normal;text-anchor:middle;" transform="rotate(-0, 54.8, 255.318125)" x="54.8" y="255.318125">0</text>
     </g>
    </g>
    <g id="xtick_2">
     <g id="line2d_2">
      <g>
       <use style="stroke:#000000;stroke-width:0.8;" x="122.853333" xlink:href="#m2e94ff460c" y="239.2"/>
      </g>
     </g>
     <g id="text_2">
      <text style="font-family:DejaVu Sans;font-size:12px;font-style:normal;font-weight:normal;text-anchor:middle;" transform="rotate(-0, 122.853333, 255.318125)" x="122.853333" y="255.318125">1</text>
     </g>
    </g>
    <g id="xtick_3">
     <g id="line2d_3">
      <g>
       <use style="stroke:#000000;stroke-width:0.8;" x="190.906667" xlink:href="#m2e94ff460c" y="239.2"/>
      </g>
     </g>
     <g id="text_3">
      <text style="font-family:DejaVu Sans;font-size:12px;font-style:normal;font-weight:normal;text-anchor:middle;" transform="rotate(-0, 190.906667, 255.318125)" x="190.906667" y="255.318125">2</text>
     </g>
    </g>
    <g id="xtick_4">
     <g id="line2d_4">
      <g>
       <use style="stroke:#000000;stroke-width:0.8;" x="258.96" xlink:href="#m2e94ff460c" y="239.2"/>
      </g>
     </g>
     <g id="text_4">
      <text style="font-family:DejaVu Sans;font-size:12px;font-style:normal;font-weight:normal;text-anchor:middle;" transform="rotate(-0, 258.96, 255.318125)" x="258.96" y="255.318125">3</text>
     </g>
    </g>
    <g id="xtick_5">
     <g id="line2d_5">
      <g>
       <use style="stroke:#000000;stroke-width:0.8;" x="327.013333" xlink:href="#m2e94ff460c" y="239.2"/>
      </g>
     </g>
     <g id="text_5">
      <text style="font-family:DejaVu Sans;font-size:12px;font-style:normal;font-weight:normal;text-anchor:middle;" transform="rotate(-0, 327.013333, 255.318125)" x="327.013333" y="255.318125">4</text>
     </g>
    </g>
    <g id="xtick_6">
     <g id="line2d_6">
      <g>
       <use style="stroke:#000000;stroke-width:0.8;" x="395.066667" xlink:href="#m2e94ff460c" y="239.2"/>
      </g>
     </g>
     <g id="text_6">
      <text style="font-family:DejaVu Sans;font-size:12px;font-style:normal;font-weight:normal;text-anchor:middle;" transform="rotate(-0, 395.066667, 255.318125)" x="395.066667" y="255.318125">5</text>
     </g>
    </g>
    <g id="xtick_7">
     <g id="line2d_7">
      <g>
       <use style="stroke:#000000;stroke-width:0.8;" x="463.12" xlink:href="#m2e94ff460c" y="239.2"/>
      </g>
     </g>
     <g id="text_7">
      <text style="font-family:DejaVu Sans;font-size:12px;font-style:normal;font-weight:normal;text-anchor:middle;" transform="rotate(-0, 463.12, 255.318125)" x="463.12" y="255.318125">6</text>
     </g>
    </g>
    <g id="xtick_8">
     <g id="line2d_8">
      <g>
       <use style="stroke:#000000;stroke-width:0.8;" x="531.173333" xlink:href="#m2e94ff460c" y="239.2"/>
      </g>
     </g>
     <g id="text_8">
      <text style="font-family:DejaVu Sans;font-size:12px;font-style:normal;font-weight:normal;text-anchor:middle;" transform="rotate(-0, 531.173333, 255.318125)" x="531.173333" y="255.318125">7</text>
     </g>
    </g>
    <g id="text_9">
     <text style="font-family:DejaVu Sans;font-size:14px;font-style:normal;font-weight:normal;text-anchor:middle;" transform="rotate(-0, 310, 272.451562)" x="310" y="272.451562">Petal length</text>
    </g>
   </g>
   <g id="matplotlib.axis_2">
    <g id="ytick_1">
     <g id="line2d_9">
      <defs>
       <path d="M 0 0 
L -3.5 0 
" id="m10f6c1958f" style="stroke:#000000;stroke-width:0.8;"/>
      </defs>
      <g>
       <use style="stroke:#000000;stroke-width:0.8;" x="54.8" xlink:href="#m10f6c1958f" y="239.2"/>
      </g>
     </g>
     <g id="text_10">
      <text style="font-family:DejaVu Sans;font-size:12px;font-style:normal;font-weight:normal;text-anchor:end;" transform="rotate(-0, 47.8, 243.759062)" x="47.8" y="243.759062">0.0</text>
     </g>
    </g>
    <g id="ytick_2">
     <g id="line2d_10">
      <g>
       <use style="stroke:#000000;stroke-width:0.8;" x="54.8" xlink:href="#m10f6c1958f" y="201.966667"/>
      </g>
     </g>
     <g id="text_11">
      <text style="font-family:DejaVu Sans;font-size:12px;font-style:normal;font-weight:normal;text-anchor:end;" transform="rotate(-0, 47.8, 206.525729)" x="47.8" y="206.525729">0.5</text>
     </g>
    </g>
    <g id="ytick_3">
     <g id="line2d_11">
      <g>
       <use style="stroke:#000000;stroke-width:0.8;" x="54.8" xlink:href="#m10f6c1958f" y="164.733333"/>
      </g>
     </g>
     <g id="text_12">
      <text style="font-family:DejaVu Sans;font-size:12px;font-style:normal;font-weight:normal;text-anchor:end;" transform="rotate(-0, 47.8, 169.292396)" x="47.8" y="169.292396">1.0</text>
     </g>
    </g>
    <g id="ytick_4">
     <g id="line2d_12">
      <g>
       <use style="stroke:#000000;stroke-width:0.8;" x="54.8" xlink:href="#m10f6c1958f" y="127.5"/>
      </g>
     </g>
     <g id="text_13">
      <text style="font-family:DejaVu Sans;font-size:12px;font-style:normal;font-weight:normal;text-anchor:end;" transform="rotate(-0, 47.8, 132.059062)" x="47.8" y="132.059062">1.5</text>
     </g>
    </g>
    <g id="ytick_5">
     <g id="line2d_13">
      <g>
       <use style="stroke:#000000;stroke-width:0.8;" x="54.8" xlink:href="#m10f6c1958f" y="90.266667"/>
      </g>
     </g>
     <g id="text_14">
      <text style="font-family:DejaVu Sans;font-size:12px;font-style:normal;font-weight:normal;text-anchor:end;" transform="rotate(-0, 47.8, 94.825729)" x="47.8" y="94.825729">2.0</text>
     </g>
    </g>
    <g id="ytick_6">
     <g id="line2d_14">
      <g>
       <use style="stroke:#000000;stroke-width:0.8;" x="54.8" xlink:href="#m10f6c1958f" y="53.033333"/>
      </g>
     </g>
     <g id="text_15">
      <text style="font-family:DejaVu Sans;font-size:12px;font-style:normal;font-weight:normal;text-anchor:end;" transform="rotate(-0, 47.8, 57.592396)" x="47.8" y="57.592396">2.5</text>
     </g>
    </g>
    <g id="ytick_7">
     <g id="line2d_15">
      <g>
       <use style="stroke:#000000;stroke-width:0.8;" x="54.8" xlink:href="#m10f6c1958f" y="15.8"/>
      </g>
     </g>
     <g id="text_16">
      <text style="font-family:DejaVu Sans;font-size:12px;font-style:normal;font-weight:normal;text-anchor:end;" transform="rotate(-0, 47.8, 20.359062)" x="47.8" y="20.359062">3.0</text>
     </g>
    </g>
    <g id="text_17">
     <text style="font-family:DejaVu Sans;font-size:14px;font-style:normal;font-weight:normal;text-anchor:middle;" transform="rotate(-90, 21.804688, 127.5)" x="21.804688" y="127.5">Petal width</text>
    </g>
   </g>
   <g id="line2d_16">
    <defs>
     <path d="M 0 3 
C 0.795609 3 1.55874 2.683901 2.12132 2.12132 
C 2.683901 1.55874 3 0.795609 3 0 
C 3 -0.795609 2.683901 -1.55874 2.12132 -2.12132 
C 1.55874 -2.683901 0.795609 -3 0 -3 
C -0.795609 -3 -1.55874 -2.683901 -2.12132 -2.12132 
C -2.683901 -1.55874 -3 -0.795609 -3 0 
C -3 0.795609 -2.683901 1.55874 -2.12132 2.12132 
C -1.55874 2.683901 -0.795609 3 0 3 
z
" id="m14d9946899" style="stroke:#bfbf00;"/>
    </defs>
    <g clip-path="url(#p2d35fa91d9)">
     <use style="fill:#bfbf00;stroke:#bfbf00;" x="150.074667" xlink:href="#m14d9946899" y="224.306667"/>
     <use style="fill:#bfbf00;stroke:#bfbf00;" x="150.074667" xlink:href="#m14d9946899" y="224.306667"/>
     <use style="fill:#bfbf00;stroke:#bfbf00;" x="143.269333" xlink:href="#m14d9946899" y="224.306667"/>
     <use style="fill:#bfbf00;stroke:#bfbf00;" x="156.88" xlink:href="#m14d9946899" y="224.306667"/>
     <use style="fill:#bfbf00;stroke:#bfbf00;" x="150.074667" xlink:href="#m14d9946899" y="224.306667"/>
     <use style="fill:#bfbf00;stroke:#bfbf00;" x="170.490667" xlink:href="#m14d9946899" y="209.413333"/>
     <use style="fill:#bfbf00;stroke:#bfbf00;" x="150.074667" xlink:href="#m14d9946899" y="216.86"/>
     <use style="fill:#bfbf00;stroke:#bfbf00;" x="156.88" xlink:href="#m14d9946899" y="224.306667"/>
     <use style="fill:#bfbf00;stroke:#bfbf00;" x="150.074667" xlink:href="#m14d9946899" y="224.306667"/>
     <use style="fill:#bfbf00;stroke:#bfbf00;" x="156.88" xlink:href="#m14d9946899" y="231.753333"/>
     <use style="fill:#bfbf00;stroke:#bfbf00;" x="156.88" xlink:href="#m14d9946899" y="224.306667"/>
     <use style="fill:#bfbf00;stroke:#bfbf00;" x="163.685333" xlink:href="#m14d9946899" y="224.306667"/>
     <use style="fill:#bfbf00;stroke:#bfbf00;" x="150.074667" xlink:href="#m14d9946899" y="231.753333"/>
     <use style="fill:#bfbf00;stroke:#bfbf00;" x="129.658667" xlink:href="#m14d9946899" y="231.753333"/>
     <use style="fill:#bfbf00;stroke:#bfbf00;" x="136.464" xlink:href="#m14d9946899" y="224.306667"/>
     <use style="fill:#bfbf00;stroke:#bfbf00;" x="156.88" xlink:href="#m14d9946899" y="209.413333"/>
     <use style="fill:#bfbf00;stroke:#bfbf00;" x="143.269333" xlink:href="#m14d9946899" y="209.413333"/>
     <use style="fill:#bfbf00;stroke:#bfbf00;" x="150.074667" xlink:href="#m14d9946899" y="216.86"/>
     <use style="fill:#bfbf00;stroke:#bfbf00;" x="170.490667" xlink:href="#m14d9946899" y="216.86"/>
     <use style="fill:#bfbf00;stroke:#bfbf00;" x="156.88" xlink:href="#m14d9946899" y="216.86"/>
     <use style="fill:#bfbf00;stroke:#bfbf00;" x="170.490667" xlink:href="#m14d9946899" y="224.306667"/>
     <use style="fill:#bfbf00;stroke:#bfbf00;" x="156.88" xlink:href="#m14d9946899" y="209.413333"/>
     <use style="fill:#bfbf00;stroke:#bfbf00;" x="122.853333" xlink:href="#m14d9946899" y="224.306667"/>
     <use style="fill:#bfbf00;stroke:#bfbf00;" x="170.490667" xlink:href="#m14d9946899" y="201.966667"/>
     <use style="fill:#bfbf00;stroke:#bfbf00;" x="184.101333" xlink:href="#m14d9946899" y="224.306667"/>
     <use style="fill:#bfbf00;stroke:#bfbf00;" x="163.685333" xlink:href="#m14d9946899" y="224.306667"/>
     <use style="fill:#bfbf00;stroke:#bfbf00;" x="163.685333" xlink:href="#m14d9946899" y="209.413333"/>
     <use style="fill:#bfbf00;stroke:#bfbf00;" x="156.88" xlink:href="#m14d9946899" y="224.306667"/>
     <use style="fill:#bfbf00;stroke:#bfbf00;" x="150.074667" xlink:href="#m14d9946899" y="224.306667"/>
     <use style="fill:#bfbf00;stroke:#bfbf00;" x="163.685333" xlink:href="#m14d9946899" y="224.306667"/>
     <use style="fill:#bfbf00;stroke:#bfbf00;" x="163.685333" xlink:href="#m14d9946899" y="224.306667"/>
     <use style="fill:#bfbf00;stroke:#bfbf00;" x="156.88" xlink:href="#m14d9946899" y="209.413333"/>
     <use style="fill:#bfbf00;stroke:#bfbf00;" x="156.88" xlink:href="#m14d9946899" y="231.753333"/>
     <use style="fill:#bfbf00;stroke:#bfbf00;" x="150.074667" xlink:href="#m14d9946899" y="224.306667"/>
     <use style="fill:#bfbf00;stroke:#bfbf00;" x="156.88" xlink:href="#m14d9946899" y="224.306667"/>
     <use style="fill:#bfbf00;stroke:#bfbf00;" x="136.464" xlink:href="#m14d9946899" y="224.306667"/>
     <use style="fill:#bfbf00;stroke:#bfbf00;" x="143.269333" xlink:href="#m14d9946899" y="224.306667"/>
     <use style="fill:#bfbf00;stroke:#bfbf00;" x="150.074667" xlink:href="#m14d9946899" y="231.753333"/>
     <use style="fill:#bfbf00;stroke:#bfbf00;" x="143.269333" xlink:href="#m14d9946899" y="224.306667"/>
     <use style="fill:#bfbf00;stroke:#bfbf00;" x="156.88" xlink:href="#m14d9946899" y="224.306667"/>
     <use style="fill:#bfbf00;stroke:#bfbf00;" x="143.269333" xlink:href="#m14d9946899" y="216.86"/>
     <use style="fill:#bfbf00;stroke:#bfbf00;" x="143.269333" xlink:href="#m14d9946899" y="216.86"/>
     <use style="fill:#bfbf00;stroke:#bfbf00;" x="143.269333" xlink:href="#m14d9946899" y="224.306667"/>
     <use style="fill:#bfbf00;stroke:#bfbf00;" x="163.685333" xlink:href="#m14d9946899" y="194.52"/>
     <use style="fill:#bfbf00;stroke:#bfbf00;" x="184.101333" xlink:href="#m14d9946899" y="209.413333"/>
     <use style="fill:#bfbf00;stroke:#bfbf00;" x="150.074667" xlink:href="#m14d9946899" y="216.86"/>
     <use style="fill:#bfbf00;stroke:#bfbf00;" x="163.685333" xlink:href="#m14d9946899" y="224.306667"/>
     <use style="fill:#bfbf00;stroke:#bfbf00;" x="150.074667" xlink:href="#m14d9946899" y="224.306667"/>
     <use style="fill:#bfbf00;stroke:#bfbf00;" x="156.88" xlink:href="#m14d9946899" y="224.306667"/>
     <use style="fill:#bfbf00;stroke:#bfbf00;" x="150.074667" xlink:href="#m14d9946899" y="224.306667"/>
    </g>
   </g>
   <g id="line2d_17">
    <defs>
     <path d="M -3 3 
L 3 3 
L 3 -3 
L -3 -3 
z
" id="m3c71c90346" style="stroke:#0000ff;stroke-linejoin:miter;"/>
    </defs>
    <g clip-path="url(#p2d35fa91d9)">
     <use style="fill:#0000ff;stroke:#0000ff;stroke-linejoin:miter;" x="374.650667" xlink:href="#m3c71c90346" y="134.946667"/>
     <use style="fill:#0000ff;stroke:#0000ff;stroke-linejoin:miter;" x="361.04" xlink:href="#m3c71c90346" y="127.5"/>
     <use style="fill:#0000ff;stroke:#0000ff;stroke-linejoin:miter;" x="388.261333" xlink:href="#m3c71c90346" y="127.5"/>
     <use style="fill:#0000ff;stroke:#0000ff;stroke-linejoin:miter;" x="327.013333" xlink:href="#m3c71c90346" y="142.393333"/>
     <use style="fill:#0000ff;stroke:#0000ff;stroke-linejoin:miter;" x="367.845333" xlink:href="#m3c71c90346" y="127.5"/>
     <use style="fill:#0000ff;stroke:#0000ff;stroke-linejoin:miter;" x="361.04" xlink:href="#m3c71c90346" y="142.393333"/>
     <use style="fill:#0000ff;stroke:#0000ff;stroke-linejoin:miter;" x="374.650667" xlink:href="#m3c71c90346" y="120.053333"/>
     <use style="fill:#0000ff;stroke:#0000ff;stroke-linejoin:miter;" x="279.376" xlink:href="#m3c71c90346" y="164.733333"/>
     <use style="fill:#0000ff;stroke:#0000ff;stroke-linejoin:miter;" x="367.845333" xlink:href="#m3c71c90346" y="142.393333"/>
     <use style="fill:#0000ff;stroke:#0000ff;stroke-linejoin:miter;" x="320.208" xlink:href="#m3c71c90346" y="134.946667"/>
     <use style="fill:#0000ff;stroke:#0000ff;stroke-linejoin:miter;" x="292.986667" xlink:href="#m3c71c90346" y="164.733333"/>
     <use style="fill:#0000ff;stroke:#0000ff;stroke-linejoin:miter;" x="340.624" xlink:href="#m3c71c90346" y="127.5"/>
     <use style="fill:#0000ff;stroke:#0000ff;stroke-linejoin:miter;" x="327.013333" xlink:href="#m3c71c90346" y="164.733333"/>
     <use style="fill:#0000ff;stroke:#0000ff;stroke-linejoin:miter;" x="374.650667" xlink:href="#m3c71c90346" y="134.946667"/>
     <use style="fill:#0000ff;stroke:#0000ff;stroke-linejoin:miter;" x="299.792" xlink:href="#m3c71c90346" y="142.393333"/>
     <use style="fill:#0000ff;stroke:#0000ff;stroke-linejoin:miter;" x="354.234667" xlink:href="#m3c71c90346" y="134.946667"/>
     <use style="fill:#0000ff;stroke:#0000ff;stroke-linejoin:miter;" x="361.04" xlink:href="#m3c71c90346" y="127.5"/>
     <use style="fill:#0000ff;stroke:#0000ff;stroke-linejoin:miter;" x="333.818667" xlink:href="#m3c71c90346" y="164.733333"/>
     <use style="fill:#0000ff;stroke:#0000ff;stroke-linejoin:miter;" x="361.04" xlink:href="#m3c71c90346" y="127.5"/>
     <use style="fill:#0000ff;stroke:#0000ff;stroke-linejoin:miter;" x="320.208" xlink:href="#m3c71c90346" y="157.286667"/>
     <use style="fill:#0000ff;stroke:#0000ff;stroke-linejoin:miter;" x="327.013333" xlink:href="#m3c71c90346" y="142.393333"/>
     <use style="fill:#0000ff;stroke:#0000ff;stroke-linejoin:miter;" x="388.261333" xlink:href="#m3c71c90346" y="127.5"/>
     <use style="fill:#0000ff;stroke:#0000ff;stroke-linejoin:miter;" x="374.650667" xlink:href="#m3c71c90346" y="149.84"/>
     <use style="fill:#0000ff;stroke:#0000ff;stroke-linejoin:miter;" x="347.429333" xlink:href="#m3c71c90346" y="142.393333"/>
     <use style="fill:#0000ff;stroke:#0000ff;stroke-linejoin:miter;" x="354.234667" xlink:href="#m3c71c90346" y="134.946667"/>
     <use style="fill:#0000ff;stroke:#0000ff;stroke-linejoin:miter;" x="381.456" xlink:href="#m3c71c90346" y="134.946667"/>
     <use style="fill:#0000ff;stroke:#0000ff;stroke-linejoin:miter;" x="395.066667" xlink:href="#m3c71c90346" y="112.606667"/>
     <use style="fill:#0000ff;stroke:#0000ff;stroke-linejoin:miter;" x="361.04" xlink:href="#m3c71c90346" y="127.5"/>
     <use style="fill:#0000ff;stroke:#0000ff;stroke-linejoin:miter;" x="292.986667" xlink:href="#m3c71c90346" y="164.733333"/>
     <use style="fill:#0000ff;stroke:#0000ff;stroke-linejoin:miter;" x="313.402667" xlink:href="#m3c71c90346" y="157.286667"/>
     <use style="fill:#0000ff;stroke:#0000ff;stroke-linejoin:miter;" x="306.597333" xlink:href="#m3c71c90346" y="164.733333"/>
     <use style="fill:#0000ff;stroke:#0000ff;stroke-linejoin:miter;" x="320.208" xlink:href="#m3c71c90346" y="149.84"/>
     <use style="fill:#0000ff;stroke:#0000ff;stroke-linejoin:miter;" x="401.872" xlink:href="#m3c71c90346" y="120.053333"/>
     <use style="fill:#0000ff;stroke:#0000ff;stroke-linejoin:miter;" x="361.04" xlink:href="#m3c71c90346" y="127.5"/>
     <use style="fill:#0000ff;stroke:#0000ff;stroke-linejoin:miter;" x="361.04" xlink:href="#m3c71c90346" y="120.053333"/>
     <use style="fill:#0000ff;stroke:#0000ff;stroke-linejoin:miter;" x="374.650667" xlink:href="#m3c71c90346" y="127.5"/>
     <use style="fill:#0000ff;stroke:#0000ff;stroke-linejoin:miter;" x="354.234667" xlink:href="#m3c71c90346" y="142.393333"/>
     <use style="fill:#0000ff;stroke:#0000ff;stroke-linejoin:miter;" x="333.818667" xlink:href="#m3c71c90346" y="142.393333"/>
     <use style="fill:#0000ff;stroke:#0000ff;stroke-linejoin:miter;" x="327.013333" xlink:href="#m3c71c90346" y="142.393333"/>
     <use style="fill:#0000ff;stroke:#0000ff;stroke-linejoin:miter;" x="354.234667" xlink:href="#m3c71c90346" y="149.84"/>
     <use style="fill:#0000ff;stroke:#0000ff;stroke-linejoin:miter;" x="367.845333" xlink:href="#m3c71c90346" y="134.946667"/>
     <use style="fill:#0000ff;stroke:#0000ff;stroke-linejoin:miter;" x="327.013333" xlink:href="#m3c71c90346" y="149.84"/>
     <use style="fill:#0000ff;stroke:#0000ff;stroke-linejoin:miter;" x="279.376" xlink:href="#m3c71c90346" y="164.733333"/>
     <use style="fill:#0000ff;stroke:#0000ff;stroke-linejoin:miter;" x="340.624" xlink:href="#m3c71c90346" y="142.393333"/>
     <use style="fill:#0000ff;stroke:#0000ff;stroke-linejoin:miter;" x="340.624" xlink:href="#m3c71c90346" y="149.84"/>
     <use style="fill:#0000ff;stroke:#0000ff;stroke-linejoin:miter;" x="340.624" xlink:href="#m3c71c90346" y="142.393333"/>
     <use style="fill:#0000ff;stroke:#0000ff;stroke-linejoin:miter;" x="347.429333" xlink:href="#m3c71c90346" y="142.393333"/>
     <use style="fill:#0000ff;stroke:#0000ff;stroke-linejoin:miter;" x="258.96" xlink:href="#m3c71c90346" y="157.286667"/>
     <use style="fill:#0000ff;stroke:#0000ff;stroke-linejoin:miter;" x="333.818667" xlink:href="#m3c71c90346" y="142.393333"/>
    </g>
   </g>
   <g id="line2d_18">
    <defs>
     <path d="M 0 -3 
L -3 3 
L 3 3 
z
" id="m202d4f0013" style="stroke:#008000;stroke-linejoin:miter;"/>
    </defs>
    <g clip-path="url(#p2d35fa91d9)">
     <use style="fill:#008000;stroke:#008000;stroke-linejoin:miter;" x="463.12" xlink:href="#m202d4f0013" y="53.033333"/>
     <use style="fill:#008000;stroke:#008000;stroke-linejoin:miter;" x="401.872" xlink:href="#m202d4f0013" y="97.713333"/>
     <use style="fill:#008000;stroke:#008000;stroke-linejoin:miter;" x="456.314667" xlink:href="#m202d4f0013" y="82.82"/>
     <use style="fill:#008000;stroke:#008000;stroke-linejoin:miter;" x="435.898667" xlink:href="#m202d4f0013" y="105.16"/>
     <use style="fill:#008000;stroke:#008000;stroke-linejoin:miter;" x="449.509333" xlink:href="#m202d4f0013" y="75.373333"/>
     <use style="fill:#008000;stroke:#008000;stroke-linejoin:miter;" x="503.952" xlink:href="#m202d4f0013" y="82.82"/>
     <use style="fill:#008000;stroke:#008000;stroke-linejoin:miter;" x="361.04" xlink:href="#m202d4f0013" y="112.606667"/>
     <use style="fill:#008000;stroke:#008000;stroke-linejoin:miter;" x="483.536" xlink:href="#m202d4f0013" y="105.16"/>
     <use style="fill:#008000;stroke:#008000;stroke-linejoin:miter;" x="449.509333" xlink:href="#m202d4f0013" y="105.16"/>
     <use style="fill:#008000;stroke:#008000;stroke-linejoin:miter;" x="469.925333" xlink:href="#m202d4f0013" y="53.033333"/>
     <use style="fill:#008000;stroke:#008000;stroke-linejoin:miter;" x="401.872" xlink:href="#m202d4f0013" y="90.266667"/>
     <use style="fill:#008000;stroke:#008000;stroke-linejoin:miter;" x="415.482667" xlink:href="#m202d4f0013" y="97.713333"/>
     <use style="fill:#008000;stroke:#008000;stroke-linejoin:miter;" x="429.093333" xlink:href="#m202d4f0013" y="82.82"/>
     <use style="fill:#008000;stroke:#008000;stroke-linejoin:miter;" x="395.066667" xlink:href="#m202d4f0013" y="90.266667"/>
     <use style="fill:#008000;stroke:#008000;stroke-linejoin:miter;" x="401.872" xlink:href="#m202d4f0013" y="60.48"/>
     <use style="fill:#008000;stroke:#008000;stroke-linejoin:miter;" x="415.482667" xlink:href="#m202d4f0013" y="67.926667"/>
     <use style="fill:#008000;stroke:#008000;stroke-linejoin:miter;" x="429.093333" xlink:href="#m202d4f0013" y="105.16"/>
     <use style="fill:#008000;stroke:#008000;stroke-linejoin:miter;" x="510.757333" xlink:href="#m202d4f0013" y="75.373333"/>
     <use style="fill:#008000;stroke:#008000;stroke-linejoin:miter;" x="524.368" xlink:href="#m202d4f0013" y="67.926667"/>
     <use style="fill:#008000;stroke:#008000;stroke-linejoin:miter;" x="395.066667" xlink:href="#m202d4f0013" y="127.5"/>
     <use style="fill:#008000;stroke:#008000;stroke-linejoin:miter;" x="442.704" xlink:href="#m202d4f0013" y="67.926667"/>
     <use style="fill:#008000;stroke:#008000;stroke-linejoin:miter;" x="388.261333" xlink:href="#m202d4f0013" y="90.266667"/>
     <use style="fill:#008000;stroke:#008000;stroke-linejoin:miter;" x="510.757333" xlink:href="#m202d4f0013" y="90.266667"/>
     <use style="fill:#008000;stroke:#008000;stroke-linejoin:miter;" x="388.261333" xlink:href="#m202d4f0013" y="105.16"/>
     <use style="fill:#008000;stroke:#008000;stroke-linejoin:miter;" x="442.704" xlink:href="#m202d4f0013" y="82.82"/>
     <use style="fill:#008000;stroke:#008000;stroke-linejoin:miter;" x="463.12" xlink:href="#m202d4f0013" y="105.16"/>
     <use style="fill:#008000;stroke:#008000;stroke-linejoin:miter;" x="381.456" xlink:href="#m202d4f0013" y="105.16"/>
     <use style="fill:#008000;stroke:#008000;stroke-linejoin:miter;" x="388.261333" xlink:href="#m202d4f0013" y="105.16"/>
     <use style="fill:#008000;stroke:#008000;stroke-linejoin:miter;" x="435.898667" xlink:href="#m202d4f0013" y="82.82"/>
     <use style="fill:#008000;stroke:#008000;stroke-linejoin:miter;" x="449.509333" xlink:href="#m202d4f0013" y="120.053333"/>
     <use style="fill:#008000;stroke:#008000;stroke-linejoin:miter;" x="469.925333" xlink:href="#m202d4f0013" y="97.713333"/>
     <use style="fill:#008000;stroke:#008000;stroke-linejoin:miter;" x="490.341333" xlink:href="#m202d4f0013" y="90.266667"/>
     <use style="fill:#008000;stroke:#008000;stroke-linejoin:miter;" x="435.898667" xlink:href="#m202d4f0013" y="75.373333"/>
     <use style="fill:#008000;stroke:#008000;stroke-linejoin:miter;" x="401.872" xlink:href="#m202d4f0013" y="127.5"/>
     <use style="fill:#008000;stroke:#008000;stroke-linejoin:miter;" x="435.898667" xlink:href="#m202d4f0013" y="134.946667"/>
     <use style="fill:#008000;stroke:#008000;stroke-linejoin:miter;" x="469.925333" xlink:href="#m202d4f0013" y="67.926667"/>
     <use style="fill:#008000;stroke:#008000;stroke-linejoin:miter;" x="435.898667" xlink:href="#m202d4f0013" y="60.48"/>
     <use style="fill:#008000;stroke:#008000;stroke-linejoin:miter;" x="429.093333" xlink:href="#m202d4f0013" y="105.16"/>
     <use style="fill:#008000;stroke:#008000;stroke-linejoin:miter;" x="381.456" xlink:href="#m202d4f0013" y="105.16"/>
     <use style="fill:#008000;stroke:#008000;stroke-linejoin:miter;" x="422.288" xlink:href="#m202d4f0013" y="82.82"/>
     <use style="fill:#008000;stroke:#008000;stroke-linejoin:miter;" x="435.898667" xlink:href="#m202d4f0013" y="60.48"/>
     <use style="fill:#008000;stroke:#008000;stroke-linejoin:miter;" x="401.872" xlink:href="#m202d4f0013" y="67.926667"/>
     <use style="fill:#008000;stroke:#008000;stroke-linejoin:miter;" x="401.872" xlink:href="#m202d4f0013" y="97.713333"/>
     <use style="fill:#008000;stroke:#008000;stroke-linejoin:miter;" x="456.314667" xlink:href="#m202d4f0013" y="67.926667"/>
     <use style="fill:#008000;stroke:#008000;stroke-linejoin:miter;" x="442.704" xlink:href="#m202d4f0013" y="53.033333"/>
     <use style="fill:#008000;stroke:#008000;stroke-linejoin:miter;" x="408.677333" xlink:href="#m202d4f0013" y="67.926667"/>
     <use style="fill:#008000;stroke:#008000;stroke-linejoin:miter;" x="395.066667" xlink:href="#m202d4f0013" y="97.713333"/>
     <use style="fill:#008000;stroke:#008000;stroke-linejoin:miter;" x="408.677333" xlink:href="#m202d4f0013" y="90.266667"/>
     <use style="fill:#008000;stroke:#008000;stroke-linejoin:miter;" x="422.288" xlink:href="#m202d4f0013" y="67.926667"/>
     <use style="fill:#008000;stroke:#008000;stroke-linejoin:miter;" x="401.872" xlink:href="#m202d4f0013" y="105.16"/>
    </g>
   </g>
   <g id="line2d_19">
    <path clip-path="url(#p2d35fa91d9)" d="M 54.8 179.626667 
L 565.2 179.626667 
" style="fill:none;stroke:#000000;stroke-linecap:square;stroke-width:2;"/>
   </g>
   <g id="line2d_20">
    <path clip-path="url(#p2d35fa91d9)" d="M 54.8 108.883333 
L 565.2 108.883333 
" style="fill:none;stroke:#000000;stroke-dasharray:7.4,3.2;stroke-dashoffset:0;stroke-width:2;"/>
   </g>
   <g id="patch_3">
    <path d="M 54.8 239.2 
L 54.8 15.8 
" style="fill:none;stroke:#000000;stroke-linecap:square;stroke-linejoin:miter;stroke-width:0.8;"/>
   </g>
   <g id="patch_4">
    <path d="M 565.2 239.2 
L 565.2 15.8 
" style="fill:none;stroke:#000000;stroke-linecap:square;stroke-linejoin:miter;stroke-width:0.8;"/>
   </g>
   <g id="patch_5">
    <path d="M 54.8 239.2 
L 565.2 239.2 
" style="fill:none;stroke:#000000;stroke-linecap:square;stroke-linejoin:miter;stroke-width:0.8;"/>
   </g>
   <g id="patch_6">
    <path d="M 54.8 15.8 
L 565.2 15.8 
" style="fill:none;stroke:#000000;stroke-linecap:square;stroke-linejoin:miter;stroke-width:0.8;"/>
   </g>
   <g id="text_18">
    <text style="font-family:DejaVu Sans;font-size:15px;font-style:normal;font-weight:normal;text-anchor:start;" transform="rotate(-0, 122.853333, 172.18)" x="122.853333" y="172.18">Depth=0</text>
   </g>
   <g id="text_19">
    <text style="font-family:DejaVu Sans;font-size:13px;font-style:normal;font-weight:normal;text-anchor:start;" transform="rotate(-0, 122.853333, 105.16)" x="122.853333" y="105.16">Depth=1</text>
   </g>
  </g>
 </g>
 <defs>
  <clipPath id="p2d35fa91d9">
   <rect height="223.4" width="510.4" x="54.8" y="15.8"/>
  </clipPath>
 </defs>
</svg>
