<?xml version="1.0" encoding="utf-8" standalone="no"?>
<!DOCTYPE svg PUBLIC "-//W3C//DTD SVG 1.1//EN"
  "http://www.w3.org/Graphics/SVG/1.1/DTD/svg11.dtd">
<!-- Created with matplotlib (https://matplotlib.org/) -->
<svg height="288pt" version="1.1" viewBox="0 0 576 288" width="576pt" xmlns="http://www.w3.org/2000/svg" xmlns:xlink="http://www.w3.org/1999/xlink">
 <defs>
  <style type="text/css">
*{stroke-linecap:butt;stroke-linejoin:round;}
  </style>
 </defs>
 <g id="figure_1">
  <g id="patch_1">
   <path d="M 0 288 
L 576 288 
L 576 0 
L 0 0 
z
" style="fill:#ffffff;"/>
  </g>
  <g id="axes_1">
   <g id="patch_2">
    <path d="M 54.8 239.2 
L 565.2 239.2 
L 565.2 15.8 
L 54.8 15.8 
z
" style="fill:#ffffff;"/>
   </g>
   <g id="PathCollection_1">
    <path clip-path="url(#pad347d04e8)" d="M 59.955556 239.2 
L 65.111111 239.2 
L 70.266667 239.2 
L 75.422222 239.2 
L 80.577778 239.2 
L 85.733333 239.2 
L 90.888889 239.2 
L 96.044444 239.2 
L 101.2 239.2 
L 106.355556 239.2 
L 111.511111 239.2 
L 116.666667 239.2 
L 121.822222 239.2 
L 126.977778 239.2 
L 132.133333 239.2 
L 137.288889 239.2 
L 142.444444 239.2 
L 147.6 239.2 
L 152.755556 239.2 
L 157.911111 239.2 
L 163.066667 239.2 
L 168.222222 239.2 
L 173.377778 239.2 
L 178.533333 239.2 
L 183.688889 239.2 
L 188.844444 239.2 
L 194 239.2 
L 199.155556 239.2 
L 204.311111 239.2 
L 209.466667 239.2 
L 214.622222 239.2 
L 219.777778 239.2 
L 221.066667 239.2 
L 221.066667 236.943434 
L 221.066667 234.686869 
L 221.066667 232.430303 
L 221.066667 230.173737 
L 221.066667 227.917172 
L 221.066667 225.660606 
L 221.066667 223.40404 
L 221.066667 221.147475 
L 221.066667 218.890909 
L 221.066667 216.634343 
L 221.066667 214.377778 
L 221.066667 212.121212 
L 221.066667 209.864646 
L 221.066667 207.608081 
L 221.066667 205.351515 
L 221.066667 203.094949 
L 221.066667 200.838384 
L 221.066667 198.581818 
L 221.066667 196.325253 
L 221.066667 194.068687 
L 221.066667 191.812121 
L 221.066667 189.555556 
L 221.066667 187.29899 
L 221.066667 185.042424 
L 221.066667 182.785859 
L 221.066667 180.529293 
L 221.066667 178.272727 
L 221.066667 176.016162 
L 221.066667 173.759596 
L 221.066667 171.50303 
L 221.066667 169.246465 
L 221.066667 166.989899 
L 221.066667 164.733333 
L 221.066667 162.476768 
L 221.066667 160.220202 
L 221.066667 157.963636 
L 221.066667 155.707071 
L 221.066667 153.450505 
L 221.066667 151.193939 
L 221.066667 148.937374 
L 221.066667 146.680808 
L 221.066667 144.424242 
L 221.066667 142.167677 
L 221.066667 139.911111 
L 221.066667 137.654545 
L 221.066667 135.39798 
L 221.066667 133.141414 
L 221.066667 130.884848 
L 221.066667 128.628283 
L 221.066667 126.371717 
L 221.066667 124.115152 
L 221.066667 121.858586 
L 221.066667 119.60202 
L 221.066667 117.345455 
L 221.066667 115.088889 
L 221.066667 112.832323 
L 221.066667 110.575758 
L 220.422222 108.319192 
L 220.422222 106.062626 
L 220.422222 103.806061 
L 220.422222 101.549495 
L 220.422222 99.292929 
L 220.422222 97.036364 
L 220.422222 94.779798 
L 220.422222 92.523232 
L 220.422222 90.266667 
L 220.422222 88.010101 
L 220.422222 85.753535 
L 220.422222 83.49697 
L 220.422222 81.240404 
L 220.422222 78.983838 
L 220.422222 76.727273 
L 220.422222 74.470707 
L 220.422222 72.214141 
L 220.422222 69.957576 
L 220.422222 67.70101 
L 220.422222 65.444444 
L 220.422222 63.187879 
L 220.422222 60.931313 
L 220.422222 58.674747 
L 220.422222 56.418182 
L 220.422222 54.161616 
L 220.422222 51.905051 
L 220.422222 49.648485 
L 220.422222 47.391919 
L 220.422222 45.135354 
L 220.422222 42.878788 
L 220.422222 40.622222 
L 220.422222 38.365657 
L 220.422222 36.109091 
L 220.422222 33.852525 
L 220.422222 31.59596 
L 220.422222 29.339394 
L 220.422222 27.082828 
L 220.422222 24.826263 
L 220.422222 22.569697 
L 220.422222 20.313131 
L 220.422222 18.056566 
L 220.422222 15.8 
L 219.777778 15.8 
L 214.622222 15.8 
L 209.466667 15.8 
L 204.311111 15.8 
L 199.155556 15.8 
L 194 15.8 
L 188.844444 15.8 
L 183.688889 15.8 
L 178.533333 15.8 
L 173.377778 15.8 
L 168.222222 15.8 
L 163.066667 15.8 
L 157.911111 15.8 
L 152.755556 15.8 
L 147.6 15.8 
L 142.444444 15.8 
L 137.288889 15.8 
L 132.133333 15.8 
L 126.977778 15.8 
L 121.822222 15.8 
L 116.666667 15.8 
L 111.511111 15.8 
L 106.355556 15.8 
L 101.2 15.8 
L 96.044444 15.8 
L 90.888889 15.8 
L 85.733333 15.8 
L 80.577778 15.8 
L 75.422222 15.8 
L 70.266667 15.8 
L 65.111111 15.8 
L 59.955556 15.8 
L 54.8 15.8 
L 54.8 18.056566 
L 54.8 20.313131 
L 54.8 22.569697 
L 54.8 24.826263 
L 54.8 27.082828 
L 54.8 29.339394 
L 54.8 31.59596 
L 54.8 33.852525 
L 54.8 36.109091 
L 54.8 38.365657 
L 54.8 40.622222 
L 54.8 42.878788 
L 54.8 45.135354 
L 54.8 47.391919 
L 54.8 49.648485 
L 54.8 51.905051 
L 54.8 54.161616 
L 54.8 56.418182 
L 54.8 58.674747 
L 54.8 60.931313 
L 54.8 63.187879 
L 54.8 65.444444 
L 54.8 67.70101 
L 54.8 69.957576 
L 54.8 72.214141 
L 54.8 74.470707 
L 54.8 76.727273 
L 54.8 78.983838 
L 54.8 81.240404 
L 54.8 83.49697 
L 54.8 85.753535 
L 54.8 88.010101 
L 54.8 90.266667 
L 54.8 92.523232 
L 54.8 94.779798 
L 54.8 97.036364 
L 54.8 99.292929 
L 54.8 101.549495 
L 54.8 103.806061 
L 54.8 106.062626 
L 54.8 108.319192 
L 54.8 110.575758 
L 54.8 112.832323 
L 54.8 115.088889 
L 54.8 117.345455 
L 54.8 119.60202 
L 54.8 121.858586 
L 54.8 124.115152 
L 54.8 126.371717 
L 54.8 128.628283 
L 54.8 130.884848 
L 54.8 133.141414 
L 54.8 135.39798 
L 54.8 137.654545 
L 54.8 139.911111 
L 54.8 142.167677 
L 54.8 144.424242 
L 54.8 146.680808 
L 54.8 148.937374 
L 54.8 151.193939 
L 54.8 153.450505 
L 54.8 155.707071 
L 54.8 157.963636 
L 54.8 160.220202 
L 54.8 162.476768 
L 54.8 164.733333 
L 54.8 166.989899 
L 54.8 169.246465 
L 54.8 171.50303 
L 54.8 173.759596 
L 54.8 176.016162 
L 54.8 178.272727 
L 54.8 180.529293 
L 54.8 182.785859 
L 54.8 185.042424 
L 54.8 187.29899 
L 54.8 189.555556 
L 54.8 191.812121 
L 54.8 194.068687 
L 54.8 196.325253 
L 54.8 198.581818 
L 54.8 200.838384 
L 54.8 203.094949 
L 54.8 205.351515 
L 54.8 207.608081 
L 54.8 209.864646 
L 54.8 212.121212 
L 54.8 214.377778 
L 54.8 216.634343 
L 54.8 218.890909 
L 54.8 221.147475 
L 54.8 223.40404 
L 54.8 225.660606 
L 54.8 227.917172 
L 54.8 230.173737 
L 54.8 232.430303 
L 54.8 234.686869 
L 54.8 236.943434 
L 54.8 239.2 
z
" style="fill:#fafab0;fill-opacity:0.3;"/>
   </g>
   <g id="PathCollection_2">
    <path clip-path="url(#pad347d04e8)" d="M 222.355556 236.943434 
L 222.355556 234.686869 
L 222.355556 232.430303 
L 222.355556 230.173737 
L 222.355556 227.917172 
L 222.355556 225.660606 
L 222.355556 223.40404 
L 222.355556 221.147475 
L 222.355556 218.890909 
L 222.355556 216.634343 
L 222.355556 214.377778 
L 222.355556 212.121212 
L 222.355556 209.864646 
L 222.355556 207.608081 
L 222.355556 205.351515 
L 222.355556 203.094949 
L 222.355556 200.838384 
L 222.355556 198.581818 
L 222.355556 196.325253 
L 222.355556 194.068687 
L 222.355556 191.812121 
L 222.355556 189.555556 
L 222.355556 187.29899 
L 222.355556 185.042424 
L 222.355556 182.785859 
L 222.355556 180.529293 
L 222.355556 178.272727 
L 222.355556 176.016162 
L 222.355556 173.759596 
L 222.355556 171.50303 
L 222.355556 169.246465 
L 222.355556 166.989899 
L 222.355556 164.733333 
L 222.355556 162.476768 
L 222.355556 160.220202 
L 222.355556 157.963636 
L 222.355556 155.707071 
L 222.355556 153.450505 
L 222.355556 151.193939 
L 222.355556 148.937374 
L 222.355556 146.680808 
L 222.355556 144.424242 
L 222.355556 142.167677 
L 222.355556 139.911111 
L 222.355556 137.654545 
L 222.355556 135.39798 
L 222.355556 133.141414 
L 222.355556 130.884848 
L 222.355556 128.628283 
L 222.355556 126.371717 
L 222.355556 124.115152 
L 222.355556 121.858586 
L 222.355556 119.60202 
L 222.355556 117.345455 
L 222.355556 115.088889 
L 222.355556 112.832323 
L 222.355556 110.575758 
L 221.066667 108.319192 
L 221.066667 106.062626 
L 221.066667 103.806061 
L 221.066667 101.549495 
L 221.066667 99.292929 
L 221.066667 97.036364 
L 221.066667 94.779798 
L 221.066667 92.523232 
L 221.066667 90.266667 
L 221.066667 88.010101 
L 221.066667 85.753535 
L 221.066667 83.49697 
L 221.066667 81.240404 
L 221.066667 78.983838 
L 221.066667 76.727273 
L 221.066667 74.470707 
L 221.066667 72.214141 
L 221.066667 69.957576 
L 221.066667 67.70101 
L 221.066667 65.444444 
L 221.066667 63.187879 
L 221.066667 60.931313 
L 221.066667 58.674747 
L 221.066667 56.418182 
L 221.066667 54.161616 
L 221.066667 51.905051 
L 221.066667 49.648485 
L 221.066667 47.391919 
L 221.066667 45.135354 
L 221.066667 42.878788 
L 221.066667 40.622222 
L 221.066667 38.365657 
L 221.066667 36.109091 
L 221.066667 33.852525 
L 221.066667 31.59596 
L 221.066667 29.339394 
L 221.066667 27.082828 
L 221.066667 24.826263 
L 221.066667 22.569697 
L 221.066667 20.313131 
L 221.066667 18.056566 
L 221.066667 15.8 
L 220.422222 15.8 
L 220.422222 18.056566 
L 220.422222 20.313131 
L 220.422222 22.569697 
L 220.422222 24.826263 
L 220.422222 27.082828 
L 220.422222 29.339394 
L 220.422222 31.59596 
L 220.422222 33.852525 
L 220.422222 36.109091 
L 220.422222 38.365657 
L 220.422222 40.622222 
L 220.422222 42.878788 
L 220.422222 45.135354 
L 220.422222 47.391919 
L 220.422222 49.648485 
L 220.422222 51.905051 
L 220.422222 54.161616 
L 220.422222 56.418182 
L 220.422222 58.674747 
L 220.422222 60.931313 
L 220.422222 63.187879 
L 220.422222 65.444444 
L 220.422222 67.70101 
L 220.422222 69.957576 
L 220.422222 72.214141 
L 220.422222 74.470707 
L 220.422222 76.727273 
L 220.422222 78.983838 
L 220.422222 81.240404 
L 220.422222 83.49697 
L 220.422222 85.753535 
L 220.422222 88.010101 
L 220.422222 90.266667 
L 220.422222 92.523232 
L 220.422222 94.779798 
L 220.422222 97.036364 
L 220.422222 99.292929 
L 220.422222 101.549495 
L 220.422222 103.806061 
L 220.422222 106.062626 
L 220.422222 108.319192 
L 221.066667 110.575758 
L 221.066667 112.832323 
L 221.066667 115.088889 
L 221.066667 117.345455 
L 221.066667 119.60202 
L 221.066667 121.858586 
L 221.066667 124.115152 
L 221.066667 126.371717 
L 221.066667 128.628283 
L 221.066667 130.884848 
L 221.066667 133.141414 
L 221.066667 135.39798 
L 221.066667 137.654545 
L 221.066667 139.911111 
L 221.066667 142.167677 
L 221.066667 144.424242 
L 221.066667 146.680808 
L 221.066667 148.937374 
L 221.066667 151.193939 
L 221.066667 153.450505 
L 221.066667 155.707071 
L 221.066667 157.963636 
L 221.066667 160.220202 
L 221.066667 162.476768 
L 221.066667 164.733333 
L 221.066667 166.989899 
L 221.066667 169.246465 
L 221.066667 171.50303 
L 221.066667 173.759596 
L 221.066667 176.016162 
L 221.066667 178.272727 
L 221.066667 180.529293 
L 221.066667 182.785859 
L 221.066667 185.042424 
L 221.066667 187.29899 
L 221.066667 189.555556 
L 221.066667 191.812121 
L 221.066667 194.068687 
L 221.066667 196.325253 
L 221.066667 198.581818 
L 221.066667 200.838384 
L 221.066667 203.094949 
L 221.066667 205.351515 
L 221.066667 207.608081 
L 221.066667 209.864646 
L 221.066667 212.121212 
L 221.066667 214.377778 
L 221.066667 216.634343 
L 221.066667 218.890909 
L 221.066667 221.147475 
L 221.066667 223.40404 
L 221.066667 225.660606 
L 221.066667 227.917172 
L 221.066667 230.173737 
L 221.066667 232.430303 
L 221.066667 234.686869 
L 221.066667 236.943434 
L 221.066667 239.2 
L 222.355556 239.2 
z
" style="fill:#fafab0;fill-opacity:0.3;"/>
   </g>
   <g id="PathCollection_3">
    <path clip-path="url(#pad347d04e8)" d="M 223.644444 236.943434 
L 223.644444 234.686869 
L 223.644444 232.430303 
L 223.644444 230.173737 
L 223.644444 227.917172 
L 223.644444 225.660606 
L 223.644444 223.40404 
L 223.644444 221.147475 
L 223.644444 218.890909 
L 223.644444 216.634343 
L 223.644444 214.377778 
L 223.644444 212.121212 
L 223.644444 209.864646 
L 223.644444 207.608081 
L 223.644444 205.351515 
L 223.644444 203.094949 
L 223.644444 200.838384 
L 223.644444 198.581818 
L 223.644444 196.325253 
L 223.644444 194.068687 
L 223.644444 191.812121 
L 223.644444 189.555556 
L 223.644444 187.29899 
L 223.644444 185.042424 
L 223.644444 182.785859 
L 223.644444 180.529293 
L 223.644444 178.272727 
L 223.644444 176.016162 
L 223.644444 173.759596 
L 223.644444 171.50303 
L 223.644444 169.246465 
L 223.644444 166.989899 
L 223.644444 164.733333 
L 223.644444 162.476768 
L 223.644444 160.220202 
L 223.644444 157.963636 
L 223.644444 155.707071 
L 223.644444 153.450505 
L 223.644444 151.193939 
L 223.644444 148.937374 
L 223.644444 146.680808 
L 223.644444 144.424242 
L 223.644444 142.167677 
L 223.644444 139.911111 
L 223.644444 137.654545 
L 223.644444 135.39798 
L 223.644444 133.141414 
L 223.644444 130.884848 
L 223.644444 128.628283 
L 223.644444 126.371717 
L 223.644444 124.115152 
L 223.644444 121.858586 
L 223.644444 119.60202 
L 223.644444 117.345455 
L 223.644444 115.088889 
L 223.644444 112.832323 
L 223.644444 110.575758 
L 221.711111 108.319192 
L 221.711111 106.062626 
L 221.711111 103.806061 
L 221.711111 101.549495 
L 221.711111 99.292929 
L 221.711111 97.036364 
L 221.711111 94.779798 
L 221.711111 92.523232 
L 221.711111 90.266667 
L 221.711111 88.010101 
L 221.711111 85.753535 
L 221.711111 83.49697 
L 221.711111 81.240404 
L 221.711111 78.983838 
L 221.711111 76.727273 
L 221.711111 74.470707 
L 221.711111 72.214141 
L 221.711111 69.957576 
L 221.711111 67.70101 
L 221.711111 65.444444 
L 221.711111 63.187879 
L 221.711111 60.931313 
L 221.711111 58.674747 
L 221.711111 56.418182 
L 221.711111 54.161616 
L 221.711111 51.905051 
L 221.711111 49.648485 
L 221.711111 47.391919 
L 221.711111 45.135354 
L 221.711111 42.878788 
L 221.711111 40.622222 
L 221.711111 38.365657 
L 221.711111 36.109091 
L 221.711111 33.852525 
L 221.711111 31.59596 
L 221.711111 29.339394 
L 221.711111 27.082828 
L 221.711111 24.826263 
L 221.711111 22.569697 
L 221.711111 20.313131 
L 221.711111 18.056566 
L 221.711111 15.8 
L 221.066667 15.8 
L 221.066667 18.056566 
L 221.066667 20.313131 
L 221.066667 22.569697 
L 221.066667 24.826263 
L 221.066667 27.082828 
L 221.066667 29.339394 
L 221.066667 31.59596 
L 221.066667 33.852525 
L 221.066667 36.109091 
L 221.066667 38.365657 
L 221.066667 40.622222 
L 221.066667 42.878788 
L 221.066667 45.135354 
L 221.066667 47.391919 
L 221.066667 49.648485 
L 221.066667 51.905051 
L 221.066667 54.161616 
L 221.066667 56.418182 
L 221.066667 58.674747 
L 221.066667 60.931313 
L 221.066667 63.187879 
L 221.066667 65.444444 
L 221.066667 67.70101 
L 221.066667 69.957576 
L 221.066667 72.214141 
L 221.066667 74.470707 
L 221.066667 76.727273 
L 221.066667 78.983838 
L 221.066667 81.240404 
L 221.066667 83.49697 
L 221.066667 85.753535 
L 221.066667 88.010101 
L 221.066667 90.266667 
L 221.066667 92.523232 
L 221.066667 94.779798 
L 221.066667 97.036364 
L 221.066667 99.292929 
L 221.066667 101.549495 
L 221.066667 103.806061 
L 221.066667 106.062626 
L 221.066667 108.319192 
L 222.355556 110.575758 
L 222.355556 112.832323 
L 222.355556 115.088889 
L 222.355556 117.345455 
L 222.355556 119.60202 
L 222.355556 121.858586 
L 222.355556 124.115152 
L 222.355556 126.371717 
L 222.355556 128.628283 
L 222.355556 130.884848 
L 222.355556 133.141414 
L 222.355556 135.39798 
L 222.355556 137.654545 
L 222.355556 139.911111 
L 222.355556 142.167677 
L 222.355556 144.424242 
L 222.355556 146.680808 
L 222.355556 148.937374 
L 222.355556 151.193939 
L 222.355556 153.450505 
L 222.355556 155.707071 
L 222.355556 157.963636 
L 222.355556 160.220202 
L 222.355556 162.476768 
L 222.355556 164.733333 
L 222.355556 166.989899 
L 222.355556 169.246465 
L 222.355556 171.50303 
L 222.355556 173.759596 
L 222.355556 176.016162 
L 222.355556 178.272727 
L 222.355556 180.529293 
L 222.355556 182.785859 
L 222.355556 185.042424 
L 222.355556 187.29899 
L 222.355556 189.555556 
L 222.355556 191.812121 
L 222.355556 194.068687 
L 222.355556 196.325253 
L 222.355556 198.581818 
L 222.355556 200.838384 
L 222.355556 203.094949 
L 222.355556 205.351515 
L 222.355556 207.608081 
L 222.355556 209.864646 
L 222.355556 212.121212 
L 222.355556 214.377778 
L 222.355556 216.634343 
L 222.355556 218.890909 
L 222.355556 221.147475 
L 222.355556 223.40404 
L 222.355556 225.660606 
L 222.355556 227.917172 
L 222.355556 230.173737 
L 222.355556 232.430303 
L 222.355556 234.686869 
L 222.355556 236.943434 
L 222.355556 239.2 
L 223.644444 239.2 
z
" style="fill:#fafab0;fill-opacity:0.3;"/>
   </g>
   <g id="PathCollection_4">
    <path clip-path="url(#pad347d04e8)" d="M 224.933333 239.2 
L 230.088889 239.2 
L 235.244444 239.2 
L 240.4 239.2 
L 245.555556 239.2 
L 250.711111 239.2 
L 255.866667 239.2 
L 261.022222 239.2 
L 266.177778 239.2 
L 271.333333 239.2 
L 276.488889 239.2 
L 281.644444 239.2 
L 286.8 239.2 
L 291.955556 239.2 
L 297.111111 239.2 
L 302.266667 239.2 
L 307.422222 239.2 
L 312.577778 239.2 
L 317.733333 239.2 
L 322.888889 239.2 
L 328.044444 239.2 
L 333.2 239.2 
L 338.355556 239.2 
L 343.511111 239.2 
L 348.666667 239.2 
L 353.822222 239.2 
L 358.977778 239.2 
L 364.133333 239.2 
L 369.288889 239.2 
L 374.444444 239.2 
L 379.6 239.2 
L 384.755556 239.2 
L 389.911111 239.2 
L 395.066667 239.2 
L 400.222222 239.2 
L 405.377778 239.2 
L 410.533333 239.2 
L 415.688889 239.2 
L 420.844444 239.2 
L 426 239.2 
L 431.155556 239.2 
L 436.311111 239.2 
L 441.466667 239.2 
L 446.622222 239.2 
L 451.777778 239.2 
L 456.933333 239.2 
L 462.088889 239.2 
L 467.244444 239.2 
L 472.4 239.2 
L 477.555556 239.2 
L 482.711111 239.2 
L 487.866667 239.2 
L 493.022222 239.2 
L 498.177778 239.2 
L 503.333333 239.2 
L 508.488889 239.2 
L 513.644444 239.2 
L 518.8 239.2 
L 523.955556 239.2 
L 529.111111 239.2 
L 534.266667 239.2 
L 539.422222 239.2 
L 544.577778 239.2 
L 549.733333 239.2 
L 554.888889 239.2 
L 560.044444 239.2 
L 565.2 239.2 
L 565.2 236.943434 
L 565.2 234.686869 
L 565.2 232.430303 
L 565.2 230.173737 
L 565.2 227.917172 
L 565.2 225.660606 
L 565.2 223.40404 
L 565.2 221.147475 
L 565.2 218.890909 
L 565.2 216.634343 
L 565.2 214.377778 
L 565.2 212.121212 
L 565.2 209.864646 
L 565.2 207.608081 
L 565.2 205.351515 
L 565.2 203.094949 
L 565.2 200.838384 
L 565.2 198.581818 
L 565.2 196.325253 
L 565.2 194.068687 
L 565.2 191.812121 
L 565.2 189.555556 
L 565.2 187.29899 
L 565.2 185.042424 
L 565.2 182.785859 
L 565.2 180.529293 
L 565.2 178.272727 
L 565.2 176.016162 
L 565.2 173.759596 
L 565.2 171.50303 
L 565.2 169.246465 
L 565.2 166.989899 
L 565.2 164.733333 
L 565.2 162.476768 
L 565.2 160.220202 
L 565.2 157.963636 
L 565.2 155.707071 
L 565.2 153.450505 
L 565.2 151.193939 
L 565.2 148.937374 
L 565.2 146.680808 
L 565.2 144.424242 
L 565.2 142.167677 
L 565.2 139.911111 
L 565.2 137.654545 
L 565.2 135.39798 
L 565.2 133.141414 
L 565.2 130.884848 
L 565.2 128.628283 
L 565.2 126.371717 
L 565.2 124.115152 
L 565.2 121.858586 
L 565.2 119.60202 
L 565.2 117.345455 
L 565.2 115.088889 
L 565.2 112.832323 
L 565.2 110.575758 
L 560.044444 110.575758 
L 554.888889 110.575758 
L 549.733333 110.575758 
L 544.577778 110.575758 
L 539.422222 110.575758 
L 534.266667 110.575758 
L 529.111111 110.575758 
L 523.955556 110.575758 
L 518.8 110.575758 
L 513.644444 110.575758 
L 508.488889 110.575758 
L 503.333333 110.575758 
L 498.177778 110.575758 
L 493.022222 110.575758 
L 487.866667 110.575758 
L 482.711111 110.575758 
L 477.555556 110.575758 
L 472.4 110.575758 
L 467.244444 110.575758 
L 462.088889 110.575758 
L 456.933333 110.575758 
L 451.777778 110.575758 
L 446.622222 110.575758 
L 441.466667 110.575758 
L 436.311111 110.575758 
L 431.155556 110.575758 
L 426 110.575758 
L 420.844444 110.575758 
L 415.688889 110.575758 
L 410.533333 110.575758 
L 405.377778 110.575758 
L 400.222222 110.575758 
L 395.066667 110.575758 
L 389.911111 110.575758 
L 384.755556 110.575758 
L 379.6 110.575758 
L 374.444444 110.575758 
L 369.288889 110.575758 
L 364.133333 110.575758 
L 358.977778 110.575758 
L 353.822222 110.575758 
L 348.666667 110.575758 
L 343.511111 110.575758 
L 338.355556 110.575758 
L 333.2 110.575758 
L 328.044444 110.575758 
L 322.888889 110.575758 
L 317.733333 110.575758 
L 312.577778 110.575758 
L 307.422222 110.575758 
L 302.266667 110.575758 
L 297.111111 110.575758 
L 291.955556 110.575758 
L 286.8 110.575758 
L 281.644444 110.575758 
L 276.488889 110.575758 
L 271.333333 110.575758 
L 266.177778 110.575758 
L 261.022222 110.575758 
L 255.866667 110.575758 
L 250.711111 110.575758 
L 245.555556 110.575758 
L 240.4 110.575758 
L 235.244444 110.575758 
L 230.088889 110.575758 
L 224.933333 110.575758 
L 222.355556 108.319192 
L 222.355556 106.062626 
L 222.355556 103.806061 
L 222.355556 101.549495 
L 222.355556 99.292929 
L 222.355556 97.036364 
L 222.355556 94.779798 
L 222.355556 92.523232 
L 222.355556 90.266667 
L 222.355556 88.010101 
L 222.355556 85.753535 
L 222.355556 83.49697 
L 222.355556 81.240404 
L 222.355556 78.983838 
L 222.355556 76.727273 
L 222.355556 74.470707 
L 222.355556 72.214141 
L 222.355556 69.957576 
L 222.355556 67.70101 
L 222.355556 65.444444 
L 222.355556 63.187879 
L 222.355556 60.931313 
L 222.355556 58.674747 
L 222.355556 56.418182 
L 222.355556 54.161616 
L 222.355556 51.905051 
L 222.355556 49.648485 
L 222.355556 47.391919 
L 222.355556 45.135354 
L 222.355556 42.878788 
L 222.355556 40.622222 
L 222.355556 38.365657 
L 222.355556 36.109091 
L 222.355556 33.852525 
L 222.355556 31.59596 
L 222.355556 29.339394 
L 222.355556 27.082828 
L 222.355556 24.826263 
L 222.355556 22.569697 
L 222.355556 20.313131 
L 222.355556 18.056566 
L 222.355556 15.8 
L 221.711111 15.8 
L 221.711111 18.056566 
L 221.711111 20.313131 
L 221.711111 22.569697 
L 221.711111 24.826263 
L 221.711111 27.082828 
L 221.711111 29.339394 
L 221.711111 31.59596 
L 221.711111 33.852525 
L 221.711111 36.109091 
L 221.711111 38.365657 
L 221.711111 40.622222 
L 221.711111 42.878788 
L 221.711111 45.135354 
L 221.711111 47.391919 
L 221.711111 49.648485 
L 221.711111 51.905051 
L 221.711111 54.161616 
L 221.711111 56.418182 
L 221.711111 58.674747 
L 221.711111 60.931313 
L 221.711111 63.187879 
L 221.711111 65.444444 
L 221.711111 67.70101 
L 221.711111 69.957576 
L 221.711111 72.214141 
L 221.711111 74.470707 
L 221.711111 76.727273 
L 221.711111 78.983838 
L 221.711111 81.240404 
L 221.711111 83.49697 
L 221.711111 85.753535 
L 221.711111 88.010101 
L 221.711111 90.266667 
L 221.711111 92.523232 
L 221.711111 94.779798 
L 221.711111 97.036364 
L 221.711111 99.292929 
L 221.711111 101.549495 
L 221.711111 103.806061 
L 221.711111 106.062626 
L 221.711111 108.319192 
L 223.644444 110.575758 
L 223.644444 112.832323 
L 223.644444 115.088889 
L 223.644444 117.345455 
L 223.644444 119.60202 
L 223.644444 121.858586 
L 223.644444 124.115152 
L 223.644444 126.371717 
L 223.644444 128.628283 
L 223.644444 130.884848 
L 223.644444 133.141414 
L 223.644444 135.39798 
L 223.644444 137.654545 
L 223.644444 139.911111 
L 223.644444 142.167677 
L 223.644444 144.424242 
L 223.644444 146.680808 
L 223.644444 148.937374 
L 223.644444 151.193939 
L 223.644444 153.450505 
L 223.644444 155.707071 
L 223.644444 157.963636 
L 223.644444 160.220202 
L 223.644444 162.476768 
L 223.644444 164.733333 
L 223.644444 166.989899 
L 223.644444 169.246465 
L 223.644444 171.50303 
L 223.644444 173.759596 
L 223.644444 176.016162 
L 223.644444 178.272727 
L 223.644444 180.529293 
L 223.644444 182.785859 
L 223.644444 185.042424 
L 223.644444 187.29899 
L 223.644444 189.555556 
L 223.644444 191.812121 
L 223.644444 194.068687 
L 223.644444 196.325253 
L 223.644444 198.581818 
L 223.644444 200.838384 
L 223.644444 203.094949 
L 223.644444 205.351515 
L 223.644444 207.608081 
L 223.644444 209.864646 
L 223.644444 212.121212 
L 223.644444 214.377778 
L 223.644444 216.634343 
L 223.644444 218.890909 
L 223.644444 221.147475 
L 223.644444 223.40404 
L 223.644444 225.660606 
L 223.644444 227.917172 
L 223.644444 230.173737 
L 223.644444 232.430303 
L 223.644444 234.686869 
L 223.644444 236.943434 
L 223.644444 239.2 
z
" style="fill:#9898ff;fill-opacity:0.3;"/>
   </g>
   <g id="PathCollection_5">
    <path clip-path="url(#pad347d04e8)" d="M 224.933333 110.575758 
L 230.088889 110.575758 
L 235.244444 110.575758 
L 240.4 110.575758 
L 245.555556 110.575758 
L 250.711111 110.575758 
L 255.866667 110.575758 
L 261.022222 110.575758 
L 266.177778 110.575758 
L 271.333333 110.575758 
L 276.488889 110.575758 
L 281.644444 110.575758 
L 286.8 110.575758 
L 291.955556 110.575758 
L 297.111111 110.575758 
L 302.266667 110.575758 
L 307.422222 110.575758 
L 312.577778 110.575758 
L 317.733333 110.575758 
L 322.888889 110.575758 
L 328.044444 110.575758 
L 333.2 110.575758 
L 338.355556 110.575758 
L 343.511111 110.575758 
L 348.666667 110.575758 
L 353.822222 110.575758 
L 358.977778 110.575758 
L 364.133333 110.575758 
L 369.288889 110.575758 
L 374.444444 110.575758 
L 379.6 110.575758 
L 384.755556 110.575758 
L 389.911111 110.575758 
L 395.066667 110.575758 
L 400.222222 110.575758 
L 405.377778 110.575758 
L 410.533333 110.575758 
L 415.688889 110.575758 
L 420.844444 110.575758 
L 426 110.575758 
L 431.155556 110.575758 
L 436.311111 110.575758 
L 441.466667 110.575758 
L 446.622222 110.575758 
L 451.777778 110.575758 
L 456.933333 110.575758 
L 462.088889 110.575758 
L 467.244444 110.575758 
L 472.4 110.575758 
L 477.555556 110.575758 
L 482.711111 110.575758 
L 487.866667 110.575758 
L 493.022222 110.575758 
L 498.177778 110.575758 
L 503.333333 110.575758 
L 508.488889 110.575758 
L 513.644444 110.575758 
L 518.8 110.575758 
L 523.955556 110.575758 
L 529.111111 110.575758 
L 534.266667 110.575758 
L 539.422222 110.575758 
L 544.577778 110.575758 
L 549.733333 110.575758 
L 554.888889 110.575758 
L 560.044444 110.575758 
L 565.2 110.575758 
L 565.2 110.011616 
L 560.044444 110.011616 
L 554.888889 110.011616 
L 549.733333 110.011616 
L 544.577778 110.011616 
L 539.422222 110.011616 
L 534.266667 110.011616 
L 529.111111 110.011616 
L 523.955556 110.011616 
L 518.8 110.011616 
L 513.644444 110.011616 
L 508.488889 110.011616 
L 503.333333 110.011616 
L 498.177778 110.011616 
L 493.022222 110.011616 
L 487.866667 110.011616 
L 482.711111 110.011616 
L 477.555556 110.011616 
L 472.4 110.011616 
L 467.244444 110.011616 
L 462.088889 110.011616 
L 456.933333 110.011616 
L 451.777778 110.011616 
L 446.622222 110.011616 
L 441.466667 110.011616 
L 436.311111 110.011616 
L 431.155556 110.011616 
L 426 110.011616 
L 420.844444 110.011616 
L 415.688889 110.011616 
L 410.533333 110.011616 
L 405.377778 110.011616 
L 400.222222 110.011616 
L 395.066667 110.011616 
L 389.911111 110.011616 
L 384.755556 110.011616 
L 379.6 110.011616 
L 374.444444 110.011616 
L 369.288889 110.011616 
L 364.133333 110.011616 
L 358.977778 110.011616 
L 353.822222 110.011616 
L 348.666667 110.011616 
L 343.511111 110.011616 
L 338.355556 110.011616 
L 333.2 110.011616 
L 328.044444 110.011616 
L 322.888889 110.011616 
L 317.733333 110.011616 
L 312.577778 110.011616 
L 307.422222 110.011616 
L 302.266667 110.011616 
L 297.111111 110.011616 
L 291.955556 110.011616 
L 286.8 110.011616 
L 281.644444 110.011616 
L 276.488889 110.011616 
L 271.333333 110.011616 
L 266.177778 110.011616 
L 261.022222 110.011616 
L 255.866667 110.011616 
L 250.711111 110.011616 
L 245.555556 110.011616 
L 240.4 110.011616 
L 235.244444 110.011616 
L 230.088889 110.011616 
L 224.933333 110.011616 
L 223 108.319192 
L 223 106.062626 
L 223 103.806061 
L 223 101.549495 
L 223 99.292929 
L 223 97.036364 
L 223 94.779798 
L 223 92.523232 
L 223 90.266667 
L 223 88.010101 
L 223 85.753535 
L 223 83.49697 
L 223 81.240404 
L 223 78.983838 
L 223 76.727273 
L 223 74.470707 
L 223 72.214141 
L 223 69.957576 
L 223 67.70101 
L 223 65.444444 
L 223 63.187879 
L 223 60.931313 
L 223 58.674747 
L 223 56.418182 
L 223 54.161616 
L 223 51.905051 
L 223 49.648485 
L 223 47.391919 
L 223 45.135354 
L 223 42.878788 
L 223 40.622222 
L 223 38.365657 
L 223 36.109091 
L 223 33.852525 
L 223 31.59596 
L 223 29.339394 
L 223 27.082828 
L 223 24.826263 
L 223 22.569697 
L 223 20.313131 
L 223 18.056566 
L 223 15.8 
L 222.355556 15.8 
L 222.355556 18.056566 
L 222.355556 20.313131 
L 222.355556 22.569697 
L 222.355556 24.826263 
L 222.355556 27.082828 
L 222.355556 29.339394 
L 222.355556 31.59596 
L 222.355556 33.852525 
L 222.355556 36.109091 
L 222.355556 38.365657 
L 222.355556 40.622222 
L 222.355556 42.878788 
L 222.355556 45.135354 
L 222.355556 47.391919 
L 222.355556 49.648485 
L 222.355556 51.905051 
L 222.355556 54.161616 
L 222.355556 56.418182 
L 222.355556 58.674747 
L 222.355556 60.931313 
L 222.355556 63.187879 
L 222.355556 65.444444 
L 222.355556 67.70101 
L 222.355556 69.957576 
L 222.355556 72.214141 
L 222.355556 74.470707 
L 222.355556 76.727273 
L 222.355556 78.983838 
L 222.355556 81.240404 
L 222.355556 83.49697 
L 222.355556 85.753535 
L 222.355556 88.010101 
L 222.355556 90.266667 
L 222.355556 92.523232 
L 222.355556 94.779798 
L 222.355556 97.036364 
L 222.355556 99.292929 
L 222.355556 101.549495 
L 222.355556 103.806061 
L 222.355556 106.062626 
L 222.355556 108.319192 
z
" style="fill:#9898ff;fill-opacity:0.3;"/>
   </g>
   <g id="PathCollection_6">
    <path clip-path="url(#pad347d04e8)" d="M 224.933333 110.011616 
L 230.088889 110.011616 
L 235.244444 110.011616 
L 240.4 110.011616 
L 245.555556 110.011616 
L 250.711111 110.011616 
L 255.866667 110.011616 
L 261.022222 110.011616 
L 266.177778 110.011616 
L 271.333333 110.011616 
L 276.488889 110.011616 
L 281.644444 110.011616 
L 286.8 110.011616 
L 291.955556 110.011616 
L 297.111111 110.011616 
L 302.266667 110.011616 
L 307.422222 110.011616 
L 312.577778 110.011616 
L 317.733333 110.011616 
L 322.888889 110.011616 
L 328.044444 110.011616 
L 333.2 110.011616 
L 338.355556 110.011616 
L 343.511111 110.011616 
L 348.666667 110.011616 
L 353.822222 110.011616 
L 358.977778 110.011616 
L 364.133333 110.011616 
L 369.288889 110.011616 
L 374.444444 110.011616 
L 379.6 110.011616 
L 384.755556 110.011616 
L 389.911111 110.011616 
L 395.066667 110.011616 
L 400.222222 110.011616 
L 405.377778 110.011616 
L 410.533333 110.011616 
L 415.688889 110.011616 
L 420.844444 110.011616 
L 426 110.011616 
L 431.155556 110.011616 
L 436.311111 110.011616 
L 441.466667 110.011616 
L 446.622222 110.011616 
L 451.777778 110.011616 
L 456.933333 110.011616 
L 462.088889 110.011616 
L 467.244444 110.011616 
L 472.4 110.011616 
L 477.555556 110.011616 
L 482.711111 110.011616 
L 487.866667 110.011616 
L 493.022222 110.011616 
L 498.177778 110.011616 
L 503.333333 110.011616 
L 508.488889 110.011616 
L 513.644444 110.011616 
L 518.8 110.011616 
L 523.955556 110.011616 
L 529.111111 110.011616 
L 534.266667 110.011616 
L 539.422222 110.011616 
L 544.577778 110.011616 
L 549.733333 110.011616 
L 554.888889 110.011616 
L 560.044444 110.011616 
L 565.2 110.011616 
L 565.2 109.447475 
L 560.044444 109.447475 
L 554.888889 109.447475 
L 549.733333 109.447475 
L 544.577778 109.447475 
L 539.422222 109.447475 
L 534.266667 109.447475 
L 529.111111 109.447475 
L 523.955556 109.447475 
L 518.8 109.447475 
L 513.644444 109.447475 
L 508.488889 109.447475 
L 503.333333 109.447475 
L 498.177778 109.447475 
L 493.022222 109.447475 
L 487.866667 109.447475 
L 482.711111 109.447475 
L 477.555556 109.447475 
L 472.4 109.447475 
L 467.244444 109.447475 
L 462.088889 109.447475 
L 456.933333 109.447475 
L 451.777778 109.447475 
L 446.622222 109.447475 
L 441.466667 109.447475 
L 436.311111 109.447475 
L 431.155556 109.447475 
L 426 109.447475 
L 420.844444 109.447475 
L 415.688889 109.447475 
L 410.533333 109.447475 
L 405.377778 109.447475 
L 400.222222 109.447475 
L 395.066667 109.447475 
L 389.911111 109.447475 
L 384.755556 109.447475 
L 379.6 109.447475 
L 374.444444 109.447475 
L 369.288889 109.447475 
L 364.133333 109.447475 
L 358.977778 109.447475 
L 353.822222 109.447475 
L 348.666667 109.447475 
L 343.511111 109.447475 
L 338.355556 109.447475 
L 333.2 109.447475 
L 328.044444 109.447475 
L 322.888889 109.447475 
L 317.733333 109.447475 
L 312.577778 109.447475 
L 307.422222 109.447475 
L 302.266667 109.447475 
L 297.111111 109.447475 
L 291.955556 109.447475 
L 286.8 109.447475 
L 281.644444 109.447475 
L 276.488889 109.447475 
L 271.333333 109.447475 
L 266.177778 109.447475 
L 261.022222 109.447475 
L 255.866667 109.447475 
L 250.711111 109.447475 
L 245.555556 109.447475 
L 240.4 109.447475 
L 235.244444 109.447475 
L 230.088889 109.447475 
L 224.933333 109.447475 
L 223.644444 108.319192 
L 223.644444 106.062626 
L 223.644444 103.806061 
L 223.644444 101.549495 
L 223.644444 99.292929 
L 223.644444 97.036364 
L 223.644444 94.779798 
L 223.644444 92.523232 
L 223.644444 90.266667 
L 223.644444 88.010101 
L 223.644444 85.753535 
L 223.644444 83.49697 
L 223.644444 81.240404 
L 223.644444 78.983838 
L 223.644444 76.727273 
L 223.644444 74.470707 
L 223.644444 72.214141 
L 223.644444 69.957576 
L 223.644444 67.70101 
L 223.644444 65.444444 
L 223.644444 63.187879 
L 223.644444 60.931313 
L 223.644444 58.674747 
L 223.644444 56.418182 
L 223.644444 54.161616 
L 223.644444 51.905051 
L 223.644444 49.648485 
L 223.644444 47.391919 
L 223.644444 45.135354 
L 223.644444 42.878788 
L 223.644444 40.622222 
L 223.644444 38.365657 
L 223.644444 36.109091 
L 223.644444 33.852525 
L 223.644444 31.59596 
L 223.644444 29.339394 
L 223.644444 27.082828 
L 223.644444 24.826263 
L 223.644444 22.569697 
L 223.644444 20.313131 
L 223.644444 18.056566 
L 223.644444 15.8 
L 223 15.8 
L 223 18.056566 
L 223 20.313131 
L 223 22.569697 
L 223 24.826263 
L 223 27.082828 
L 223 29.339394 
L 223 31.59596 
L 223 33.852525 
L 223 36.109091 
L 223 38.365657 
L 223 40.622222 
L 223 42.878788 
L 223 45.135354 
L 223 47.391919 
L 223 49.648485 
L 223 51.905051 
L 223 54.161616 
L 223 56.418182 
L 223 58.674747 
L 223 60.931313 
L 223 63.187879 
L 223 65.444444 
L 223 67.70101 
L 223 69.957576 
L 223 72.214141 
L 223 74.470707 
L 223 76.727273 
L 223 78.983838 
L 223 81.240404 
L 223 83.49697 
L 223 85.753535 
L 223 88.010101 
L 223 90.266667 
L 223 92.523232 
L 223 94.779798 
L 223 97.036364 
L 223 99.292929 
L 223 101.549495 
L 223 103.806061 
L 223 106.062626 
L 223 108.319192 
z
" style="fill:#a0faa0;fill-opacity:0.3;"/>
   </g>
   <g id="PathCollection_7">
    <path clip-path="url(#pad347d04e8)" d="M 224.933333 109.447475 
L 230.088889 109.447475 
L 235.244444 109.447475 
L 240.4 109.447475 
L 245.555556 109.447475 
L 250.711111 109.447475 
L 255.866667 109.447475 
L 261.022222 109.447475 
L 266.177778 109.447475 
L 271.333333 109.447475 
L 276.488889 109.447475 
L 281.644444 109.447475 
L 286.8 109.447475 
L 291.955556 109.447475 
L 297.111111 109.447475 
L 302.266667 109.447475 
L 307.422222 109.447475 
L 312.577778 109.447475 
L 317.733333 109.447475 
L 322.888889 109.447475 
L 328.044444 109.447475 
L 333.2 109.447475 
L 338.355556 109.447475 
L 343.511111 109.447475 
L 348.666667 109.447475 
L 353.822222 109.447475 
L 358.977778 109.447475 
L 364.133333 109.447475 
L 369.288889 109.447475 
L 374.444444 109.447475 
L 379.6 109.447475 
L 384.755556 109.447475 
L 389.911111 109.447475 
L 395.066667 109.447475 
L 400.222222 109.447475 
L 405.377778 109.447475 
L 410.533333 109.447475 
L 415.688889 109.447475 
L 420.844444 109.447475 
L 426 109.447475 
L 431.155556 109.447475 
L 436.311111 109.447475 
L 441.466667 109.447475 
L 446.622222 109.447475 
L 451.777778 109.447475 
L 456.933333 109.447475 
L 462.088889 109.447475 
L 467.244444 109.447475 
L 472.4 109.447475 
L 477.555556 109.447475 
L 482.711111 109.447475 
L 487.866667 109.447475 
L 493.022222 109.447475 
L 498.177778 109.447475 
L 503.333333 109.447475 
L 508.488889 109.447475 
L 513.644444 109.447475 
L 518.8 109.447475 
L 523.955556 109.447475 
L 529.111111 109.447475 
L 534.266667 109.447475 
L 539.422222 109.447475 
L 544.577778 109.447475 
L 549.733333 109.447475 
L 554.888889 109.447475 
L 560.044444 109.447475 
L 565.2 109.447475 
L 565.2 108.883333 
L 560.044444 108.883333 
L 554.888889 108.883333 
L 549.733333 108.883333 
L 544.577778 108.883333 
L 539.422222 108.883333 
L 534.266667 108.883333 
L 529.111111 108.883333 
L 523.955556 108.883333 
L 518.8 108.883333 
L 513.644444 108.883333 
L 508.488889 108.883333 
L 503.333333 108.883333 
L 498.177778 108.883333 
L 493.022222 108.883333 
L 487.866667 108.883333 
L 482.711111 108.883333 
L 477.555556 108.883333 
L 472.4 108.883333 
L 467.244444 108.883333 
L 462.088889 108.883333 
L 456.933333 108.883333 
L 451.777778 108.883333 
L 446.622222 108.883333 
L 441.466667 108.883333 
L 436.311111 108.883333 
L 431.155556 108.883333 
L 426 108.883333 
L 420.844444 108.883333 
L 415.688889 108.883333 
L 410.533333 108.883333 
L 405.377778 108.883333 
L 400.222222 108.883333 
L 395.066667 108.883333 
L 389.911111 108.883333 
L 384.755556 108.883333 
L 379.6 108.883333 
L 374.444444 108.883333 
L 369.288889 108.883333 
L 364.133333 108.883333 
L 358.977778 108.883333 
L 353.822222 108.883333 
L 348.666667 108.883333 
L 343.511111 108.883333 
L 338.355556 108.883333 
L 333.2 108.883333 
L 328.044444 108.883333 
L 322.888889 108.883333 
L 317.733333 108.883333 
L 312.577778 108.883333 
L 307.422222 108.883333 
L 302.266667 108.883333 
L 297.111111 108.883333 
L 291.955556 108.883333 
L 286.8 108.883333 
L 281.644444 108.883333 
L 276.488889 108.883333 
L 271.333333 108.883333 
L 266.177778 108.883333 
L 261.022222 108.883333 
L 255.866667 108.883333 
L 250.711111 108.883333 
L 245.555556 108.883333 
L 240.4 108.883333 
L 235.244444 108.883333 
L 230.088889 108.883333 
L 224.933333 108.883333 
L 224.288889 108.319192 
L 224.288889 106.062626 
L 224.288889 103.806061 
L 224.288889 101.549495 
L 224.288889 99.292929 
L 224.288889 97.036364 
L 224.288889 94.779798 
L 224.288889 92.523232 
L 224.288889 90.266667 
L 224.288889 88.010101 
L 224.288889 85.753535 
L 224.288889 83.49697 
L 224.288889 81.240404 
L 224.288889 78.983838 
L 224.288889 76.727273 
L 224.288889 74.470707 
L 224.288889 72.214141 
L 224.288889 69.957576 
L 224.288889 67.70101 
L 224.288889 65.444444 
L 224.288889 63.187879 
L 224.288889 60.931313 
L 224.288889 58.674747 
L 224.288889 56.418182 
L 224.288889 54.161616 
L 224.288889 51.905051 
L 224.288889 49.648485 
L 224.288889 47.391919 
L 224.288889 45.135354 
L 224.288889 42.878788 
L 224.288889 40.622222 
L 224.288889 38.365657 
L 224.288889 36.109091 
L 224.288889 33.852525 
L 224.288889 31.59596 
L 224.288889 29.339394 
L 224.288889 27.082828 
L 224.288889 24.826263 
L 224.288889 22.569697 
L 224.288889 20.313131 
L 224.288889 18.056566 
L 224.288889 15.8 
L 223.644444 15.8 
L 223.644444 18.056566 
L 223.644444 20.313131 
L 223.644444 22.569697 
L 223.644444 24.826263 
L 223.644444 27.082828 
L 223.644444 29.339394 
L 223.644444 31.59596 
L 223.644444 33.852525 
L 223.644444 36.109091 
L 223.644444 38.365657 
L 223.644444 40.622222 
L 223.644444 42.878788 
L 223.644444 45.135354 
L 223.644444 47.391919 
L 223.644444 49.648485 
L 223.644444 51.905051 
L 223.644444 54.161616 
L 223.644444 56.418182 
L 223.644444 58.674747 
L 223.644444 60.931313 
L 223.644444 63.187879 
L 223.644444 65.444444 
L 223.644444 67.70101 
L 223.644444 69.957576 
L 223.644444 72.214141 
L 223.644444 74.470707 
L 223.644444 76.727273 
L 223.644444 78.983838 
L 223.644444 81.240404 
L 223.644444 83.49697 
L 223.644444 85.753535 
L 223.644444 88.010101 
L 223.644444 90.266667 
L 223.644444 92.523232 
L 223.644444 94.779798 
L 223.644444 97.036364 
L 223.644444 99.292929 
L 223.644444 101.549495 
L 223.644444 103.806061 
L 223.644444 106.062626 
L 223.644444 108.319192 
z
" style="fill:#a0faa0;fill-opacity:0.3;"/>
   </g>
   <g id="PathCollection_8">
    <path clip-path="url(#pad347d04e8)" d="M 224.933333 108.883333 
L 230.088889 108.883333 
L 235.244444 108.883333 
L 240.4 108.883333 
L 245.555556 108.883333 
L 250.711111 108.883333 
L 255.866667 108.883333 
L 261.022222 108.883333 
L 266.177778 108.883333 
L 271.333333 108.883333 
L 276.488889 108.883333 
L 281.644444 108.883333 
L 286.8 108.883333 
L 291.955556 108.883333 
L 297.111111 108.883333 
L 302.266667 108.883333 
L 307.422222 108.883333 
L 312.577778 108.883333 
L 317.733333 108.883333 
L 322.888889 108.883333 
L 328.044444 108.883333 
L 333.2 108.883333 
L 338.355556 108.883333 
L 343.511111 108.883333 
L 348.666667 108.883333 
L 353.822222 108.883333 
L 358.977778 108.883333 
L 364.133333 108.883333 
L 369.288889 108.883333 
L 374.444444 108.883333 
L 379.6 108.883333 
L 384.755556 108.883333 
L 389.911111 108.883333 
L 395.066667 108.883333 
L 400.222222 108.883333 
L 405.377778 108.883333 
L 410.533333 108.883333 
L 415.688889 108.883333 
L 420.844444 108.883333 
L 426 108.883333 
L 431.155556 108.883333 
L 436.311111 108.883333 
L 441.466667 108.883333 
L 446.622222 108.883333 
L 451.777778 108.883333 
L 456.933333 108.883333 
L 462.088889 108.883333 
L 467.244444 108.883333 
L 472.4 108.883333 
L 477.555556 108.883333 
L 482.711111 108.883333 
L 487.866667 108.883333 
L 493.022222 108.883333 
L 498.177778 108.883333 
L 503.333333 108.883333 
L 508.488889 108.883333 
L 513.644444 108.883333 
L 518.8 108.883333 
L 523.955556 108.883333 
L 529.111111 108.883333 
L 534.266667 108.883333 
L 539.422222 108.883333 
L 544.577778 108.883333 
L 549.733333 108.883333 
L 554.888889 108.883333 
L 560.044444 108.883333 
L 565.2 108.883333 
L 565.2 108.319192 
L 565.2 106.062626 
L 565.2 103.806061 
L 565.2 101.549495 
L 565.2 99.292929 
L 565.2 97.036364 
L 565.2 94.779798 
L 565.2 92.523232 
L 565.2 90.266667 
L 565.2 88.010101 
L 565.2 85.753535 
L 565.2 83.49697 
L 565.2 81.240404 
L 565.2 78.983838 
L 565.2 76.727273 
L 565.2 74.470707 
L 565.2 72.214141 
L 565.2 69.957576 
L 565.2 67.70101 
L 565.2 65.444444 
L 565.2 63.187879 
L 565.2 60.931313 
L 565.2 58.674747 
L 565.2 56.418182 
L 565.2 54.161616 
L 565.2 51.905051 
L 565.2 49.648485 
L 565.2 47.391919 
L 565.2 45.135354 
L 565.2 42.878788 
L 565.2 40.622222 
L 565.2 38.365657 
L 565.2 36.109091 
L 565.2 33.852525 
L 565.2 31.59596 
L 565.2 29.339394 
L 565.2 27.082828 
L 565.2 24.826263 
L 565.2 22.569697 
L 565.2 20.313131 
L 565.2 18.056566 
L 565.2 15.8 
L 560.044444 15.8 
L 554.888889 15.8 
L 549.733333 15.8 
L 544.577778 15.8 
L 539.422222 15.8 
L 534.266667 15.8 
L 529.111111 15.8 
L 523.955556 15.8 
L 518.8 15.8 
L 513.644444 15.8 
L 508.488889 15.8 
L 503.333333 15.8 
L 498.177778 15.8 
L 493.022222 15.8 
L 487.866667 15.8 
L 482.711111 15.8 
L 477.555556 15.8 
L 472.4 15.8 
L 467.244444 15.8 
L 462.088889 15.8 
L 456.933333 15.8 
L 451.777778 15.8 
L 446.622222 15.8 
L 441.466667 15.8 
L 436.311111 15.8 
L 431.155556 15.8 
L 426 15.8 
L 420.844444 15.8 
L 415.688889 15.8 
L 410.533333 15.8 
L 405.377778 15.8 
L 400.222222 15.8 
L 395.066667 15.8 
L 389.911111 15.8 
L 384.755556 15.8 
L 379.6 15.8 
L 374.444444 15.8 
L 369.288889 15.8 
L 364.133333 15.8 
L 358.977778 15.8 
L 353.822222 15.8 
L 348.666667 15.8 
L 343.511111 15.8 
L 338.355556 15.8 
L 333.2 15.8 
L 328.044444 15.8 
L 322.888889 15.8 
L 317.733333 15.8 
L 312.577778 15.8 
L 307.422222 15.8 
L 302.266667 15.8 
L 297.111111 15.8 
L 291.955556 15.8 
L 286.8 15.8 
L 281.644444 15.8 
L 276.488889 15.8 
L 271.333333 15.8 
L 266.177778 15.8 
L 261.022222 15.8 
L 255.866667 15.8 
L 250.711111 15.8 
L 245.555556 15.8 
L 240.4 15.8 
L 235.244444 15.8 
L 230.088889 15.8 
L 224.933333 15.8 
L 224.288889 15.8 
L 224.288889 18.056566 
L 224.288889 20.313131 
L 224.288889 22.569697 
L 224.288889 24.826263 
L 224.288889 27.082828 
L 224.288889 29.339394 
L 224.288889 31.59596 
L 224.288889 33.852525 
L 224.288889 36.109091 
L 224.288889 38.365657 
L 224.288889 40.622222 
L 224.288889 42.878788 
L 224.288889 45.135354 
L 224.288889 47.391919 
L 224.288889 49.648485 
L 224.288889 51.905051 
L 224.288889 54.161616 
L 224.288889 56.418182 
L 224.288889 58.674747 
L 224.288889 60.931313 
L 224.288889 63.187879 
L 224.288889 65.444444 
L 224.288889 67.70101 
L 224.288889 69.957576 
L 224.288889 72.214141 
L 224.288889 74.470707 
L 224.288889 76.727273 
L 224.288889 78.983838 
L 224.288889 81.240404 
L 224.288889 83.49697 
L 224.288889 85.753535 
L 224.288889 88.010101 
L 224.288889 90.266667 
L 224.288889 92.523232 
L 224.288889 94.779798 
L 224.288889 97.036364 
L 224.288889 99.292929 
L 224.288889 101.549495 
L 224.288889 103.806061 
L 224.288889 106.062626 
L 224.288889 108.319192 
z
" style="fill:#a0faa0;fill-opacity:0.3;"/>
   </g>
   <g id="matplotlib.axis_1">
    <g id="xtick_1">
     <g id="line2d_1">
      <defs>
       <path d="M 0 0 
L 0 3.5 
" id="mfde2a5772f" style="stroke:#000000;stroke-width:0.8;"/>
      </defs>
      <g>
       <use style="stroke:#000000;stroke-width:0.8;" x="54.8" xlink:href="#mfde2a5772f" y="239.2"/>
      </g>
     </g>
     <g id="text_1">
      <!-- 0 -->
      <defs>
       <path d="M 31.78125 66.40625 
Q 24.171875 66.40625 20.328125 58.90625 
Q 16.5 51.421875 16.5 36.375 
Q 16.5 21.390625 20.328125 13.890625 
Q 24.171875 6.390625 31.78125 6.390625 
Q 39.453125 6.390625 43.28125 13.890625 
Q 47.125 21.390625 47.125 36.375 
Q 47.125 51.421875 43.28125 58.90625 
Q 39.453125 66.40625 31.78125 66.40625 
z
M 31.78125 74.21875 
Q 44.046875 74.21875 50.515625 64.515625 
Q 56.984375 54.828125 56.984375 36.375 
Q 56.984375 17.96875 50.515625 8.265625 
Q 44.046875 -1.421875 31.78125 -1.421875 
Q 19.53125 -1.421875 13.0625 8.265625 
Q 6.59375 17.96875 6.59375 36.375 
Q 6.59375 54.828125 13.0625 64.515625 
Q 19.53125 74.21875 31.78125 74.21875 
z
" id="DejaVuSans-48"/>
      </defs>
      <g transform="translate(50.9825 255.318125)scale(0.12 -0.12)">
       <use xlink:href="#DejaVuSans-48"/>
      </g>
     </g>
    </g>
    <g id="xtick_2">
     <g id="line2d_2">
      <g>
       <use style="stroke:#000000;stroke-width:0.8;" x="122.853333" xlink:href="#mfde2a5772f" y="239.2"/>
      </g>
     </g>
     <g id="text_2">
      <!-- 1 -->
      <defs>
       <path d="M 12.40625 8.296875 
L 28.515625 8.296875 
L 28.515625 63.921875 
L 10.984375 60.40625 
L 10.984375 69.390625 
L 28.421875 72.90625 
L 38.28125 72.90625 
L 38.28125 8.296875 
L 54.390625 8.296875 
L 54.390625 0 
L 12.40625 0 
z
" id="DejaVuSans-49"/>
      </defs>
      <g transform="translate(119.035833 255.318125)scale(0.12 -0.12)">
       <use xlink:href="#DejaVuSans-49"/>
      </g>
     </g>
    </g>
    <g id="xtick_3">
     <g id="line2d_3">
      <g>
       <use style="stroke:#000000;stroke-width:0.8;" x="190.906667" xlink:href="#mfde2a5772f" y="239.2"/>
      </g>
     </g>
     <g id="text_3">
      <!-- 2 -->
      <defs>
       <path d="M 19.1875 8.296875 
L 53.609375 8.296875 
L 53.609375 0 
L 7.328125 0 
L 7.328125 8.296875 
Q 12.9375 14.109375 22.625 23.890625 
Q 32.328125 33.6875 34.8125 36.53125 
Q 39.546875 41.84375 41.421875 45.53125 
Q 43.3125 49.21875 43.3125 52.78125 
Q 43.3125 58.59375 39.234375 62.25 
Q 35.15625 65.921875 28.609375 65.921875 
Q 23.96875 65.921875 18.8125 64.3125 
Q 13.671875 62.703125 7.8125 59.421875 
L 7.8125 69.390625 
Q 13.765625 71.78125 18.9375 73 
Q 24.125 74.21875 28.421875 74.21875 
Q 39.75 74.21875 46.484375 68.546875 
Q 53.21875 62.890625 53.21875 53.421875 
Q 53.21875 48.921875 51.53125 44.890625 
Q 49.859375 40.875 45.40625 35.40625 
Q 44.1875 33.984375 37.640625 27.21875 
Q 31.109375 20.453125 19.1875 8.296875 
z
" id="DejaVuSans-50"/>
      </defs>
      <g transform="translate(187.089167 255.318125)scale(0.12 -0.12)">
       <use xlink:href="#DejaVuSans-50"/>
      </g>
     </g>
    </g>
    <g id="xtick_4">
     <g id="line2d_4">
      <g>
       <use style="stroke:#000000;stroke-width:0.8;" x="258.96" xlink:href="#mfde2a5772f" y="239.2"/>
      </g>
     </g>
     <g id="text_4">
      <!-- 3 -->
      <defs>
       <path d="M 40.578125 39.3125 
Q 47.65625 37.796875 51.625 33 
Q 55.609375 28.21875 55.609375 21.1875 
Q 55.609375 10.40625 48.1875 4.484375 
Q 40.765625 -1.421875 27.09375 -1.421875 
Q 22.515625 -1.421875 17.65625 -0.515625 
Q 12.796875 0.390625 7.625 2.203125 
L 7.625 11.71875 
Q 11.71875 9.328125 16.59375 8.109375 
Q 21.484375 6.890625 26.8125 6.890625 
Q 36.078125 6.890625 40.9375 10.546875 
Q 45.796875 14.203125 45.796875 21.1875 
Q 45.796875 27.640625 41.28125 31.265625 
Q 36.765625 34.90625 28.71875 34.90625 
L 20.21875 34.90625 
L 20.21875 43.015625 
L 29.109375 43.015625 
Q 36.375 43.015625 40.234375 45.921875 
Q 44.09375 48.828125 44.09375 54.296875 
Q 44.09375 59.90625 40.109375 62.90625 
Q 36.140625 65.921875 28.71875 65.921875 
Q 24.65625 65.921875 20.015625 65.03125 
Q 15.375 64.15625 9.8125 62.3125 
L 9.8125 71.09375 
Q 15.4375 72.65625 20.34375 73.4375 
Q 25.25 74.21875 29.59375 74.21875 
Q 40.828125 74.21875 47.359375 69.109375 
Q 53.90625 64.015625 53.90625 55.328125 
Q 53.90625 49.265625 50.4375 45.09375 
Q 46.96875 40.921875 40.578125 39.3125 
z
" id="DejaVuSans-51"/>
      </defs>
      <g transform="translate(255.1425 255.318125)scale(0.12 -0.12)">
       <use xlink:href="#DejaVuSans-51"/>
      </g>
     </g>
    </g>
    <g id="xtick_5">
     <g id="line2d_5">
      <g>
       <use style="stroke:#000000;stroke-width:0.8;" x="327.013333" xlink:href="#mfde2a5772f" y="239.2"/>
      </g>
     </g>
     <g id="text_5">
      <!-- 4 -->
      <defs>
       <path d="M 37.796875 64.3125 
L 12.890625 25.390625 
L 37.796875 25.390625 
z
M 35.203125 72.90625 
L 47.609375 72.90625 
L 47.609375 25.390625 
L 58.015625 25.390625 
L 58.015625 17.1875 
L 47.609375 17.1875 
L 47.609375 0 
L 37.796875 0 
L 37.796875 17.1875 
L 4.890625 17.1875 
L 4.890625 26.703125 
z
" id="DejaVuSans-52"/>
      </defs>
      <g transform="translate(323.195833 255.318125)scale(0.12 -0.12)">
       <use xlink:href="#DejaVuSans-52"/>
      </g>
     </g>
    </g>
    <g id="xtick_6">
     <g id="line2d_6">
      <g>
       <use style="stroke:#000000;stroke-width:0.8;" x="395.066667" xlink:href="#mfde2a5772f" y="239.2"/>
      </g>
     </g>
     <g id="text_6">
      <!-- 5 -->
      <defs>
       <path d="M 10.796875 72.90625 
L 49.515625 72.90625 
L 49.515625 64.59375 
L 19.828125 64.59375 
L 19.828125 46.734375 
Q 21.96875 47.46875 24.109375 47.828125 
Q 26.265625 48.1875 28.421875 48.1875 
Q 40.625 48.1875 47.75 41.5 
Q 54.890625 34.8125 54.890625 23.390625 
Q 54.890625 11.625 47.5625 5.09375 
Q 40.234375 -1.421875 26.90625 -1.421875 
Q 22.3125 -1.421875 17.546875 -0.640625 
Q 12.796875 0.140625 7.71875 1.703125 
L 7.71875 11.625 
Q 12.109375 9.234375 16.796875 8.0625 
Q 21.484375 6.890625 26.703125 6.890625 
Q 35.15625 6.890625 40.078125 11.328125 
Q 45.015625 15.765625 45.015625 23.390625 
Q 45.015625 31 40.078125 35.4375 
Q 35.15625 39.890625 26.703125 39.890625 
Q 22.75 39.890625 18.8125 39.015625 
Q 14.890625 38.140625 10.796875 36.28125 
z
" id="DejaVuSans-53"/>
      </defs>
      <g transform="translate(391.249167 255.318125)scale(0.12 -0.12)">
       <use xlink:href="#DejaVuSans-53"/>
      </g>
     </g>
    </g>
    <g id="xtick_7">
     <g id="line2d_7">
      <g>
       <use style="stroke:#000000;stroke-width:0.8;" x="463.12" xlink:href="#mfde2a5772f" y="239.2"/>
      </g>
     </g>
     <g id="text_7">
      <!-- 6 -->
      <defs>
       <path d="M 33.015625 40.375 
Q 26.375 40.375 22.484375 35.828125 
Q 18.609375 31.296875 18.609375 23.390625 
Q 18.609375 15.53125 22.484375 10.953125 
Q 26.375 6.390625 33.015625 6.390625 
Q 39.65625 6.390625 43.53125 10.953125 
Q 47.40625 15.53125 47.40625 23.390625 
Q 47.40625 31.296875 43.53125 35.828125 
Q 39.65625 40.375 33.015625 40.375 
z
M 52.59375 71.296875 
L 52.59375 62.3125 
Q 48.875 64.0625 45.09375 64.984375 
Q 41.3125 65.921875 37.59375 65.921875 
Q 27.828125 65.921875 22.671875 59.328125 
Q 17.53125 52.734375 16.796875 39.40625 
Q 19.671875 43.65625 24.015625 45.921875 
Q 28.375 48.1875 33.59375 48.1875 
Q 44.578125 48.1875 50.953125 41.515625 
Q 57.328125 34.859375 57.328125 23.390625 
Q 57.328125 12.15625 50.6875 5.359375 
Q 44.046875 -1.421875 33.015625 -1.421875 
Q 20.359375 -1.421875 13.671875 8.265625 
Q 6.984375 17.96875 6.984375 36.375 
Q 6.984375 53.65625 15.1875 63.9375 
Q 23.390625 74.21875 37.203125 74.21875 
Q 40.921875 74.21875 44.703125 73.484375 
Q 48.484375 72.75 52.59375 71.296875 
z
" id="DejaVuSans-54"/>
      </defs>
      <g transform="translate(459.3025 255.318125)scale(0.12 -0.12)">
       <use xlink:href="#DejaVuSans-54"/>
      </g>
     </g>
    </g>
    <g id="xtick_8">
     <g id="line2d_8">
      <g>
       <use style="stroke:#000000;stroke-width:0.8;" x="531.173333" xlink:href="#mfde2a5772f" y="239.2"/>
      </g>
     </g>
     <g id="text_8">
      <!-- 7 -->
      <defs>
       <path d="M 8.203125 72.90625 
L 55.078125 72.90625 
L 55.078125 68.703125 
L 28.609375 0 
L 18.3125 0 
L 43.21875 64.59375 
L 8.203125 64.59375 
z
" id="DejaVuSans-55"/>
      </defs>
      <g transform="translate(527.355833 255.318125)scale(0.12 -0.12)">
       <use xlink:href="#DejaVuSans-55"/>
      </g>
     </g>
    </g>
    <g id="text_9">
     <!-- Petal length -->
     <defs>
      <path d="M 19.671875 64.796875 
L 19.671875 37.40625 
L 32.078125 37.40625 
Q 38.96875 37.40625 42.71875 40.96875 
Q 46.484375 44.53125 46.484375 51.125 
Q 46.484375 57.671875 42.71875 61.234375 
Q 38.96875 64.796875 32.078125 64.796875 
z
M 9.8125 72.90625 
L 32.078125 72.90625 
Q 44.34375 72.90625 50.609375 67.359375 
Q 56.890625 61.8125 56.890625 51.125 
Q 56.890625 40.328125 50.609375 34.8125 
Q 44.34375 29.296875 32.078125 29.296875 
L 19.671875 29.296875 
L 19.671875 0 
L 9.8125 0 
z
" id="DejaVuSans-80"/>
      <path d="M 56.203125 29.59375 
L 56.203125 25.203125 
L 14.890625 25.203125 
Q 15.484375 15.921875 20.484375 11.0625 
Q 25.484375 6.203125 34.421875 6.203125 
Q 39.59375 6.203125 44.453125 7.46875 
Q 49.3125 8.734375 54.109375 11.28125 
L 54.109375 2.78125 
Q 49.265625 0.734375 44.1875 -0.34375 
Q 39.109375 -1.421875 33.890625 -1.421875 
Q 20.796875 -1.421875 13.15625 6.1875 
Q 5.515625 13.8125 5.515625 26.8125 
Q 5.515625 40.234375 12.765625 48.109375 
Q 20.015625 56 32.328125 56 
Q 43.359375 56 49.78125 48.890625 
Q 56.203125 41.796875 56.203125 29.59375 
z
M 47.21875 32.234375 
Q 47.125 39.59375 43.09375 43.984375 
Q 39.0625 48.390625 32.421875 48.390625 
Q 24.90625 48.390625 20.390625 44.140625 
Q 15.875 39.890625 15.1875 32.171875 
z
" id="DejaVuSans-101"/>
      <path d="M 18.3125 70.21875 
L 18.3125 54.6875 
L 36.8125 54.6875 
L 36.8125 47.703125 
L 18.3125 47.703125 
L 18.3125 18.015625 
Q 18.3125 11.328125 20.140625 9.421875 
Q 21.96875 7.515625 27.59375 7.515625 
L 36.8125 7.515625 
L 36.8125 0 
L 27.59375 0 
Q 17.1875 0 13.234375 3.875 
Q 9.28125 7.765625 9.28125 18.015625 
L 9.28125 47.703125 
L 2.6875 47.703125 
L 2.6875 54.6875 
L 9.28125 54.6875 
L 9.28125 70.21875 
z
" id="DejaVuSans-116"/>
      <path d="M 34.28125 27.484375 
Q 23.390625 27.484375 19.1875 25 
Q 14.984375 22.515625 14.984375 16.5 
Q 14.984375 11.71875 18.140625 8.90625 
Q 21.296875 6.109375 26.703125 6.109375 
Q 34.1875 6.109375 38.703125 11.40625 
Q 43.21875 16.703125 43.21875 25.484375 
L 43.21875 27.484375 
z
M 52.203125 31.203125 
L 52.203125 0 
L 43.21875 0 
L 43.21875 8.296875 
Q 40.140625 3.328125 35.546875 0.953125 
Q 30.953125 -1.421875 24.3125 -1.421875 
Q 15.921875 -1.421875 10.953125 3.296875 
Q 6 8.015625 6 15.921875 
Q 6 25.140625 12.171875 29.828125 
Q 18.359375 34.515625 30.609375 34.515625 
L 43.21875 34.515625 
L 43.21875 35.40625 
Q 43.21875 41.609375 39.140625 45 
Q 35.0625 48.390625 27.6875 48.390625 
Q 23 48.390625 18.546875 47.265625 
Q 14.109375 46.140625 10.015625 43.890625 
L 10.015625 52.203125 
Q 14.9375 54.109375 19.578125 55.046875 
Q 24.21875 56 28.609375 56 
Q 40.484375 56 46.34375 49.84375 
Q 52.203125 43.703125 52.203125 31.203125 
z
" id="DejaVuSans-97"/>
      <path d="M 9.421875 75.984375 
L 18.40625 75.984375 
L 18.40625 0 
L 9.421875 0 
z
" id="DejaVuSans-108"/>
      <path id="DejaVuSans-32"/>
      <path d="M 54.890625 33.015625 
L 54.890625 0 
L 45.90625 0 
L 45.90625 32.71875 
Q 45.90625 40.484375 42.875 44.328125 
Q 39.84375 48.1875 33.796875 48.1875 
Q 26.515625 48.1875 22.3125 43.546875 
Q 18.109375 38.921875 18.109375 30.90625 
L 18.109375 0 
L 9.078125 0 
L 9.078125 54.6875 
L 18.109375 54.6875 
L 18.109375 46.1875 
Q 21.34375 51.125 25.703125 53.5625 
Q 30.078125 56 35.796875 56 
Q 45.21875 56 50.046875 50.171875 
Q 54.890625 44.34375 54.890625 33.015625 
z
" id="DejaVuSans-110"/>
      <path d="M 45.40625 27.984375 
Q 45.40625 37.75 41.375 43.109375 
Q 37.359375 48.484375 30.078125 48.484375 
Q 22.859375 48.484375 18.828125 43.109375 
Q 14.796875 37.75 14.796875 27.984375 
Q 14.796875 18.265625 18.828125 12.890625 
Q 22.859375 7.515625 30.078125 7.515625 
Q 37.359375 7.515625 41.375 12.890625 
Q 45.40625 18.265625 45.40625 27.984375 
z
M 54.390625 6.78125 
Q 54.390625 -7.171875 48.1875 -13.984375 
Q 42 -20.796875 29.203125 -20.796875 
Q 24.46875 -20.796875 20.265625 -20.09375 
Q 16.0625 -19.390625 12.109375 -17.921875 
L 12.109375 -9.1875 
Q 16.0625 -11.328125 19.921875 -12.34375 
Q 23.78125 -13.375 27.78125 -13.375 
Q 36.625 -13.375 41.015625 -8.765625 
Q 45.40625 -4.15625 45.40625 5.171875 
L 45.40625 9.625 
Q 42.625 4.78125 38.28125 2.390625 
Q 33.9375 0 27.875 0 
Q 17.828125 0 11.671875 7.65625 
Q 5.515625 15.328125 5.515625 27.984375 
Q 5.515625 40.671875 11.671875 48.328125 
Q 17.828125 56 27.875 56 
Q 33.9375 56 38.28125 53.609375 
Q 42.625 51.21875 45.40625 46.390625 
L 45.40625 54.6875 
L 54.390625 54.6875 
z
" id="DejaVuSans-103"/>
      <path d="M 54.890625 33.015625 
L 54.890625 0 
L 45.90625 0 
L 45.90625 32.71875 
Q 45.90625 40.484375 42.875 44.328125 
Q 39.84375 48.1875 33.796875 48.1875 
Q 26.515625 48.1875 22.3125 43.546875 
Q 18.109375 38.921875 18.109375 30.90625 
L 18.109375 0 
L 9.078125 0 
L 9.078125 75.984375 
L 18.109375 75.984375 
L 18.109375 46.1875 
Q 21.34375 51.125 25.703125 53.5625 
Q 30.078125 56 35.796875 56 
Q 45.21875 56 50.046875 50.171875 
Q 54.890625 44.34375 54.890625 33.015625 
z
" id="DejaVuSans-104"/>
     </defs>
     <g transform="translate(268.21 272.451562)scale(0.14 -0.14)">
      <use xlink:href="#DejaVuSans-80"/>
      <use x="56.677734" xlink:href="#DejaVuSans-101"/>
      <use x="118.201172" xlink:href="#DejaVuSans-116"/>
      <use x="157.410156" xlink:href="#DejaVuSans-97"/>
      <use x="218.689453" xlink:href="#DejaVuSans-108"/>
      <use x="246.472656" xlink:href="#DejaVuSans-32"/>
      <use x="278.259766" xlink:href="#DejaVuSans-108"/>
      <use x="306.042969" xlink:href="#DejaVuSans-101"/>
      <use x="367.566406" xlink:href="#DejaVuSans-110"/>
      <use x="430.945312" xlink:href="#DejaVuSans-103"/>
      <use x="494.421875" xlink:href="#DejaVuSans-116"/>
      <use x="533.630859" xlink:href="#DejaVuSans-104"/>
     </g>
    </g>
   </g>
   <g id="matplotlib.axis_2">
    <g id="ytick_1">
     <g id="line2d_9">
      <defs>
       <path d="M 0 0 
L -3.5 0 
" id="m1e3cfc21e3" style="stroke:#000000;stroke-width:0.8;"/>
      </defs>
      <g>
       <use style="stroke:#000000;stroke-width:0.8;" x="54.8" xlink:href="#m1e3cfc21e3" y="239.2"/>
      </g>
     </g>
     <g id="text_10">
      <!-- 0.0 -->
      <defs>
       <path d="M 10.6875 12.40625 
L 21 12.40625 
L 21 0 
L 10.6875 0 
z
" id="DejaVuSans-46"/>
      </defs>
      <g transform="translate(28.71625 243.759062)scale(0.12 -0.12)">
       <use xlink:href="#DejaVuSans-48"/>
       <use x="63.623047" xlink:href="#DejaVuSans-46"/>
       <use x="95.410156" xlink:href="#DejaVuSans-48"/>
      </g>
     </g>
    </g>
    <g id="ytick_2">
     <g id="line2d_10">
      <g>
       <use style="stroke:#000000;stroke-width:0.8;" x="54.8" xlink:href="#m1e3cfc21e3" y="201.966667"/>
      </g>
     </g>
     <g id="text_11">
      <!-- 0.5 -->
      <g transform="translate(28.71625 206.525729)scale(0.12 -0.12)">
       <use xlink:href="#DejaVuSans-48"/>
       <use x="63.623047" xlink:href="#DejaVuSans-46"/>
       <use x="95.410156" xlink:href="#DejaVuSans-53"/>
      </g>
     </g>
    </g>
    <g id="ytick_3">
     <g id="line2d_11">
      <g>
       <use style="stroke:#000000;stroke-width:0.8;" x="54.8" xlink:href="#m1e3cfc21e3" y="164.733333"/>
      </g>
     </g>
     <g id="text_12">
      <!-- 1.0 -->
      <g transform="translate(28.71625 169.292396)scale(0.12 -0.12)">
       <use xlink:href="#DejaVuSans-49"/>
       <use x="63.623047" xlink:href="#DejaVuSans-46"/>
       <use x="95.410156" xlink:href="#DejaVuSans-48"/>
      </g>
     </g>
    </g>
    <g id="ytick_4">
     <g id="line2d_12">
      <g>
       <use style="stroke:#000000;stroke-width:0.8;" x="54.8" xlink:href="#m1e3cfc21e3" y="127.5"/>
      </g>
     </g>
     <g id="text_13">
      <!-- 1.5 -->
      <g transform="translate(28.71625 132.059062)scale(0.12 -0.12)">
       <use xlink:href="#DejaVuSans-49"/>
       <use x="63.623047" xlink:href="#DejaVuSans-46"/>
       <use x="95.410156" xlink:href="#DejaVuSans-53"/>
      </g>
     </g>
    </g>
    <g id="ytick_5">
     <g id="line2d_13">
      <g>
       <use style="stroke:#000000;stroke-width:0.8;" x="54.8" xlink:href="#m1e3cfc21e3" y="90.266667"/>
      </g>
     </g>
     <g id="text_14">
      <!-- 2.0 -->
      <g transform="translate(28.71625 94.825729)scale(0.12 -0.12)">
       <use xlink:href="#DejaVuSans-50"/>
       <use x="63.623047" xlink:href="#DejaVuSans-46"/>
       <use x="95.410156" xlink:href="#DejaVuSans-48"/>
      </g>
     </g>
    </g>
    <g id="ytick_6">
     <g id="line2d_14">
      <g>
       <use style="stroke:#000000;stroke-width:0.8;" x="54.8" xlink:href="#m1e3cfc21e3" y="53.033333"/>
      </g>
     </g>
     <g id="text_15">
      <!-- 2.5 -->
      <g transform="translate(28.71625 57.592396)scale(0.12 -0.12)">
       <use xlink:href="#DejaVuSans-50"/>
       <use x="63.623047" xlink:href="#DejaVuSans-46"/>
       <use x="95.410156" xlink:href="#DejaVuSans-53"/>
      </g>
     </g>
    </g>
    <g id="ytick_7">
     <g id="line2d_15">
      <g>
       <use style="stroke:#000000;stroke-width:0.8;" x="54.8" xlink:href="#m1e3cfc21e3" y="15.8"/>
      </g>
     </g>
     <g id="text_16">
      <!-- 3.0 -->
      <g transform="translate(28.71625 20.359062)scale(0.12 -0.12)">
       <use xlink:href="#DejaVuSans-51"/>
       <use x="63.623047" xlink:href="#DejaVuSans-46"/>
       <use x="95.410156" xlink:href="#DejaVuSans-48"/>
      </g>
     </g>
    </g>
    <g id="text_17">
     <!-- Petal width -->
     <defs>
      <path d="M 4.203125 54.6875 
L 13.1875 54.6875 
L 24.421875 12.015625 
L 35.59375 54.6875 
L 46.1875 54.6875 
L 57.421875 12.015625 
L 68.609375 54.6875 
L 77.59375 54.6875 
L 63.28125 0 
L 52.6875 0 
L 40.921875 44.828125 
L 29.109375 0 
L 18.5 0 
z
" id="DejaVuSans-119"/>
      <path d="M 9.421875 54.6875 
L 18.40625 54.6875 
L 18.40625 0 
L 9.421875 0 
z
M 9.421875 75.984375 
L 18.40625 75.984375 
L 18.40625 64.59375 
L 9.421875 64.59375 
z
" id="DejaVuSans-105"/>
      <path d="M 45.40625 46.390625 
L 45.40625 75.984375 
L 54.390625 75.984375 
L 54.390625 0 
L 45.40625 0 
L 45.40625 8.203125 
Q 42.578125 3.328125 38.25 0.953125 
Q 33.9375 -1.421875 27.875 -1.421875 
Q 17.96875 -1.421875 11.734375 6.484375 
Q 5.515625 14.40625 5.515625 27.296875 
Q 5.515625 40.1875 11.734375 48.09375 
Q 17.96875 56 27.875 56 
Q 33.9375 56 38.25 53.625 
Q 42.578125 51.265625 45.40625 46.390625 
z
M 14.796875 27.296875 
Q 14.796875 17.390625 18.875 11.75 
Q 22.953125 6.109375 30.078125 6.109375 
Q 37.203125 6.109375 41.296875 11.75 
Q 45.40625 17.390625 45.40625 27.296875 
Q 45.40625 37.203125 41.296875 42.84375 
Q 37.203125 48.484375 30.078125 48.484375 
Q 22.953125 48.484375 18.875 42.84375 
Q 14.796875 37.203125 14.796875 27.296875 
z
" id="DejaVuSans-100"/>
     </defs>
     <g transform="translate(21.804688 166.27125)rotate(-90)scale(0.14 -0.14)">
      <use xlink:href="#DejaVuSans-80"/>
      <use x="56.677734" xlink:href="#DejaVuSans-101"/>
      <use x="118.201172" xlink:href="#DejaVuSans-116"/>
      <use x="157.410156" xlink:href="#DejaVuSans-97"/>
      <use x="218.689453" xlink:href="#DejaVuSans-108"/>
      <use x="246.472656" xlink:href="#DejaVuSans-32"/>
      <use x="278.259766" xlink:href="#DejaVuSans-119"/>
      <use x="360.046875" xlink:href="#DejaVuSans-105"/>
      <use x="387.830078" xlink:href="#DejaVuSans-100"/>
      <use x="451.306641" xlink:href="#DejaVuSans-116"/>
      <use x="490.515625" xlink:href="#DejaVuSans-104"/>
     </g>
    </g>
   </g>
   <g id="line2d_16">
    <defs>
     <path d="M 0 3 
C 0.795609 3 1.55874 2.683901 2.12132 2.12132 
C 2.683901 1.55874 3 0.795609 3 0 
C 3 -0.795609 2.683901 -1.55874 2.12132 -2.12132 
C 1.55874 -2.683901 0.795609 -3 0 -3 
C -0.795609 -3 -1.55874 -2.683901 -2.12132 -2.12132 
C -2.683901 -1.55874 -3 -0.795609 -3 0 
C -3 0.795609 -2.683901 1.55874 -2.12132 2.12132 
C -1.55874 2.683901 -0.795609 3 0 3 
z
" id="mc7dbaa855c" style="stroke:#bfbf00;"/>
    </defs>
    <g clip-path="url(#pad347d04e8)">
     <use style="fill:#bfbf00;stroke:#bfbf00;" x="150.074667" xlink:href="#mc7dbaa855c" y="224.306667"/>
     <use style="fill:#bfbf00;stroke:#bfbf00;" x="150.074667" xlink:href="#mc7dbaa855c" y="224.306667"/>
     <use style="fill:#bfbf00;stroke:#bfbf00;" x="143.269333" xlink:href="#mc7dbaa855c" y="224.306667"/>
     <use style="fill:#bfbf00;stroke:#bfbf00;" x="156.88" xlink:href="#mc7dbaa855c" y="224.306667"/>
     <use style="fill:#bfbf00;stroke:#bfbf00;" x="150.074667" xlink:href="#mc7dbaa855c" y="224.306667"/>
     <use style="fill:#bfbf00;stroke:#bfbf00;" x="170.490667" xlink:href="#mc7dbaa855c" y="209.413333"/>
     <use style="fill:#bfbf00;stroke:#bfbf00;" x="150.074667" xlink:href="#mc7dbaa855c" y="216.86"/>
     <use style="fill:#bfbf00;stroke:#bfbf00;" x="156.88" xlink:href="#mc7dbaa855c" y="224.306667"/>
     <use style="fill:#bfbf00;stroke:#bfbf00;" x="150.074667" xlink:href="#mc7dbaa855c" y="224.306667"/>
     <use style="fill:#bfbf00;stroke:#bfbf00;" x="156.88" xlink:href="#mc7dbaa855c" y="231.753333"/>
     <use style="fill:#bfbf00;stroke:#bfbf00;" x="156.88" xlink:href="#mc7dbaa855c" y="224.306667"/>
     <use style="fill:#bfbf00;stroke:#bfbf00;" x="163.685333" xlink:href="#mc7dbaa855c" y="224.306667"/>
     <use style="fill:#bfbf00;stroke:#bfbf00;" x="150.074667" xlink:href="#mc7dbaa855c" y="231.753333"/>
     <use style="fill:#bfbf00;stroke:#bfbf00;" x="129.658667" xlink:href="#mc7dbaa855c" y="231.753333"/>
     <use style="fill:#bfbf00;stroke:#bfbf00;" x="136.464" xlink:href="#mc7dbaa855c" y="224.306667"/>
     <use style="fill:#bfbf00;stroke:#bfbf00;" x="156.88" xlink:href="#mc7dbaa855c" y="209.413333"/>
     <use style="fill:#bfbf00;stroke:#bfbf00;" x="143.269333" xlink:href="#mc7dbaa855c" y="209.413333"/>
     <use style="fill:#bfbf00;stroke:#bfbf00;" x="150.074667" xlink:href="#mc7dbaa855c" y="216.86"/>
     <use style="fill:#bfbf00;stroke:#bfbf00;" x="170.490667" xlink:href="#mc7dbaa855c" y="216.86"/>
     <use style="fill:#bfbf00;stroke:#bfbf00;" x="156.88" xlink:href="#mc7dbaa855c" y="216.86"/>
     <use style="fill:#bfbf00;stroke:#bfbf00;" x="170.490667" xlink:href="#mc7dbaa855c" y="224.306667"/>
     <use style="fill:#bfbf00;stroke:#bfbf00;" x="156.88" xlink:href="#mc7dbaa855c" y="209.413333"/>
     <use style="fill:#bfbf00;stroke:#bfbf00;" x="122.853333" xlink:href="#mc7dbaa855c" y="224.306667"/>
     <use style="fill:#bfbf00;stroke:#bfbf00;" x="170.490667" xlink:href="#mc7dbaa855c" y="201.966667"/>
     <use style="fill:#bfbf00;stroke:#bfbf00;" x="184.101333" xlink:href="#mc7dbaa855c" y="224.306667"/>
     <use style="fill:#bfbf00;stroke:#bfbf00;" x="163.685333" xlink:href="#mc7dbaa855c" y="224.306667"/>
     <use style="fill:#bfbf00;stroke:#bfbf00;" x="163.685333" xlink:href="#mc7dbaa855c" y="209.413333"/>
     <use style="fill:#bfbf00;stroke:#bfbf00;" x="156.88" xlink:href="#mc7dbaa855c" y="224.306667"/>
     <use style="fill:#bfbf00;stroke:#bfbf00;" x="150.074667" xlink:href="#mc7dbaa855c" y="224.306667"/>
     <use style="fill:#bfbf00;stroke:#bfbf00;" x="163.685333" xlink:href="#mc7dbaa855c" y="224.306667"/>
     <use style="fill:#bfbf00;stroke:#bfbf00;" x="163.685333" xlink:href="#mc7dbaa855c" y="224.306667"/>
     <use style="fill:#bfbf00;stroke:#bfbf00;" x="156.88" xlink:href="#mc7dbaa855c" y="209.413333"/>
     <use style="fill:#bfbf00;stroke:#bfbf00;" x="156.88" xlink:href="#mc7dbaa855c" y="231.753333"/>
     <use style="fill:#bfbf00;stroke:#bfbf00;" x="150.074667" xlink:href="#mc7dbaa855c" y="224.306667"/>
     <use style="fill:#bfbf00;stroke:#bfbf00;" x="156.88" xlink:href="#mc7dbaa855c" y="224.306667"/>
     <use style="fill:#bfbf00;stroke:#bfbf00;" x="136.464" xlink:href="#mc7dbaa855c" y="224.306667"/>
     <use style="fill:#bfbf00;stroke:#bfbf00;" x="143.269333" xlink:href="#mc7dbaa855c" y="224.306667"/>
     <use style="fill:#bfbf00;stroke:#bfbf00;" x="150.074667" xlink:href="#mc7dbaa855c" y="231.753333"/>
     <use style="fill:#bfbf00;stroke:#bfbf00;" x="143.269333" xlink:href="#mc7dbaa855c" y="224.306667"/>
     <use style="fill:#bfbf00;stroke:#bfbf00;" x="156.88" xlink:href="#mc7dbaa855c" y="224.306667"/>
     <use style="fill:#bfbf00;stroke:#bfbf00;" x="143.269333" xlink:href="#mc7dbaa855c" y="216.86"/>
     <use style="fill:#bfbf00;stroke:#bfbf00;" x="143.269333" xlink:href="#mc7dbaa855c" y="216.86"/>
     <use style="fill:#bfbf00;stroke:#bfbf00;" x="143.269333" xlink:href="#mc7dbaa855c" y="224.306667"/>
     <use style="fill:#bfbf00;stroke:#bfbf00;" x="163.685333" xlink:href="#mc7dbaa855c" y="194.52"/>
     <use style="fill:#bfbf00;stroke:#bfbf00;" x="184.101333" xlink:href="#mc7dbaa855c" y="209.413333"/>
     <use style="fill:#bfbf00;stroke:#bfbf00;" x="150.074667" xlink:href="#mc7dbaa855c" y="216.86"/>
     <use style="fill:#bfbf00;stroke:#bfbf00;" x="163.685333" xlink:href="#mc7dbaa855c" y="224.306667"/>
     <use style="fill:#bfbf00;stroke:#bfbf00;" x="150.074667" xlink:href="#mc7dbaa855c" y="224.306667"/>
     <use style="fill:#bfbf00;stroke:#bfbf00;" x="156.88" xlink:href="#mc7dbaa855c" y="224.306667"/>
     <use style="fill:#bfbf00;stroke:#bfbf00;" x="150.074667" xlink:href="#mc7dbaa855c" y="224.306667"/>
    </g>
   </g>
   <g id="line2d_17">
    <defs>
     <path d="M -3 3 
L 3 3 
L 3 -3 
L -3 -3 
z
" id="mf82377590f" style="stroke:#0000ff;stroke-linejoin:miter;"/>
    </defs>
    <g clip-path="url(#pad347d04e8)">
     <use style="fill:#0000ff;stroke:#0000ff;stroke-linejoin:miter;" x="374.650667" xlink:href="#mf82377590f" y="134.946667"/>
     <use style="fill:#0000ff;stroke:#0000ff;stroke-linejoin:miter;" x="361.04" xlink:href="#mf82377590f" y="127.5"/>
     <use style="fill:#0000ff;stroke:#0000ff;stroke-linejoin:miter;" x="388.261333" xlink:href="#mf82377590f" y="127.5"/>
     <use style="fill:#0000ff;stroke:#0000ff;stroke-linejoin:miter;" x="327.013333" xlink:href="#mf82377590f" y="142.393333"/>
     <use style="fill:#0000ff;stroke:#0000ff;stroke-linejoin:miter;" x="367.845333" xlink:href="#mf82377590f" y="127.5"/>
     <use style="fill:#0000ff;stroke:#0000ff;stroke-linejoin:miter;" x="361.04" xlink:href="#mf82377590f" y="142.393333"/>
     <use style="fill:#0000ff;stroke:#0000ff;stroke-linejoin:miter;" x="374.650667" xlink:href="#mf82377590f" y="120.053333"/>
     <use style="fill:#0000ff;stroke:#0000ff;stroke-linejoin:miter;" x="279.376" xlink:href="#mf82377590f" y="164.733333"/>
     <use style="fill:#0000ff;stroke:#0000ff;stroke-linejoin:miter;" x="367.845333" xlink:href="#mf82377590f" y="142.393333"/>
     <use style="fill:#0000ff;stroke:#0000ff;stroke-linejoin:miter;" x="320.208" xlink:href="#mf82377590f" y="134.946667"/>
     <use style="fill:#0000ff;stroke:#0000ff;stroke-linejoin:miter;" x="292.986667" xlink:href="#mf82377590f" y="164.733333"/>
     <use style="fill:#0000ff;stroke:#0000ff;stroke-linejoin:miter;" x="340.624" xlink:href="#mf82377590f" y="127.5"/>
     <use style="fill:#0000ff;stroke:#0000ff;stroke-linejoin:miter;" x="327.013333" xlink:href="#mf82377590f" y="164.733333"/>
     <use style="fill:#0000ff;stroke:#0000ff;stroke-linejoin:miter;" x="374.650667" xlink:href="#mf82377590f" y="134.946667"/>
     <use style="fill:#0000ff;stroke:#0000ff;stroke-linejoin:miter;" x="299.792" xlink:href="#mf82377590f" y="142.393333"/>
     <use style="fill:#0000ff;stroke:#0000ff;stroke-linejoin:miter;" x="354.234667" xlink:href="#mf82377590f" y="134.946667"/>
     <use style="fill:#0000ff;stroke:#0000ff;stroke-linejoin:miter;" x="361.04" xlink:href="#mf82377590f" y="127.5"/>
     <use style="fill:#0000ff;stroke:#0000ff;stroke-linejoin:miter;" x="333.818667" xlink:href="#mf82377590f" y="164.733333"/>
     <use style="fill:#0000ff;stroke:#0000ff;stroke-linejoin:miter;" x="361.04" xlink:href="#mf82377590f" y="127.5"/>
     <use style="fill:#0000ff;stroke:#0000ff;stroke-linejoin:miter;" x="320.208" xlink:href="#mf82377590f" y="157.286667"/>
     <use style="fill:#0000ff;stroke:#0000ff;stroke-linejoin:miter;" x="381.456" xlink:href="#mf82377590f" y="105.16"/>
     <use style="fill:#0000ff;stroke:#0000ff;stroke-linejoin:miter;" x="327.013333" xlink:href="#mf82377590f" y="142.393333"/>
     <use style="fill:#0000ff;stroke:#0000ff;stroke-linejoin:miter;" x="388.261333" xlink:href="#mf82377590f" y="127.5"/>
     <use style="fill:#0000ff;stroke:#0000ff;stroke-linejoin:miter;" x="374.650667" xlink:href="#mf82377590f" y="149.84"/>
     <use style="fill:#0000ff;stroke:#0000ff;stroke-linejoin:miter;" x="347.429333" xlink:href="#mf82377590f" y="142.393333"/>
     <use style="fill:#0000ff;stroke:#0000ff;stroke-linejoin:miter;" x="354.234667" xlink:href="#mf82377590f" y="134.946667"/>
     <use style="fill:#0000ff;stroke:#0000ff;stroke-linejoin:miter;" x="381.456" xlink:href="#mf82377590f" y="134.946667"/>
     <use style="fill:#0000ff;stroke:#0000ff;stroke-linejoin:miter;" x="395.066667" xlink:href="#mf82377590f" y="112.606667"/>
     <use style="fill:#0000ff;stroke:#0000ff;stroke-linejoin:miter;" x="361.04" xlink:href="#mf82377590f" y="127.5"/>
     <use style="fill:#0000ff;stroke:#0000ff;stroke-linejoin:miter;" x="292.986667" xlink:href="#mf82377590f" y="164.733333"/>
     <use style="fill:#0000ff;stroke:#0000ff;stroke-linejoin:miter;" x="313.402667" xlink:href="#mf82377590f" y="157.286667"/>
     <use style="fill:#0000ff;stroke:#0000ff;stroke-linejoin:miter;" x="306.597333" xlink:href="#mf82377590f" y="164.733333"/>
     <use style="fill:#0000ff;stroke:#0000ff;stroke-linejoin:miter;" x="320.208" xlink:href="#mf82377590f" y="149.84"/>
     <use style="fill:#0000ff;stroke:#0000ff;stroke-linejoin:miter;" x="401.872" xlink:href="#mf82377590f" y="120.053333"/>
     <use style="fill:#0000ff;stroke:#0000ff;stroke-linejoin:miter;" x="361.04" xlink:href="#mf82377590f" y="127.5"/>
     <use style="fill:#0000ff;stroke:#0000ff;stroke-linejoin:miter;" x="361.04" xlink:href="#mf82377590f" y="120.053333"/>
     <use style="fill:#0000ff;stroke:#0000ff;stroke-linejoin:miter;" x="374.650667" xlink:href="#mf82377590f" y="127.5"/>
     <use style="fill:#0000ff;stroke:#0000ff;stroke-linejoin:miter;" x="354.234667" xlink:href="#mf82377590f" y="142.393333"/>
     <use style="fill:#0000ff;stroke:#0000ff;stroke-linejoin:miter;" x="333.818667" xlink:href="#mf82377590f" y="142.393333"/>
     <use style="fill:#0000ff;stroke:#0000ff;stroke-linejoin:miter;" x="327.013333" xlink:href="#mf82377590f" y="142.393333"/>
     <use style="fill:#0000ff;stroke:#0000ff;stroke-linejoin:miter;" x="354.234667" xlink:href="#mf82377590f" y="149.84"/>
     <use style="fill:#0000ff;stroke:#0000ff;stroke-linejoin:miter;" x="367.845333" xlink:href="#mf82377590f" y="134.946667"/>
     <use style="fill:#0000ff;stroke:#0000ff;stroke-linejoin:miter;" x="327.013333" xlink:href="#mf82377590f" y="149.84"/>
     <use style="fill:#0000ff;stroke:#0000ff;stroke-linejoin:miter;" x="279.376" xlink:href="#mf82377590f" y="164.733333"/>
     <use style="fill:#0000ff;stroke:#0000ff;stroke-linejoin:miter;" x="340.624" xlink:href="#mf82377590f" y="142.393333"/>
     <use style="fill:#0000ff;stroke:#0000ff;stroke-linejoin:miter;" x="340.624" xlink:href="#mf82377590f" y="149.84"/>
     <use style="fill:#0000ff;stroke:#0000ff;stroke-linejoin:miter;" x="340.624" xlink:href="#mf82377590f" y="142.393333"/>
     <use style="fill:#0000ff;stroke:#0000ff;stroke-linejoin:miter;" x="347.429333" xlink:href="#mf82377590f" y="142.393333"/>
     <use style="fill:#0000ff;stroke:#0000ff;stroke-linejoin:miter;" x="258.96" xlink:href="#mf82377590f" y="157.286667"/>
     <use style="fill:#0000ff;stroke:#0000ff;stroke-linejoin:miter;" x="333.818667" xlink:href="#mf82377590f" y="142.393333"/>
    </g>
   </g>
   <g id="line2d_18">
    <defs>
     <path d="M 0 -3 
L -3 3 
L 3 3 
z
" id="m8b90bc90c1" style="stroke:#008000;stroke-linejoin:miter;"/>
    </defs>
    <g clip-path="url(#pad347d04e8)">
     <use style="fill:#008000;stroke:#008000;stroke-linejoin:miter;" x="463.12" xlink:href="#m8b90bc90c1" y="53.033333"/>
     <use style="fill:#008000;stroke:#008000;stroke-linejoin:miter;" x="401.872" xlink:href="#m8b90bc90c1" y="97.713333"/>
     <use style="fill:#008000;stroke:#008000;stroke-linejoin:miter;" x="456.314667" xlink:href="#m8b90bc90c1" y="82.82"/>
     <use style="fill:#008000;stroke:#008000;stroke-linejoin:miter;" x="435.898667" xlink:href="#m8b90bc90c1" y="105.16"/>
     <use style="fill:#008000;stroke:#008000;stroke-linejoin:miter;" x="449.509333" xlink:href="#m8b90bc90c1" y="75.373333"/>
     <use style="fill:#008000;stroke:#008000;stroke-linejoin:miter;" x="503.952" xlink:href="#m8b90bc90c1" y="82.82"/>
     <use style="fill:#008000;stroke:#008000;stroke-linejoin:miter;" x="361.04" xlink:href="#m8b90bc90c1" y="112.606667"/>
     <use style="fill:#008000;stroke:#008000;stroke-linejoin:miter;" x="483.536" xlink:href="#m8b90bc90c1" y="105.16"/>
     <use style="fill:#008000;stroke:#008000;stroke-linejoin:miter;" x="449.509333" xlink:href="#m8b90bc90c1" y="105.16"/>
     <use style="fill:#008000;stroke:#008000;stroke-linejoin:miter;" x="469.925333" xlink:href="#m8b90bc90c1" y="53.033333"/>
     <use style="fill:#008000;stroke:#008000;stroke-linejoin:miter;" x="401.872" xlink:href="#m8b90bc90c1" y="90.266667"/>
     <use style="fill:#008000;stroke:#008000;stroke-linejoin:miter;" x="415.482667" xlink:href="#m8b90bc90c1" y="97.713333"/>
     <use style="fill:#008000;stroke:#008000;stroke-linejoin:miter;" x="429.093333" xlink:href="#m8b90bc90c1" y="82.82"/>
     <use style="fill:#008000;stroke:#008000;stroke-linejoin:miter;" x="395.066667" xlink:href="#m8b90bc90c1" y="90.266667"/>
     <use style="fill:#008000;stroke:#008000;stroke-linejoin:miter;" x="401.872" xlink:href="#m8b90bc90c1" y="60.48"/>
     <use style="fill:#008000;stroke:#008000;stroke-linejoin:miter;" x="415.482667" xlink:href="#m8b90bc90c1" y="67.926667"/>
     <use style="fill:#008000;stroke:#008000;stroke-linejoin:miter;" x="429.093333" xlink:href="#m8b90bc90c1" y="105.16"/>
     <use style="fill:#008000;stroke:#008000;stroke-linejoin:miter;" x="510.757333" xlink:href="#m8b90bc90c1" y="75.373333"/>
     <use style="fill:#008000;stroke:#008000;stroke-linejoin:miter;" x="524.368" xlink:href="#m8b90bc90c1" y="67.926667"/>
     <use style="fill:#008000;stroke:#008000;stroke-linejoin:miter;" x="395.066667" xlink:href="#m8b90bc90c1" y="127.5"/>
     <use style="fill:#008000;stroke:#008000;stroke-linejoin:miter;" x="442.704" xlink:href="#m8b90bc90c1" y="67.926667"/>
     <use style="fill:#008000;stroke:#008000;stroke-linejoin:miter;" x="388.261333" xlink:href="#m8b90bc90c1" y="90.266667"/>
     <use style="fill:#008000;stroke:#008000;stroke-linejoin:miter;" x="510.757333" xlink:href="#m8b90bc90c1" y="90.266667"/>
     <use style="fill:#008000;stroke:#008000;stroke-linejoin:miter;" x="388.261333" xlink:href="#m8b90bc90c1" y="105.16"/>
     <use style="fill:#008000;stroke:#008000;stroke-linejoin:miter;" x="442.704" xlink:href="#m8b90bc90c1" y="82.82"/>
     <use style="fill:#008000;stroke:#008000;stroke-linejoin:miter;" x="463.12" xlink:href="#m8b90bc90c1" y="105.16"/>
     <use style="fill:#008000;stroke:#008000;stroke-linejoin:miter;" x="381.456" xlink:href="#m8b90bc90c1" y="105.16"/>
     <use style="fill:#008000;stroke:#008000;stroke-linejoin:miter;" x="388.261333" xlink:href="#m8b90bc90c1" y="105.16"/>
     <use style="fill:#008000;stroke:#008000;stroke-linejoin:miter;" x="435.898667" xlink:href="#m8b90bc90c1" y="82.82"/>
     <use style="fill:#008000;stroke:#008000;stroke-linejoin:miter;" x="449.509333" xlink:href="#m8b90bc90c1" y="120.053333"/>
     <use style="fill:#008000;stroke:#008000;stroke-linejoin:miter;" x="469.925333" xlink:href="#m8b90bc90c1" y="97.713333"/>
     <use style="fill:#008000;stroke:#008000;stroke-linejoin:miter;" x="490.341333" xlink:href="#m8b90bc90c1" y="90.266667"/>
     <use style="fill:#008000;stroke:#008000;stroke-linejoin:miter;" x="435.898667" xlink:href="#m8b90bc90c1" y="75.373333"/>
     <use style="fill:#008000;stroke:#008000;stroke-linejoin:miter;" x="401.872" xlink:href="#m8b90bc90c1" y="127.5"/>
     <use style="fill:#008000;stroke:#008000;stroke-linejoin:miter;" x="435.898667" xlink:href="#m8b90bc90c1" y="134.946667"/>
     <use style="fill:#008000;stroke:#008000;stroke-linejoin:miter;" x="469.925333" xlink:href="#m8b90bc90c1" y="67.926667"/>
     <use style="fill:#008000;stroke:#008000;stroke-linejoin:miter;" x="435.898667" xlink:href="#m8b90bc90c1" y="60.48"/>
     <use style="fill:#008000;stroke:#008000;stroke-linejoin:miter;" x="429.093333" xlink:href="#m8b90bc90c1" y="105.16"/>
     <use style="fill:#008000;stroke:#008000;stroke-linejoin:miter;" x="381.456" xlink:href="#m8b90bc90c1" y="105.16"/>
     <use style="fill:#008000;stroke:#008000;stroke-linejoin:miter;" x="422.288" xlink:href="#m8b90bc90c1" y="82.82"/>
     <use style="fill:#008000;stroke:#008000;stroke-linejoin:miter;" x="435.898667" xlink:href="#m8b90bc90c1" y="60.48"/>
     <use style="fill:#008000;stroke:#008000;stroke-linejoin:miter;" x="401.872" xlink:href="#m8b90bc90c1" y="67.926667"/>
     <use style="fill:#008000;stroke:#008000;stroke-linejoin:miter;" x="401.872" xlink:href="#m8b90bc90c1" y="97.713333"/>
     <use style="fill:#008000;stroke:#008000;stroke-linejoin:miter;" x="456.314667" xlink:href="#m8b90bc90c1" y="67.926667"/>
     <use style="fill:#008000;stroke:#008000;stroke-linejoin:miter;" x="442.704" xlink:href="#m8b90bc90c1" y="53.033333"/>
     <use style="fill:#008000;stroke:#008000;stroke-linejoin:miter;" x="408.677333" xlink:href="#m8b90bc90c1" y="67.926667"/>
     <use style="fill:#008000;stroke:#008000;stroke-linejoin:miter;" x="395.066667" xlink:href="#m8b90bc90c1" y="97.713333"/>
     <use style="fill:#008000;stroke:#008000;stroke-linejoin:miter;" x="408.677333" xlink:href="#m8b90bc90c1" y="90.266667"/>
     <use style="fill:#008000;stroke:#008000;stroke-linejoin:miter;" x="422.288" xlink:href="#m8b90bc90c1" y="67.926667"/>
     <use style="fill:#008000;stroke:#008000;stroke-linejoin:miter;" x="401.872" xlink:href="#m8b90bc90c1" y="105.16"/>
    </g>
   </g>
   <g id="line2d_19">
    <path clip-path="url(#pad347d04e8)" d="M 221.530667 239.2 
L 221.530667 15.8 
" style="fill:none;stroke:#000000;stroke-linecap:square;stroke-width:2;"/>
   </g>
   <g id="line2d_20">
    <path clip-path="url(#pad347d04e8)" d="M 221.530667 108.883333 
L 565.2 108.883333 
" style="fill:none;stroke:#000000;stroke-dasharray:7.4,3.2;stroke-dashoffset:0;stroke-width:2;"/>
   </g>
   <g id="line2d_21">
    <path clip-path="url(#pad347d04e8)" d="M 391.664 239.2 
L 391.664 108.883333 
" style="fill:none;stroke:#000000;stroke-dasharray:2,3.3;stroke-dashoffset:0;stroke-width:2;"/>
   </g>
   <g id="line2d_22">
    <path clip-path="url(#pad347d04e8)" d="M 384.858667 108.883333 
L 384.858667 15.8 
" style="fill:none;stroke:#000000;stroke-dasharray:2,3.3;stroke-dashoffset:0;stroke-width:2;"/>
   </g>
   <g id="patch_3">
    <path d="M 54.8 239.2 
L 54.8 15.8 
" style="fill:none;stroke:#000000;stroke-linecap:square;stroke-linejoin:miter;stroke-width:0.8;"/>
   </g>
   <g id="patch_4">
    <path d="M 565.2 239.2 
L 565.2 15.8 
" style="fill:none;stroke:#000000;stroke-linecap:square;stroke-linejoin:miter;stroke-width:0.8;"/>
   </g>
   <g id="patch_5">
    <path d="M 54.8 239.2 
L 565.2 239.2 
" style="fill:none;stroke:#000000;stroke-linecap:square;stroke-linejoin:miter;stroke-width:0.8;"/>
   </g>
   <g id="patch_6">
    <path d="M 54.8 15.8 
L 565.2 15.8 
" style="fill:none;stroke:#000000;stroke-linecap:square;stroke-linejoin:miter;stroke-width:0.8;"/>
   </g>
   <g id="text_18">
    <!-- Depth=0 -->
    <defs>
     <path d="M 19.671875 64.796875 
L 19.671875 8.109375 
L 31.59375 8.109375 
Q 46.6875 8.109375 53.6875 14.9375 
Q 60.6875 21.78125 60.6875 36.53125 
Q 60.6875 51.171875 53.6875 57.984375 
Q 46.6875 64.796875 31.59375 64.796875 
z
M 9.8125 72.90625 
L 30.078125 72.90625 
Q 51.265625 72.90625 61.171875 64.09375 
Q 71.09375 55.28125 71.09375 36.53125 
Q 71.09375 17.671875 61.125 8.828125 
Q 51.171875 0 30.078125 0 
L 9.8125 0 
z
" id="DejaVuSans-68"/>
     <path d="M 18.109375 8.203125 
L 18.109375 -20.796875 
L 9.078125 -20.796875 
L 9.078125 54.6875 
L 18.109375 54.6875 
L 18.109375 46.390625 
Q 20.953125 51.265625 25.265625 53.625 
Q 29.59375 56 35.59375 56 
Q 45.5625 56 51.78125 48.09375 
Q 58.015625 40.1875 58.015625 27.296875 
Q 58.015625 14.40625 51.78125 6.484375 
Q 45.5625 -1.421875 35.59375 -1.421875 
Q 29.59375 -1.421875 25.265625 0.953125 
Q 20.953125 3.328125 18.109375 8.203125 
z
M 48.6875 27.296875 
Q 48.6875 37.203125 44.609375 42.84375 
Q 40.53125 48.484375 33.40625 48.484375 
Q 26.265625 48.484375 22.1875 42.84375 
Q 18.109375 37.203125 18.109375 27.296875 
Q 18.109375 17.390625 22.1875 11.75 
Q 26.265625 6.109375 33.40625 6.109375 
Q 40.53125 6.109375 44.609375 11.75 
Q 48.6875 17.390625 48.6875 27.296875 
z
" id="DejaVuSans-112"/>
     <path d="M 10.59375 45.40625 
L 73.1875 45.40625 
L 73.1875 37.203125 
L 10.59375 37.203125 
z
M 10.59375 25.484375 
L 73.1875 25.484375 
L 73.1875 17.1875 
L 10.59375 17.1875 
z
" id="DejaVuSans-61"/>
    </defs>
    <g transform="translate(150.074667 164.733333)scale(0.15 -0.15)">
     <use xlink:href="#DejaVuSans-68"/>
     <use x="77.001953" xlink:href="#DejaVuSans-101"/>
     <use x="138.525391" xlink:href="#DejaVuSans-112"/>
     <use x="202.001953" xlink:href="#DejaVuSans-116"/>
     <use x="241.210938" xlink:href="#DejaVuSans-104"/>
     <use x="304.589844" xlink:href="#DejaVuSans-61"/>
     <use x="388.378906" xlink:href="#DejaVuSans-48"/>
    </g>
   </g>
   <g id="text_19">
    <!-- Depth=1 -->
    <g transform="translate(272.570667 105.16)scale(0.13 -0.13)">
     <use xlink:href="#DejaVuSans-68"/>
     <use x="77.001953" xlink:href="#DejaVuSans-101"/>
     <use x="138.525391" xlink:href="#DejaVuSans-112"/>
     <use x="202.001953" xlink:href="#DejaVuSans-116"/>
     <use x="241.210938" xlink:href="#DejaVuSans-104"/>
     <use x="304.589844" xlink:href="#DejaVuSans-61"/>
     <use x="388.378906" xlink:href="#DejaVuSans-49"/>
    </g>
   </g>
   <g id="text_20">
    <!-- (Depth=2) -->
    <defs>
     <path d="M 31 75.875 
Q 24.46875 64.65625 21.28125 53.65625 
Q 18.109375 42.671875 18.109375 31.390625 
Q 18.109375 20.125 21.3125 9.0625 
Q 24.515625 -2 31 -13.1875 
L 23.1875 -13.1875 
Q 15.875 -1.703125 12.234375 9.375 
Q 8.59375 20.453125 8.59375 31.390625 
Q 8.59375 42.28125 12.203125 53.3125 
Q 15.828125 64.359375 23.1875 75.875 
z
" id="DejaVuSans-40"/>
     <path d="M 8.015625 75.875 
L 15.828125 75.875 
Q 23.140625 64.359375 26.78125 53.3125 
Q 30.421875 42.28125 30.421875 31.390625 
Q 30.421875 20.453125 26.78125 9.375 
Q 23.140625 -1.703125 15.828125 -13.1875 
L 8.015625 -13.1875 
Q 14.5 -2 17.703125 9.0625 
Q 20.90625 20.125 20.90625 31.390625 
Q 20.90625 42.671875 17.703125 53.65625 
Q 14.5 64.65625 8.015625 75.875 
z
" id="DejaVuSans-41"/>
    </defs>
    <g transform="translate(330.416 201.966667)scale(0.11 -0.11)">
     <use xlink:href="#DejaVuSans-40"/>
     <use x="39.013672" xlink:href="#DejaVuSans-68"/>
     <use x="116.015625" xlink:href="#DejaVuSans-101"/>
     <use x="177.539062" xlink:href="#DejaVuSans-112"/>
     <use x="241.015625" xlink:href="#DejaVuSans-116"/>
     <use x="280.224609" xlink:href="#DejaVuSans-104"/>
     <use x="343.603516" xlink:href="#DejaVuSans-61"/>
     <use x="427.392578" xlink:href="#DejaVuSans-50"/>
     <use x="491.015625" xlink:href="#DejaVuSans-41"/>
    </g>
   </g>
  </g>
 </g>
 <defs>
  <clipPath id="pad347d04e8">
   <rect height="223.4" width="510.4" x="54.8" y="15.8"/>
  </clipPath>
 </defs>
</svg>
