<?xml version="1.0" encoding="UTF-8" standalone="no"?>
<!DOCTYPE svg PUBLIC "-//W3C//DTD SVG 1.1//EN"
 "http://www.w3.org/Graphics/SVG/1.1/DTD/svg11.dtd">
<!-- Generated by graphviz version 2.38.0 (20140413.2041)
 -->
<!-- Title: Tree Pages: 1 -->
<svg width="482pt" height="269pt"
 viewBox="0.00 0.00 482.00 269.00" xmlns="http://www.w3.org/2000/svg" xmlns:xlink="http://www.w3.org/1999/xlink">
<g id="graph0" class="graph" transform="scale(1 1) rotate(0) translate(4 265)">
<title>Tree</title>
<polygon fill="white" stroke="none" points="-4,4 -4,-265 478,-265 478,4 -4,4"/>
<!-- 0 -->
<g id="node1" class="node"><title>0</title>
<path fill="#f6d6be" stroke="black" d="M278,-261C278,-261 191,-261 191,-261 185,-261 179,-255 179,-249 179,-249 179,-205 179,-205 179,-199 185,-193 191,-193 191,-193 278,-193 278,-193 284,-193 290,-199 290,-205 290,-205 290,-249 290,-249 290,-255 284,-261 278,-261"/>
<text text-anchor="middle" x="234.5" y="-245.8" font-family="Helvetica,sans-Serif" font-size="14.00">x1 &lt;= 0.197</text>
<text text-anchor="middle" x="234.5" y="-230.8" font-family="Helvetica,sans-Serif" font-size="14.00">mse = 0.098</text>
<text text-anchor="middle" x="234.5" y="-215.8" font-family="Helvetica,sans-Serif" font-size="14.00">samples = 200</text>
<text text-anchor="middle" x="234.5" y="-200.8" font-family="Helvetica,sans-Serif" font-size="14.00">value = 0.354</text>
</g>
<!-- 1 -->
<g id="node2" class="node"><title>1</title>
<path fill="#eb9d65" stroke="black" d="M212,-157C212,-157 133,-157 133,-157 127,-157 121,-151 121,-145 121,-145 121,-101 121,-101 121,-95 127,-89 133,-89 133,-89 212,-89 212,-89 218,-89 224,-95 224,-101 224,-101 224,-145 224,-145 224,-151 218,-157 212,-157"/>
<text text-anchor="middle" x="172.5" y="-141.8" font-family="Helvetica,sans-Serif" font-size="14.00">x1 &lt;= 0.092</text>
<text text-anchor="middle" x="172.5" y="-126.8" font-family="Helvetica,sans-Serif" font-size="14.00">mse = 0.038</text>
<text text-anchor="middle" x="172.5" y="-111.8" font-family="Helvetica,sans-Serif" font-size="14.00">samples = 44</text>
<text text-anchor="middle" x="172.5" y="-96.8" font-family="Helvetica,sans-Serif" font-size="14.00">value = 0.689</text>
</g>
<!-- 0&#45;&gt;1 -->
<g id="edge1" class="edge"><title>0&#45;&gt;1</title>
<path fill="none" stroke="black" d="M214.37,-192.884C209.173,-184.332 203.508,-175.013 198.073,-166.072"/>
<polygon fill="black" stroke="black" points="200.926,-164.027 192.741,-157.299 194.944,-167.663 200.926,-164.027"/>
<text text-anchor="middle" x="186.817" y="-177.887" font-family="Helvetica,sans-Serif" font-size="14.00">True</text>
</g>
<!-- 4 -->
<g id="node5" class="node"><title>4</title>
<path fill="#fae6d7" stroke="black" d="M341,-157C341,-157 254,-157 254,-157 248,-157 242,-151 242,-145 242,-145 242,-101 242,-101 242,-95 248,-89 254,-89 254,-89 341,-89 341,-89 347,-89 353,-95 353,-101 353,-101 353,-145 353,-145 353,-151 347,-157 341,-157"/>
<text text-anchor="middle" x="297.5" y="-141.8" font-family="Helvetica,sans-Serif" font-size="14.00">x1 &lt;= 0.772</text>
<text text-anchor="middle" x="297.5" y="-126.8" font-family="Helvetica,sans-Serif" font-size="14.00">mse = 0.074</text>
<text text-anchor="middle" x="297.5" y="-111.8" font-family="Helvetica,sans-Serif" font-size="14.00">samples = 156</text>
<text text-anchor="middle" x="297.5" y="-96.8" font-family="Helvetica,sans-Serif" font-size="14.00">value = 0.259</text>
</g>
<!-- 0&#45;&gt;4 -->
<g id="edge4" class="edge"><title>0&#45;&gt;4</title>
<path fill="none" stroke="black" d="M254.954,-192.884C260.236,-184.332 265.992,-175.013 271.514,-166.072"/>
<polygon fill="black" stroke="black" points="274.656,-167.647 276.933,-157.299 268.7,-163.968 274.656,-167.647"/>
<text text-anchor="middle" x="282.683" y="-177.929" font-family="Helvetica,sans-Serif" font-size="14.00">False</text>
</g>
<!-- 2 -->
<g id="node3" class="node"><title>2</title>
<path fill="#e58139" stroke="black" d="M91,-53C91,-53 12,-53 12,-53 6,-53 0,-47 0,-41 0,-41 0,-12 0,-12 0,-6 6,-0 12,-0 12,-0 91,-0 91,-0 97,-0 103,-6 103,-12 103,-12 103,-41 103,-41 103,-47 97,-53 91,-53"/>
<text text-anchor="middle" x="51.5" y="-37.8" font-family="Helvetica,sans-Serif" font-size="14.00">mse = 0.018</text>
<text text-anchor="middle" x="51.5" y="-22.8" font-family="Helvetica,sans-Serif" font-size="14.00">samples = 20</text>
<text text-anchor="middle" x="51.5" y="-7.8" font-family="Helvetica,sans-Serif" font-size="14.00">value = 0.854</text>
</g>
<!-- 1&#45;&gt;2 -->
<g id="edge2" class="edge"><title>1&#45;&gt;2</title>
<path fill="none" stroke="black" d="M130.18,-88.9485C117.998,-79.4346 104.732,-69.074 92.624,-59.6175"/>
<polygon fill="black" stroke="black" points="94.4895,-56.6335 84.4539,-53.2367 90.1808,-62.1504 94.4895,-56.6335"/>
</g>
<!-- 3 -->
<g id="node4" class="node"><title>3</title>
<path fill="#f0b489" stroke="black" d="M212,-53C212,-53 133,-53 133,-53 127,-53 121,-47 121,-41 121,-41 121,-12 121,-12 121,-6 127,-0 133,-0 133,-0 212,-0 212,-0 218,-0 224,-6 224,-12 224,-12 224,-41 224,-41 224,-47 218,-53 212,-53"/>
<text text-anchor="middle" x="172.5" y="-37.8" font-family="Helvetica,sans-Serif" font-size="14.00">mse = 0.013</text>
<text text-anchor="middle" x="172.5" y="-22.8" font-family="Helvetica,sans-Serif" font-size="14.00">samples = 24</text>
<text text-anchor="middle" x="172.5" y="-7.8" font-family="Helvetica,sans-Serif" font-size="14.00">value = 0.552</text>
</g>
<!-- 1&#45;&gt;3 -->
<g id="edge3" class="edge"><title>1&#45;&gt;3</title>
<path fill="none" stroke="black" d="M172.5,-88.9485C172.5,-80.7153 172.5,-71.848 172.5,-63.4814"/>
<polygon fill="black" stroke="black" points="176,-63.2367 172.5,-53.2367 169,-63.2367 176,-63.2367"/>
</g>
<!-- 5 -->
<g id="node6" class="node"><title>5</title>
<path fill="#ffffff" stroke="black" d="M341,-53C341,-53 254,-53 254,-53 248,-53 242,-47 242,-41 242,-41 242,-12 242,-12 242,-6 248,-0 254,-0 254,-0 341,-0 341,-0 347,-0 353,-6 353,-12 353,-12 353,-41 353,-41 353,-47 347,-53 341,-53"/>
<text text-anchor="middle" x="297.5" y="-37.8" font-family="Helvetica,sans-Serif" font-size="14.00">mse = 0.015</text>
<text text-anchor="middle" x="297.5" y="-22.8" font-family="Helvetica,sans-Serif" font-size="14.00">samples = 110</text>
<text text-anchor="middle" x="297.5" y="-7.8" font-family="Helvetica,sans-Serif" font-size="14.00">value = 0.111</text>
</g>
<!-- 4&#45;&gt;5 -->
<g id="edge5" class="edge"><title>4&#45;&gt;5</title>
<path fill="none" stroke="black" d="M297.5,-88.9485C297.5,-80.7153 297.5,-71.848 297.5,-63.4814"/>
<polygon fill="black" stroke="black" points="301,-63.2367 297.5,-53.2367 294,-63.2367 301,-63.2367"/>
</g>
<!-- 6 -->
<g id="node7" class="node"><title>6</title>
<path fill="#edaa79" stroke="black" d="M462,-53C462,-53 383,-53 383,-53 377,-53 371,-47 371,-41 371,-41 371,-12 371,-12 371,-6 377,-0 383,-0 383,-0 462,-0 462,-0 468,-0 474,-6 474,-12 474,-12 474,-41 474,-41 474,-47 468,-53 462,-53"/>
<text text-anchor="middle" x="422.5" y="-37.8" font-family="Helvetica,sans-Serif" font-size="14.00">mse = 0.036</text>
<text text-anchor="middle" x="422.5" y="-22.8" font-family="Helvetica,sans-Serif" font-size="14.00">samples = 46</text>
<text text-anchor="middle" x="422.5" y="-7.8" font-family="Helvetica,sans-Serif" font-size="14.00">value = 0.615</text>
</g>
<!-- 4&#45;&gt;6 -->
<g id="edge6" class="edge"><title>4&#45;&gt;6</title>
<path fill="none" stroke="black" d="M341.219,-88.9485C353.924,-79.3431 367.772,-68.8747 380.377,-59.345"/>
<polygon fill="black" stroke="black" points="382.59,-62.0593 388.457,-53.2367 378.369,-56.4754 382.59,-62.0593"/>
</g>
</g>
</svg>
